<svg width="310" height="685" viewBox="0 0 310 685" fill="none" xmlns="http://www.w3.org/2000/svg">
<g clip-path="url(#clip0_237_1971)">
<path d="M281.858 121.766C254.112 135.925 226.447 150.164 198.943 164.889C181.39 174.517 163.513 183.741 146.121 193.611C159.145 187.058 172.168 180.342 185.111 173.627C217.387 156.556 249.825 139.484 281.858 121.766Z" fill="#F9F9F9"/>
<path d="M37.887 519.587C36.5119 518.859 33.6805 517.241 33.1953 519.749C35.2984 522.419 38.1298 524.441 40.7184 526.545C47.5941 532.047 53.7419 538.358 60.6987 543.698C63.2872 545.882 63.368 549.442 64.0961 552.435C64.8241 551.06 64.3387 549.523 64.1769 548.066C63.2062 540.623 63.0444 533.099 63.9342 525.655C64.1768 521.205 65.3903 516.917 65.6329 512.467C65.0667 514.166 64.7431 516.027 64.4194 517.807C62.2353 516.513 62.9633 513.6 63.0444 511.577C62.0738 513.519 62.3971 515.784 62.2356 517.888C58.272 515.056 54.7936 511.658 51.2344 508.422C54.0655 512.548 57.9483 515.865 62.1548 518.535C62.8021 518.616 63.3683 518.616 64.0153 518.697C61.9122 527.516 62.3974 536.739 62.9636 545.72C55.7639 536.092 48.3219 525.979 37.887 519.587Z" fill="#F9F9F9"/>
<path d="M61.9148 541.998C61.2676 538.034 59.6499 534.312 58.9219 530.348C59.2455 534.312 59.8928 538.519 61.9148 541.998Z" fill="#F9F9F9"/>
<path d="M54.1485 541.513C48.8096 539.167 44.0369 535.85 38.6172 533.746C42.5808 537.953 48.0815 541.837 54.1485 541.513Z" fill="#F9F9F9"/>
<path d="M283.882 546.285C286.066 545.8 288.007 544.02 288.493 541.755C288.573 540.379 288.169 538.195 286.066 539.166C286.228 539.57 286.47 540.298 286.632 540.703C284.852 538.761 282.911 536.981 280.889 535.363C277.734 536.091 274.579 537.143 271.343 537.386C275.226 540.622 278.624 544.749 283.396 546.852C283.154 547.661 282.83 548.47 282.587 549.36C254.599 551.059 226.61 553.568 198.703 556.157C195.548 556.723 192.15 556.399 189.076 557.37C187.54 557.451 186.083 557.532 184.547 557.532L184.466 558.341C181.311 558.26 178.237 558.26 175.163 558.584C171.604 559.798 167.64 558.584 164.081 559.878C161.331 560.121 158.58 560.04 155.911 560.525C152.109 561.334 148.226 560.768 144.424 561.496C142.078 562.063 139.409 560.687 137.387 562.467C140.056 562.629 142.564 561.901 145.233 561.658C148.712 561.173 152.352 561.577 155.83 560.93C158.985 560.364 162.22 561.092 165.294 560.121C168.125 559.878 170.876 560.121 173.707 559.635C178.48 558.826 183.333 559.716 188.025 558.584C192.393 558.664 196.68 558.098 200.967 557.694C220.058 556.237 239.068 554.214 258.158 552.435C277.653 550.655 297.067 548.147 316.562 546.69C305.318 547.014 294.074 548.308 282.911 549.199C283.235 548.066 283.558 547.176 283.882 546.285ZM281.131 543.292C278.785 542.24 277.168 540.056 275.469 538.195C277.087 537.629 278.704 536.981 280.322 536.577C282.102 537.709 282.83 539.894 283.881 541.674C282.992 542.24 282.264 543.211 281.131 543.292Z" fill="#F9F9F9"/>
<path d="M198.218 549.927C196.843 547.581 194.983 545.639 192.96 543.859C190.21 545.154 187.379 546.125 184.305 545.963C186.408 548.471 187.459 551.788 189.805 554.054C193.203 554.539 196.277 552.516 198.218 549.927ZM192.232 545.154C193.688 546.448 194.82 547.986 195.468 549.846C194.173 550.494 192.879 551.626 191.342 551.384C189.644 550.575 188.916 548.714 187.783 547.257C189.32 546.61 190.776 545.882 192.232 545.154Z" fill="#F9F9F9"/>
<path d="M127.114 551.707C123.555 552.031 120.076 553.406 116.355 553.083C119.915 555.105 121.856 558.908 124.607 561.821C127.438 561.173 131.24 560.121 132.13 557.047C131.158 554.943 129.136 552.92 127.114 551.707ZM125.901 558.989C123.959 557.613 122.503 555.752 120.885 554.053C122.827 553.649 124.768 553.082 126.709 552.759C128.246 553.406 128.732 555.186 129.622 556.4C128.651 557.532 127.599 558.989 125.901 558.989Z" fill="#F9F9F9"/>
<path d="M63.6944 579.053C63.2089 575.736 62.2383 572.5 61.3484 569.264C60.1352 564.894 55.6861 562.71 51.9648 560.688C53.8253 563.115 56.0095 565.299 57.4656 567.969C59.4879 571.691 61.3484 575.574 63.6944 579.053Z" fill="#F9F9F9"/>
<path d="M73.3983 587.711C71.1334 582.613 68.383 577.597 65.0664 573.066C67.5742 579.377 70.6479 585.445 73.9645 591.351C73.8837 590.138 73.6411 588.924 73.3983 587.711Z" fill="#F9F9F9"/>
<path d="M30.3672 582.29C39.0227 585.93 47.6782 589.491 56.1716 593.536C61.5105 595.801 66.6066 598.633 72.1073 600.494C71.5411 599.28 70.9749 598.229 70.3276 597.096C70.6512 596.853 71.3793 596.448 71.7027 596.287C65.2313 588.762 56.0095 584.717 47.1925 580.672C51.4797 584.07 56.6568 586.254 60.944 589.733C63.6944 591.999 66.6063 594.183 69.0333 596.691C66.283 595.478 63.5326 594.102 60.6207 593.212C50.5901 589.652 40.7214 585.203 30.3672 582.29Z" fill="#F9F9F9"/>
<path d="M111.176 668.292C107.213 668.211 103.249 668.292 99.2042 668.05C81.1654 666.755 63.0456 665.46 44.9257 665.299C31.4168 664.651 17.9886 665.218 4.47961 665.299C-0.373854 665.46 -5.22732 665.056 -10 665.703C30.3653 666.431 70.7304 669.02 111.176 668.292Z" fill="#F9F9F9"/>
<path d="M607.125 671.287C564.737 672.744 522.512 675.899 480.205 678.326C471.55 678.731 462.975 679.54 454.32 679.54C415.734 678.084 377.149 677.517 338.644 676.304C274.739 674.524 210.754 672.825 146.849 670.964C126.869 670.397 106.969 669.265 86.9893 669.426C64.8248 669.265 42.6606 669.184 20.4961 669.831C23.1654 670.802 26.0776 670.478 28.828 670.64C74.9364 672.986 121.045 674.362 167.153 675.818C199.267 677.032 231.3 677.841 263.415 678.812C319.635 680.672 375.854 681.886 432.074 683.909C440.326 684.151 448.496 684.799 456.746 684.556C505.282 680.187 553.817 676.465 602.433 672.824C612.383 672.177 622.251 670.963 632.201 670.64C623.788 670.155 615.457 671.045 607.125 671.287Z" fill="#F9F9F9"/>
<path d="M657.277 658.341C649.674 658.908 642.07 658.746 634.547 659.96C627.267 660.122 620.067 661.012 612.787 661.497C602.837 662.468 592.807 662.791 582.938 664.086C550.581 667.322 518.143 669.264 485.868 673.228C475.594 674.037 465.321 675.494 455.048 676.384C443.966 676.141 432.883 675.008 421.801 674.28C396.24 672.015 370.597 671.125 345.035 668.455C336.137 668.536 327.239 667.727 318.34 668.374C297.632 666.918 276.762 666.756 256.054 665.219C253.465 665.057 250.796 665.542 248.207 665.138C262.687 664.895 277.167 665.623 291.727 665.462C298.199 665.3 304.751 665.866 311.141 667.323C314.62 667.727 318.26 668.941 321.819 667.889C331.203 666.837 340.586 667.97 349.97 668.455C361.861 667.97 373.671 665.624 385.643 665.462C387.504 665.381 389.283 666.19 390.82 667.161C385.077 668.051 379.333 668.86 373.509 669.345C384.187 670.154 395.026 669.588 405.542 667.565C407.16 667.242 406.27 665.057 406.675 663.925C410.719 664.005 414.845 663.925 418.97 663.52C431.589 662.711 444.289 661.983 456.909 661.821C464.432 663.035 472.035 662.387 479.639 661.821C497.355 660.203 515.232 660.446 532.785 657.938C533.19 658.099 534.08 658.342 534.484 658.504L535.131 659.313C534.403 661.659 532.623 663.925 533.837 666.433C537.639 666.918 541.441 666.19 545.243 665.947C555.678 665.138 566.194 664.167 576.629 663.844C580.835 663.601 585.203 663.601 589.167 661.983C588.277 660.931 586.821 661.012 585.527 660.931C577.923 660.769 570.319 661.093 562.715 660.688C562.392 659.718 562.311 658.666 562.149 657.695C571.29 657.533 580.431 657.29 589.571 657.371C611.412 657.533 633.172 656.805 654.932 656.319C627.995 655.915 600.977 655.672 574.04 655.267C569.429 654.539 564.818 655.267 560.207 654.62C561.34 654.458 562.553 654.458 563.686 654.458C586.336 654.863 608.985 653.488 631.635 652.921C633.172 652.921 635.113 653.568 636.246 652.193C633.334 652.112 630.422 652.759 627.51 652.597C604.941 652.274 582.372 651.545 559.803 651.707C559.803 648.309 559.722 644.911 559.722 641.513C560.612 641.108 561.502 640.785 562.392 640.461C561.421 639.652 560.45 638.924 559.561 638.115C557.215 635.202 553.089 636.577 549.854 636.335C550.096 630.186 550.177 624.118 550.582 618.05C550.905 612.953 550.501 607.774 551.633 602.839C551.553 597.337 551.714 591.755 553.413 586.496C554.141 583.098 555.435 579.7 555.193 576.221L556.002 576.302C555.435 571.043 556.73 565.945 557.053 560.767H556.164C556.164 558.987 556.164 557.207 556.164 555.508H557.862L558.186 553.648C557.781 553.486 557.053 553.243 556.73 553.162L558.995 552.92C558.59 552.434 557.862 551.544 557.458 551.059L558.752 551.706C559.561 548.631 560.855 545.719 561.907 542.725C558.671 544.91 558.428 549.522 555.436 552.03C554.546 547.256 559.48 544.424 561.017 540.46C560.936 541.107 560.855 542.483 560.774 543.13C563.606 542.078 564.819 539.004 567.246 537.385C571.452 534.392 575.335 530.913 579.946 528.486C582.777 526.625 586.094 525.33 588.278 522.579C583.748 524.845 579.299 527.272 574.931 529.78C581.564 522.66 588.682 516.026 595.154 508.825C588.682 514.165 582.777 520.233 576.629 525.978C571.857 530.751 565.871 534.392 562.15 540.217C566.194 533.259 569.43 525.816 571.533 518.049C572.099 517.402 572.585 516.754 573.151 516.107C568.379 518.049 564.739 523.308 559.238 522.984L560.208 523.308L561.179 523.632C558.105 525.25 554.788 526.382 551.553 527.758C551.553 528 551.634 528.486 551.715 528.81L552.524 528.405C559.157 525.654 565.304 522.013 571.21 517.968C567.489 524.279 565.547 531.48 561.422 537.548C559.399 540.379 557.296 543.211 555.112 545.962C553.899 540.946 551.715 536.172 549.692 531.399C549.531 531.156 549.288 530.59 549.126 530.266C548.56 529.052 547.994 527.92 547.428 526.706C547.185 526.302 546.699 525.331 546.376 524.926C546.538 524.602 546.78 523.874 546.861 523.55C546.699 523.389 546.457 523.146 546.295 523.065C544.192 521.528 542.897 519.101 541.441 516.997C540.633 515.783 539.904 514.408 539.904 512.871C539.662 506.965 539.904 501.058 539.662 495.152C539.338 488.922 539.581 482.611 539.419 476.382C539.419 468.291 539.015 460.2 539.176 452.029C539.338 450.492 538.691 448.631 539.904 447.417C543.302 443.453 546.942 439.731 550.582 435.928C562.554 423.064 574.607 410.2 586.741 397.497L586.498 397.335C570.643 413.921 554.789 430.426 539.176 447.255C539.096 430.508 538.772 413.841 538.61 397.093C538.61 391.996 538.125 386.898 538.61 381.801C540.147 380.749 541.361 379.293 542.331 377.756C541.118 379.212 539.823 380.668 538.368 381.963C538.206 376.219 538.368 370.474 538.125 364.73C538.206 362.869 537.64 360.522 539.419 359.228C543.707 353.241 547.913 347.092 551.715 340.781C559.642 328.402 567.812 316.185 575.982 303.887C588.682 284.47 602.03 265.456 614.325 245.796C596.286 272.576 578.328 299.356 560.613 326.379C553.09 337.545 546.376 349.276 538.287 360.037C538.044 356.234 537.801 352.351 538.125 348.467C544.596 337.14 551.634 326.137 558.267 314.891C570.967 293.612 583.667 272.334 595.558 250.57C576.306 282.609 557.296 314.729 538.125 346.849C537.316 327.189 537.64 307.447 537.316 287.787C536.83 287.544 535.941 286.978 535.536 286.735C536.345 280.586 535.86 274.437 535.941 268.288C535.941 248.628 535.941 228.967 536.021 209.307C535.779 207.365 536.83 205.504 536.911 203.643C523.402 196.038 509.974 188.352 496.465 180.665C489.266 176.701 482.228 172.413 474.867 168.772C475.191 168.368 475.514 167.882 475.919 167.478C482.067 166.102 487.81 163.27 493.958 161.976C494.119 165.94 493.796 169.986 494.2 173.95C495.818 170.309 494.766 166.021 495.252 162.138C509.893 168.368 523.888 176.054 538.367 182.688C537.558 182.122 536.83 181.555 536.021 180.989C522.512 172.736 508.923 164.646 495.333 156.555C494.766 152.267 495.171 147.979 494.362 143.772C493.958 148.06 493.715 152.348 493.715 156.636C486.273 159.872 478.426 162.461 471.308 166.345C470.094 165.779 468.8 165.131 467.83 164.241C467.344 161.005 467.506 157.688 467.344 154.452C467.182 135.277 467.02 116.102 466.94 96.9265C471.469 92.4766 476.566 88.7549 481.338 84.7095C479.559 83.1724 477.213 82.4442 475.595 80.7452C475.676 80.1788 475.919 79.0462 476 78.4798C449.71 61.0847 423.501 43.5278 397.534 25.6475C397.615 17.0714 396.968 8.57609 396.806 0C396.078 8.57609 396.159 17.2332 395.836 25.8093C361.133 42.557 326.35 59.2239 291.566 75.7292C296.015 79.1272 300.788 82.121 305.075 85.6809C302.648 87.3799 299.979 88.7554 297.39 90.05C289.22 94.338 281.05 98.7071 272.88 102.914C265.357 99.2734 258.32 94.5001 251.039 90.5355C249.583 89.322 246.833 88.7554 246.914 86.4901C246.428 80.2601 246.752 74.0305 245.7 67.8813C246.105 74.3539 245.377 80.8265 245.296 87.2991C245.458 88.6744 244.083 89.2407 243.112 89.8881C213.182 107.607 183.98 126.458 154.292 144.501C154.131 142.397 153.969 140.212 153.564 138.109C152.998 147.899 153.322 157.769 153.241 167.64C137.548 176.297 121.531 184.55 105.919 193.369C106.971 217.56 107.051 241.832 107.941 266.104C108.427 290.376 109.074 314.568 109.559 338.84C92.8146 332.934 76.1508 326.947 59.406 321.04C40.801 314.406 22.0339 308.419 3.50967 301.704C1.08294 300.895 -1.34379 299.924 -3.85156 299.438C-1.42483 300.328 1.16372 301.056 3.59045 302.027C38.7784 315.215 74.0475 328.322 109.559 340.62C109.963 348.144 110.125 355.75 110.125 363.274C95.6454 360.2 81.3274 356.154 66.767 353.727C81.3276 356.397 95.4836 360.604 109.882 363.84C110.772 367.32 110.368 370.96 110.53 374.52C110.772 380.588 110.772 386.657 111.096 392.724L112.148 393.372C112.148 383.744 111.905 374.035 112.148 364.407C119.913 366.834 127.841 368.776 135.687 371.041C135.687 386.575 135.525 402.19 135.606 417.725C127.921 415.783 120.075 414.489 112.39 412.547C112.229 406.317 112.229 400.168 112.148 393.938H110.934C111.096 400.087 111.258 406.317 111.177 412.466C87.7993 407.449 64.2598 402.999 40.801 398.468C31.9029 396.769 23.0856 394.666 14.1875 393.29C46.6251 399.763 78.8201 407.045 111.258 413.517C111.42 425.168 111.581 436.737 111.5 448.388C87.3946 443.291 63.2889 438.356 39.1828 433.744C28.1006 431.64 17.1802 429.051 6.01718 427.271C27.3726 431.559 48.6472 436.414 69.9218 440.783C83.7544 443.776 97.6678 446.365 111.581 449.44C111.581 454.214 111.662 459.068 111.581 463.842C94.2701 460.362 76.9594 457.45 59.5676 454.375C58.1925 454.133 56.7364 454.052 55.3611 453.971C64.9065 455.427 74.2898 457.531 83.6733 459.311C92.8951 461.334 102.278 462.709 111.5 464.732C111.662 468.211 111.581 471.609 111.581 475.088C82.6214 469.829 53.5004 465.217 24.4601 460.362C20.9817 459.796 17.5843 458.825 14.1059 458.825C20.0918 459.472 25.9162 461.01 31.8213 461.9C52.3679 465.703 72.9953 469.343 93.5418 473.146C91.7621 479.457 91.6003 486.01 91.1959 492.483C90.9533 504.053 90.6296 515.703 91.6003 527.273C91.4385 532.694 92.8945 538.034 92.0857 543.455C91.9239 541.027 91.9239 538.681 91.7621 536.335C91.2766 536.901 90.8722 537.468 90.387 538.034C90.8725 542.322 91.2769 546.529 91.3577 550.817C91.4385 552.274 92.0857 554.053 91.6813 555.429C89.1735 546.205 88.4458 536.659 86.666 527.273C85.291 521.124 84.8055 514.814 83.8349 508.665C84.2393 522.581 85.4528 536.659 89.3356 550.17C89.9019 551.95 89.9829 553.811 90.1445 555.672L91.6005 555.591C91.4387 556.157 91.0343 556.724 90.2252 557.047C90.2252 559.394 90.0634 561.659 89.8208 564.006C87.9603 559.798 87.1512 555.187 85.3718 550.899C86.3424 556.724 88.931 562.63 87.3941 568.617C86.2616 573.148 85.1292 577.76 85.4528 582.453C85.8572 586.66 84.8055 590.786 83.8349 594.831C83.0261 589.33 81.8934 583.909 81.0845 578.488C81.0038 572.42 80.8419 566.352 80.5991 560.365C82.5404 566.109 81.9741 572.42 82.6214 578.407C83.6731 569.993 81.9741 561.498 80.6799 553.164C79.143 541.676 78.6575 529.944 79.871 518.455C80.7609 509.393 82.2978 500.251 85.5336 491.675C85.6954 504.863 86.8279 517.97 89.5782 530.834C90.0637 532.857 90.0637 535.041 90.1445 537.145C90.5489 536.498 90.9533 535.931 91.3577 535.284C89.7398 519.183 88.5265 503.002 86.4232 486.902C82.5404 492.403 80.6799 499.119 79.5474 505.672C78.2531 513.682 77.2825 521.772 77.3633 529.863C77.7677 538.844 78.9001 547.744 80.1136 556.563C80.9224 561.822 76.9589 565.948 74.8558 570.398C75.6646 564.492 75.7456 558.505 75.8264 552.518C76.069 545.721 76.5544 538.925 75.5028 532.21C74.0467 523.391 74.1277 514.41 74.9365 505.591C74.7747 502.031 76.2308 498.714 76.3116 495.235C75.7454 496.691 74.9365 498.067 75.0981 499.685C74.4508 507.614 73.0758 515.543 73.723 523.472C74.2893 529.378 74.3703 535.203 73.8849 541.109C73.8041 542.889 73.723 544.588 73.6423 546.368C74.1277 546.853 74.5321 547.339 75.0173 547.825C74.4511 550.09 74.5319 552.355 74.3703 554.702C74.2085 552.679 74.3703 550.737 74.5321 548.714C74.1277 548.148 73.6423 547.582 73.2379 547.096L73.076 549.038C72.8334 552.679 73.076 556.32 72.8334 559.96C72.7527 556.805 72.6716 553.65 72.5908 550.494C72.1054 550.899 71.6202 551.384 71.1348 551.87C71.3773 557.452 71.701 563.116 71.6202 568.699C72.1057 568.132 72.5908 567.647 73.0763 567.08C73.2381 566.029 72.9955 564.896 73.7236 564.087C73.481 565.381 73.3999 566.757 73.3192 568.132C71.8631 568.699 72.1057 570.074 72.1057 571.368C70.5688 566.676 69.2745 561.902 67.0096 557.533C68.3847 564.087 70.8114 570.398 72.2675 576.951C70.0026 574.038 68.2228 570.802 66.1197 567.809C65.4725 566.676 64.0974 565.624 65.0681 564.168L63.612 565.462L63.0457 564.491C63.4501 564.168 64.1782 563.521 64.5018 563.197C63.2076 560.608 62.0751 558.019 60.619 555.511C60.8616 555.268 61.4278 554.783 61.6707 554.621C59.3247 554.944 57.3835 553.569 55.5229 552.355C45.8968 546.045 38.8592 536.498 28.9905 530.51C33.1159 537.307 39.9109 541.918 44.9262 548.067C42.095 549.362 39.1021 550.333 35.9473 550.818C33.925 551.223 32.5499 549.362 30.932 548.391C33.0351 554.135 40.3156 554.459 44.1984 558.505C40.2348 558.747 36.5138 559.961 32.7117 560.851V561.417C36.7564 560.77 40.72 559.475 44.8457 559.475C46.1399 559.799 47.4342 560.284 48.7285 560.284C44.8457 556.805 40.2348 554.378 35.6239 551.951C38.7787 551.061 42.4997 550.899 45.0075 548.391C49.3757 552.517 53.663 556.806 57.3029 561.66C60.8621 566.919 65.3922 571.45 69.5984 576.223C72.187 579.217 72.2677 583.262 73.3194 586.822L74.4519 587.388L73.8049 587.146C74.7755 589.492 74.9373 592 75.0184 594.508C70.0839 590.382 65.8777 585.447 61.833 580.431C59.6489 578.812 57.7076 576.871 55.8471 574.848C55.5235 574.848 54.8765 574.767 54.5528 574.686C55.4427 573.068 53.5012 571.855 52.8542 570.56C51.5599 567.971 49.7802 565.786 47.9197 563.602C49.7802 567.243 52.4497 570.479 54.391 574.12C51.4788 572.906 49.2947 570.641 46.5446 569.104C44.0368 567.486 41.0439 566.677 38.3745 565.301C41.3675 564.249 44.5223 564.492 47.5152 563.683C47.1108 562.55 45.8166 562.146 45.0075 561.498C44.9267 561.741 44.8457 562.146 44.7649 562.307C41.0439 563.845 36.433 564.735 32.631 562.874C29.557 561.417 26.2404 560.042 22.7622 559.88C23.1666 560.608 23.8139 561.255 24.7038 561.417C27.7778 562.307 30.6897 563.602 33.6829 564.411C33.2785 564.815 32.793 565.22 32.3886 565.705C29.6383 566.191 26.8879 566.514 24.2186 567.324C27.4544 567.971 30.8518 565.867 33.9258 567.081C33.845 566.596 33.6832 565.625 33.6021 565.139C39.0218 566.515 44.4418 568.618 48.8908 572.097C52.1266 575.01 55.2814 578.003 58.1125 581.321C52.1266 578.084 45.736 575.738 39.4265 573.23C45.2506 578.003 53.0973 579.136 59.0024 583.748C64.0177 587.874 68.4667 592.648 73.4012 596.936C73.6438 603.085 72.5114 609.315 73.9675 615.383C75.0192 609.476 75.828 603.57 76.4752 597.583C77.4459 598.635 78.4976 599.687 79.0638 601.062C78.983 602.114 78.7402 603.165 78.5783 604.298C79.8726 603.732 81.1669 603.085 82.4612 602.518C81.8139 613.521 80.1962 624.444 79.7918 635.528C77.2841 635.528 74.6955 635.609 72.188 635.771C72.9968 636.823 73.1587 638.117 72.6735 639.331C71.7028 639.897 70.7319 640.463 69.9231 641.273C70.4086 641.515 71.541 642.082 72.0262 642.405C72.2688 647.341 72.107 652.195 72.188 657.13C69.4377 657.777 66.6065 657.535 63.8561 657.616C54.7154 657.778 45.5745 657.535 36.4338 657.859C50.1854 658.425 63.9369 657.616 77.6077 658.587C86.5058 658.749 95.4039 659.153 104.302 658.991C105.758 658.829 107.538 659.072 108.508 657.697C107.942 657.535 106.81 657.211 106.244 657.05C106.244 656.726 106.244 656.079 106.244 655.755C108.347 655.755 110.369 655.674 112.472 655.593C112.553 657.13 111.34 657.697 110.046 658.02C125.091 659.234 140.218 659.396 155.345 660.367C170.715 660.933 186.084 662.39 201.454 663.36C209.219 663.441 216.985 664.088 224.75 664.412C205.66 664.574 186.57 663.28 167.398 662.956C149.116 662.309 130.754 661.904 112.392 661.338C79.7921 660.69 47.1927 659.315 14.5932 661.176C18.8805 661.338 23.0869 660.771 27.3741 661.176C49.7004 663.846 72.1883 662.47 94.5146 663.118C144.425 664.412 194.254 666.435 244.084 668.215C281.052 669.833 318.019 671.127 355.067 672.503C370.437 673.474 385.806 673.716 401.095 674.687C412.42 675.254 423.745 675.982 435.07 676.629C444.21 677.034 453.432 678.49 462.573 677.196C505.931 672.422 549.532 670.642 592.89 666.192C610.767 664.574 628.644 662.794 646.521 660.852L646.926 660.933C655.339 660.286 663.67 658.991 672.002 657.939C667.47 658.018 662.374 657.775 657.277 658.341ZM61.2655 561.172C59.6476 558.34 56.8972 556.317 55.6029 553.243C57.4634 554.457 59.5665 555.508 60.9419 557.288C61.9935 559.149 62.8024 561.253 63.9348 563.113C62.3979 564.408 61.9935 561.9 61.2655 561.172ZM76.7968 587.79C77.2822 585.039 79.2235 582.127 77.444 579.538C76.716 582.127 75.8261 584.716 75.1791 587.386L74.6937 587.224C74.7745 584.635 74.37 582.127 73.8038 579.7C73.9656 578.001 74.8555 576.302 73.2376 575.088C73.5612 575.33 74.2893 575.897 74.6937 576.22C76.716 573.065 77.6866 569.343 79.8708 566.35C79.8708 570.8 79.1427 575.169 77.7677 579.295C79.8705 581.722 77.5248 585.12 76.7968 587.79ZM82.2165 599.441C80.5178 597.984 78.8999 596.205 77.9292 594.182C78.01 590.136 79.6279 586.334 79.9515 582.289H80.7604C80.437 588.114 82.3783 593.696 82.2165 599.441ZM269.4 656.723C268.511 642.969 268.834 629.134 268.511 615.299C268.511 609.15 268.268 602.92 268.349 596.771C270.128 596.69 269.886 598.632 269.886 599.926C269.805 615.299 269.724 630.752 269.562 646.124C269.562 649.684 269.886 653.163 269.4 656.723ZM294.396 655.671C290.675 655.591 286.954 655.591 283.233 655.671C283.071 636.254 283.152 616.755 282.99 597.337C286.792 597.256 290.675 597.014 294.477 596.852C294.477 608.988 294.477 621.124 294.396 633.26C291.565 633.422 288.653 633.503 285.822 634.069C288.329 635.606 291.403 635.364 294.234 635.849C294.639 642.484 294.396 649.037 294.396 655.671ZM297.308 592.807C287.925 593.535 278.541 593.697 269.158 594.425C269.239 586.9 269.239 579.376 269.158 571.852C278.541 571.043 288.006 570.557 297.389 569.586C297.308 577.353 297.47 585.12 297.308 592.807ZM299.897 563.599C306.045 563.194 312.193 562.952 318.34 562.466C318.583 572.175 318.421 581.965 318.502 591.674C312.273 591.998 306.126 592.402 299.897 592.402C299.978 582.855 299.897 573.227 299.897 563.599ZM318.259 594.344C318.178 606.399 318.745 618.454 318.259 630.428C312.273 630.59 306.125 630.024 300.22 630.995C299.897 618.859 300.14 606.803 299.978 594.667C306.045 594.829 312.111 594.424 318.259 594.344ZM318.421 665.137C312.354 664.976 306.206 664.733 300.139 664.247C300.301 655.51 300.139 646.772 300.301 638.033C306.287 638.195 312.273 638.276 318.259 638.438C318.664 647.338 318.34 656.238 318.421 665.137ZM300.22 633.907C300.22 633.341 300.301 632.127 300.301 631.561C306.287 632.208 312.273 631.804 318.259 632.451C318.34 632.936 318.583 633.827 318.664 634.231C312.516 634.15 306.368 634.15 300.22 633.907ZM318.421 440.539C325.459 441.186 332.334 442.966 339.372 443.856C340.828 443.613 340.504 445.312 340.585 446.203C340.666 470.96 340.505 495.718 340.505 520.475C333.467 519.666 326.349 518.615 319.23 518.453C318.583 492.482 318.825 466.51 318.421 440.539ZM320.362 627.516C320.362 616.512 320.362 605.428 320.282 594.425C326.915 594.505 333.467 594.425 340.1 594.425C340.181 606.399 340.1 618.373 340.019 630.347C333.548 630.347 327.157 630.671 320.686 630.59C320.12 629.7 320.524 628.486 320.362 627.516ZM320.039 562.466C326.753 562.79 333.548 563.033 340.343 563.356C340.667 573.065 340.262 582.774 340.262 592.483C333.629 592.402 326.915 592.564 320.282 592.402C320.039 582.45 320.282 572.499 320.039 562.466ZM321.252 660.688C321.09 662.144 321.333 663.681 320.605 664.976C320.605 655.995 320.443 647.014 320.605 638.114C320.929 638.357 321.576 638.923 321.819 639.247C321.899 646.367 321.414 653.487 321.252 660.688ZM320.443 634.716C320.443 634.069 320.524 632.775 320.524 632.208C327.076 632.208 333.548 632.289 340.1 632.289C340.1 632.855 340.1 634.069 340.1 634.716C333.548 634.716 326.995 634.635 320.443 634.716ZM355.47 664.086C350.05 664.328 344.63 664.814 339.21 664.329C340.909 663.115 343.093 663.196 345.034 662.872C357.977 661.578 370.92 660.041 383.863 658.908C384.591 659.717 385.157 660.688 385.723 661.578C375.692 662.71 365.581 663.438 355.47 664.086ZM363.963 627.516C363.963 629.458 362.831 632.127 360.485 631.966C355.47 632.127 350.454 632.208 345.52 632.127C344.873 632.289 343.659 632.532 343.012 632.694C343.255 620.315 343.74 607.936 343.983 595.638C350.858 595.881 357.734 595.719 364.61 596.124C364.691 602.192 364.853 608.259 364.286 614.328C364.287 618.616 364.125 623.066 363.963 627.516ZM359.595 634.474C360.889 634.555 363.073 634.555 363.235 636.335C363.559 640.785 363.397 645.234 363.235 649.684C356.359 649.846 349.564 650.331 342.689 650.493C342.608 645.153 342.689 639.813 342.85 634.474C348.513 634.474 354.094 634.393 359.595 634.474ZM363.154 650.655C363.074 652.435 363.074 654.296 363.074 656.076C356.279 656.4 349.484 656.642 342.689 656.966C342.77 655.105 342.689 653.325 342.689 651.464C349.484 651.303 356.278 650.817 363.154 650.655ZM361.213 658.18C368.493 657.29 375.935 656.561 383.296 656.804C381.355 658.099 378.847 657.532 376.663 657.856C370.677 658.018 364.772 659.232 358.867 658.908C353.447 658.665 348.108 658.746 342.689 658.503C348.836 658.341 354.984 658.422 361.213 658.18ZM372.214 633.826C376.097 633.665 379.899 633.907 383.782 633.665C383.782 638.6 383.539 643.535 383.216 648.471C378.038 649.037 372.781 648.794 367.603 649.118C367.603 645.396 367.603 641.593 367.846 637.872C367.927 635.687 370.03 633.746 372.214 633.826ZM368.17 627.435C368.574 617.241 368.978 606.965 369.302 596.771C374.722 596.528 380.142 596.852 385.561 596.852C385.4 608.421 384.591 619.991 384.105 631.642C380.303 631.642 376.421 631.885 372.619 631.885C370.192 631.966 367.684 629.862 368.17 627.435ZM383.216 649.765C383.216 651.626 383.135 653.487 383.135 655.429C377.877 655.671 372.7 655.995 367.523 656.157C367.523 654.134 367.523 652.111 367.523 650.089C372.699 649.927 377.958 649.846 383.216 649.765ZM353.366 590.622C352.881 590.622 351.83 590.541 351.263 590.541C349.726 590.541 348.189 590.46 346.652 590.379C348.109 587.386 350.05 584.635 352.396 582.289C357.249 582.531 362.103 582.289 367.037 582.531C379.333 582.45 391.547 582.369 403.843 582.774C404.005 597.499 404.329 612.305 404.409 627.03C401.416 627.192 398.423 627.111 395.43 627.03C395.511 615.299 395.35 603.486 395.43 591.755C381.436 591.512 367.442 591.108 353.366 590.622ZM368.817 581.479C368.817 577.758 368.897 574.036 369.059 570.314C375.045 570.881 381.031 570.719 387.098 571.123C387.179 574.602 387.098 578.081 387.098 581.56C381.031 581.803 374.884 581.56 368.817 581.479ZM394.621 572.094C397.533 572.337 400.445 572.499 403.357 572.58C403.519 575.169 403.519 577.838 403.519 580.428C400.607 580.428 397.614 580.266 394.702 580.185C394.621 577.515 394.621 574.845 394.621 572.094ZM395.673 629.7C398.585 629.781 401.497 629.781 404.49 629.7C404.49 630.59 404.49 631.48 404.49 632.37C401.416 632.289 398.423 632.37 395.349 632.208C395.43 631.399 395.592 630.509 395.673 629.7ZM395.511 635.607C398.585 635.364 401.74 635.526 404.813 635.445C404.813 636.82 404.813 638.196 404.813 639.571C401.739 639.571 398.666 639.571 395.592 639.49C395.511 638.195 395.511 636.901 395.511 635.607ZM404.975 662.953C402.144 663.196 399.232 663.277 396.401 663.357C395.915 657.047 396.239 650.655 395.996 644.344C398.909 644.344 401.902 644.344 404.814 644.263C404.733 650.412 405.137 656.642 404.975 662.953ZM411.932 627.435C411.932 616.593 411.689 605.752 411.689 594.91C412.66 594.829 413.631 594.748 414.602 594.667C414.602 601.544 414.359 608.503 414.521 615.38C414.925 620.477 414.845 625.493 414.925 630.59C413.307 630.347 411.689 629.296 411.932 627.435ZM420.021 627.111C419.941 621.448 419.779 615.703 419.779 610.04C421.801 607.613 423.743 605.104 425.28 602.353L425.441 602.192C425.846 602.192 426.574 602.111 426.978 602.111C426.978 610.849 427.14 619.506 426.25 628.244C426.574 629.377 426.978 630.509 427.383 631.642C427.383 622.418 427.463 613.276 427.302 604.052C426.978 600.088 427.464 596.043 426.412 592.159C426.816 589.651 427.059 587.062 428.111 584.635C427.949 591.107 428.677 597.499 428.596 603.972C428.677 613.357 428.515 622.742 428.758 632.127L427.544 631.885C425.603 630.833 423.257 631.561 421.235 630.833C420.264 629.781 420.426 628.244 420.021 627.111ZM421.396 653.811C421.396 647.338 421.396 640.785 421.396 634.312C423.095 634.312 424.875 634.312 426.654 634.231C427.059 640.623 426.735 647.015 427.059 653.406C428.191 652.354 427.544 650.655 427.706 649.361C427.787 644.183 427.302 638.924 427.544 633.746C428.515 634.312 428.758 635.364 428.677 636.416C428.677 642.16 428.677 647.905 428.919 653.73C426.412 653.649 423.904 653.73 421.396 653.811ZM460.629 583.098C460.629 584.797 460.71 586.496 460.791 588.195C454.967 588.033 449.142 587.629 443.318 587.629C443.238 601.626 443.642 615.542 443.561 629.538C440.002 629.538 436.443 629.7 432.883 629.538C432.64 613.923 432.479 598.389 432.398 582.774C441.862 582.208 451.327 582.612 460.629 583.098ZM432.559 579.861C432.559 578.162 432.559 576.463 432.64 574.764C435.391 574.764 438.141 574.926 440.81 574.926C440.891 576.625 440.972 578.325 441.053 580.024C438.222 580.023 435.391 579.942 432.559 579.861ZM450.76 606.399C450.599 603.163 450.356 599.926 450.68 596.69C450.76 607.451 451.974 618.211 451.731 628.972C451.408 628.972 450.841 628.972 450.518 628.972C450.517 621.448 450.922 613.923 450.76 606.399ZM433.692 632.613C433.45 632.37 433.045 631.885 432.802 631.642C436.523 631.48 440.244 631.723 443.965 631.642L442.347 632.37C442.914 632.694 443.48 633.017 444.046 633.422C449.628 632.29 455.371 632.775 461.033 632.208C461.033 639.652 461.114 647.096 461.033 654.539C454.562 654.943 448.091 655.186 441.7 655.672C441.538 648.228 441.134 640.623 442.024 633.26C439.274 632.37 436.442 632.936 433.692 632.613ZM458.283 658.989C452.702 659.717 447.12 660.283 441.538 660.283C441.538 659.555 441.619 658.099 441.619 657.37C448.252 657.37 454.885 656.885 461.518 657.209C461.276 658.665 459.416 658.665 458.283 658.989ZM479.315 659.231C473.329 659.393 467.262 660.364 461.276 659.798C466.777 658.017 472.682 656.642 478.587 656.885C491.287 656.885 503.907 656.4 516.606 657.047C504.068 657.532 491.692 658.341 479.315 659.231ZM467.343 628.81C466.939 611.496 466.534 594.101 466.453 576.787C467.667 576.787 468.88 576.868 470.093 576.868C470.579 594.182 470.66 611.577 470.902 628.891C469.689 628.891 468.557 628.81 467.343 628.81ZM470.902 631.804C470.902 632.208 470.902 633.017 470.902 633.503C469.77 633.503 468.638 633.503 467.505 633.584C467.505 633.098 467.424 632.208 467.424 631.723C468.475 631.804 469.689 631.804 470.902 631.804ZM496.788 633.503C496.95 640.461 497.111 647.5 497.192 654.458C492.015 654.215 486.838 654.458 481.661 654.296C481.661 651.302 481.661 648.309 481.661 645.396C485.625 645.396 489.588 645.477 493.552 645.558C493.471 636.254 493.633 626.868 493.39 617.483C492.986 609.554 493.228 601.625 493.066 593.696C486.838 593.858 480.609 594.425 474.461 594.586C474.461 593.13 474.461 591.755 474.542 590.379C487.161 589.975 499.78 589.004 512.399 588.437C512.399 589.813 512.399 591.107 512.399 592.483C507.061 592.887 501.641 593.049 496.302 593.373C496.383 606.723 496.788 620.153 496.788 633.503ZM519.276 574.683C521.864 574.441 524.453 574.279 527.041 574.036C527.365 591.755 527.769 609.393 528.093 627.03C525.343 627.111 522.673 627.111 519.923 627.192C519.438 609.716 519.842 592.159 519.276 574.683ZM528.012 630.671C525.343 631.076 522.673 630.995 519.923 630.995C519.923 630.59 519.842 629.781 519.842 629.296C522.673 629.296 525.505 629.134 528.336 629.458C528.336 629.7 528.093 630.347 528.012 630.671ZM528.659 653.487C528.902 646.124 528.012 638.681 529.226 631.399C529.387 638.762 529.549 646.205 529.549 653.568L528.659 653.487ZM546.375 530.265C547.507 533.016 545.323 535.605 545.566 538.437C545.646 546.285 547.022 554.214 545.728 562.143C546.213 562.304 547.103 562.547 547.588 562.628C547.588 555.346 546.779 547.984 546.617 540.702C547.992 540.621 547.912 540.378 546.617 540.136C546.294 538.113 546.779 536.01 547.345 534.068C549.125 536.171 549.044 539.084 549.206 541.673C549.53 547.822 549.853 554.294 547.588 560.12C547.992 560.039 548.963 559.796 549.368 559.715C549.206 566.026 549.772 572.337 549.125 578.567C549.449 578.405 550.177 578.082 550.581 577.92C549.934 575.331 550.339 572.58 550.5 569.991C550.662 565.136 550.824 560.201 551.633 555.427C552.118 563.518 552.037 571.771 550.5 579.7C550.339 581.318 550.177 583.017 549.934 584.635C549.772 583.017 549.772 581.48 549.934 579.861C549.53 579.376 549.206 578.891 548.883 578.405C549.287 584.069 548.074 589.57 547.588 595.153C545.728 596.771 543.705 598.389 541.764 599.845C543.948 598.794 545.809 597.337 547.588 595.8C547.588 598.065 547.426 600.412 547.426 602.677C546.051 603.567 544.676 604.538 543.382 605.509C544.676 604.781 545.97 603.972 547.265 603.244C546.86 614.247 545.97 625.169 545.566 636.173C544.029 636.173 542.492 636.173 540.955 636.173C540.793 616.027 540.793 595.881 540.551 575.654C540.713 573.146 539.984 569.829 542.33 568.13C544.433 566.673 546.618 565.298 548.154 563.113C545.728 563.275 543.301 563.437 540.874 563.761C540.551 553.485 540.551 543.291 540.389 533.016C542.573 532.612 544.514 531.479 546.375 530.265ZM540.389 520.475C542.249 522.579 543.543 525.168 544.191 527.838C542.896 528.971 541.683 530.103 540.308 531.155C540.065 527.595 540.146 524.035 540.389 520.475ZM558.347 639.086C557.78 639.409 557.295 639.814 556.809 640.218C556.243 644.83 556.729 649.522 556.809 654.134C553.978 654.296 551.066 654.296 548.235 654.134C548.639 651.06 546.779 646.853 549.934 644.911C549.691 643.131 549.367 640.865 547.345 640.299C543.786 639.813 540.146 640.137 536.667 639.247C543.948 639.571 551.147 639.328 558.347 639.086ZM536.668 636.011C535.535 636.011 534.322 636.092 533.189 636.092C532.785 615.218 532.542 594.344 532.38 573.47C533.594 573.55 534.888 573.55 536.101 573.631C536.263 594.425 536.748 615.218 536.668 636.011ZM536.263 564.57C534.888 564.327 533.513 564.085 532.138 563.923C533.351 564.975 534.726 565.945 536.263 566.512C536.263 567.725 536.344 569.02 536.344 570.233C532.947 569.991 529.549 569.748 526.152 569.991C525.019 570.233 524.21 569.424 523.239 569.02C494.604 567.483 465.887 566.916 437.17 567.24C403.196 564.57 369.221 562.952 335.247 560.525C330.231 560.12 325.216 559.635 320.12 559.473C320.12 555.508 320.039 551.463 320.12 547.499C355.955 550.411 391.709 553.405 427.463 556.56C453.834 558.664 480.286 561.172 506.657 563.033C513.937 563.68 521.217 564.408 528.578 563.923C514.584 562.628 500.59 561.415 486.757 559.23C488.941 556.237 491.206 553.324 493.552 550.573C489.589 550.573 485.706 550.007 481.904 549.198C480.69 551.463 479.396 553.729 477.778 555.751C478.992 557.127 480.529 558.259 481.904 559.473C460.225 557.207 438.384 556.317 416.786 553.567C419.455 550.249 420.992 546.042 424.066 543.049C419.374 543.372 414.844 542.158 410.233 541.43C408.292 543.939 406.836 546.77 405.46 549.602C406.35 550.896 407.402 552.029 408.534 553.081C409.181 553.162 410.476 553.324 411.123 553.405C395.43 552.191 379.818 550.897 364.125 549.683C349.483 548.388 334.842 546.932 320.2 546.042C320.2 539.165 320.2 532.288 320.281 525.411C339.21 527.191 358.139 529.295 377.067 531.075C411.608 534.149 446.068 538.033 480.609 541.269C498.891 543.372 517.253 545.233 535.616 546.771C536.182 552.757 536.263 558.664 536.263 564.57ZM483.36 554.537C483.602 553.405 483.845 552.353 484.088 551.22C486.191 551.22 488.375 551.22 490.397 551.867C489.184 553.081 488.132 554.537 486.595 555.427C485.463 555.67 484.411 554.861 483.36 554.537ZM409.748 549.036C410.961 547.337 411.608 545.233 412.903 543.534C415.572 543.615 418.242 543.938 420.911 544.181C419.697 545.961 418.484 547.822 417.514 549.683C414.925 550.573 412.256 549.764 409.748 549.036ZM395.915 59.0612C389.687 62.5403 383.054 65.372 376.663 68.6892C362.83 75.3237 349.241 82.3626 335.246 88.5115C332.9 89.8868 330.878 87.1359 329.018 86.0843C339.372 80.7444 349.888 75.8092 360.242 70.5501C372.295 64.8865 384.024 58.4139 396.32 53.155C396.158 55.0969 396.967 57.4433 395.915 59.0612ZM397.129 89.7252C397.21 92.7998 397.291 95.8741 397.371 99.0295C388.473 102.104 380.222 106.797 371.324 109.952C370.596 109.628 369.868 109.224 369.14 108.9C366.713 107.363 364.287 105.826 361.779 104.612C360.161 103.803 362.83 103.237 363.397 103.318C365.743 102.427 368.008 100.081 370.515 100.567L370.596 100C370.919 100 371.648 100 371.971 100L372.052 99.3529C372.376 99.3529 373.104 99.1911 373.427 99.1911L373.589 98.5437C373.993 98.4629 374.64 98.3818 375.045 98.301L375.287 97.7347C375.692 97.7347 376.42 97.6539 376.824 97.5728C376.663 95.5501 379.332 97.0873 377.471 97.8965L376.824 97.5728C376.42 97.7347 375.53 98.1392 375.126 98.301L374.883 98.9484C374.559 99.0292 373.831 99.1103 373.427 99.1103C373.184 99.3529 372.78 99.9192 372.537 100.162L371.89 99.9195L371.809 100.567C371.485 100.567 370.757 100.567 370.434 100.567L370.919 101.295C368.816 102.266 366.632 103.318 364.206 103.318C365.419 103.318 366.632 103.318 367.846 103.399C369.706 102.347 371.648 101.295 373.67 100.405L373.427 99.515C373.832 99.5958 374.641 99.6769 374.964 99.7577L375.288 98.8676C379.009 98.3821 382.002 95.8741 385.399 94.4985C383.134 95.0649 381.112 96.2786 378.928 96.9257C379.171 96.3594 379.737 95.2267 379.98 94.6604C385.399 93.1232 390.253 90.1297 395.511 88.107C395.511 87.9451 395.592 87.6215 395.673 87.4596C390.576 90.1294 385.238 92.395 379.98 94.6604C378.604 95.4694 377.31 96.2786 375.935 97.0876C372.376 98.5439 368.897 100.324 365.176 101.376C362.912 102.023 360.727 103.56 358.301 102.994C354.822 101.537 351.829 99.2721 348.756 97.0876C350.212 96.602 351.668 96.0357 353.124 95.4694C367.603 88.6731 381.921 81.3915 396.644 75.0808C396.886 80.0162 396.967 84.8706 396.967 89.8057C394.621 90.6958 392.195 91.2621 390.092 92.6374C392.599 91.7479 394.945 90.7771 397.129 89.7252ZM387.826 119.58C385.4 118.205 382.811 117.072 380.465 115.535C377.715 113.916 374.964 112.217 372.295 110.437C373.67 110.195 375.045 109.709 376.42 109.709C383.539 107.525 390.01 103.317 397.291 101.618C397.857 109.385 397.695 117.152 397.533 124.92C395.349 123.463 392.922 122.411 390.9 120.712C392.841 119.742 395.915 120.227 396.967 118.123C393.812 118.043 390.9 119.256 387.826 119.58ZM391.709 75.3237C381.598 79.7735 371.648 84.4661 361.536 88.997C357.654 90.696 353.852 92.7187 349.726 93.7706C347.946 94.2562 346.167 95.9552 344.306 94.9843C341.314 93.528 338.321 91.9098 335.813 89.7255C336.864 89.2399 337.997 88.7547 339.048 88.2691C348.027 83.4955 357.249 79.3693 366.147 74.9194C376.178 69.9032 386.289 65.0488 396.482 60.4371C396.562 65.1296 396.562 69.8224 396.805 74.4342C395.026 73.6246 393.327 74.5955 391.709 75.3237ZM394.136 47.0872C371.729 57.9288 349.484 69.3366 327.238 80.5828C325.135 81.6347 322.709 82.5247 320.363 81.7965C319.554 81.1491 318.988 80.2594 318.259 79.5312C314.538 79.5312 312.031 83.3339 308.391 83.0102C324.812 73.3015 341.395 63.9162 357.978 54.5308C370.111 47.9774 382.003 40.9385 394.379 34.8704C394.46 38.8345 394.298 42.9607 394.136 47.0872ZM324.407 202.348C325.216 201.377 326.429 202.348 327.319 202.672C343.497 209.711 359.919 216.345 376.097 223.465C390.415 229.29 404.409 235.763 418.646 241.75C456.747 258.174 494.766 274.517 532.785 291.103C532.866 293.207 532.947 295.229 532.947 297.333C517.173 291.184 501.803 284.064 486.11 277.673C431.589 254.695 376.987 231.717 322.385 208.982C322.627 206.636 322.708 204.047 324.407 202.348ZM318.906 193.61C318.825 170.794 318.825 147.897 318.744 125.082C325.054 128.075 331.202 131.231 337.511 134.143C337.592 155.908 337.511 177.752 337.673 199.516C331.364 197.898 325.863 192.72 318.906 193.61ZM349.645 178.48C349.484 187.38 349.484 196.28 349.645 205.18C349.322 205.018 348.594 204.613 348.27 204.371C345.924 203.562 343.659 202.591 341.475 201.377C340.1 199.84 341.233 197.574 341.314 195.795C340.505 193.61 340.909 191.264 340.828 188.918C340.828 183.659 340.585 178.4 340.828 173.141C341.233 174.435 341.799 175.73 342.284 177.024C342.689 176.134 343.012 175.244 343.417 174.354C345.601 172.655 347.542 170.794 349.403 168.852C349.888 172.089 349.564 175.244 349.645 178.48ZM355.146 185.034C355.227 180.503 355.227 175.892 355.146 171.361C364.529 175.244 373.913 179.128 383.134 183.416C384.105 183.901 385.642 184.225 385.238 185.681C385.157 197.008 384.914 208.416 384.914 219.824C375.045 215.617 365.095 211.41 355.388 206.96C354.823 199.597 355.227 192.316 355.146 185.034ZM355.955 168.529C357.33 166.506 358.301 164.16 359.757 162.218C361.213 160.519 363.074 159.063 364.53 157.364C371.729 159.224 378.524 162.542 385.562 164.969C385.642 170.066 385.4 175.163 385.4 180.26C375.288 176.943 365.743 172.412 355.955 168.529ZM398.585 165.859C399.879 166.263 401.173 166.668 402.468 167.153C402.71 187.38 403.115 207.688 403.277 227.915C401.902 227.187 399.151 227.348 399.07 225.245C398.666 205.503 398.909 185.681 398.585 165.859ZM408.292 169.985C411.366 171.603 414.844 172.493 417.594 174.597C417.837 194.5 417.675 214.403 417.918 234.225C414.925 232.85 411.608 232.041 408.858 230.261C408.211 210.196 408.696 190.131 408.292 169.985ZM419.94 195.228C420.021 192.397 420.102 189.646 420.102 186.814C423.742 188.189 427.382 189.646 431.184 190.617C431.67 191.669 431.912 192.72 431.831 193.853C431.831 209.468 431.993 225.002 432.074 240.536C428.191 238.514 424.066 237.138 420.183 235.035C419.536 221.766 420.021 208.497 419.94 195.228ZM453.591 214.565C450.599 213.351 447.686 211.976 444.855 210.52C442.348 209.144 439.84 207.931 437.171 206.798C437.09 202.186 437.09 197.494 437.009 192.882C441.458 194.662 445.988 196.199 450.518 197.817C451.569 198.141 452.621 198.464 453.673 198.788C453.915 204.128 453.511 209.306 453.591 214.565ZM453.349 249.598H452.459V249.193C447.524 246.847 442.428 244.905 437.575 242.478C437.494 233.578 437.251 224.679 437.332 215.779C437.17 213.918 437.17 212.138 437.17 210.277C442.509 212.785 447.686 215.698 453.349 217.478C453.672 228.238 453.106 238.918 453.349 249.598ZM462.651 253.643C461.276 253.158 458.849 253.158 458.849 251.216C458.607 247.252 458.607 243.287 458.607 239.242C458.283 232.769 458.283 226.297 458.202 219.824C459.497 220.39 460.791 220.957 462.166 221.523C462.651 226.377 462.651 231.313 462.49 236.167C462.571 241.993 462.409 247.818 462.651 253.643ZM473.491 203.4C474.866 204.047 476.322 204.614 477.778 205.261C478.102 223.708 478.102 242.154 478.102 260.601C476.646 259.954 475.028 259.55 473.653 258.579C473.572 240.213 473.491 221.847 473.491 203.4ZM489.75 218.853C490.074 234.549 489.993 250.245 490.236 266.022C487.89 264.889 485.463 263.999 483.117 262.786C482.875 244.582 483.036 226.377 483.036 208.173C485.221 209.063 487.485 209.872 489.427 211.167C490.154 213.594 489.669 216.264 489.75 218.853ZM492.177 238.433C497.273 239.727 502.45 241.022 507.465 242.559C507.546 252.915 507.385 263.271 507.465 273.546C503.906 271.685 500.104 270.472 496.545 268.773C496.383 263.918 496.626 259.064 496.06 254.209C494.766 254.695 493.471 255.261 492.258 255.828C491.934 250.083 492.339 244.258 492.177 238.433ZM495.736 232.526C498.082 229.614 497.92 225.811 499.295 222.494C501.965 223.95 504.715 225.083 507.465 226.297C507.465 229.937 507.546 233.497 507.385 237.138C503.421 235.601 499.619 233.902 495.736 232.526ZM525.262 281.637C524.291 280.99 522.431 280.99 522.511 279.534C522.35 262.867 522.35 246.119 522.35 229.452C523.32 229.614 525.019 229.452 524.695 230.989C525.019 247.899 525.262 264.728 525.262 281.637ZM534.241 453.889C534.483 461.737 534.645 469.585 534.403 477.352C533.028 477.109 531.733 476.867 530.358 476.624C529.954 458.096 530.115 439.649 529.792 421.121C529.549 410.037 529.873 398.872 529.307 387.788C530.196 387.707 531.005 387.545 531.895 387.383C531.248 387.383 529.954 387.302 529.387 387.302C529.145 368.127 528.659 348.871 527.365 329.777C528.336 348.952 528.012 368.127 527.931 387.302C526.071 386.898 524.129 386.331 522.269 386.008C524.048 386.979 526.152 387.222 528.012 387.869C528.093 407.448 528.255 427.109 528.578 446.688C527.365 446.446 526.152 446.284 525.019 446.041C525.019 446.284 524.938 446.688 524.938 446.931C526.152 446.85 527.365 446.85 528.579 446.769C528.579 456.721 528.336 466.672 528.74 476.624C527.365 476.381 526.071 476.219 524.696 475.977C523.887 475.815 523.078 475.734 522.269 475.572C521.137 475.41 520.004 475.168 518.952 474.601C518.386 473.55 518.71 472.417 518.629 471.284C518.791 462.708 518.386 454.213 518.629 445.636C519.276 445.717 520.489 445.879 521.136 445.96L522.026 445.556C521.379 445.556 520.085 445.556 519.438 445.556C519.357 427.837 519.114 410.118 519.357 392.4C519.195 392.076 518.872 391.51 518.71 391.186C518.063 383.904 518.224 376.622 518.144 369.341C517.901 366.833 519.033 364.487 519.033 361.978C519.357 343.046 518.953 324.195 519.357 305.262C519.276 302.026 522.916 300.974 524.777 299.032C521.379 299.194 517.82 299.356 514.665 297.819C506.9 294.583 499.053 291.346 491.206 288.029C491.126 286.006 491.045 284.065 490.802 282.123C505.12 287.624 519.033 294.259 533.27 300.003C534.241 350.004 533.756 400.086 534.403 450.086C534.403 451.543 534.726 453.484 532.866 453.97C533.108 454.131 533.917 453.97 534.241 453.889ZM491.53 440.054C500.024 441.591 508.113 444.584 516.606 446.122C517.092 454.941 517.011 463.759 516.768 472.497C510.297 471.527 503.987 470.232 497.516 469.261C497.678 469.585 497.92 470.232 498.082 470.556C502.693 471.041 507.304 472.174 511.753 473.468C505.767 473.064 499.781 471.688 494.037 469.989C495.332 469.666 496.707 469.504 497.92 468.938C496.14 468.776 494.28 468.776 492.662 468.047C492.905 468.614 493.067 469.261 493.147 469.908C491.853 469.18 491.934 467.643 491.772 466.348C491.368 457.611 491.692 448.792 491.53 440.054ZM491.368 302.107C491.206 299.599 491.125 297.01 491.125 294.501C499.295 297.657 507.466 300.731 515.393 304.291C516.283 306.152 515.717 308.66 516.121 310.764C507.87 307.932 499.619 305.1 491.368 302.107ZM512.643 349.195C512.643 352.916 512.562 356.719 512.481 360.522C510.944 360.117 509.407 359.713 507.951 359.308C504.392 358.256 500.833 357.285 497.192 356.395C497.031 345.554 496.788 334.631 497.273 323.79C502.369 324.194 507.466 325.165 512.319 326.864C512.723 334.308 512.562 341.751 512.643 349.195ZM506.737 313.353C505.362 313.353 503.987 313.515 502.774 314.162C505.929 315.133 509.003 316.185 512.157 317.155C512.157 319.34 512.157 321.525 512.157 323.709C507.628 321.201 502.369 320.553 497.759 318.45C497.516 316.589 497.435 314.809 497.516 312.948C498.972 312.22 500.752 313.838 502.208 314C502.288 313.757 502.369 313.191 502.45 312.867C500.024 311.573 497.354 310.602 494.685 309.874C493.31 309.388 491.692 309.227 490.964 307.851C496.383 309.55 501.399 311.977 506.737 313.353ZM492.743 322.576C492.986 333.499 493.067 344.421 492.986 355.344C492.662 355.101 492.015 354.696 491.772 354.454C491.691 343.774 491.772 333.175 491.691 322.495C492.015 322.576 492.5 322.576 492.743 322.576ZM492.096 310.198C492.905 312.948 492.5 315.861 492.42 318.693C492.258 318.855 491.934 319.259 491.772 319.421C491.692 316.346 491.772 313.272 492.096 310.198ZM514.179 365.457C514.908 365.781 516.202 365.943 516.121 367.075C516.445 374.842 516.525 382.69 516.687 390.457C508.355 388.192 499.942 386.25 491.692 383.823C491.287 375.166 491.368 366.428 491.287 357.771C498.972 360.279 506.576 362.868 514.179 365.457ZM492.177 403.322C492.581 398.791 492.662 394.26 492.662 389.729C492.986 405.668 492.986 421.607 493.147 437.626C492.905 437.384 492.339 436.898 492.015 436.656C492.177 425.49 491.934 414.406 492.177 403.322ZM491.692 385.037C495.008 385.522 498.082 386.898 501.318 387.788C505.039 389.082 509.002 389.81 512.562 391.509C506.495 390.457 500.59 388.597 494.685 386.978C493.552 386.736 492.015 386.412 491.692 385.037ZM498.567 392.318C499.295 392.642 500.023 392.885 500.752 393.208C504.634 394.098 508.598 394.827 512.4 396.04C512.4 398.305 512.4 400.652 512.481 402.917C507.951 400.975 503.097 400.004 498.567 398.305H498.487C498.567 396.364 498.648 394.341 498.567 392.318ZM497.839 411.979C497.759 408.743 498.082 405.506 498.082 402.27C502.45 402.998 506.737 403.888 510.944 405.263L510.62 405.344C511.186 405.506 512.319 405.83 512.804 405.991C512.804 417.885 513.047 429.778 512.804 441.672C507.87 440.377 502.774 439.487 497.758 438.193C497.839 429.455 497.678 420.717 497.839 411.979ZM512.966 487.142C513.209 498.469 513.29 509.715 513.371 521.042C508.275 520.799 503.34 519.99 498.244 519.666C498.082 508.096 498.163 496.608 498.082 485.038C503.178 484.876 508.113 486.009 512.966 487.142ZM498.406 481.235C498.406 479.374 498.486 477.433 498.486 475.572C503.178 476.138 507.87 476.785 512.481 478.08C512.642 480.183 512.804 482.287 512.885 484.471C508.194 482.934 503.34 481.964 498.406 481.235ZM492.339 515.783C492.581 504.618 492.339 493.533 492.662 482.368C493.067 483.744 493.228 485.2 493.147 486.656C493.228 497.579 493.471 508.501 493.228 519.424C491.772 518.776 492.42 516.996 492.339 515.783ZM522.026 525.573C522.107 526.543 522.188 527.595 522.269 528.647C512.238 527.595 502.208 526.22 492.096 525.411C492.015 524.197 491.934 522.984 491.853 521.77C501.965 522.66 512.157 523.469 522.026 525.573ZM517.577 530.751C518.467 529.78 519.842 529.861 521.056 529.861C520.57 530.184 520.247 530.589 519.923 531.074C521.865 531.64 523.887 532.207 525.505 533.582C525.505 532.612 525.585 531.64 525.585 530.67C526.556 530.508 527.608 530.346 528.578 530.184C528.578 533.421 528.498 536.738 528.659 539.974C516.525 538.922 504.472 537.628 492.419 536.495C492.177 533.582 492.258 530.589 492.177 527.676C500.671 528.404 509.164 529.537 517.577 530.751ZM525.424 528.485C525.504 527.352 525.666 526.22 525.747 525.168C527.041 524.602 528.578 524.035 528.093 522.336C525.586 520.718 522.431 521.527 519.599 521.204C519.357 507.692 519.357 494.261 519.68 480.75C522.835 483.015 525.181 486.332 527.041 489.73C525.99 486.656 523.806 484.31 521.784 481.801C521.298 480.992 520.489 480.669 519.599 480.588C519.599 479.293 519.519 477.999 519.519 476.785C522.512 477.432 525.505 477.837 528.498 478.16C528.498 494.827 528.578 511.494 528.74 528.161C527.608 528.324 526.475 528.404 525.424 528.485ZM488.941 334.55C489.022 351.622 489.588 368.774 488.86 385.846C486.919 385.603 485.058 385.36 483.117 385.118C484.735 384.713 486.353 384.551 488.052 384.47V384.066C485.221 384.147 482.389 384.47 479.558 384.713C479.882 385.765 480.286 386.817 480.286 387.949C480.448 399.843 480.124 411.736 480.529 423.71C480.609 411.008 480.852 398.306 480.529 385.684C481.257 385.846 482.794 386.17 483.603 386.25C483.603 395.797 483.764 405.264 483.683 414.73C483.683 412.707 483.845 410.684 484.088 408.662C483.522 401.218 484.007 393.775 483.926 386.331C485.625 386.574 487.404 387.059 489.103 387.464C489.346 414.811 489.669 442.157 489.75 469.504C487.566 469.504 485.382 469.504 483.279 469.423L483.764 469.18C481.014 469.261 478.263 468.938 475.432 469.1C475.432 467.158 475.432 465.216 475.351 463.274C475.189 460.038 475.27 456.721 475.351 453.485C475.109 427.675 475.109 401.866 474.785 376.056C476.565 376.623 478.83 376.218 480.286 377.594C480.448 379.778 480.367 381.882 480.286 384.066H480.852C480.771 381.801 480.771 379.616 480.69 377.432C482.389 377.674 484.169 377.917 485.867 378.079C484.088 377.351 482.227 376.865 480.448 376.461C480.205 374.681 479.881 372.901 479.881 371.202C479.801 361.169 480.043 351.137 479.801 341.185C479.639 352.917 479.477 364.567 479.881 376.299C478.183 375.975 476.484 375.652 474.785 375.247C474.461 346.363 474.219 317.479 473.976 288.596C473.653 284.388 478.911 283.984 481.176 281.476C477.374 281.395 473.329 282.366 469.689 280.829C455.776 275.408 442.105 269.421 428.191 263.919C425.522 262.786 422.691 261.816 420.102 260.44C419.617 257.851 419.94 255.181 419.779 252.511C442.671 261.977 465.563 271.443 488.213 281.233C488.699 289.567 488.618 297.981 488.537 306.395C489.103 315.618 488.779 325.084 488.941 334.55ZM420.021 422.577C436.685 427.351 453.511 431.558 470.336 435.927C470.821 445.151 470.498 454.374 470.983 463.598C454.158 459.876 437.09 457.044 420.183 453.484C420.021 443.209 420.102 432.853 420.021 422.577ZM419.94 383.419C424.066 384.713 428.191 385.846 432.155 387.545C433.126 388.192 432.802 389.406 432.964 390.376C433.045 401.137 433.206 411.979 433.287 422.739C428.838 421.93 424.389 421.04 420.021 420.15C420.021 407.933 420.021 395.716 419.94 383.419ZM420.021 370.231C423.985 371.525 428.03 372.658 432.074 373.952C432.155 377.108 432.236 380.344 432.155 383.499C428.191 382.609 423.823 382.367 420.183 380.668C419.86 377.189 420.021 373.71 420.021 370.231ZM446.23 387.059C442.752 386.331 439.354 385.522 436.038 384.308C435.31 381.234 434.905 378.078 434.258 374.923C438.303 375.975 442.347 377.107 446.311 378.402C446.149 381.315 446.149 384.227 446.23 387.059ZM447.12 395.231C447.363 405.425 447.606 415.62 447.606 425.814C443.965 424.762 440.244 424.034 436.523 423.306C435.957 411.736 435.876 400.247 435.795 388.677C439.274 389.163 442.914 389.486 445.907 391.428C447.282 392.156 446.958 393.936 447.12 395.231ZM451.893 306.476C457.798 307.446 463.541 309.469 468.961 311.896C469.204 323.223 469.446 334.55 469.123 345.877C463.46 344.017 457.636 342.398 451.893 340.699C451.731 329.292 451.488 317.884 451.893 306.476ZM451.65 294.178C457.312 296.12 463.056 297.819 468.556 300.165C468.718 302.835 468.718 305.586 468.961 308.256C463.622 305.424 457.717 303.887 451.973 302.026C451.731 299.437 451.65 296.848 451.65 294.178ZM419.94 275.812C419.86 272.899 419.86 269.906 419.86 266.993C436.523 273.304 453.106 280.019 469.527 286.815C469.527 289 469.527 291.265 469.527 293.45C452.944 287.786 436.685 281.071 419.94 275.812ZM446.149 300.165C442.995 298.87 439.435 298.304 436.523 296.443C435.553 293.854 436.119 290.78 435.229 288.029C438.707 289.566 442.428 290.456 445.988 291.831C445.988 294.663 445.988 297.414 446.149 300.165ZM436.442 301.136C440.082 301.945 444.289 302.592 446.716 305.667C447.363 316.751 447.12 327.916 447.525 339.081C443.965 337.867 440.325 336.816 436.766 335.845C436.523 324.275 436.119 312.706 436.442 301.136ZM419.94 294.501C424.389 296.12 428.919 297.495 432.802 300.165C433.288 302.43 433.045 304.777 433.045 307.123C432.883 316.428 433.287 325.732 433.045 334.955C428.676 333.742 424.308 332.609 419.94 331.476C420.102 319.178 420.021 306.88 419.94 294.501ZM419.94 281.394C423.742 283.579 428.03 284.954 432.074 286.573C432.236 289.647 432.398 292.641 432.478 295.715C428.353 294.582 424.389 292.883 420.183 292.317C419.536 288.676 420.021 285.035 419.94 281.394ZM469.204 351.217C469.689 359.632 469.527 368.046 469.527 376.46C453.025 371.687 436.442 367.399 420.021 362.383C420.021 352.916 420.021 343.45 419.941 333.984C436.361 339.648 452.782 345.473 469.204 351.217ZM469.689 393.37C463.865 391.428 457.96 389.891 451.974 388.435C451.65 385.522 451.569 382.61 451.327 379.697C457.312 381.558 463.46 382.852 469.365 385.037C469.527 387.868 469.527 390.619 469.689 393.37ZM469.851 396.849C470.336 408.095 470.255 419.341 470.498 430.668C464.35 429.536 458.202 428.16 452.054 426.704C452.054 415.539 451.569 404.293 452.135 393.046C458.202 393.127 463.946 395.474 469.851 396.849ZM470.255 479.051C464.107 477.594 457.96 476.3 451.731 475.329C451.65 472.578 451.488 469.908 451.407 467.157C457.474 468.856 463.703 469.746 469.77 471.284C470.013 473.873 470.093 476.462 470.255 479.051ZM451.974 479.941C458.283 479.536 464.512 481.235 470.579 482.692C470.902 493.938 470.983 505.184 471.064 516.43C464.754 515.621 458.364 515.135 452.054 514.084C451.893 502.676 451.812 491.268 451.974 479.941ZM459.901 376.46C452.54 375.247 445.664 372.415 438.465 370.635C432.398 368.532 426.007 367.156 419.94 365.133C419.86 364.891 419.698 364.324 419.617 364.001C433.207 367.642 446.473 372.334 459.901 376.46ZM459.092 463.759C447.12 461.737 435.391 458.581 423.419 456.559C422.124 456.073 419.94 456.397 419.698 454.617C432.964 457.368 446.149 460.2 459.092 463.759ZM446.149 478.889C447.201 479.374 446.878 480.831 447.039 481.802C447.363 492.239 447.444 502.757 447.686 513.275C444.046 512.627 440.325 512.385 436.766 511.737C436.523 500.087 436.119 488.355 436.281 476.705C439.597 477.19 443.075 477.433 446.149 478.889ZM434.744 463.921C438.465 464.811 442.347 465.297 446.068 466.43C446.23 469.261 446.068 472.012 446.068 474.844C442.752 474.278 439.516 473.63 436.28 472.821C435.553 469.828 435.148 466.834 434.744 463.921ZM433.126 476.543C433.53 488.274 433.368 500.087 433.53 511.818C429.081 511.333 424.632 511.171 420.183 510.362C420.102 497.902 420.021 485.442 420.021 472.983C424.47 474.035 428.838 475.006 433.126 476.543ZM420.102 460.361C424.066 461.494 428.191 461.979 432.155 463.193C432.398 466.267 432.317 469.342 432.317 472.416C428.272 471.931 424.228 471.284 420.183 470.636C420.102 467.239 420.102 463.759 420.102 460.361ZM420.102 513.275C439.597 515.945 459.173 518.129 478.587 520.961C478.668 522.013 478.668 523.064 478.749 524.116C468.395 523.388 458.122 521.689 447.848 520.718C438.626 519.666 429.324 518.857 420.102 517.806C420.102 516.268 420.102 514.731 420.102 513.275ZM420.183 519.585C433.692 521.204 447.201 523.145 460.71 524.763C467.909 525.653 475.27 526.22 482.308 528.161C482.793 530.346 483.036 532.611 483.845 534.715C484.169 530.508 483.117 526.3 484.088 522.174C483.198 522.74 482.308 523.307 481.499 523.873C481.499 520.88 483.521 518.614 484.816 516.106C481.823 516.025 478.749 515.944 475.756 515.701C475.513 500.248 475.432 484.714 475.27 469.261C478.263 469.746 481.337 469.989 484.33 470.555C484.573 477.27 484.33 483.986 484.492 490.701C484.654 483.986 484.492 477.271 484.654 470.555C486.272 470.717 487.889 470.96 489.426 471.202C489.669 492.805 489.346 514.407 489.75 536.009C466.534 533.258 443.237 531.317 420.102 528.566C420.183 525.573 420.183 522.579 420.183 519.585ZM417.352 514.165C417.352 518.857 417.352 523.55 417.433 528.242C414.197 527.919 411.042 527.676 407.806 527.352C407.321 458.5 406.917 389.729 406.35 320.877C406.108 298.466 405.703 275.973 405.703 253.562C390.496 247.251 375.45 240.779 360.323 234.468C354.256 232.041 348.27 229.614 342.365 226.782C342.203 224.517 342.203 222.251 342.041 219.986C367.361 230.018 392.437 240.617 417.433 251.378C417.271 338.92 417.514 426.542 417.352 514.165ZM342.85 511.818C357.006 514.003 371.243 515.378 385.4 517.239C391.547 517.967 397.695 518.857 403.924 519.342C403.924 521.851 403.924 524.278 404.086 526.786C383.701 524.682 363.235 522.902 342.85 520.475C342.931 517.644 342.931 514.731 342.85 511.818ZM355.389 360.603L355.308 360.765C358.786 361.493 362.184 362.383 365.662 363.03C365.743 375.004 365.42 387.059 365.096 399.034C365.5 401.38 365.177 403.807 365.258 406.153C361.132 405.182 357.007 404.292 352.881 403.402C350.454 402.917 347.947 402.432 345.52 401.865C345.52 387.302 345.277 372.658 345.924 358.094C349.079 358.904 352.234 359.875 355.389 360.603ZM347.623 347.981C353.69 349.357 359.676 351.217 365.662 352.917C365.662 355.344 365.743 357.771 365.904 360.198C359.919 358.337 353.852 356.638 347.866 354.778C347.704 352.512 347.704 350.247 347.623 347.981ZM383.944 413.597C387.826 414.406 391.628 415.458 395.511 416.51C395.511 417.723 395.592 419.018 395.673 420.231C396.077 410.28 395.915 400.247 396.077 390.296C395.996 378.402 396.482 366.59 396.158 354.696C397.776 354.777 399.313 354.858 400.931 355.02C400.688 353.806 400.041 353.079 398.908 352.917C379.899 349.357 361.294 343.693 342.446 339.405C342.85 329.049 342.446 318.693 342.526 308.337C348.432 309.389 353.932 311.816 359.676 313.677C372.052 317.641 384.429 321.767 396.805 325.813C397.452 325.893 398.666 326.136 399.313 326.217C399.151 303.158 399.475 280.019 399.717 256.96C399.879 275.246 400.122 293.45 400.364 311.735C401.335 317.965 401.821 324.275 401.497 330.586C401.982 342.965 401.578 355.344 402.306 367.723C401.901 367.561 401.011 367.237 400.526 367.076C401.416 375.085 401.011 383.095 401.092 391.105C401.092 410.037 401.173 428.889 401.335 447.821C401.254 421.526 401.982 395.231 401.416 369.017C401.577 369.503 401.982 370.474 402.144 370.959C402.791 416.672 403.195 462.384 403.762 508.016C401.335 507.773 398.908 507.531 396.562 507.45C396.238 496.689 396.562 486.009 396.481 475.249C396.562 467.239 396.32 459.229 396.805 451.219C398.342 450.815 400.93 452.19 401.497 450.005C395.43 447.821 388.716 448.549 382.325 448.064C385.642 448.306 388.958 448.711 392.275 448.954C392.275 449.601 392.194 450.815 392.194 451.462C375.692 448.387 359.109 445.475 342.688 442.157C342.526 429.374 342.446 416.591 342.688 403.807C356.602 406.639 370.192 410.522 383.944 413.597ZM367.765 352.916C368.169 353.078 368.897 353.321 369.221 353.483C369.464 355.91 369.302 358.418 369.302 360.926C366.309 359.632 368.25 355.505 367.765 352.916ZM368.25 403.322C368.089 390.134 368.25 377.027 368.008 363.92C368.25 364.162 368.655 364.567 368.898 364.81C369.949 378.968 369.626 393.127 369.626 407.286C367.603 406.882 368.493 404.697 368.25 403.322ZM372.376 362.059C372.538 359.632 372.618 357.124 372.618 354.696C378.766 355.991 384.752 357.933 390.819 359.551C390.738 361.978 390.657 364.405 390.657 366.832C384.591 365.133 378.443 363.596 372.376 362.059ZM390.091 411.412C384.267 410.199 378.443 409.147 372.699 407.852C372.538 393.775 372.295 379.616 372.619 365.538C378.524 367.318 384.51 368.531 390.496 370.15C390.657 383.904 390.091 397.658 390.091 411.412ZM370.192 254.614C378.604 257.769 387.26 260.439 395.592 263.756C397.21 265.86 393.003 265.375 391.951 264.808C384.591 261.653 377.229 258.417 370.192 254.614ZM390.496 282.689C390.496 285.682 390.496 288.676 390.496 291.67C390.334 301.136 390.091 310.602 390.091 319.987C383.701 318.126 377.31 316.184 370.839 314.323C370.758 310.683 370.758 306.961 370.758 303.32C370.596 298.951 370.677 294.582 370.677 290.213C370.677 288.757 370.677 287.3 370.677 285.844C376.744 284.226 382.488 278.967 389.202 281.556C389.525 281.151 390.092 280.342 390.334 279.938C390.415 280.504 390.496 281.961 390.496 282.689ZM385.561 258.659C371.243 253.401 356.925 247.818 342.688 242.235C342.608 239.242 342.608 236.329 342.446 233.335C360.97 240.86 379.494 248.465 397.938 256.151C398.18 258.498 397.776 260.925 397.695 263.271C393.974 261.168 389.606 260.197 385.561 258.659ZM366.147 281.961C366.228 278.563 365.905 275.084 366.39 271.686C366.633 271.686 367.199 271.605 367.442 271.524C367.846 285.521 368.089 299.437 367.684 313.434C367.28 313.272 366.552 312.948 366.147 312.787C365.986 302.592 366.228 292.236 366.147 281.961ZM365.986 267.236C365.986 266.912 365.905 266.346 365.905 266.103C365.905 263.676 365.905 261.249 366.067 258.902C366.471 258.902 367.28 258.902 367.684 258.902C367.765 261.977 367.765 264.97 367.604 268.045C367.199 267.802 366.39 267.397 365.986 267.236ZM365.015 270.876C364.934 284.712 364.287 298.547 364.044 312.382C357.815 310.521 351.668 308.418 345.358 306.637C345.924 292.802 346.41 278.967 346.895 265.132C352.962 266.912 359.11 268.692 365.015 270.876ZM372.538 458.662C372.618 456.478 372.618 454.293 372.699 452.19C378.766 453.08 384.833 454.05 390.738 455.426C390.657 457.529 390.657 459.633 390.819 461.736C384.752 460.685 378.685 459.714 372.538 458.662ZM390.01 507.368C384.186 506.802 378.362 506.316 372.619 505.426C372.457 490.944 372.376 476.461 372.538 461.979C378.605 462.707 384.591 463.921 390.577 464.973C390.657 479.132 390.253 493.21 390.01 507.368ZM368.008 460.766C368.898 460.847 369.383 461.332 369.221 462.303C369.625 476.624 369.787 490.863 369.625 505.184L368.412 504.699C367.846 490.054 368.331 475.41 368.008 460.766ZM368.25 451.542C368.493 451.3 368.898 450.895 369.14 450.652C369.383 453.08 369.383 455.426 369.14 457.853C367.522 456.235 368.25 453.646 368.25 451.542ZM343.74 482.287C343.659 473.954 343.659 465.54 344.711 457.206C351.91 458.501 359.11 459.229 366.228 460.685L366.471 461.251C366.39 475.653 365.904 490.055 365.743 504.456C359.676 503.485 353.609 502.757 347.542 501.786C346.167 501.705 344.873 501.543 343.497 501.462C343.659 495.071 343.093 488.679 343.74 482.287ZM346.571 447.821C352.962 448.792 359.433 449.762 365.824 451.057C365.986 453.322 366.066 455.507 366.147 457.772C359.676 456.558 353.205 455.264 346.652 454.131C346.571 451.947 346.571 449.843 346.571 447.821ZM342.85 504.375C363.154 506.964 383.539 508.663 403.762 511.09C403.762 512.87 403.762 514.65 403.843 516.511C383.539 514.326 363.154 511.98 342.85 510.119C342.769 508.178 342.769 506.317 342.85 504.375ZM352.396 342.237C365.338 345.716 378.362 348.871 390.981 353.402C391.871 353.887 391.547 354.939 391.466 355.829C376.178 351.46 360.889 347.253 345.924 341.994C344.468 341.509 343.093 340.78 341.799 339.971C345.52 340.052 348.917 341.428 352.396 342.237ZM535.778 540.54C534.16 540.378 532.542 540.298 531.005 540.136C531.005 519.585 530.762 498.954 530.358 478.404C531.733 478.889 533.594 478.727 534.726 479.617C535.292 500.006 535.292 520.314 535.778 540.54ZM488.86 160.519C490.397 160.276 491.934 159.872 493.552 159.467C493.633 159.71 493.714 160.114 493.795 160.357C492.096 161.004 489.831 161.004 488.86 162.704C488.86 161.895 488.86 161.247 488.86 160.519ZM485.867 161.733C486.11 160.924 489.103 161.409 487.728 162.299C482.955 164.16 478.263 166.102 473.248 167.153L471.792 166.263C476.484 164.726 481.176 163.189 485.867 161.733ZM533.189 207.769C533.998 233.983 534.322 260.197 535.373 286.411C533.189 285.278 530.924 284.307 528.578 283.417C528.336 265.698 528.578 247.98 528.498 230.18C528.902 227.429 525.505 227.187 523.806 226.054C494.523 210.924 465.159 196.118 435.714 181.312C407.24 166.506 378.281 152.752 349.726 138.108C339.453 133.092 329.422 127.509 319.23 122.412C318.906 114.159 319.23 105.988 319.149 97.7352C332.82 105.017 346.167 113.027 360.404 119.095C347.138 110.519 333.063 103.237 319.23 95.6315C319.23 93.528 319.311 91.4242 319.311 89.4015C331.93 95.8741 344.307 102.751 356.845 109.386C359.272 110.599 361.699 111.732 364.125 112.945C366.228 111.732 368.736 111.165 371.082 111.813C372.457 113.512 372.053 115.858 371.891 117.881C373.509 118.933 375.126 119.904 376.825 120.794C428.758 150.163 481.418 178.157 533.189 207.769ZM401.012 54.9351C414.682 63.754 428.272 72.6538 441.862 81.5536C449.061 86.489 456.584 90.8579 463.622 96.036C463.784 98.3824 463.703 100.728 463.784 102.994C459.173 99.1913 453.996 96.1978 449.062 92.8806C433.611 83.01 418.08 73.2202 402.63 63.3496C399.475 61.8121 401.416 57.6859 401.012 54.9351ZM463.946 113.593C443.075 100.81 422.286 87.8644 401.174 75.4047C400.931 71.6022 401.093 67.7187 400.931 63.9159C405.704 65.9386 409.829 69.2558 414.197 71.9256C425.846 79.1264 437.332 86.6506 448.9 93.8514C453.834 97.3305 459.335 99.9195 463.703 104.127C464.107 107.282 463.865 110.438 463.946 113.593ZM464.754 162.623C447.363 153.318 430.295 143.448 413.065 133.82C409.424 131.473 405.38 129.855 401.902 127.266C401.74 125.891 401.74 124.515 401.74 123.221C410.719 127.266 419.212 132.282 427.868 136.894C439.597 143.529 451.569 149.839 463.218 156.716C465.644 157.606 464.512 160.681 464.754 162.623ZM401.902 121.845C401.578 115.777 401.74 109.709 401.659 103.722C422.934 115.211 443.642 127.59 464.431 139.887C464.512 145.227 464.512 150.567 464.674 155.907C443.642 144.661 422.853 133.091 401.902 121.845ZM428.03 117.234C420.102 112.622 412.337 107.606 404.409 102.994C403.357 102.347 402.225 101.699 401.497 100.809C401.254 97.8158 401.416 94.8222 401.335 91.8284C406.836 94.4983 412.417 97.0065 417.756 99.9193C413.469 97.2492 409.101 94.6604 404.733 92.1521C403.519 91.3432 402.063 90.7768 401.254 89.5631C401.174 86.1651 401.335 82.686 401.254 79.288C414.844 87.217 427.949 95.9549 441.458 103.884C448.9 108.576 456.584 112.784 463.865 117.719C464.188 124.354 464.107 130.907 464.269 137.541C451.812 131.311 440.082 124.03 428.03 117.234ZM395.673 34.4654C410.8 43.3652 425.037 53.4787 439.759 62.9448C450.437 70.3074 461.842 76.78 472.196 84.6279C468.475 83.4953 465.563 80.7444 462.328 78.7217C446.958 68.8511 431.751 58.8183 416.462 48.7051C409.667 44.5789 403.519 39.4816 396.401 35.841C396.886 39.6435 396.724 43.527 396.724 47.3298C396.401 47.3298 395.754 47.1679 395.43 47.1679C395.673 42.9607 395.673 38.7537 395.673 34.4654ZM300.463 76.8608C328.613 63.4301 356.683 49.757 384.752 36.0836C387.988 34.6272 391.143 32.9282 394.54 32.0382C372.214 44.0126 350.616 57.2004 328.533 69.66C322.142 73.2199 315.59 76.6182 309.442 80.5017C309.119 80.8254 308.472 81.5536 308.148 81.9581C305.398 80.4209 302.809 78.8027 300.463 76.8608ZM268.106 102.913C267.459 102.913 266.812 102.913 266.084 102.913C260.745 100.324 255.73 97.0878 250.391 94.4177C249.015 93.6088 247.317 93.204 246.832 91.505C254.435 94.4988 261.069 99.1105 268.106 102.913ZM175.485 148.949C169.095 152.186 162.785 155.665 156.313 158.658C156.233 154.613 156.071 150.487 156.152 146.441C158.336 143.933 161.571 142.638 164.241 140.778C191.016 124.677 217.791 108.415 245.214 93.2851C246.184 93.7706 245.699 95.0651 246.022 95.9549C246.589 100.89 245.456 106.149 246.912 110.923C247.155 105.259 246.993 99.5958 247.236 93.9322C254.354 97.5731 261.069 101.861 268.43 104.855C266.569 106.149 264.627 107.282 262.605 108.253C227.013 127.347 191.582 146.845 155.99 165.859C156.071 163.998 156.152 162.056 156.232 160.195C169.822 153.318 183.17 146.117 196.678 139.078C209.945 131.877 223.454 125.162 236.639 117.88C216.093 128.075 195.789 138.431 175.485 148.949ZM111.823 196.118C143.047 178.885 174.676 162.218 206.062 145.389C238.985 127.913 271.989 110.437 305.074 93.204C308.633 91.505 312.031 89.3205 315.832 88.107C315.913 90.2915 315.913 92.4761 315.832 94.6604C247.398 129.369 179.53 165.13 111.661 200.972C111.742 199.355 111.337 197.736 111.823 196.118ZM112.308 363.515C112.228 355.991 112.308 348.547 112.308 341.023C120.074 343.774 128.001 346.12 135.605 349.275C136.01 356.234 135.767 363.111 135.929 370.069C127.92 368.046 120.074 365.781 112.308 363.515ZM135.767 348.548C128.325 344.745 120.074 342.641 112.389 339.324C112.389 304.291 112.308 269.259 112.147 234.226C112.551 232.365 110.205 232.122 109.073 231.232C110.124 231.637 111.095 232.041 112.147 232.527C112.066 222.899 111.823 213.19 111.985 203.481C117.081 200.326 122.501 197.737 127.84 194.905C166.668 174.354 205.658 154.128 244.486 133.496C268.349 120.875 292.374 108.496 316.156 95.8744C316.318 104.693 316.722 113.431 316.722 122.25C311.626 125.405 306.287 128.075 301.353 131.473C306.692 129.936 311.869 127.59 316.884 125.325C317.127 148.383 317.774 171.442 317.531 194.419C313.729 196.685 308.957 197.494 305.802 200.73C307.824 201.135 310.332 201.054 311.788 202.915C313.325 204.776 315.428 206.232 316.399 208.416C317.127 233.74 317.046 259.064 317.289 284.469C317.531 290.942 316.803 297.333 317.208 303.806C317.046 296.767 317.855 289.809 317.693 282.77C317.774 260.682 317.774 238.595 317.936 216.507C317.936 214.565 318.098 212.623 318.34 210.682C321.98 210.358 325.135 212.381 328.371 213.675C332.415 215.536 336.703 216.993 340.666 219.015C340.666 253.724 340.747 288.434 340.585 323.143C340.666 329.615 340.262 336.169 340.828 342.641C333.305 340.376 325.782 337.787 318.097 336.169C317.936 333.418 317.774 330.667 317.289 327.997C317.289 330.748 317.369 333.499 316.965 336.169C311.707 338.677 306.125 340.619 300.787 342.884L300.867 343.288C306.773 341.589 312.516 339.486 318.34 337.787C325.863 339.486 333.224 341.751 340.747 343.531C340.423 376.379 340.585 409.309 340.585 442.157C333.224 441.267 326.106 439.164 318.744 438.031C317.855 422.659 318.34 407.286 317.936 391.995C317.531 407.529 318.017 423.063 317.531 438.516C311.626 440.62 305.559 442.157 299.654 444.261C305.721 443.371 311.707 441.914 317.693 440.539C317.855 466.591 318.017 492.562 317.774 518.615C311.464 519.262 305.235 520.152 299.007 520.799C298.683 497.498 298.683 474.277 298.764 450.976C298.117 363.354 298.602 275.65 297.794 188.028C297.47 169.5 297.955 151.053 297.632 132.525C282.101 140.13 266.731 148.059 251.281 155.826C249.259 156.959 246.832 157.525 245.133 159.144C245.376 203.804 245.295 248.546 245.457 293.207C245.861 368.694 245.78 444.099 246.104 519.585C240.523 520.718 235.103 522.174 229.44 522.579C228.955 434.794 228.631 347.091 228.146 259.307C228.146 228.966 228.065 198.707 227.822 168.367C216.336 174.354 204.768 180.098 193.281 185.924C193.443 274.517 193.443 363.192 193.767 451.785C193.929 479.051 194.171 506.317 194.09 533.582C188.752 534.149 183.332 534.472 177.993 535.12C177.508 469.585 177.184 404.05 176.779 338.515C176.699 300.246 176.537 261.896 176.699 223.627C176.699 214.322 176.779 205.018 176.537 195.714C165.616 201.296 154.615 206.636 143.776 212.381C141.187 213.837 138.275 214.727 136.01 216.588C135.848 260.601 135.686 304.534 135.767 348.548ZM296.499 521.284C282.02 523.145 267.459 524.763 252.899 526.381C252.899 522.983 252.656 519.504 252.899 516.106C267.459 514.65 282.02 512.951 296.499 511.252C296.499 514.65 296.499 517.967 296.499 521.284ZM296.257 508.906C281.777 511.252 267.216 512.87 252.656 514.974C252.656 513.356 252.575 511.737 252.656 510.119C267.297 508.825 281.939 506.721 296.58 504.861C296.499 506.155 296.499 507.53 296.257 508.906ZM296.014 305.262C289.866 307.042 283.799 309.065 277.57 310.602C277.085 297.576 276.842 284.55 276.519 271.524L276.923 271.038C283.233 268.53 289.623 266.427 296.014 264.404C295.933 277.915 296.176 291.589 296.014 305.262ZM295.852 260.601C289.3 263.109 282.667 265.375 276.438 268.611C276.276 264.808 276.276 261.006 276.276 257.122C282.909 254.938 289.381 252.511 295.852 249.922C295.933 253.481 296.095 257.042 295.852 260.601ZM295.852 239.161C281.373 245.067 266.812 250.65 252.252 256.313C252.171 247.414 251.928 238.514 251.766 229.614C266.569 223.708 281.13 217.073 295.771 210.844C295.933 220.309 296.095 229.776 295.852 239.161ZM273.283 270.067C270.128 271.443 266.893 272.576 263.819 274.113C263.576 269.825 263.495 265.456 263.819 261.168C267.136 260.278 270.452 259.307 273.688 258.255C273.607 262.139 273.769 266.103 273.283 270.067ZM273.283 272.818C272.717 285.764 272.798 298.709 272.151 311.573C269.481 312.625 266.812 313.676 264.143 314.566C264.143 301.864 263.738 289.081 263.9 276.378C267.054 275.326 270.21 274.194 273.283 272.818ZM295.933 308.498C295.933 318.45 296.257 328.402 295.933 338.353C281.372 342.398 267.054 347.334 252.494 351.217C252.332 341.994 252.656 332.689 251.847 323.466C266.812 319.259 281.291 313.676 295.933 308.498ZM296.418 401.865C290.19 403.402 283.799 404.454 277.409 405.263C277.004 391.59 276.923 377.916 276.519 364.243C283.152 362.544 289.542 359.874 296.257 358.499C296.257 372.9 296.176 387.383 296.418 401.865ZM276.357 361.735C276.519 358.58 275.953 355.425 276.357 352.35C282.909 350.085 289.624 348.062 296.095 345.554C296.176 348.547 296.257 351.46 296.176 354.454C289.623 356.881 282.909 359.065 276.357 361.735ZM263.981 366.59C263.819 363.111 263.738 359.632 263.738 356.234C266.974 355.344 270.21 354.373 273.364 353.402C273.364 356.395 273.769 359.389 273.364 362.383C270.371 364.082 267.136 365.214 263.981 366.59ZM273.283 365.619C272.555 378.888 272.555 392.156 272.07 405.425C269.319 406.639 266.569 407.853 263.738 408.823C263.657 395.554 263.576 382.367 263.738 369.098C266.893 367.884 270.128 366.832 273.283 365.619ZM296.257 404.94C296.257 416.51 296.257 428.079 296.337 439.73C281.858 442.4 267.378 445.636 252.898 448.144C252.656 437.465 253.06 426.704 252.332 416.024C267.136 412.95 281.615 408.661 296.257 404.94ZM296.338 502.433C290.109 502.838 283.961 503.404 277.652 503.566C277.247 489.002 277.166 474.358 276.681 459.795C283.152 457.934 289.866 456.64 296.499 455.426C296.257 471.041 296.58 486.737 296.338 502.433ZM296.418 451.623C289.785 453.322 283.071 455.102 276.519 457.044C276.438 454.859 276.438 452.756 276.438 450.571C283.152 449.115 289.785 447.173 296.58 445.717C296.418 447.659 296.418 449.682 296.418 451.623ZM273.607 457.611C270.695 459.229 267.217 459.552 264.143 460.847C264.062 458.177 263.981 455.507 264.062 452.756C267.217 452.19 270.452 451.785 273.688 451.461C273.688 453.484 273.769 455.588 273.607 457.611ZM273.364 460.685C272.879 474.358 272.798 488.112 272.151 501.786C269.4 502.271 266.65 502.918 263.9 503.728C263.819 490.297 263.576 476.866 263.98 463.355C267.054 462.384 270.21 461.575 273.364 460.685ZM294.315 172.736C294.801 173.383 295.205 174.03 295.61 174.678H296.257C296.418 181.393 295.933 188.027 296.014 194.743C295.933 198.95 296.257 203.238 295.69 207.445C286.55 211.167 277.57 215.374 268.349 219.015C268.106 219.338 267.621 219.905 267.297 220.228C266.973 208.335 266.893 196.442 267.297 184.548L267.216 184.306C270.857 182.121 274.739 180.26 278.379 178.076C279.35 177.509 280.321 176.943 281.291 176.296C276.681 176.943 272.232 178.237 267.863 179.613C267.944 174.111 267.863 168.61 268.025 163.108C270.614 162.137 273.04 160.842 275.629 159.791C277.004 159.143 278.379 158.496 279.835 158.092C285.741 159.548 291.079 162.461 296.175 165.697C296.418 167.881 296.499 170.066 296.337 172.331C296.418 172.898 296.58 173.949 296.58 174.516C295.852 173.788 295.043 173.302 294.315 172.736ZM246.023 527.757C240.36 528.081 234.779 528.89 229.197 529.537C229.278 527.352 229.359 525.087 229.521 522.903C235.022 523.226 240.441 522.255 245.942 521.527C245.942 523.631 246.023 525.734 246.023 527.757ZM226.689 529.699C217.791 530.751 208.812 531.64 199.833 532.692C199.753 529.294 199.671 525.977 199.591 522.579C208.57 521.527 217.629 520.718 226.609 519.585C226.689 522.903 226.609 526.301 226.689 529.699ZM199.591 520.799C199.591 519.505 199.591 518.21 199.591 516.915C208.731 516.025 217.791 514.812 226.77 513.517C226.77 514.731 226.77 515.945 226.69 517.158C217.791 518.938 208.651 519.747 199.591 520.799ZM214.313 196.442C213.1 197.251 211.967 198.141 210.754 198.95C210.592 195.39 210.511 191.83 210.673 188.351C211.887 187.623 213.1 186.895 214.313 186.247C214.151 189.646 214.151 193.044 214.313 196.442ZM211.158 201.215C212.048 200.649 212.857 200.083 213.747 199.435C213.828 209.225 213.909 219.015 213.504 228.805C213.747 233.821 213.585 238.756 213.585 243.773C212.615 243.611 211.644 243.53 210.754 243.206C210.512 237.866 210.592 232.526 210.754 227.187C210.35 222.98 210.592 218.692 210.754 214.403C210.107 210.115 211.725 205.665 211.158 201.215ZM225.638 241.993C225.881 250.65 225.638 259.388 225.881 268.045C217.144 272.009 208.084 275.164 199.348 278.967C199.186 270.876 199.186 262.705 198.782 254.533C207.923 250.731 216.982 246.766 225.638 241.993ZM225.395 228.643C225.395 232.041 225.638 235.439 225.233 238.756C225.314 239.404 225.557 240.617 225.638 241.184L225.071 240.86C222.564 242.074 219.894 242.802 217.387 243.773C217.144 239.97 217.225 236.248 217.225 232.446C217.063 229.452 217.144 226.378 217.306 223.384C216.497 215.131 217.71 206.798 216.659 198.546C219.49 197.332 222.402 196.28 225.153 194.905C225.395 206.232 224.91 217.397 225.395 228.643ZM216.416 195.714C216.254 192.154 216.093 188.594 216.254 184.953C219.086 183.578 221.998 182.283 224.91 181.069C224.91 184.71 224.91 188.27 224.991 191.911C222.16 193.206 219.328 194.419 216.416 195.714ZM225.881 293.369C225.638 305.424 226.123 317.479 225.961 329.615C224.991 329.939 224.101 330.262 223.13 330.586C222.888 318.531 222.079 306.476 222.079 294.421C223.373 294.016 224.586 293.692 225.881 293.369ZM221.674 291.508C221.512 287.705 221.27 283.822 221.432 280.019C222.807 279.615 224.263 279.129 225.638 278.644C225.719 282.123 225.962 285.602 225.719 289C224.506 290.052 223.049 290.699 221.674 291.508ZM219.167 292.641C215.769 294.421 212.129 295.472 208.651 296.929C208.651 292.479 208.489 288.029 208.57 283.498C212.453 283.66 216.012 282.203 219.571 280.99C219.247 284.954 219.814 288.919 219.167 292.641ZM219.167 295.472C218.843 306.233 219.167 317.075 218.439 327.835C215.607 330.02 212.129 330.991 209.055 332.69C208.893 321.686 208.651 310.602 208.893 299.518C212.291 298.061 215.769 296.929 219.167 295.472ZM226.042 332.609C226.366 341.67 226.123 350.732 226.204 359.713C217.468 362.221 208.732 364.81 199.914 367.237C199.672 358.823 199.51 350.489 199.348 342.156C208.408 339.243 217.225 335.845 226.042 332.609ZM226.042 378.24C226.528 391.509 226.204 404.697 226.447 417.966C226.932 419.827 224.991 419.989 223.777 420.393C223.373 406.639 223.13 392.885 222.888 379.13C223.939 378.807 224.991 378.483 226.042 378.24ZM222.645 375.975C222.241 373.062 222.16 370.15 222.16 367.237C223.454 366.752 224.748 366.266 226.123 365.781C226.123 368.612 226.285 371.444 226.123 374.276C224.991 374.923 223.777 375.409 222.645 375.975ZM208.812 381.638C208.57 378.321 208.408 375.004 208.489 371.687C212.129 370.392 216.012 369.664 219.652 368.531C219.652 371.444 219.814 374.438 219.814 377.35C216.254 378.969 212.453 380.101 208.812 381.638ZM219.733 380.182C219.167 392.723 219.247 405.263 218.681 417.723C215.85 419.584 212.372 420.15 209.217 421.445C208.974 408.904 208.893 396.444 208.893 383.904C212.453 382.61 216.174 381.558 219.733 380.182ZM226.528 422.982C226.528 432.691 226.608 442.481 226.689 452.19C217.791 453.97 208.974 455.75 200.076 457.287C199.995 448.063 199.833 438.759 199.51 429.536C208.651 427.917 217.468 424.924 226.528 422.982ZM226.689 510.2C226.204 510.281 225.153 510.443 224.667 510.524C224.424 496.446 224.02 482.368 223.696 468.209C224.667 467.967 225.638 467.805 226.689 467.562C226.609 481.802 226.932 495.961 226.689 510.2ZM226.609 463.193C226.285 464.649 224.344 464.488 223.211 464.973C223.049 462.708 222.969 460.361 222.888 458.096C224.182 457.853 225.476 457.611 226.77 457.449C226.77 459.31 226.851 461.251 226.609 463.193ZM219.814 466.51C216.173 467.967 212.291 468.857 208.57 470.07C208.489 467.239 208.408 464.326 208.408 461.494C212.291 460.766 216.173 460.038 219.975 459.067C219.814 461.494 220.218 464.083 219.814 466.51ZM219.895 469.18C219.328 482.449 219.49 495.799 218.681 509.067C215.446 509.795 212.129 510.362 208.812 511.09C208.651 498.226 208.732 485.442 208.57 472.578C212.372 471.446 216.174 470.475 219.895 469.18ZM139.812 529.941C151.703 528.242 163.755 526.948 175.728 525.653C175.728 528.89 175.647 532.045 175.728 535.281C163.755 537.061 151.622 537.87 139.488 539.327C139.731 536.252 139.164 532.935 139.812 529.941ZM139.488 528.485C139.488 527.271 139.569 526.139 139.569 524.925C151.541 523.226 163.594 521.932 175.565 519.99C175.646 520.961 175.646 521.932 175.727 522.983C163.756 525.33 151.46 526.058 139.488 528.485ZM155.585 226.135C161.652 222.494 168.366 219.662 174.757 216.588C174.999 231.96 174.999 247.333 175.08 262.705C168.528 265.456 161.814 267.802 155.262 270.715C155.343 255.828 155.424 240.941 155.585 226.135ZM155.505 213.19C161.652 209.953 168.367 207.607 174.757 204.856C174.676 207.607 174.757 210.358 174.514 213.028C168.205 216.264 161.895 219.743 155.586 222.98C155.666 219.743 155.424 216.507 155.505 213.19ZM175.161 264.161C175.647 271.686 175.404 279.291 175.485 286.815C163.917 292.074 151.945 296.605 140.135 301.459C139.973 301.379 139.569 301.298 139.326 301.217C139.003 294.34 139.246 287.543 138.922 280.666C150.975 275.084 163.189 269.906 175.161 264.161ZM158.255 405.992C158.012 402.108 158.012 398.144 157.931 394.26C163.755 392.642 169.742 391.752 175.566 390.215C175.566 404.05 175.646 417.885 175.728 431.72C170.227 433.015 164.645 433.905 159.064 434.633C158.983 425.167 158.498 415.701 158.417 406.235C161.005 407.125 163.594 407.772 166.263 408.257C169.094 408.743 171.845 409.39 174.595 410.118C169.337 408.176 163.594 407.853 158.255 405.992ZM157.527 391.995C157.365 389.729 157.284 387.464 157.041 385.279C163.108 383.823 169.256 382.286 175.323 380.587C175.404 382.69 175.404 384.794 175.323 386.898C169.418 388.677 163.351 390.053 157.527 391.995ZM145.312 317.803C148.224 316.185 151.541 315.537 154.453 313.919C153.887 326.622 153.967 339.324 153.401 352.027C150.813 352.755 148.224 353.483 145.717 354.454C145.312 343.531 145.312 332.528 145.07 321.606C145.07 320.392 144.584 318.936 145.312 317.803ZM154.291 311.735C151.217 313.029 148.062 314.162 144.989 315.376C144.827 312.382 144.665 309.469 144.746 306.476C147.982 305.343 151.217 304.291 154.453 303.402C154.453 306.071 154.615 308.903 154.291 311.735ZM153.725 299.437C148.952 300.893 144.18 302.43 139.407 303.806C139.569 303.482 139.811 302.916 139.973 302.673C151.703 298.547 163.351 294.259 175.404 291.427C175.242 291.831 174.999 292.56 174.838 292.883C167.962 295.634 160.682 297.171 153.725 299.437ZM141.106 353.968C141.268 342.318 140.782 330.667 141.753 319.016C141.915 331.961 142.238 344.907 141.995 357.933C140.54 357.124 141.268 355.263 141.106 353.968ZM175.161 295.958C175.161 298.466 175.161 300.974 175.081 303.482C169.095 305.829 162.947 307.851 157.123 310.44C156.799 307.69 156.637 304.939 156.476 302.269C162.704 300.003 168.933 297.899 175.161 295.958ZM175.323 306.961C175.647 320.149 175.647 333.418 175.647 346.606C170.146 348.628 164.403 350.327 158.659 351.46C158.174 338.515 157.931 325.57 157.446 312.624C163.432 310.845 169.337 308.822 175.323 306.961ZM175.566 349.437C175.485 357.123 175.646 364.81 175.566 372.496C170.469 374.357 165.454 376.379 160.196 377.512C160.277 377.188 160.358 376.46 160.358 376.136C156.799 376.379 153.563 374.842 150.166 374.033C146.445 373.143 142.804 372.091 139.165 371.201C139.003 368.127 139.003 365.133 138.922 362.059C151.217 358.176 163.432 353.887 175.566 349.437ZM157.527 376.46C158.659 376.46 159.226 377.35 159.63 378.24C154.777 379.373 150.166 381.477 145.312 382.448C145.959 382.771 146.526 383.014 147.173 383.257C156.475 380.344 166.021 377.917 175.647 376.38C175.485 376.784 175.242 377.512 175.081 377.917C165.454 380.344 155.666 382.286 145.96 383.823C145.393 384.389 144.665 384.794 143.775 384.875L144.18 384.228L144.827 383.985C144.908 383.661 145.151 383.014 145.313 382.691C143.371 383.419 141.43 384.228 139.407 384.956C139.165 380.425 139.165 375.894 139.165 371.364C145.15 373.224 151.379 374.761 157.527 376.46ZM154.453 393.046C151.298 394.341 148.063 395.231 144.908 396.364C144.584 393.694 144.503 391.105 144.665 388.435C148.062 387.545 151.46 386.574 154.938 385.846C154.534 388.192 154.696 390.619 154.453 393.046ZM154.615 394.907C153.806 407.772 154.049 420.636 153.401 433.419C150.893 434.147 148.305 434.794 145.717 435.442C145.393 423.144 145.07 410.927 144.908 398.629C148.224 397.496 151.541 396.444 154.615 394.907ZM142.076 438.355H141.187C141.187 427.513 141.106 416.672 141.025 405.83C141.187 405.668 141.591 405.344 141.834 405.183C141.834 416.267 142.157 427.27 142.076 438.355ZM175.323 472.659C169.418 473.792 163.513 474.925 157.527 476.219C157.446 473.954 157.446 471.769 157.365 469.504C163.351 468.452 169.499 468.209 175.404 466.591C175.404 468.614 175.404 470.637 175.323 472.659ZM175.485 475.734C175.566 489.569 175.647 503.404 175.728 517.239C170.146 518.048 164.565 518.614 158.983 519.019C158.659 505.508 158.417 491.915 158.012 478.404C163.756 477.433 169.661 476.543 175.485 475.734ZM139.893 468.614C139.488 464.002 139.569 459.39 139.569 454.779C149.276 456.639 158.983 458.338 168.609 460.442C170.631 460.847 172.735 461.009 174.595 462.06C163.027 464.488 151.541 467.238 139.893 468.614ZM154.777 476.866C151.46 477.756 148.063 478.565 144.746 479.536C144.584 476.866 144.503 474.277 144.503 471.607C147.982 471.122 151.46 470.555 154.938 470.07C154.777 472.336 154.777 474.601 154.777 476.866ZM154.696 478.97C154.049 491.996 154.13 505.022 153.402 518.048C150.813 518.534 148.224 519.019 145.636 518.938C145.393 506.479 145.231 494.019 144.827 481.559C148.143 480.669 151.46 480.103 154.696 478.97ZM140.863 518.21C141.187 502.514 140.459 486.818 140.701 471.122C141.106 471.931 141.591 472.74 141.51 473.711C141.429 489.812 142.238 505.831 141.915 521.932C140.459 521.284 141.025 519.505 140.863 518.21ZM163.189 458.662C155.262 457.368 147.496 455.507 139.569 454.293C139.407 450.248 139.488 446.202 139.488 442.157C151.541 439.406 163.594 436.574 175.566 433.662C175.809 442.966 175.566 452.27 175.728 461.575C171.845 459.876 167.396 459.633 163.189 458.662ZM135.362 418.209L135.686 418.613C135.767 430.183 135.767 441.833 135.767 453.403C128.325 451.785 120.802 450.329 113.36 448.63C112.794 436.979 112.874 425.248 112.47 413.516C120.155 414.972 127.839 416.429 135.362 418.209ZM93.7841 473.064C99.6082 474.035 105.513 474.763 111.338 476.057C111.823 477.109 111.58 478.323 111.661 479.374C111.661 500.006 112.309 520.637 111.985 541.188C110.853 541.188 109.801 541.268 108.749 541.35C108.426 539.084 107.779 536.9 107.051 534.796L106.485 534.715C105.676 538.194 106.565 542.644 103.492 545.233C103.653 545.962 104.058 547.499 104.3 548.227C102.278 552.919 98.3145 556.237 95.6449 560.363C97.8291 558.906 98.9615 556.398 100.903 554.699V554.537C101.469 553.971 101.954 553.405 102.521 552.838L102.763 553.162C103.653 551.706 104.3 550.169 104.866 548.55C106.484 550.411 106.161 553.081 106.403 555.347C106.484 560.687 106.969 566.107 106.889 571.447C102.52 576.544 97.5862 581.075 93.6223 586.496C93.7031 583.421 93.4605 580.266 93.7031 577.192C95.8062 570.962 100.336 566.026 102.925 560.12C101.145 561.577 100.336 563.923 99.042 565.784C97.2623 568.777 94.8356 571.609 94.1075 575.169L93.4603 575.007C93.4603 570.396 92.9748 565.703 94.1075 561.172C94.8356 557.289 97.1005 553.971 99.042 550.573C99.2846 550.573 99.6893 550.573 99.9319 550.573C100.094 550.978 100.498 551.706 100.66 552.111C100.822 551.464 101.064 550.897 101.226 550.331C100.984 550.169 100.417 549.845 100.094 549.684C100.013 547.903 101.712 546.286 102.359 544.587C102.682 543.778 103.329 543.13 103.895 542.483C106.646 530.509 105.432 518.13 106.322 505.994C106.484 498.389 107.697 490.945 107.94 483.34C108.021 481.965 107.616 479.942 105.837 480.104C104.624 482.046 104.219 484.311 103.896 486.495C102.035 499.036 103.734 511.9 100.984 524.36C98.8805 530.59 97.748 537.143 95.2402 543.292C94.1078 545.881 94.0267 548.713 93.1371 551.383C94.1888 542.726 93.5416 534.069 93.4608 525.412C92.8135 515.136 93.0564 504.942 92.8946 494.667C92.8132 487.546 92.8132 480.264 93.7841 473.064ZM102.439 601.059C102.116 601.463 101.55 602.192 101.226 602.596L101.145 602.03C100.255 604.214 98.5566 605.832 97.3433 607.774C96.2109 609.312 95.4828 611.172 93.8649 612.386C93.3795 607.612 98.2332 605.023 101.064 602.03C101.064 601.544 100.984 600.573 100.984 600.169C99.2038 602.839 96.5345 604.781 94.1078 606.803C94.3504 604.538 93.7034 601.949 95.0784 600.007C95.2402 599.845 95.4828 599.603 95.6447 599.441L95.321 599.117C94.1886 597.984 95.8065 596.366 96.0491 595.153C95.4828 595.315 94.4312 595.557 93.8649 595.638C94.1886 593.615 93.6223 591.107 95.4828 589.732C98.0714 587.709 100.579 585.363 101.631 582.126C99.689 584.958 97.4241 587.628 94.3504 589.408C94.9976 586.9 96.9389 585.039 98.5568 583.097C101.55 579.699 104.058 575.897 107.212 572.741C107.374 580.104 108.264 587.385 108.021 594.748C105.271 595.881 103.734 598.47 101.307 600.007C101.631 600.331 102.035 600.736 102.439 601.059ZM94.593 553.809C95.1592 543.777 99.8508 534.472 101.064 524.521C101.792 526.382 101.469 528.404 101.469 530.346C101.145 535.362 100.417 540.378 98.7184 545.152C97.5859 548.227 95.8872 550.896 94.593 553.809ZM86.4229 602.273C86.5847 596.447 89.0922 591.027 89.2541 585.282C89.9013 580.185 89.4967 574.926 90.7102 569.829C90.2247 584.959 90.7909 600.088 90.7102 615.299C90.7102 622.014 90.5483 628.729 90.7102 635.526C88.4452 635.445 86.0993 635.445 83.8344 635.526C84.077 624.36 84.4006 613.195 86.4229 602.273ZM75.9877 641.108C77.5246 645.477 76.3113 650.25 76.635 654.862L75.5025 654.781C75.5833 650.412 75.4217 646.124 75.6643 641.755C75.5835 641.432 75.3407 640.785 75.2599 640.461C83.43 639.652 91.6811 640.056 99.9319 639.247C92.0044 640.704 83.9962 640.785 75.9877 641.108ZM105.513 653.649C105.513 648.471 105.352 643.373 105.675 638.196C108.021 638.357 110.367 638.357 112.713 638.438C112.632 643.535 112.794 648.632 112.794 653.811C110.367 653.811 107.94 653.73 105.513 653.649ZM94.593 634.959C94.674 633.341 94.7548 631.723 94.8356 630.185C96.8579 629.134 98.7992 627.677 100.093 625.736C98.3137 626.787 96.6961 628.001 94.7545 628.729C94.7545 627.354 93.9457 625.493 95.24 624.522C99.5272 620.881 103.572 616.917 106.646 612.224C108.587 608.178 108.506 603.648 108.83 599.36C110.043 599.36 111.176 599.44 112.389 599.522C112.632 609.635 112.632 619.748 112.632 629.943C110.448 629.862 108.183 629.862 105.999 629.943C105.513 624.764 106.646 619.748 106.807 614.651C106.646 616.431 106.565 618.292 106.241 620.072C105.513 623.956 106.16 627.92 105.351 631.803C107.859 631.642 110.367 631.642 112.793 631.723C112.874 632.855 112.874 633.907 112.955 635.04C106.888 634.716 100.741 635.121 94.593 634.959ZM107.859 598.308C108.264 602.515 107.455 607.046 104.624 610.444C101.55 614.247 98.2332 617.888 94.2696 620.881C94.1078 618.292 94.027 615.622 94.027 613.033C95.8875 612.062 96.7774 610.12 97.9098 608.502C100.822 604.133 104.3 600.169 107.212 595.8C107.779 596.124 108.345 596.366 108.992 596.69C108.668 580.266 107.698 563.922 107.051 547.498C108.507 547.417 109.963 547.256 111.419 547.256C112.066 562.143 112.147 577.029 112.147 591.916C112.389 593.939 110.853 596.366 112.956 597.823C111.823 599.441 109.477 599.279 107.859 598.308ZM113.36 449.196C120.802 451.138 128.406 452.19 135.848 453.97C135.848 458.662 136.01 463.436 135.848 468.129C128.406 466.915 121.045 465.135 113.603 464.002C113.441 459.067 113.441 454.131 113.36 449.196ZM135.767 479.132C128.487 477.918 121.125 476.624 113.845 475.329C113.764 471.769 113.764 468.209 113.764 464.649C121.126 466.186 128.406 467.562 135.848 468.856C135.929 472.255 135.767 475.734 135.767 479.132ZM135.686 480.264C135.686 500.168 135.605 520.152 135.686 540.055C128.729 540.864 121.692 541.673 114.735 542.078C114.331 520.233 114.411 498.388 113.683 476.543C121.045 477.594 128.406 478.889 135.686 480.264ZM136.657 657.29C129.457 657.209 122.258 657.128 115.14 656.885C115.14 650.736 115.059 644.668 114.978 638.519C122.177 638.6 129.457 638.681 136.657 638.843C136.819 644.992 136.819 651.141 136.657 657.29ZM114.735 634.716C114.735 633.665 114.816 632.532 114.816 631.48C122.096 631.399 129.377 631.804 136.657 631.642C136.657 632.694 136.738 633.746 136.738 634.797C129.377 634.878 122.096 634.878 114.735 634.716ZM148.224 652.354C147.982 652.354 147.577 652.354 147.335 652.354C146.93 636.011 146.688 619.587 146.688 603.244C147.092 603.405 147.901 603.729 148.305 603.891C148.548 620.072 148.224 636.173 148.224 652.354ZM148.629 600.978C148.386 593.777 148.386 586.657 148.548 579.457L148.386 578.486C153.321 577.839 158.255 577.596 163.189 577.434C167.153 577.434 171.117 576.706 175.081 576.544C175.081 578.486 175.081 580.428 175 582.289C175.323 588.195 175.162 594.182 175.242 600.088C166.344 600.574 157.527 600.816 148.629 600.978ZM175.323 648.794C172.815 648.794 170.389 648.794 167.881 648.875C167.962 634.312 167.8 619.667 167.962 605.023C170.389 605.023 172.896 604.861 175.323 604.619C175.323 619.344 175.485 634.069 175.323 648.794ZM195.142 595.153C189.479 595.233 183.817 595.072 178.154 595.557C178.073 587.466 178.154 579.376 177.992 571.285C183.655 570.881 189.317 570.719 194.899 570.233C195.222 578.486 195.061 586.819 195.142 595.153ZM178.316 602.273C179.691 602.192 181.147 602.111 182.523 601.949C181.228 601.787 179.934 601.625 178.64 601.544C178.559 600.331 178.559 599.036 178.478 597.823C183.979 597.742 189.56 597.661 195.061 597.661C195.142 608.26 195.223 618.94 195.223 629.538C189.641 629.377 183.979 629.376 178.397 629.619C178.235 620.558 178.316 611.415 178.316 602.273ZM178.316 631.561C183.979 631.723 189.641 631.642 195.222 631.966C195.303 632.775 195.222 633.503 195.061 634.312C189.398 634.636 183.736 634.312 178.073 634.393C178.235 633.422 178.316 632.451 178.316 631.561ZM178.559 658.584C178.478 651.869 178.478 645.154 178.478 638.438C184.059 638.357 189.722 638.519 195.303 638.681C195.384 645.558 195.303 652.435 195.384 659.312C189.803 658.908 184.14 658.908 178.559 658.584ZM209.298 653.325C209.298 654.943 209.136 656.642 208.731 658.179C208.327 656.561 208.084 654.943 208.165 653.325C208.084 635.768 207.599 618.211 207.761 600.654C207.599 599.441 208.489 597.904 209.621 599.36C209.864 617.402 209.298 635.364 209.298 653.325ZM218.277 583.259C216.093 587.467 217.144 592.402 216.659 597.014L216.74 597.337C214.151 597.256 211.643 597.337 209.055 597.256C208.893 589.489 208.974 581.722 208.974 573.874C211.32 573.632 213.666 573.389 216.092 573.308C216.092 575.816 216.173 578.324 216.092 580.913C218.276 580.994 220.541 580.913 222.402 582.208C221.027 582.531 219.571 582.855 218.277 583.259ZM204.282 567.401C181.795 568.696 159.306 570.152 136.738 571.042C136.657 590.622 136.576 610.202 136.495 629.781C129.295 629.619 122.015 629.862 114.816 629.781C114.411 602.272 114.573 574.683 114.492 547.094C133.017 544.424 151.622 542.886 170.227 541.026C208.57 536.98 246.912 533.501 285.255 529.051C295.933 528.161 306.53 526.786 317.126 525.896C317.45 537.142 318.178 548.307 318.259 559.554C280.321 562.79 242.302 564.893 204.282 567.401ZM229.521 568.292C235.264 567.806 241.088 567.483 246.832 566.835C246.912 575.978 246.912 585.201 246.912 594.344C241.169 594.586 235.345 594.667 229.602 594.91C229.44 586.01 229.521 577.191 229.521 568.292ZM246.993 663.762C241.331 663.358 235.669 662.872 230.006 662.953C229.925 654.701 229.844 646.448 229.925 638.115C235.588 638.277 241.25 638.196 246.913 638.438C246.993 646.853 246.993 655.267 246.993 663.762ZM229.682 634.474C229.763 622.095 229.682 609.635 229.682 597.256C235.345 597.014 240.926 596.609 246.589 596.609C246.993 598.228 246.831 599.846 246.912 601.464C246.912 610.849 247.074 620.315 246.832 629.7C241.331 629.7 235.83 629.862 230.41 630.186L230.491 631.399C235.992 631.804 241.573 631.157 246.993 632.208C246.993 632.694 247.074 633.746 247.155 634.231C241.25 634.474 235.507 634.474 229.682 634.474Z" fill="#F9F9F9"/>
</g>
<defs>
<clipPath id="clip0_237_1971">
<rect width="672" height="684.61" fill="white"/>
</clipPath>
</defs>
</svg>
