<svg width="182" height="50" viewBox="0 0 182 50" fill="none" xmlns="http://www.w3.org/2000/svg">
<g clip-path="url(#clip0_86_4765)">
<path d="M21 0L0 22.094V50H9.36437V40.5541L13.054 36.6722V50H15.892V36.6674L19.5816 40.5493V49.9952H22.4184V32.4493L26.108 28.5687V50H28.946V28.565L32.6356 32.4457V50H42V22.094L21 0ZM19.5816 36.3312L15.892 32.4505V19.3126L19.5816 15.432V36.3312ZM26.108 24.3458L22.4184 28.2276V15.432L26.108 19.3126V24.3458ZM35.4736 47.0142V31.2134L28.946 24.3458V18.0755L21 9.71557L13.054 18.0755V32.4505L6.52758 39.317V47.0142H2.83908V23.3312L21 4.2241L39.1609 23.3312V47.0142H35.4736Z" fill="#ED6325"/>
</g>
<path d="M64.22 20H69.38V41H64.22V20ZM88.3194 20H93.2094V42.05L78.6894 29.18V41H73.8294V18.95L88.3194 31.82V20ZM101.968 30.5C101.968 31.78 102.258 32.89 102.838 33.83C103.418 34.75 104.178 35.45 105.118 35.93C106.078 36.41 107.128 36.65 108.268 36.65C109.268 36.65 110.148 36.52 110.908 36.26C111.668 36 112.348 35.66 112.948 35.24C113.548 34.82 114.078 34.37 114.538 33.89V39.35C113.698 40.01 112.778 40.53 111.778 40.91C110.778 41.29 109.508 41.48 107.968 41.48C106.288 41.48 104.738 41.22 103.318 40.7C101.898 40.18 100.678 39.43 99.6577 38.45C98.6377 37.47 97.8477 36.31 97.2877 34.97C96.7277 33.63 96.4477 32.14 96.4477 30.5C96.4477 28.86 96.7277 27.37 97.2877 26.03C97.8477 24.69 98.6377 23.53 99.6577 22.55C100.678 21.57 101.898 20.82 103.318 20.3C104.738 19.78 106.288 19.52 107.968 19.52C109.508 19.52 110.778 19.71 111.778 20.09C112.778 20.47 113.698 20.99 114.538 21.65V27.11C114.078 26.63 113.548 26.18 112.948 25.76C112.348 25.32 111.668 24.98 110.908 24.74C110.148 24.48 109.268 24.35 108.268 24.35C107.128 24.35 106.078 24.59 105.118 25.07C104.178 25.55 103.418 26.25 102.838 27.17C102.258 28.09 101.968 29.2 101.968 30.5ZM118.683 20H123.753V36.65H132.183V41H118.683V20ZM134.383 20H139.453V33.74C139.453 34.8 139.733 35.66 140.293 36.32C140.853 36.98 141.693 37.31 142.813 37.31C143.953 37.31 144.803 36.98 145.363 36.32C145.923 35.66 146.203 34.8 146.203 33.74V20H151.273V34.1C151.273 35.42 151.053 36.57 150.613 37.55C150.193 38.53 149.593 39.34 148.813 39.98C148.053 40.6 147.153 41.07 146.113 41.39C145.093 41.71 143.993 41.87 142.813 41.87C141.633 41.87 140.533 41.71 139.513 41.39C138.493 41.07 137.593 40.6 136.813 39.98C136.053 39.34 135.453 38.53 135.013 37.55C134.593 36.57 134.383 35.42 134.383 34.1V20ZM159.348 30.56V28.34H162.738C163.318 28.34 163.808 28.25 164.208 28.07C164.628 27.89 164.948 27.64 165.168 27.32C165.388 26.98 165.498 26.57 165.498 26.09C165.498 25.37 165.258 24.83 164.778 24.47C164.298 24.11 163.618 23.93 162.738 23.93H160.638V37.07H163.218C163.878 37.07 164.468 36.99 164.988 36.83C165.508 36.65 165.918 36.37 166.218 35.99C166.538 35.59 166.698 35.05 166.698 34.37C166.698 33.93 166.608 33.55 166.428 33.23C166.248 32.91 165.998 32.65 165.678 32.45C165.358 32.25 164.988 32.11 164.568 32.03C164.168 31.93 163.718 31.88 163.218 31.88H159.348V29.12H163.788C164.808 29.12 165.798 29.23 166.758 29.45C167.718 29.67 168.588 30.03 169.368 30.53C170.148 31.01 170.768 31.63 171.228 32.39C171.708 33.13 171.948 34.03 171.948 35.09C171.948 36.49 171.608 37.62 170.928 38.48C170.268 39.34 169.328 39.98 168.108 40.4C166.888 40.8 165.448 41 163.788 41H155.568V20H163.278C164.738 20 166.018 20.2 167.118 20.6C168.238 20.98 169.118 21.57 169.758 22.37C170.418 23.15 170.748 24.14 170.748 25.34C170.748 26.44 170.418 27.38 169.758 28.16C169.118 28.94 168.238 29.54 167.118 29.96C166.018 30.36 164.738 30.56 163.278 30.56H159.348Z" fill="white"/>
<defs>
<clipPath id="clip0_86_4765">
<rect width="42" height="50" fill="white"/>
</clipPath>
</defs>
</svg>
