<svg width="60" height="60" viewBox="0 0 60 60" fill="none" xmlns="http://www.w3.org/2000/svg">
<path d="M13.1013 6.08054C13.21 6.08012 13.21 6.08012 13.3209 6.07969C13.5635 6.07888 13.806 6.07874 14.0485 6.0786C14.2225 6.07816 14.3966 6.07769 14.5706 6.07719C15.0432 6.07596 15.5159 6.07535 15.9885 6.07494C16.284 6.07466 16.5795 6.07428 16.875 6.07386C17.8 6.07258 18.7251 6.07167 19.6501 6.07131C20.7169 6.07089 21.7837 6.06924 22.8505 6.06653C23.6757 6.0645 24.501 6.06355 25.3262 6.06343C25.8188 6.06333 26.3114 6.06278 26.8039 6.0611C27.2675 6.05955 27.7312 6.05936 28.1948 6.06018C28.3645 6.06025 28.5341 6.05984 28.7038 6.05892C30.8941 6.04763 30.8941 6.04763 31.7161 6.84297C32.1693 7.37977 32.3211 7.94894 32.2918 8.64619C32.1804 9.34003 31.8311 9.86306 31.2979 10.307C31.125 10.4062 31.125 10.4062 30.6563 10.5C30.6872 11.3043 30.7181 12.1087 30.75 12.9375C32.8143 13.804 34.8797 14.6677 36.9492 15.5214C37.0387 15.5584 37.1282 15.5953 37.2204 15.6333C37.5809 15.782 37.9413 15.9307 38.3017 16.0793C39.2263 16.4607 40.1504 16.8434 41.0742 17.2265C41.1535 17.2594 41.2327 17.2922 41.3143 17.3261C42.1405 17.6687 42.9666 18.0119 43.7923 18.3559C43.8615 18.3848 43.9307 18.4136 44.0021 18.4433C44.3455 18.5864 44.6888 18.7297 45.032 18.8732C45.7159 19.159 46.4006 19.4428 47.087 19.7227C47.4402 19.8668 47.7932 20.0114 48.1461 20.1561C48.3164 20.2257 48.4868 20.295 48.6573 20.364C48.8952 20.4602 49.1326 20.5575 49.37 20.655C49.44 20.683 49.5099 20.7109 49.582 20.7398C50.3803 21.0703 50.9374 21.481 51.3047 22.289C51.4844 23.0675 51.397 23.6827 51 24.375C50.703 24.8359 50.3183 25.1075 49.7926 25.2747C49.5535 25.3201 49.3273 25.3283 49.084 25.33C48.9971 25.3314 48.9102 25.3327 48.8207 25.3341C48.5625 25.3125 48.5625 25.3125 48.0938 25.125C48.0938 33.1068 48.0938 41.0887 48.0938 49.3125C48.7744 49.3125 49.455 49.3125 50.1563 49.3125C51.0048 49.7367 51.0048 49.7367 51.2696 50.0566C51.3215 50.1174 51.3735 50.1782 51.427 50.2408C51.847 50.8503 51.8133 51.5035 51.75 52.2187C51.6131 52.7613 51.2711 53.1093 50.8675 53.4803C50.0082 53.993 49.0523 53.9461 48.0863 53.9419C47.9237 53.9422 47.7612 53.9427 47.5986 53.9433C47.1536 53.9444 46.7086 53.9438 46.2636 53.943C45.783 53.9423 45.3024 53.9433 44.8218 53.9441C43.881 53.9453 42.9403 53.9451 41.9995 53.9443C41.2348 53.9436 40.4701 53.9435 39.7054 53.9438C39.5421 53.9439 39.5421 53.9439 39.3755 53.944C39.1543 53.9441 38.9331 53.9442 38.7119 53.9442C36.6382 53.945 34.5646 53.9441 32.491 53.9426C30.7122 53.9414 28.9334 53.9416 27.1546 53.9429C25.0883 53.9444 23.022 53.945 20.9558 53.9441C20.7354 53.944 20.515 53.9439 20.2946 53.9438C20.1862 53.9438 20.0778 53.9438 19.9661 53.9437C19.2024 53.9435 18.4387 53.9439 17.6751 53.9445C16.7443 53.9453 15.8135 53.9451 14.8827 53.9436C14.4079 53.9429 13.9331 53.9426 13.4583 53.9435C13.0234 53.9444 12.5886 53.9439 12.1537 53.9424C11.9967 53.9421 11.8396 53.9422 11.6825 53.9429C10.6022 53.9473 9.59944 53.9453 8.78395 53.1496C8.25878 52.5518 8.18782 52.0112 8.21486 51.2193C8.29686 50.489 8.63131 50.1031 9.17836 49.6355C10.0448 49.0385 10.7271 49.3125 11.9063 49.3125C11.9063 36.5043 11.9063 23.6962 11.9063 10.5C11.7206 10.4381 11.535 10.3762 11.3438 10.3125C10.7597 9.91531 10.4577 9.41016 10.3125 8.7187C10.258 8.02411 10.4134 7.41143 10.8457 6.86128C11.4665 6.19574 12.2272 6.07948 13.1013 6.08054ZM11.8184 7.99214C11.677 8.3581 11.7551 8.55121 11.9063 8.9062C12.2722 9.27216 12.655 9.29169 13.1564 9.29418C13.2555 9.29396 13.2555 9.29396 13.3566 9.29374C13.4275 9.29395 13.4983 9.29416 13.5712 9.29438C13.8087 9.29498 14.0461 9.2949 14.2835 9.29482C14.4537 9.2951 14.6238 9.29542 14.794 9.29578C15.2564 9.29661 15.7187 9.29682 16.1811 9.29688C16.5669 9.29697 16.9527 9.29732 17.3385 9.29765C18.2486 9.29841 19.1587 9.29864 20.0689 9.29858C21.0081 9.29852 21.9474 9.29951 22.8867 9.30099C23.6928 9.30222 24.499 9.30272 25.3051 9.30266C25.7867 9.30263 26.2683 9.3029 26.7499 9.30389C27.2028 9.3048 27.6556 9.30481 28.1085 9.30413C28.2747 9.30403 28.441 9.30425 28.6072 9.30482C28.8341 9.30554 29.0609 9.30511 29.2877 9.30438C29.3865 9.30511 29.3865 9.30511 29.4873 9.30584C29.9892 9.3023 30.3197 9.23099 30.6914 8.88863C30.8716 8.62751 30.8716 8.62751 30.8438 8.29097C30.743 7.94456 30.6584 7.81041 30.375 7.5937C30.042 7.48268 29.7406 7.48637 29.394 7.48679C29.3221 7.48651 29.2502 7.48623 29.1762 7.48594C28.9346 7.48513 28.693 7.48499 28.4514 7.48485C28.2784 7.48441 28.1055 7.48394 27.9326 7.48344C27.4623 7.48221 26.992 7.4816 26.5217 7.48119C26.228 7.48091 25.9343 7.48053 25.6406 7.48011C24.7221 7.47883 23.8037 7.47792 22.8852 7.47756C21.8242 7.47714 20.7632 7.47549 19.7022 7.47278C18.8825 7.47075 18.0628 7.4698 17.2431 7.46968C16.7534 7.46958 16.2636 7.46902 15.7738 7.46735C15.3132 7.46581 14.8526 7.4656 14.392 7.46643C14.2228 7.4665 14.0537 7.46609 13.8846 7.46517C13.6538 7.46398 13.4231 7.46452 13.1924 7.4655C13.1253 7.46475 13.0583 7.46399 12.9893 7.46321C12.4657 7.46842 12.1591 7.59641 11.8184 7.99214ZM13.3125 10.5937C13.3125 23.3709 13.3125 36.1481 13.3125 49.3125C18.6028 49.3125 23.8931 49.3125 29.3438 49.3125C29.3438 36.5353 29.3438 23.7581 29.3438 10.5937C24.0535 10.5937 18.7631 10.5937 13.3125 10.5937ZM30.6563 14.5312C30.6563 15.119 30.6563 15.7068 30.6563 16.3125C31.7121 16.8125 32.7866 17.2579 33.8672 17.7011C34.0591 17.7801 34.2509 17.859 34.4428 17.938C34.737 18.0592 35.0312 18.1803 35.3255 18.3013C36.264 18.6874 37.2014 19.0758 38.1387 19.4648C38.2965 19.5303 38.4542 19.5957 38.612 19.6612C38.8482 19.7591 39.0843 19.8571 39.3205 19.9551C39.8826 20.1883 40.4447 20.4213 41.0069 20.6543C42.7721 21.3857 44.5368 22.1184 46.3001 22.8546C46.4263 22.9072 46.5525 22.9597 46.6788 23.012C47.0139 23.1508 47.3478 23.2919 47.6807 23.4359C47.8233 23.4967 47.9658 23.5575 48.1084 23.6184C48.1738 23.6472 48.2391 23.676 48.3064 23.7057C48.6874 23.8669 48.9927 23.9538 49.4063 23.9062C49.6594 23.7375 49.8321 23.6171 49.9688 23.3437C50.0061 23.0074 50.0033 22.8354 49.8194 22.5467C49.5579 22.2752 49.2982 22.1494 48.954 22.0151C48.8901 21.9889 48.8263 21.9627 48.7605 21.9357C48.5485 21.8491 48.3358 21.7644 48.1231 21.6796C47.9718 21.6182 47.8206 21.5566 47.6694 21.4948C47.3495 21.3644 47.0294 21.2345 46.7091 21.1051C45.9925 20.8151 45.279 20.5175 44.5652 20.2204C44.1611 20.0524 43.7568 19.885 43.3524 19.7175C43.1893 19.6499 43.0262 19.5823 42.863 19.5147C42.7824 19.4813 42.7017 19.4478 42.6186 19.4134C41.9767 19.1474 41.3348 18.8812 40.6929 18.615C40.2927 18.449 39.8924 18.2831 39.4922 18.1171C39.332 18.0507 39.1719 17.9843 39.0117 17.9179C38.8928 17.8686 38.8928 17.8686 38.7715 17.8183C38.5313 17.7187 38.291 17.6191 38.0508 17.5195C37.9319 17.4702 37.9319 17.4702 37.8106 17.4199C37.6503 17.3534 37.4899 17.2869 37.3296 17.2204C36.9321 17.0556 36.5345 16.8908 36.137 16.7261C35.382 16.4133 34.6272 16.1 33.873 15.7852C33.5143 15.6355 33.1554 15.4861 32.7966 15.3366C32.6245 15.2649 32.4525 15.1931 32.2806 15.1211C32.0431 15.0217 31.8054 14.9227 31.5678 14.8238C31.4969 14.794 31.426 14.7642 31.3529 14.7335C31.016 14.5835 31.016 14.5835 30.6563 14.5312ZM30.6563 17.9062C30.6563 28.2703 30.6563 38.6343 30.6563 49.3125C35.9466 49.3125 41.2369 49.3125 46.6875 49.3125C46.6875 41.114 46.6875 32.9156 46.6875 24.4687C44.2088 23.4359 41.7302 22.4033 39.2494 21.3757C38.6658 21.1338 38.0825 20.8912 37.4997 20.6477C35.9978 20.0202 34.4947 19.3961 32.989 18.7779C32.8018 18.701 32.6147 18.624 32.4276 18.5469C32.1671 18.4396 31.9065 18.3327 31.6458 18.2259C31.5672 18.1935 31.4887 18.161 31.4078 18.1276C31.044 17.9655 31.044 17.9655 30.6563 17.9062ZM9.84377 50.9062C9.61421 51.2505 9.57828 51.5374 9.65627 51.9375C9.89388 52.2393 10.0419 52.3785 10.4063 52.5C10.6211 52.509 10.8363 52.5121 11.0513 52.5123C11.1176 52.5125 11.1839 52.5127 11.2523 52.5129C11.4762 52.5134 11.7001 52.5133 11.924 52.5131C12.0855 52.5134 12.247 52.5136 12.4085 52.514C12.8535 52.5147 13.2986 52.5149 13.7437 52.515C14.2232 52.5151 14.7027 52.5158 15.1822 52.5165C16.2312 52.5177 17.2803 52.5183 18.3294 52.5187C18.984 52.519 19.6387 52.5194 20.2934 52.5198C22.1051 52.521 23.9168 52.5219 25.7285 52.5222C25.8445 52.5223 25.9605 52.5223 26.08 52.5223C26.2544 52.5223 26.2544 52.5223 26.4324 52.5224C26.668 52.5224 26.9036 52.5224 27.1393 52.5225C27.2562 52.5225 27.3731 52.5225 27.4935 52.5225C29.3882 52.5229 31.2829 52.5246 33.1776 52.5267C35.1216 52.529 37.0656 52.5301 39.0096 52.5302C40.1015 52.5303 41.1935 52.5309 42.2855 52.5326C43.2153 52.534 44.145 52.5345 45.0747 52.5337C45.5492 52.5333 46.0238 52.5334 46.4984 52.5347C46.9326 52.5359 47.3668 52.5358 47.801 52.5347C47.9583 52.5345 48.1156 52.5348 48.2729 52.5356C48.4864 52.5367 48.6998 52.536 48.9133 52.5348C49.0914 52.5349 49.0913 52.5349 49.273 52.535C49.629 52.4961 49.8533 52.4075 50.1563 52.2187C50.3861 51.874 50.421 51.5878 50.3438 51.1875C50.0915 50.8581 49.9053 50.6929 49.5 50.625C49.2824 50.6162 49.0645 50.6129 48.8466 50.6126C48.7805 50.6124 48.7145 50.6123 48.6464 50.6121C48.4238 50.6115 48.2013 50.6117 47.9787 50.6118C47.818 50.6115 47.6573 50.6113 47.4966 50.6109C47.054 50.6102 46.6115 50.61 46.1689 50.61C45.692 50.6098 45.2151 50.6091 44.7381 50.6084C43.6949 50.6072 42.6516 50.6066 41.6084 50.6062C40.9572 50.6059 40.3061 50.6055 39.6549 50.6051C37.8527 50.604 36.0505 50.603 34.2483 50.6027C34.1329 50.6027 34.0176 50.6026 33.8987 50.6026C33.7831 50.6026 33.6674 50.6026 33.5483 50.6026C33.3139 50.6025 33.0795 50.6025 32.8452 50.6024C32.7289 50.6024 32.6127 50.6024 32.4929 50.6024C30.6086 50.602 28.7243 50.6004 26.8399 50.5982C24.9062 50.596 22.9725 50.5948 21.0388 50.5947C19.9527 50.5946 18.8667 50.5941 17.7806 50.5924C16.8559 50.5909 15.9312 50.5904 15.0066 50.5912C14.5347 50.5916 14.0628 50.5915 13.5908 50.5902C13.1589 50.589 12.727 50.5891 12.2951 50.5902C12.1387 50.5904 11.9824 50.5901 11.8261 50.5893C11.6136 50.5883 11.4012 50.589 11.1888 50.5901C11.0708 50.59 10.9528 50.59 10.8312 50.5899C10.4375 50.6316 10.1936 50.7223 9.84377 50.9062Z" fill="#191A1F"/>
<path d="M24.0818 20.6095C24.1529 20.6092 24.2241 20.6088 24.2975 20.6085C24.4477 20.608 24.598 20.6078 24.7483 20.6078C24.9775 20.6076 25.2066 20.6059 25.4358 20.6042C25.5821 20.6039 25.7284 20.6037 25.8747 20.6036C25.9429 20.6029 26.0111 20.6023 26.0813 20.6016C26.4589 20.6033 26.7606 20.6287 27.0938 20.8127C27.2837 21.0975 27.305 21.1544 27.3071 21.4743C27.3084 21.5883 27.3084 21.5883 27.3098 21.7047C27.3097 21.7864 27.3096 21.8681 27.3095 21.9524C27.3099 22.0366 27.3103 22.1209 27.3108 22.2077C27.3113 22.3858 27.3113 22.5639 27.3109 22.742C27.3106 23.0148 27.3128 23.2876 27.3152 23.5604C27.3154 23.7334 27.3155 23.9063 27.3154 24.0793C27.3163 24.1611 27.3171 24.2428 27.318 24.327C27.3174 24.403 27.3168 24.4791 27.3162 24.5574C27.3163 24.6242 27.3164 24.691 27.3164 24.7599C27.2705 24.9929 27.1849 25.0736 27.0001 25.219C26.6476 25.3364 26.3164 25.3297 25.9491 25.3318C25.8736 25.3323 25.7981 25.3328 25.7203 25.3334C25.5607 25.3343 25.401 25.3349 25.2414 25.3352C24.9977 25.3361 24.7542 25.3391 24.5106 25.342C24.3553 25.3426 24.2 25.3431 24.0448 25.3435C23.9722 25.3446 23.8996 25.3458 23.8248 25.347C23.3978 25.3452 23.1198 25.2986 22.7813 25.0315C22.6244 24.7175 22.6703 24.3639 22.6685 24.0185C22.6677 23.8954 22.6677 23.8954 22.6669 23.7698C22.666 23.5959 22.6654 23.4221 22.6651 23.2482C22.6642 22.9824 22.6613 22.7166 22.6583 22.4508C22.6577 22.2819 22.6572 22.1131 22.6568 21.9443C22.6557 21.8648 22.6545 21.7853 22.6533 21.7034C22.6546 21.3772 22.6576 21.1531 22.8067 20.8592C23.1705 20.5446 23.623 20.6102 24.0818 20.6095ZM24.0938 22.0315C24.0938 22.6502 24.0938 23.269 24.0938 23.9065C24.6817 23.9065 25.2695 23.9065 25.8751 23.9065C25.8751 23.2877 25.8751 22.669 25.8751 22.0315C25.2873 22.0315 24.6995 22.0315 24.0938 22.0315Z" fill="#191A1F"/>
<path d="M16.6662 20.6095C16.7732 20.609 16.7732 20.609 16.8824 20.6085C17.0332 20.608 17.184 20.6078 17.3348 20.6078C17.5649 20.6076 17.7949 20.6059 18.0249 20.6042C18.1716 20.6039 18.3183 20.6037 18.4651 20.6036C18.5335 20.6029 18.602 20.6023 18.6725 20.6016C19.1631 20.6037 19.5213 20.6466 19.875 21.0002C19.8994 21.1703 19.8994 21.1703 19.9007 21.3785C19.9021 21.4953 19.9021 21.4953 19.9034 21.6146C19.9033 21.6989 19.9033 21.7831 19.9032 21.87C19.9036 21.9564 19.904 22.0429 19.9044 22.132C19.9049 22.315 19.905 22.4981 19.9046 22.6812C19.9043 22.9617 19.9065 23.242 19.9088 23.5225C19.9091 23.7002 19.9091 23.8778 19.909 24.0555C19.9099 24.1396 19.9108 24.2237 19.9116 24.3103C19.9111 24.3885 19.9105 24.4667 19.9099 24.5473C19.9099 24.6161 19.91 24.6848 19.9101 24.7557C19.8645 24.9919 19.7812 25.0722 19.5937 25.219C19.2413 25.3364 18.91 25.3297 18.5427 25.3318C18.4672 25.3323 18.3917 25.3328 18.314 25.3334C18.1543 25.3343 17.9946 25.3349 17.835 25.3352C17.5914 25.3361 17.3478 25.3391 17.1042 25.342C16.9489 25.3426 16.7937 25.3431 16.6384 25.3435C16.5658 25.3446 16.4933 25.3458 16.4185 25.347C15.9914 25.3452 15.7134 25.2986 15.375 25.0315C15.218 24.7175 15.2619 24.3639 15.2589 24.0185C15.2581 23.9364 15.2574 23.8544 15.2566 23.7698C15.2553 23.5959 15.2543 23.4221 15.2535 23.2482C15.2519 22.9824 15.2478 22.7166 15.2437 22.4508C15.2427 22.2819 15.2419 22.1131 15.2413 21.9443C15.2388 21.825 15.2388 21.825 15.2363 21.7034C15.2384 21.1523 15.2384 21.1523 15.4536 20.8592C15.8407 20.5913 16.2137 20.6101 16.6662 20.6095ZM16.6875 22.0315C16.6875 22.6502 16.6875 23.269 16.6875 23.9065C17.2753 23.9065 17.8631 23.9065 18.4687 23.9065C18.4687 23.2877 18.4687 22.669 18.4687 22.0315C17.8809 22.0315 17.2931 22.0315 16.6875 22.0315Z" fill="#191A1F"/>
<path d="M23.9856 33.6908C24.065 33.6906 24.1443 33.6904 24.2261 33.6902C24.3935 33.6903 24.5609 33.6915 24.7282 33.6938C24.9838 33.6971 25.2391 33.6958 25.4947 33.694C25.6577 33.6946 25.8207 33.6955 25.9836 33.6967C26.0597 33.6962 26.1358 33.6958 26.2142 33.6953C26.5593 33.7024 26.781 33.7344 27.0954 33.8866C27.3728 34.2417 27.3455 34.5501 27.3371 34.9891C27.3371 35.073 27.3371 35.1569 27.3372 35.2433C27.3366 35.4204 27.335 35.5976 27.3323 35.7747C27.3284 36.0457 27.3284 36.3165 27.3291 36.5876C27.3281 36.7598 27.3269 36.9321 27.3254 37.1043C27.3254 37.1853 27.3254 37.2662 27.3254 37.3496C27.3192 37.6607 27.3017 37.9142 27.1928 38.207C26.8667 38.4383 26.514 38.3969 26.1246 38.3934C26.0385 38.3937 25.9524 38.3941 25.8637 38.3944C25.6816 38.3947 25.4994 38.394 25.3173 38.3924C25.0387 38.3904 24.7603 38.3924 24.4816 38.3948C24.3047 38.3946 24.1277 38.3941 23.9508 38.3934C23.8675 38.3941 23.7842 38.3949 23.6983 38.3957C23.3526 38.3904 23.1259 38.3799 22.823 38.2055C22.6205 37.8508 22.6322 37.5303 22.6346 37.1281C22.634 37.0465 22.6335 36.9649 22.6329 36.8809C22.6322 36.7085 22.6325 36.5362 22.6337 36.3638C22.635 36.1006 22.6318 35.8377 22.6282 35.5745C22.6281 35.4068 22.6283 35.2391 22.6288 35.0715C22.6275 34.993 22.6263 34.9146 22.625 34.8338C22.6311 34.4512 22.6596 34.2614 22.874 33.9346C23.2552 33.6852 23.539 33.6836 23.9856 33.6908ZM24.094 35.1561C24.094 35.7439 24.094 36.3317 24.094 36.9373C24.6818 36.9373 25.2696 36.9373 25.8752 36.9373C25.8752 36.3495 25.8752 35.7617 25.8752 35.1561C25.2874 35.1561 24.6996 35.1561 24.094 35.1561Z" fill="#191A1F"/>
<path d="M23.9856 40.2533C24.065 40.2531 24.1443 40.2529 24.2261 40.2527C24.3935 40.2528 24.5609 40.254 24.7282 40.2563C24.9838 40.2596 25.2391 40.2583 25.4947 40.2565C25.6577 40.2571 25.8207 40.258 25.9836 40.2592C26.0597 40.2587 26.1358 40.2583 26.2142 40.2578C26.5592 40.2649 26.7808 40.2969 27.0952 40.4491C27.3726 40.8039 27.3472 41.1126 27.3404 41.5516C27.3407 41.6355 27.3409 41.7194 27.3411 41.8058C27.341 41.9829 27.3398 42.1601 27.3374 42.3372C27.3342 42.6083 27.3355 42.879 27.3373 43.1501C27.3367 43.3223 27.3358 43.4946 27.3346 43.6668C27.335 43.7478 27.3355 43.8287 27.336 43.9121C27.3293 44.2514 27.3153 44.472 27.1447 44.7695C26.7834 44.9766 26.452 44.9597 26.0422 44.9559C25.9583 44.9562 25.8744 44.9566 25.788 44.9569C25.6108 44.9572 25.4337 44.9565 25.2566 44.9549C24.9855 44.9529 24.7147 44.9549 24.4437 44.9573C24.2715 44.9571 24.0992 44.9566 23.927 44.9559C23.8055 44.957 23.8055 44.957 23.6816 44.9582C23.3413 44.9528 23.1223 44.9406 22.8245 44.768C22.6199 44.4136 22.6322 44.0935 22.6346 43.6906C22.634 43.609 22.6335 43.5274 22.6329 43.4434C22.6322 43.271 22.6325 43.0987 22.6337 42.9263C22.635 42.6631 22.6318 42.4002 22.6282 42.137C22.6281 41.9693 22.6283 41.8016 22.6288 41.634C22.6275 41.5555 22.6263 41.4771 22.625 41.3963C22.6311 41.0137 22.6596 40.8239 22.874 40.4971C23.2552 40.2477 23.539 40.2461 23.9856 40.2533ZM24.094 41.7186C24.094 42.3064 24.094 42.8942 24.094 43.4998C24.6818 43.4998 25.2696 43.4998 25.8752 43.4998C25.8752 42.912 25.8752 42.3242 25.8752 41.7186C25.2874 41.7186 24.6996 41.7186 24.094 41.7186Z" fill="#191A1F"/>
<path d="M41.4021 33.7034C41.4794 33.7033 41.5567 33.7032 41.6364 33.703C41.7993 33.7032 41.9623 33.7042 42.1252 33.7062C42.374 33.7089 42.6226 33.7081 42.8714 33.7069C43.03 33.7075 43.1887 33.7083 43.3474 33.7093C43.4215 33.709 43.4955 33.7087 43.5718 33.7085C44.0001 33.7158 44.2852 33.763 44.6248 34.0312C44.7817 34.3451 44.7379 34.6987 44.7409 35.0441C44.7416 35.1262 44.7424 35.2083 44.7432 35.2929C44.7445 35.4667 44.7455 35.6406 44.7462 35.8144C44.7478 36.0803 44.7519 36.346 44.7561 36.6119C44.757 36.7807 44.7578 36.9495 44.7584 37.1183C44.7601 37.1978 44.7617 37.2773 44.7634 37.3593C44.7622 37.6955 44.7516 37.9103 44.584 38.2062C44.2157 38.4168 43.873 38.3973 43.4555 38.3935C43.3693 38.3938 43.2831 38.3942 43.1943 38.3946C43.0123 38.3948 42.8303 38.3941 42.6484 38.3926C42.3696 38.3906 42.0909 38.3926 41.8121 38.395C41.6353 38.3947 41.4585 38.3942 41.2816 38.3935C41.1981 38.3942 41.1146 38.395 41.0286 38.3958C40.4674 38.3872 40.4674 38.3872 40.2134 38.2071C40.0774 37.8413 40.0809 37.4919 40.0808 37.1044C40.0801 37.0205 40.0794 36.9366 40.0787 36.8502C40.0777 36.6731 40.0774 36.4959 40.0778 36.3188C40.0779 36.0477 40.074 35.7769 40.0698 35.5059C40.0694 35.3337 40.0691 35.1614 40.0691 34.9892C40.0676 34.9082 40.066 34.8273 40.0645 34.7438C40.0688 34.3707 40.0769 34.1859 40.3121 33.8863C40.6871 33.7046 40.9904 33.6976 41.4021 33.7034ZM41.531 35.1562C41.531 35.744 41.531 36.3318 41.531 36.9374C42.1188 36.9374 42.7067 36.9374 43.3123 36.9374C43.3123 36.3496 43.3123 35.7618 43.3123 35.1562C42.7245 35.1562 42.1366 35.1562 41.531 35.1562Z" fill="#191A1F"/>
<path d="M33.9959 33.7034C34.0732 33.7033 34.1505 33.7032 34.2301 33.703C34.3931 33.7032 34.556 33.7042 34.719 33.7062C34.9677 33.7089 35.2163 33.7081 35.4651 33.7069C35.6238 33.7075 35.7825 33.7083 35.9412 33.7093C36.0152 33.709 36.0893 33.7087 36.1655 33.7085C36.5939 33.7158 36.8789 33.763 37.2185 34.0312C37.3755 34.3451 37.3316 34.6987 37.3346 35.0441C37.3354 35.1262 37.3361 35.2083 37.3369 35.2929C37.3382 35.4667 37.3392 35.6406 37.3399 35.8144C37.3416 36.0803 37.3457 36.346 37.3498 36.6119C37.3508 36.7807 37.3516 36.9495 37.3522 37.1183C37.3538 37.1978 37.3555 37.2773 37.3572 37.3593C37.3559 37.6955 37.3453 37.9103 37.1778 38.2062C36.8094 38.4168 36.4667 38.3973 36.0492 38.3935C35.963 38.3938 35.8768 38.3942 35.788 38.3946C35.6061 38.3948 35.4241 38.3941 35.2422 38.3926C34.9633 38.3906 34.6847 38.3926 34.4058 38.395C34.229 38.3947 34.0522 38.3942 33.8754 38.3935C33.7919 38.3942 33.7084 38.395 33.6224 38.3958C33.0612 38.3872 33.0612 38.3872 32.8072 38.2071C32.6711 37.8413 32.6747 37.4919 32.6746 37.1044C32.6739 37.0205 32.6732 36.9366 32.6724 36.8502C32.6714 36.6731 32.6711 36.4959 32.6716 36.3188C32.6716 36.0477 32.6677 35.7769 32.6636 35.5059C32.6631 35.3337 32.6629 35.1614 32.6629 34.9892C32.6613 34.9082 32.6598 34.8273 32.6582 34.7438C32.6625 34.3707 32.6706 34.1859 32.9058 33.8863C33.2809 33.7046 33.5842 33.6976 33.9959 33.7034ZM34.1248 35.1562C34.1248 35.744 34.1248 36.3318 34.1248 36.9374C34.7126 36.9374 35.3004 36.9374 35.906 36.9374C35.906 36.3496 35.906 35.7618 35.906 35.1562C35.3182 35.1562 34.7304 35.1562 34.1248 35.1562Z" fill="#191A1F"/>
<path d="M16.6344 33.7276C16.7507 33.7265 16.7507 33.7265 16.8694 33.7253C17.0335 33.724 17.1975 33.723 17.3616 33.7223C17.612 33.7207 17.8624 33.7166 18.1128 33.7124C18.2723 33.7115 18.4319 33.7107 18.5914 33.7101C18.666 33.7084 18.7406 33.7068 18.8175 33.7051C19.161 33.7064 19.3749 33.7347 19.6884 33.8859C19.9665 34.2416 19.9394 34.5494 19.931 34.9892C19.931 35.0731 19.931 35.157 19.931 35.2435C19.9305 35.4206 19.9289 35.5978 19.9261 35.7749C19.9222 36.0459 19.9223 36.3167 19.9229 36.5877C19.922 36.76 19.9207 36.9322 19.9193 37.1045C19.9193 37.1854 19.9192 37.2664 19.9192 37.3498C19.9131 37.6609 19.8955 37.9144 19.7867 38.2071C19.4605 38.4384 19.1079 38.3971 18.7185 38.3935C18.6324 38.3939 18.5463 38.3942 18.4575 38.3946C18.2754 38.3949 18.0933 38.3942 17.9112 38.3926C17.6325 38.3906 17.3541 38.3926 17.0755 38.395C16.8985 38.3947 16.7216 38.3943 16.5446 38.3935C16.4613 38.3943 16.378 38.395 16.2922 38.3958C15.9465 38.3906 15.7196 38.3799 15.4165 38.2058C15.2139 37.8497 15.2297 37.5283 15.2351 37.125C15.2349 37.0432 15.2348 36.9613 15.2347 36.877C15.2348 36.7043 15.2359 36.5316 15.2378 36.3589C15.2406 36.0946 15.2398 35.8306 15.2386 35.5664C15.2391 35.3984 15.2399 35.2304 15.2409 35.0625C15.2407 34.9836 15.2404 34.9046 15.2401 34.8233C15.2454 34.4958 15.2507 34.2764 15.4072 33.9843C15.7537 33.6713 16.1949 33.7317 16.6344 33.7276ZM16.6878 35.1562C16.6878 35.744 16.6878 36.3318 16.6878 36.9375C17.2756 36.9375 17.8635 36.9375 18.4691 36.9375C18.4691 36.3497 18.4691 35.7618 18.4691 35.1562C17.8813 35.1562 17.2935 35.1562 16.6878 35.1562Z" fill="#191A1F"/>
<path d="M23.9505 14.1063C24.0367 14.1059 24.1229 14.1056 24.2117 14.1052C24.3937 14.105 24.5756 14.1057 24.7576 14.1072C25.0364 14.1092 25.3151 14.1072 25.5939 14.1048C25.7707 14.1051 25.9475 14.1056 26.1244 14.1063C26.2496 14.1052 26.2496 14.1052 26.3774 14.104C26.9386 14.1126 26.9386 14.1126 27.1926 14.2927C27.3286 14.6585 27.3251 15.0078 27.3252 15.3954C27.3262 15.5212 27.3262 15.5212 27.3273 15.6496C27.3283 15.8267 27.3286 16.0039 27.3282 16.181C27.3281 16.4521 27.332 16.7229 27.3362 16.9939C27.3366 17.1661 27.3369 17.3384 27.3369 17.5106C27.3392 17.632 27.3392 17.632 27.3415 17.756C27.3372 18.129 27.3291 18.3138 27.0939 18.6135C26.7189 18.7952 26.4156 18.8022 26.0039 18.7964C25.9266 18.7965 25.8493 18.7966 25.7696 18.7968C25.6067 18.7966 25.4437 18.7955 25.2808 18.7936C25.032 18.7909 24.7834 18.7917 24.5346 18.7929C24.3759 18.7923 24.2173 18.7915 24.0586 18.7905C23.9845 18.7908 23.9105 18.7911 23.8342 18.7913C23.4059 18.784 23.1208 18.7368 22.7812 18.4686C22.6242 18.1547 22.6681 17.8011 22.6651 17.4557C22.6644 17.3736 22.6636 17.2915 22.6628 17.2069C22.6615 17.0331 22.6605 16.8592 22.6598 16.6854C22.6582 16.4195 22.6541 16.1538 22.6499 15.8879C22.649 15.7191 22.6482 15.5503 22.6476 15.3815C22.6451 15.2622 22.6451 15.2622 22.6426 15.1405C22.6438 14.8043 22.6544 14.5895 22.822 14.2936C23.1903 14.083 23.533 14.1025 23.9505 14.1063ZM24.0937 15.5624C24.0937 16.1502 24.0937 16.738 24.0937 17.3436C24.6815 17.3436 25.2693 17.3436 25.875 17.3436C25.875 16.7558 25.875 16.168 25.875 15.5624C25.2872 15.5624 24.6993 15.5624 24.0937 15.5624Z" fill="#191A1F"/>
<path d="M16.5443 14.1063C16.6305 14.1059 16.7167 14.1056 16.8055 14.1052C16.9874 14.105 17.1694 14.1057 17.3513 14.1072C17.6302 14.1092 17.9088 14.1072 18.1877 14.1048C18.3645 14.1051 18.5413 14.1056 18.7181 14.1063C18.8434 14.1052 18.8434 14.1052 18.9711 14.104C19.5323 14.1126 19.5323 14.1126 19.7863 14.2927C19.9223 14.6585 19.9188 15.0078 19.9189 15.3954C19.92 15.5212 19.92 15.5212 19.9211 15.6496C19.9221 15.8267 19.9224 16.0039 19.9219 16.181C19.9218 16.4521 19.9257 16.7229 19.9299 16.9939C19.9304 17.1661 19.9306 17.3384 19.9306 17.5106C19.9329 17.632 19.9329 17.632 19.9353 17.756C19.931 18.129 19.9229 18.3138 19.6877 18.6135C19.3126 18.7952 19.0093 18.8022 18.5976 18.7964C18.5203 18.7965 18.443 18.7966 18.3634 18.7968C18.2004 18.7966 18.0375 18.7955 17.8745 18.7936C17.6258 18.7909 17.3772 18.7917 17.1284 18.7929C16.9697 18.7923 16.811 18.7915 16.6523 18.7905C16.5783 18.7908 16.5042 18.7911 16.428 18.7913C15.9996 18.784 15.7146 18.7368 15.375 18.4686C15.218 18.1547 15.2619 17.8011 15.2589 17.4557C15.2581 17.3736 15.2574 17.2915 15.2566 17.2069C15.2553 17.0331 15.2543 16.8592 15.2535 16.6854C15.2519 16.4195 15.2478 16.1538 15.2437 15.8879C15.2427 15.7191 15.2419 15.5503 15.2413 15.3815C15.2388 15.2622 15.2388 15.2622 15.2363 15.1405C15.2376 14.8043 15.2482 14.5895 15.4157 14.2936C15.7841 14.083 16.1268 14.1025 16.5443 14.1063ZM16.6875 15.5624C16.6875 16.1502 16.6875 16.738 16.6875 17.3436C17.2753 17.3436 17.8631 17.3436 18.4687 17.3436C18.4687 16.7558 18.4687 16.168 18.4687 15.5624C17.8809 15.5624 17.2931 15.5624 16.6875 15.5624Z" fill="#191A1F"/>
<path d="M34.0168 40.2596C34.1359 40.2588 34.1359 40.2588 34.2574 40.2579C34.4247 40.2572 34.5921 40.2575 34.7595 40.2587C35.0151 40.26 35.2704 40.2568 35.526 40.2532C35.6889 40.2531 35.8519 40.2533 36.0149 40.2538C36.091 40.2525 36.167 40.2513 36.2454 40.25C36.6212 40.2562 36.805 40.2872 37.1265 40.4975C37.3807 40.8852 37.3789 41.1799 37.3717 41.6344C37.3719 41.7161 37.3721 41.7977 37.3724 41.8819C37.3723 42.0541 37.371 42.2263 37.3687 42.3984C37.3655 42.6618 37.3668 42.925 37.3686 43.1884C37.3679 43.3559 37.367 43.5235 37.3658 43.691C37.3663 43.7696 37.3668 43.8483 37.3672 43.9293C37.3605 44.2631 37.3447 44.476 37.1759 44.7684C36.8149 44.9777 36.484 44.9601 36.0735 44.9563C35.9896 44.9566 35.9057 44.957 35.8192 44.9574C35.6421 44.9576 35.4649 44.9569 35.2878 44.9554C35.0168 44.9534 34.746 44.9553 34.475 44.9577C34.3027 44.9575 34.1305 44.957 33.9582 44.9563C33.8368 44.9574 33.8368 44.9574 33.7129 44.9586C33.3735 44.9533 33.1535 44.9406 32.8558 44.7699C32.6486 44.4088 32.6635 44.0771 32.6659 43.6672C32.6653 43.5833 32.6647 43.4994 32.6641 43.413C32.6634 43.2358 32.6637 43.0587 32.6649 42.8816C32.6662 42.6105 32.663 42.3397 32.6595 42.0687C32.6594 41.8965 32.6596 41.7242 32.66 41.552C32.6588 41.471 32.6575 41.3901 32.6562 41.3066C32.662 40.9348 32.6715 40.7485 32.9052 40.4495C33.2853 40.2655 33.5993 40.2571 34.0168 40.2596ZM34.1252 41.719C34.1252 42.3068 34.1252 42.8946 34.1252 43.5002C34.713 43.5002 35.3009 43.5002 35.9065 43.5002C35.9065 42.9124 35.9065 42.3246 35.9065 41.719C35.3187 41.719 34.7309 41.719 34.1252 41.719Z" fill="#191A1F"/>
<path d="M41.4231 40.2596C41.5421 40.2588 41.5421 40.2588 41.6636 40.2579C41.831 40.2572 41.9983 40.2575 42.1657 40.2587C42.4213 40.26 42.6766 40.2568 42.9322 40.2532C43.0952 40.2531 43.2582 40.2533 43.4211 40.2538C43.4972 40.2525 43.5733 40.2513 43.6517 40.25C44.0285 40.2562 44.2112 40.287 44.5331 40.4988C44.7849 40.8818 44.7821 41.165 44.7713 41.6139C44.771 41.7333 44.771 41.7333 44.7707 41.8551C44.7698 42.0229 44.7677 42.1906 44.7646 42.3584C44.76 42.6149 44.7589 42.8714 44.7583 43.128C44.757 43.2912 44.7555 43.4545 44.7538 43.6178C44.7533 43.6944 44.7528 43.7709 44.7522 43.8498C44.738 44.5285 44.738 44.5285 44.5315 44.8127C44.2126 44.9722 43.8491 44.9258 43.498 44.9288C43.3718 44.93 43.3718 44.93 43.243 44.9311C43.0647 44.9324 42.8865 44.9334 42.7082 44.9341C42.4355 44.9358 42.163 44.9399 41.8904 44.944C41.7173 44.945 41.5442 44.9458 41.3711 44.9464C41.2895 44.948 41.208 44.9497 41.1239 44.9514C40.7822 44.9501 40.5618 44.9416 40.2616 44.7705C40.0553 44.4089 40.0698 44.0772 40.0721 43.6672C40.0715 43.5833 40.071 43.4994 40.0704 43.413C40.0697 43.2358 40.07 43.0587 40.0712 42.8816C40.0725 42.6105 40.0693 42.3397 40.0657 42.0687C40.0656 41.8965 40.0658 41.7242 40.0663 41.552C40.065 41.471 40.0638 41.3901 40.0625 41.3066C40.0683 40.9348 40.0777 40.7485 40.3115 40.4495C40.6915 40.2655 41.0056 40.2571 41.4231 40.2596ZM41.5315 41.719C41.5315 42.3068 41.5315 42.8946 41.5315 43.5002C42.1193 43.5002 42.7071 43.5002 43.3127 43.5002C43.3127 42.9124 43.3127 42.3246 43.3127 41.719C42.7249 41.719 42.1371 41.719 41.5315 41.719Z" fill="#191A1F"/>
<path d="M16.5794 40.2538C16.6588 40.2536 16.7381 40.2534 16.8199 40.2532C16.9873 40.2532 17.1547 40.2545 17.322 40.2568C17.5776 40.2601 17.8329 40.2588 18.0885 40.257C18.2515 40.2576 18.4145 40.2585 18.5774 40.2597C18.6535 40.2592 18.7296 40.2588 18.808 40.2583C19.153 40.2654 19.3746 40.2974 19.689 40.4496C19.9664 40.8044 19.941 41.1131 19.9342 41.5521C19.9345 41.636 19.9347 41.7198 19.9349 41.8063C19.9348 41.9834 19.9336 42.1606 19.9312 42.3377C19.928 42.6088 19.9293 42.8795 19.9311 43.1506C19.9305 43.3228 19.9296 43.495 19.9284 43.6673C19.9288 43.7483 19.9293 43.8292 19.9298 43.9126C19.9231 44.2518 19.909 44.4726 19.7387 44.7702C19.3762 44.9775 19.0435 44.9584 18.6327 44.9531C18.5486 44.9532 18.4645 44.9533 18.3778 44.9535C18.2003 44.9533 18.0227 44.9522 17.8452 44.9503C17.5732 44.9476 17.3013 44.9484 17.0293 44.9496C16.8567 44.949 16.6842 44.9482 16.5116 44.9472C16.3894 44.9476 16.3894 44.9476 16.2648 44.948C16.1512 44.9462 16.1512 44.9462 16.0353 44.9444C15.9356 44.9437 15.9356 44.9437 15.8337 44.9429C15.6041 44.8958 15.5219 44.8044 15.3753 44.6253C15.139 44.1528 15.2522 43.4132 15.2487 42.8873C15.2471 42.7144 15.2446 42.5416 15.241 42.3687C15.2359 42.1193 15.2338 41.87 15.2324 41.6205C15.2303 41.5436 15.2282 41.4666 15.226 41.3873C15.2274 41.0068 15.2538 40.8238 15.4671 40.4984C15.8488 40.2482 16.1321 40.2465 16.5794 40.2538ZM16.6878 41.719C16.6878 42.3069 16.6878 42.8947 16.6878 43.5003C17.2756 43.5003 17.8634 43.5003 18.469 43.5003C18.469 42.9125 18.469 42.3247 18.469 41.719C17.8812 41.719 17.2934 41.719 16.6878 41.719Z" fill="#191A1F"/>
<path d="M41.4573 27.1685C41.5328 27.168 41.6083 27.1675 41.686 27.1669C41.8457 27.166 42.0053 27.1654 42.165 27.1651C42.4086 27.1642 42.6522 27.1612 42.8958 27.1583C43.051 27.1577 43.2063 27.1572 43.3616 27.1568C43.4342 27.1557 43.5067 27.1545 43.5815 27.1533C44.0086 27.1551 44.2866 27.2017 44.625 27.4688C44.782 27.7828 44.7381 28.1364 44.7411 28.4818C44.7419 28.5639 44.7426 28.6459 44.7434 28.7305C44.7447 28.9044 44.7457 29.0782 44.7464 29.2521C44.7481 29.5179 44.7522 29.7837 44.7563 30.0495C44.7573 30.2184 44.7581 30.3872 44.7587 30.556C44.7603 30.6355 44.762 30.715 44.7637 30.7969C44.7624 31.1332 44.7517 31.3481 44.5843 31.6441C44.2156 31.8545 43.8732 31.8331 43.4557 31.8278C43.3264 31.8281 43.3264 31.8281 43.1945 31.8283C43.0125 31.8281 42.8306 31.827 42.6486 31.8251C42.3698 31.8224 42.0912 31.8231 41.8123 31.8244C41.6355 31.8238 41.4587 31.823 41.2819 31.822C41.1984 31.8223 41.1149 31.8225 41.0288 31.8228C40.9512 31.8216 40.8736 31.8204 40.7937 31.8192C40.7255 31.8187 40.6573 31.8182 40.587 31.8177C40.3494 31.7699 40.2671 31.6948 40.125 31.5001C40.0893 31.3187 40.0893 31.3187 40.0886 31.1112C40.0877 31.0333 40.0869 30.9554 40.0859 30.8751C40.0865 30.7913 40.0871 30.7075 40.0877 30.6212C40.0874 30.5349 40.0871 30.4485 40.0868 30.3596C40.0867 30.1771 40.0872 29.9945 40.0883 29.812C40.0899 29.5324 40.0884 29.2529 40.0866 28.9732C40.0867 28.796 40.0871 28.6187 40.0877 28.4415C40.0871 28.3577 40.0865 28.2739 40.0859 28.1876C40.0868 28.1097 40.0877 28.0318 40.0886 27.9515C40.0888 27.883 40.0891 27.8146 40.0893 27.744C40.1356 27.5086 40.2193 27.4278 40.4063 27.2813C40.7587 27.1639 41.09 27.1706 41.4573 27.1685ZM41.5313 28.5938C41.5313 29.2126 41.5313 29.8313 41.5313 30.4688C42.1191 30.4688 42.7069 30.4688 43.3125 30.4688C43.3125 29.8501 43.3125 29.2313 43.3125 28.5938C42.7247 28.5938 42.1369 28.5938 41.5313 28.5938Z" fill="#191A1F"/>
<path d="M16.6139 27.1685C16.6893 27.168 16.7648 27.1675 16.8426 27.1669C17.0022 27.166 17.1619 27.1654 17.3216 27.1651C17.5652 27.1642 17.8087 27.1612 18.0523 27.1583C18.2076 27.1577 18.3629 27.1572 18.5181 27.1568C18.5907 27.1557 18.6633 27.1545 18.7381 27.1533C19.2078 27.1552 19.5368 27.224 19.8753 27.5626C19.8871 27.8502 19.893 28.1355 19.8944 28.4232C19.8949 28.5098 19.8954 28.5964 19.896 28.6856C19.8969 28.8692 19.8975 29.0529 19.8978 29.2365C19.8988 29.5178 19.9017 29.799 19.9046 30.0803C19.9052 30.2584 19.9057 30.4365 19.9061 30.6146C19.9072 30.699 19.9084 30.7834 19.9096 30.8703C19.9093 30.9488 19.909 31.0273 19.9087 31.1082C19.9093 31.2118 19.9093 31.2118 19.9098 31.3174C19.8645 31.5574 19.7903 31.6385 19.5941 31.7813C19.4133 31.8177 19.4133 31.8177 19.2066 31.8192C19.129 31.8204 19.0514 31.8216 18.9715 31.8228C18.888 31.8225 18.8045 31.8223 18.7185 31.822C18.6324 31.8225 18.5462 31.823 18.4575 31.8235C18.2754 31.8241 18.0933 31.824 17.9112 31.8232C17.6325 31.8224 17.3541 31.8251 17.0755 31.828C16.8985 31.8282 16.7216 31.8281 16.5446 31.8278C16.4613 31.8289 16.378 31.83 16.2922 31.831C15.9462 31.8271 15.7199 31.8177 15.4165 31.6437C15.2139 31.2874 15.2297 30.966 15.2351 30.5626C15.2349 30.4808 15.2348 30.399 15.2347 30.3147C15.2348 30.1419 15.2359 29.9692 15.2378 29.7965C15.2406 29.5323 15.2398 29.2682 15.2385 29.004C15.2391 28.836 15.2399 28.6681 15.2409 28.5001C15.2407 28.4212 15.2404 28.3423 15.2401 28.261C15.2454 27.9334 15.2507 27.714 15.4072 27.422C15.75 27.1123 16.1794 27.1709 16.6139 27.1685ZM16.6878 28.5938C16.6878 29.2126 16.6878 29.8313 16.6878 30.4688C17.2756 30.4688 17.8635 30.4688 18.4691 30.4688C18.4691 29.8501 18.4691 29.2313 18.4691 28.5938C17.8813 28.5938 17.2935 28.5938 16.6878 28.5938Z" fill="#191A1F"/>
<path d="M34.051 27.1685C34.1265 27.168 34.202 27.1675 34.2798 27.1669C34.4394 27.166 34.5991 27.1654 34.7587 27.1651C35.0024 27.1642 35.2459 27.1612 35.4895 27.1583C35.6448 27.1577 35.8001 27.1572 35.9553 27.1568C36.0279 27.1557 36.1005 27.1545 36.1753 27.1533C36.6023 27.1551 36.8803 27.2017 37.2188 27.4688C37.3757 27.7828 37.3319 28.1364 37.3349 28.4818C37.3356 28.5639 37.3364 28.6459 37.3371 28.7305C37.3384 28.9044 37.3395 29.0782 37.3402 29.2521C37.3418 29.5179 37.3459 29.7837 37.3501 30.0495C37.351 30.2184 37.3518 30.3872 37.3524 30.556C37.3541 30.6355 37.3557 30.715 37.3574 30.7969C37.3562 31.1331 37.3456 31.348 37.178 31.6439C36.8097 31.8544 36.467 31.8349 36.0495 31.8311C35.9633 31.8315 35.8771 31.8319 35.7882 31.8322C35.6063 31.8325 35.4243 31.8318 35.2424 31.8302C34.9635 31.8282 34.6849 31.8302 34.4061 31.8326C34.2293 31.8324 34.0524 31.8319 33.8756 31.8311C33.7921 31.8319 33.7086 31.8327 33.6226 31.8334C33.0617 31.8249 33.0617 31.8249 32.807 31.6449C32.6712 31.2776 32.6787 30.9275 32.6814 30.5388C32.6811 30.4547 32.6809 30.3705 32.6806 30.2839C32.6804 30.1063 32.6809 29.9288 32.6821 29.7513C32.6836 29.4792 32.6821 29.2074 32.6803 28.9353C32.6805 28.7628 32.6809 28.5902 32.6814 28.4177C32.6808 28.3362 32.6803 28.2548 32.6797 28.1709C32.681 28.0573 32.681 28.0573 32.6824 27.9414C32.6826 27.8749 32.6828 27.8084 32.6831 27.7398C32.7298 27.5076 32.8158 27.4264 33 27.2813C33.3525 27.1639 33.6837 27.1706 34.051 27.1685ZM34.125 28.5938C34.125 29.2126 34.125 29.8313 34.125 30.4688C34.7128 30.4688 35.3006 30.4688 35.9063 30.4688C35.9063 29.8501 35.9063 29.2313 35.9063 28.5938C35.3185 28.5938 34.7306 28.5938 34.125 28.5938Z" fill="#191A1F"/>
<path d="M24.0201 27.1685C24.0956 27.168 24.1711 27.1675 24.2488 27.1669C24.4085 27.166 24.5682 27.1654 24.7278 27.1651C24.9714 27.1642 25.215 27.1612 25.4586 27.1583C25.6139 27.1577 25.7691 27.1572 25.9244 27.1568C25.997 27.1557 26.0696 27.1545 26.1443 27.1533C26.6141 27.1552 26.943 27.224 27.2816 27.5626C27.2934 27.8422 27.2993 28.1196 27.3006 28.3994C27.3012 28.4837 27.3017 28.568 27.3022 28.6548C27.3031 28.8336 27.3037 29.0125 27.3041 29.1913C27.305 29.4648 27.3079 29.7382 27.3109 30.0116C27.3115 30.1851 27.312 30.3587 27.3123 30.5322C27.3135 30.614 27.3147 30.6959 27.3159 30.7802C27.3147 31.0947 27.3027 31.3489 27.1938 31.6454C26.8666 31.8754 26.5144 31.8347 26.1247 31.8311C26.0386 31.8315 25.9525 31.8319 25.8638 31.8322C25.6817 31.8325 25.4995 31.8318 25.3174 31.8302C25.0388 31.8282 24.7604 31.8302 24.4817 31.8326C24.3048 31.8324 24.1278 31.8319 23.9509 31.8311C23.8676 31.8319 23.7843 31.8327 23.6984 31.8334C23.3527 31.8282 23.1258 31.8175 22.8227 31.6435C22.6201 31.2873 22.6359 30.9659 22.6413 30.5626C22.6412 30.4808 22.6411 30.399 22.6409 30.3147C22.6411 30.1419 22.6422 29.9692 22.6441 29.7965C22.6468 29.5323 22.646 29.2682 22.6448 29.004C22.6454 28.836 22.6462 28.6681 22.6472 28.5001C22.6469 28.4212 22.6466 28.3423 22.6464 28.261C22.6516 27.9334 22.6569 27.714 22.8134 27.422C23.1562 27.1123 23.5856 27.1709 24.0201 27.1685ZM24.0941 28.5938C24.0941 29.2126 24.0941 29.8313 24.0941 30.4688C24.6819 30.4688 25.2697 30.4688 25.8753 30.4688C25.8753 29.8501 25.8753 29.2313 25.8753 28.5938C25.2875 28.5938 24.6997 28.5938 24.0941 28.5938Z" fill="#191A1F"/>
</svg>
