<svg width="60" height="60" viewBox="0 0 60 60" fill="none" xmlns="http://www.w3.org/2000/svg">
<path d="M15.5117 44.3516C15.2942 44.3516 15.0855 44.438 14.9317 44.5918C14.7778 44.7457 14.6914 44.9543 14.6914 45.1719V51.6237C14.6914 51.8413 14.7778 52.05 14.9317 52.2038C15.0855 52.3576 15.2942 52.4441 15.5117 52.4441C15.7293 52.4441 15.9379 52.3576 16.0918 52.2038C16.2456 52.05 16.332 51.8413 16.332 51.6237V45.1719C16.332 44.9543 16.2456 44.7457 16.0918 44.5918C15.9379 44.438 15.7293 44.3516 15.5117 44.3516Z" fill="#191A1F"/>
<path d="M53.1183 41.2827L44.5144 36.7236C44.3955 36.6604 44.263 36.6273 44.1284 36.6273C43.9937 36.6273 43.8612 36.6604 43.7423 36.7236L43.2562 36.9842C41.2625 35.3395 38.897 34.2068 36.3656 33.6847C37.4171 32.0489 37.9753 30.1449 37.9734 28.2003V27.2464C38.7148 27.0686 39.3781 26.6541 39.8628 26.0655C40.3474 25.477 40.6271 24.7465 40.6594 23.9848C40.6916 23.223 40.4748 22.4715 40.0416 21.8441C39.6085 21.2167 38.9826 20.7475 38.2589 20.5077H39.3872C39.6045 20.5073 39.8128 20.4207 39.9663 20.2669C40.1199 20.1131 40.2061 19.9047 40.2061 19.6873V16.6034C40.2061 16.3859 40.1197 16.1772 39.9658 16.0234C39.812 15.8696 39.6033 15.7831 39.3858 15.7831H37.972V12.5356C37.9704 11.215 37.4451 9.94896 36.5112 9.01519C35.5773 8.08142 34.3112 7.55618 32.9906 7.55469H22.5783C21.2577 7.55618 19.9916 8.08142 19.0577 9.01519C18.1238 9.94896 17.5985 11.215 17.5969 12.5356V15.7831H16.1827C15.9651 15.7831 15.7564 15.8696 15.6026 16.0234C15.4488 16.1772 15.3623 16.3859 15.3623 16.6034V19.6873C15.3623 19.9049 15.4488 20.1136 15.6026 20.2674C15.7564 20.4212 15.9651 20.5077 16.1827 20.5077H17.3109C16.5869 20.7473 15.9608 21.2164 15.5275 21.8439C15.0941 22.4714 14.8771 23.2231 14.9095 23.985C14.9418 24.7469 15.2216 25.4775 15.7066 26.0661C16.1916 26.6546 16.8552 27.069 17.5969 27.2464V28.2045C17.5954 30.1475 18.1531 32.0499 19.2033 33.6847C15.5984 34.4304 12.3609 36.3965 10.0368 39.2513C7.71275 42.1062 6.44427 45.6752 6.44531 49.3564V51.6247C6.44531 51.8423 6.53174 52.0509 6.68558 52.2047C6.83942 52.3586 7.04807 52.445 7.26563 52.445C7.48319 52.445 7.69184 52.3586 7.84567 52.2047C7.99951 52.0509 8.08594 51.8423 8.08594 51.6247V49.3564C8.08551 46.6093 8.87262 43.9197 10.354 41.6063C11.8354 39.2928 13.949 37.4526 16.4442 36.3036C16.4977 36.3962 16.5689 36.4775 16.6538 36.5427L22.9111 41.3464C23.055 41.4569 23.2315 41.5165 23.4129 41.516C23.5943 41.5155 23.7705 41.4549 23.9137 41.3436L24.6075 40.805L26.8523 43.1169L24.1833 51.3748C24.1481 51.4779 24.1338 51.5869 24.1412 51.6955C24.1485 51.8041 24.1775 51.9101 24.2262 52.0075C24.275 52.1048 24.3427 52.1914 24.4253 52.2623C24.5079 52.3332 24.6038 52.387 24.7074 52.4205C24.811 52.4539 24.9202 52.4665 25.0287 52.4573C25.1371 52.4481 25.2427 52.4175 25.3392 52.3671C25.4357 52.3167 25.5212 52.2476 25.5908 52.1639C25.6603 52.0801 25.7125 51.9833 25.7442 51.8792L27.7842 45.5684L29.8242 51.8792C29.8938 52.0829 30.0406 52.2511 30.233 52.3475C30.4254 52.444 30.648 52.4609 30.8528 52.3947C31.0575 52.3286 31.2281 52.1846 31.3277 51.9938C31.4273 51.803 31.4479 51.5807 31.3852 51.3748L28.7166 43.1164L30.9609 40.8045L31.6547 41.3436C31.798 41.4549 31.9741 41.5155 32.1555 41.516C32.337 41.5165 32.5134 41.4569 32.6573 41.3464L38.9147 36.5431C38.9982 36.4791 39.0686 36.3995 39.1219 36.3087C40.027 36.7244 40.8862 37.2336 41.6855 37.828L35.25 41.2822C35.0583 41.3851 34.9153 41.5599 34.8525 41.7682C34.7897 41.9765 34.8122 42.2012 34.9151 42.3929C35.018 42.5846 35.1928 42.7276 35.4011 42.7904C35.6094 42.8532 35.8341 42.8307 36.0258 42.7278L36.6703 42.3819V51.6247C36.6703 51.8423 36.7567 52.0509 36.9106 52.2047C37.0644 52.3586 37.2731 52.445 37.4906 52.445H41.8941C42.1116 52.445 42.3203 52.3586 42.4741 52.2047C42.6279 52.0509 42.7144 51.8423 42.7144 51.6247V47.6938H45.6483V51.6247C45.6483 51.8423 45.7347 52.0509 45.8885 52.2047C46.0424 52.3586 46.251 52.445 46.4686 52.445H50.872C51.0896 52.445 51.2982 52.3586 51.4521 52.2047C51.6059 52.0509 51.6923 51.8423 51.6923 51.6247V42.3842L52.3486 42.732C52.4438 42.7825 52.548 42.8137 52.6552 42.8239C52.7625 42.834 52.8707 42.823 52.9737 42.7913C53.0767 42.7597 53.1724 42.7081 53.2555 42.6394C53.3385 42.5708 53.4072 42.4864 53.4577 42.3912C53.5081 42.296 53.5393 42.1919 53.5495 42.0846C53.5597 41.9773 53.5486 41.8691 53.517 41.7661C53.4853 41.6632 53.4337 41.5674 53.365 41.4844C53.2964 41.4013 53.2121 41.3326 53.1169 41.2822L53.1183 41.2827ZM27.7842 36.7498C25.5184 36.7472 23.3462 35.8461 21.744 34.244C20.1418 32.642 19.2404 30.4698 19.2375 28.2041V20.5077H36.3314V28.2045C36.3284 30.4703 35.4269 32.6424 33.8246 34.2444C32.2223 35.8463 30.05 36.7474 27.7842 36.7498ZM39.0216 23.8367C39.0205 24.1857 38.9215 24.5273 38.736 24.8229C38.5505 25.1184 38.2858 25.3561 37.972 25.5087V22.1647C38.2858 22.3174 38.5505 22.555 38.736 22.8506C38.9215 23.1461 39.0205 23.4878 39.0216 23.8367ZM22.5783 9.19531H32.9906C33.8762 9.19631 34.7253 9.54855 35.3515 10.1748C35.9777 10.801 36.3299 11.65 36.3309 12.5356V12.8933H19.2375V12.5356C19.2385 11.6499 19.5908 10.8008 20.2171 10.1746C20.8434 9.54837 21.6926 9.19618 22.5783 9.19531ZM19.238 14.5391L36.3319 14.5358V15.7845H19.2375L19.238 14.5391ZM17.0034 17.4252H38.5659V18.867H17.0034V17.4252ZM16.5469 23.8367C16.548 23.4878 16.6469 23.1461 16.8324 22.8506C17.018 22.555 17.2826 22.3174 17.5964 22.1647V25.5087C17.2826 25.3561 17.018 25.1184 16.8324 24.8229C16.6469 24.5273 16.548 24.1857 16.5469 23.8367ZM23.408 39.6589L18.172 35.6398C18.8817 35.4208 19.6073 35.2572 20.3423 35.1505C21.7039 36.6117 23.4648 37.6406 25.4063 38.1092L23.408 39.6589ZM27.7847 41.7214L25.9097 39.7925L27.7172 38.3905H27.7847C27.7847 38.3905 27.8316 38.3905 27.8517 38.3905L29.6578 39.793L27.7847 41.7214ZM32.1609 39.6589L30.1636 38.1092C32.1024 37.6411 33.8612 36.6143 35.2219 35.1561C35.9554 35.2635 36.6795 35.4277 37.3875 35.6473L32.1609 39.6589ZM50.0527 50.8044H47.2898V46.8748C47.2898 46.6573 47.2034 46.4486 47.0496 46.2948C46.8957 46.141 46.6871 46.0545 46.4695 46.0545H41.895C41.6774 46.0545 41.4688 46.141 41.315 46.2948C41.1611 46.4486 41.0747 46.6573 41.0747 46.8748V50.8058H38.3123V41.5016L44.1328 38.3783L50.0527 41.5152V50.8044Z" fill="#191A1F"/>
<path d="M34.1334 24.6563C34.3509 24.6563 34.5596 24.5698 34.7134 24.416C34.8672 24.2622 34.9537 24.0535 34.9537 23.8359C34.9537 23.6184 34.8672 23.4097 34.7134 23.2559C34.5596 23.1021 34.3509 23.0156 34.1334 23.0156H30.7738C30.6104 23.0153 30.4505 23.0638 30.3149 23.1551C30.1793 23.2463 30.0741 23.3761 30.0128 23.5277C29.9515 23.6792 29.937 23.8456 29.9712 24.0055C30.0053 24.1654 30.0865 24.3114 30.2043 24.4247C30.2261 24.733 30.3569 25.0235 30.5733 25.2442C30.7898 25.4649 31.0776 25.6014 31.3855 25.6293C31.6933 25.6571 32.001 25.5745 32.2535 25.3962C32.506 25.218 32.6869 24.9557 32.7637 24.6563H34.1334Z" fill="#191A1F"/>
<path d="M25.3666 24.4256C25.4846 24.3124 25.5661 24.1664 25.6005 24.0065C25.6348 23.8465 25.6205 23.68 25.5593 23.5283C25.4981 23.3765 25.3929 23.2466 25.2572 23.1553C25.1215 23.0639 24.9616 23.0153 24.798 23.0156H21.4375C21.2199 23.0156 21.0113 23.1021 20.8575 23.2559C20.7036 23.4097 20.6172 23.6184 20.6172 23.8359C20.6172 24.0535 20.7036 24.2622 20.8575 24.416C21.0113 24.5698 21.2199 24.6563 21.4375 24.6563H22.8072C22.884 24.9556 23.0647 25.218 23.3172 25.3962C23.5697 25.5745 23.8774 25.6572 24.1852 25.6294C24.493 25.6016 24.7809 25.4652 24.9973 25.2445C25.2138 25.0239 25.3447 24.7335 25.3666 24.4252V24.4256Z" fill="#191A1F"/>
<path d="M30.1883 28.8633C29.9707 28.8633 29.7621 28.9497 29.6082 29.1035C29.4544 29.2574 29.368 29.466 29.368 29.6836C29.368 30.1038 29.201 30.5068 28.9039 30.8039C28.6068 31.101 28.2038 31.268 27.7836 31.268C27.3634 31.268 26.9604 31.101 26.6633 30.8039C26.3661 30.5068 26.1992 30.1038 26.1992 29.6836C26.1992 29.466 26.1128 29.2574 25.959 29.1035C25.8051 28.9497 25.5965 28.8633 25.3789 28.8633C25.1613 28.8633 24.9527 28.9497 24.7989 29.1035C24.645 29.2574 24.5586 29.466 24.5586 29.6836C24.5586 30.1071 24.642 30.5265 24.8041 30.9177C24.9662 31.309 25.2037 31.6645 25.5032 31.964C25.8026 32.2635 26.1582 32.501 26.5494 32.6631C26.9407 32.8252 27.3601 32.9086 27.7836 32.9086C28.2071 32.9086 28.6265 32.8252 29.0177 32.6631C29.409 32.501 29.7645 32.2635 30.064 31.964C30.3635 31.6645 30.601 31.309 30.7631 30.9177C30.9252 30.5265 31.0086 30.1071 31.0086 29.6836C31.0086 29.466 30.9222 29.2574 30.7683 29.1035C30.6145 28.9497 30.4058 28.8633 30.1883 28.8633Z" fill="#191A1F"/>
</svg>
