<svg width="60" height="60" viewBox="0 0 60 60" fill="none" xmlns="http://www.w3.org/2000/svg">
<path d="M52.7344 11.0835H15.9764V10.0373C15.9818 9.56191 15.8929 9.09018 15.7147 8.64941C15.5366 8.20865 15.2727 7.80761 14.9385 7.46953C14.6042 7.13145 14.2062 6.86304 13.7675 6.67985C13.3288 6.49667 12.8581 6.40234 12.3827 6.40234C11.9073 6.40234 11.4366 6.49667 10.9979 6.67985C10.5592 6.86304 10.1612 7.13145 9.82699 7.46953C9.49275 7.80761 9.2289 8.20865 9.05074 8.64941C8.87258 9.09018 8.78363 9.56191 8.78906 10.0373V11.0835H7.26562C7.04806 11.0835 6.83941 11.17 6.68558 11.3238C6.53174 11.4776 6.44531 11.6863 6.44531 11.9039V31.2787C6.44531 31.4963 6.53174 31.7049 6.68558 31.8587C6.83941 32.0126 7.04806 32.099 7.26562 32.099H8.78906V52.7325C8.78906 52.95 8.87549 53.1587 9.02933 53.3125C9.18317 53.4663 9.39181 53.5528 9.60938 53.5528H15.1561C15.3737 53.5528 15.5823 53.4663 15.7361 53.3125C15.89 53.1587 15.9764 52.95 15.9764 52.7325V32.099H52.7344C52.9519 32.099 53.1606 32.0126 53.3144 31.8587C53.4683 31.7049 53.5547 31.4963 53.5547 31.2787V11.9043C53.5547 11.7966 53.5336 11.6898 53.4924 11.5903C53.4512 11.4907 53.3908 11.4002 53.3146 11.324C53.2384 11.2478 53.148 11.1873 53.0484 11.146C52.9488 11.1048 52.8421 11.0835 52.7344 11.0835ZM10.4297 10.0373C10.4257 9.77827 10.4732 9.52103 10.5696 9.28056C10.6659 9.04009 10.8091 8.82119 10.9909 8.6366C11.1727 8.452 11.3893 8.30541 11.6283 8.20535C11.8672 8.10529 12.1237 8.05375 12.3827 8.05375C12.6418 8.05375 12.8983 8.10529 13.1372 8.20535C13.3762 8.30541 13.5928 8.452 13.7746 8.6366C13.9563 8.82119 14.0995 9.04009 14.1959 9.28056C14.2922 9.52103 14.3398 9.77827 14.3358 10.0373V11.0835H10.4297V10.0373ZM14.3358 51.9121H10.4297V32.099H14.3358V51.9121ZM51.9141 30.4584H8.08594V12.7242H51.9141V30.4584Z" fill="#191A1F"/>
<path d="M16.8155 19.0442C16.7187 19.0941 16.6329 19.1627 16.5629 19.2461C16.493 19.3295 16.4403 19.426 16.408 19.5299C16.3757 19.6339 16.3645 19.7432 16.3748 19.8516C16.3852 19.9599 16.4171 20.0651 16.4685 20.161C16.5199 20.257 16.59 20.3417 16.6745 20.4103C16.759 20.4789 16.8563 20.5299 16.9608 20.5605C17.0652 20.5911 17.1747 20.6007 17.2829 20.5885C17.3911 20.5764 17.4957 20.5428 17.5908 20.4898L17.7183 20.4214V26.7027C17.7183 26.9202 17.8047 27.1289 17.9586 27.2827C18.1124 27.4365 18.321 27.523 18.5386 27.523H21.7135C21.931 27.523 22.1397 27.4365 22.2935 27.2827C22.4473 27.1289 22.5338 26.9202 22.5338 26.7027V24.0978H24.1922V26.7036C24.1922 26.9212 24.2786 27.1298 24.4325 27.2836C24.5863 27.4375 24.795 27.5239 25.0125 27.5239H28.1874C28.4049 27.5239 28.6136 27.4375 28.7674 27.2836C28.9212 27.1298 29.0077 26.9212 29.0077 26.7036V20.4223L29.1455 20.4955C29.3377 20.5973 29.5626 20.6187 29.7706 20.5548C29.9786 20.4909 30.1527 20.347 30.2545 20.1547C30.3564 19.9624 30.3778 19.7376 30.3139 19.5296C30.2499 19.3216 30.106 19.1475 29.9138 19.0456L23.7099 15.7564C23.5911 15.6932 23.4586 15.6602 23.3241 15.6602C23.1895 15.6602 23.0571 15.6932 22.9383 15.7564M23.3283 17.4088L27.368 19.5491V25.8833H25.8333V23.2775C25.8333 23.0599 25.7469 22.8513 25.593 22.6975C25.4392 22.5436 25.2305 22.4572 25.013 22.4572H21.7139C21.4964 22.4572 21.2877 22.5436 21.1339 22.6975C20.98 22.8513 20.8936 23.0599 20.8936 23.2775V25.8833H19.3585V19.5406L23.3283 17.4088Z" fill="#191A1F"/>
<path d="M12.3827 14.9883C12.1316 14.9883 11.8862 15.0627 11.6774 15.2022C11.4687 15.3417 11.306 15.5399 11.2099 15.7719C11.1138 16.0038 11.0887 16.2591 11.1377 16.5053C11.1867 16.7515 11.3075 16.9777 11.4851 17.1552C11.6626 17.3328 11.8888 17.4537 12.135 17.5026C12.3812 17.5516 12.6365 17.5265 12.8684 17.4304C13.1004 17.3343 13.2986 17.1716 13.4381 16.9629C13.5776 16.7541 13.652 16.5087 13.652 16.2577C13.6517 15.9211 13.5178 15.5985 13.2798 15.3605C13.0419 15.1225 12.7192 14.9887 12.3827 14.9883Z" fill="#191A1F"/>
<path d="M12.3827 25.668C12.1316 25.668 11.8862 25.7424 11.6774 25.8819C11.4687 26.0214 11.306 26.2196 11.2099 26.4516C11.1138 26.6835 11.0887 26.9388 11.1377 27.185C11.1867 27.4312 11.3075 27.6574 11.4851 27.8349C11.6626 28.0125 11.8888 28.1333 12.135 28.1823C12.3812 28.2313 12.6365 28.2062 12.8684 28.1101C13.1004 28.014 13.2986 27.8513 13.4381 27.6426C13.5776 27.4338 13.652 27.1884 13.652 26.9373C13.6517 26.6008 13.5178 26.2781 13.2798 26.0402C13.0419 25.8022 12.7192 25.6683 12.3827 25.668Z" fill="#191A1F"/>
<path d="M34.6742 22.8856C34.57 22.8917 34.4658 22.8728 34.3703 22.8305C34.2748 22.7881 34.1909 22.7237 34.1253 22.6424C34.0356 22.5122 33.9816 22.3607 33.9688 22.2031L32.7852 22.2772C32.8073 22.6556 32.9664 23.013 33.2328 23.2827C33.6391 23.5915 34.1481 23.733 34.6555 23.6783C34.987 23.6887 35.3171 23.6307 35.6253 23.5081C35.8694 23.4056 36.0777 23.233 36.2239 23.0122C36.3647 22.8009 36.4393 22.5523 36.4381 22.2983C36.4408 22.0886 36.3851 21.8824 36.2773 21.7025C36.151 21.5081 35.9723 21.3534 35.7617 21.2563C35.3874 21.0924 34.9952 20.973 34.5931 20.9005C34.4447 20.8823 34.3021 20.8318 34.1755 20.7524C34.1483 20.7322 34.1261 20.7062 34.1104 20.6762C34.0947 20.6463 34.0861 20.6132 34.085 20.5794C34.0848 20.5361 34.0946 20.4934 34.1136 20.4545C34.1327 20.4157 34.1604 20.3817 34.1947 20.3553C34.2896 20.2865 34.4058 20.2533 34.5228 20.2616C34.5974 20.2531 34.6729 20.26 34.7447 20.2819C34.8164 20.3038 34.8829 20.3402 34.9401 20.3888C34.9972 20.4375 35.0437 20.4973 35.0768 20.5647C35.1098 20.6321 35.1287 20.7055 35.1322 20.7805L36.3041 20.7121C36.2941 20.5342 36.2459 20.3605 36.1627 20.2029C36.0796 20.0453 35.9634 19.9075 35.8222 19.7989C35.4683 19.5854 35.0576 19.4853 34.6452 19.5121C34.3079 19.498 33.9713 19.5518 33.6552 19.67C33.4358 19.758 33.2476 19.909 33.1142 20.1041C32.9975 20.2774 32.9349 20.4815 32.9342 20.6905C32.9308 20.8381 32.9606 20.9846 33.0214 21.1191C33.0823 21.2537 33.1726 21.3728 33.2858 21.4677C33.6308 21.7205 34.0308 21.8881 34.453 21.9566C34.6797 21.988 34.897 22.0679 35.09 22.191C35.1321 22.2249 35.1662 22.2677 35.1899 22.3163C35.2137 22.3649 35.2264 22.4181 35.2273 22.4722C35.2264 22.5282 35.213 22.5833 35.188 22.6334C35.163 22.6836 35.1271 22.7275 35.083 22.7619C34.9661 22.8511 34.8209 22.8951 34.6742 22.8856Z" fill="#191A1F"/>
<path d="M37.9066 23.46C38.2612 23.6163 38.6466 23.6905 39.0339 23.6771C39.4224 23.6907 39.8079 23.6042 40.1533 23.4258C40.4467 23.2645 40.6856 23.0198 40.84 22.7227C41.0115 22.3614 41.093 21.964 41.0777 21.5644C41.0944 21.2886 41.0548 21.0123 40.9614 20.7524C40.8679 20.4924 40.7224 20.2542 40.5339 20.0522C40.3252 19.8635 40.0808 19.7185 39.8151 19.6258C39.5494 19.5331 39.2679 19.4947 38.987 19.5127C38.7068 19.4857 38.4241 19.5211 38.1592 19.6164C37.8943 19.7117 37.6538 19.8645 37.455 20.0638C37.2562 20.2631 37.104 20.504 37.0094 20.7691C36.9147 21.0343 36.88 21.3171 36.9077 21.5972C36.8928 22.0069 36.9887 22.413 37.1852 22.7728C37.3515 23.0689 37.6028 23.3083 37.9066 23.46ZM38.3753 20.7216C38.4493 20.6344 38.5421 20.5651 38.6468 20.519C38.7515 20.4729 38.8652 20.4511 38.9795 20.4553C39.0962 20.45 39.2126 20.4708 39.3203 20.5162C39.4279 20.5616 39.524 20.6305 39.6016 20.7178C39.7745 20.9586 39.8558 21.2531 39.8308 21.5485C39.8633 21.8767 39.786 22.2064 39.611 22.486C39.5305 22.569 39.4341 22.6349 39.3276 22.6797C39.2211 22.7245 39.1066 22.7474 38.991 22.7468C38.8754 22.7463 38.7611 22.7224 38.655 22.6766C38.5489 22.6308 38.4531 22.5641 38.3735 22.4803C38.1994 22.223 38.1195 21.9136 38.147 21.6042C38.1193 21.2919 38.2008 20.9796 38.3777 20.7206L38.3753 20.7216Z" fill="#191A1F"/>
<path d="M44.9361 22.6167H42.9945V19.582H41.75V23.6081H44.9361V22.6167Z" fill="#191A1F"/>
<path d="M48.1073 23.4961C48.3183 23.4373 48.5115 23.3273 48.6698 23.1759C48.8479 23.0097 48.9872 22.8063 49.0777 22.5801C49.189 22.2586 49.2388 21.9189 49.2244 21.5789C49.2258 21.3157 49.1926 21.0534 49.1255 20.7989C49.0648 20.5641 48.9562 20.3444 48.8067 20.1534C48.6592 19.9678 48.4681 19.8216 48.2503 19.7278C47.9691 19.6188 47.6686 19.5684 47.3672 19.5797H45.5156V23.6062H47.3639C47.6155 23.6021 47.8654 23.565 48.1073 23.4961ZM46.7616 22.6912V20.4914H47.0719C47.1973 20.4788 47.324 20.4932 47.4434 20.5336C47.5629 20.574 47.6722 20.6395 47.7642 20.7258C47.9313 20.9856 48.0048 21.2946 47.9728 21.6019C47.9855 21.8386 47.9537 22.0757 47.8791 22.3008C47.8308 22.4286 47.7395 22.5355 47.6208 22.6031C47.4445 22.6727 47.2549 22.7023 47.0658 22.6898L46.7616 22.6912Z" fill="#191A1F"/>
</svg>
