<svg width="60" height="60" viewBox="0 0 60 60" fill="none" xmlns="http://www.w3.org/2000/svg">
<path d="M53.3011 38.1208C53.2206 38.0446 53.1255 37.9853 53.0217 37.9465C52.9178 37.9077 52.8072 37.8901 52.6964 37.8948C49.628 38.0355 46.9308 39.0414 44.3217 40.0136C42.6609 40.6753 40.9568 41.2225 39.2212 41.6514V18.6278C39.2234 16.8375 39.9355 15.1211 41.2014 13.8552C42.4674 12.5892 44.1838 11.8771 45.9741 11.875C46.6889 11.875 47.3745 11.591 47.8799 11.0856C48.3854 10.5801 48.6694 9.89453 48.6694 9.17969C48.6694 8.46485 48.3854 7.77928 47.8799 7.27381C47.3745 6.76834 46.6889 6.48438 45.9741 6.48438C42.8969 6.4884 39.9358 7.65917 37.6879 9.76057C35.44 11.862 34.0726 14.7376 33.8616 17.8075H20.7558C20.9573 16.1722 21.7493 14.6668 22.9827 13.5744C24.2161 12.4819 25.8061 11.8776 27.4538 11.875C28.1686 11.875 28.8542 11.591 29.3596 11.0856C29.8651 10.5801 30.1491 9.89453 30.1491 9.17969C30.1491 8.46485 29.8651 7.77928 29.3596 7.27381C28.8542 6.76834 28.1686 6.48438 27.4538 6.48438C24.2342 6.48797 21.1476 7.76852 18.871 10.0451C16.5945 12.3216 15.3139 15.4083 15.3103 18.6278V38.0289C10.2009 38.4878 7.04859 40.4134 6.82875 40.5517C6.71133 40.6256 6.61456 40.728 6.5475 40.8494C6.48044 40.9708 6.44528 41.1072 6.44531 41.2459V52.6984C6.44531 52.916 6.53174 53.1246 6.68558 53.2785C6.83941 53.4323 7.04806 53.5187 7.26562 53.5187C7.48319 53.5187 7.69183 53.4323 7.84567 53.2785C7.99951 53.1246 8.08594 52.916 8.08594 52.6984V46.9534C9.86719 46.0183 17.7502 42.5177 28.2586 47.2216C30.5904 48.3184 33.1308 48.9008 35.7075 48.9292C39.1167 48.9292 42.0356 47.8427 44.895 46.7772C47.2313 45.9072 49.4536 45.085 51.915 44.83V52.6984C51.915 52.916 52.0014 53.1246 52.1553 53.2785C52.3091 53.4323 52.5178 53.5187 52.7353 53.5187C52.9529 53.5187 53.1615 53.4323 53.3154 53.2785C53.4692 53.1246 53.5556 52.916 53.5556 52.6984V38.7142C53.5556 38.6032 53.533 38.4934 53.4892 38.3914C53.4455 38.2894 53.3815 38.1973 53.3011 38.1208ZM45.9741 8.125C46.2538 8.125 46.522 8.23612 46.7198 8.43391C46.9176 8.6317 47.0288 8.89997 47.0288 9.17969C47.0288 9.45941 46.9176 9.72767 46.7198 9.92546C46.522 10.1233 46.2538 10.2344 45.9741 10.2344C43.7487 10.2369 41.6153 11.122 40.0417 12.6955C38.4682 14.269 37.5831 16.4025 37.5806 18.6278V41.9359C36.8812 42.026 36.1763 42.0663 35.4712 42.0564V18.6278C35.4745 15.8433 36.5821 13.1737 38.551 11.2048C40.52 9.2358 43.1895 8.12823 45.9741 8.125ZM33.8306 30.7844V35.3073H20.7009V30.7844H33.8306ZM20.7009 29.1437V28.1983H33.8306V29.1437H20.7009ZM33.8306 26.5577H20.7009V22.0328H33.8306V26.5577ZM20.7009 36.948H33.8306V37.8939H20.7009V36.948ZM33.8306 20.3922H20.7009V19.4481H33.8306V20.3922ZM33.8306 39.5331V41.9275C32.1353 41.6935 30.4837 41.2111 28.9289 40.4959C28.11 40.1294 27.3075 39.8111 26.5209 39.5331H33.8306ZM16.9509 18.6269C16.9544 15.8425 18.0621 13.1732 20.031 11.2044C22 9.23568 24.6694 8.12823 27.4538 8.125C27.7335 8.125 28.0017 8.23612 28.1995 8.43391C28.3973 8.6317 28.5084 8.89997 28.5084 9.17969C28.5084 9.45941 28.3973 9.72767 28.1995 9.92546C28.0017 10.1233 27.7335 10.2344 27.4538 10.2344C25.2285 10.237 23.0951 11.1221 21.5216 12.6956C19.9481 14.2691 19.0629 16.4025 19.0603 18.6278V37.9802C18.3295 37.9333 17.6273 37.9234 16.9509 37.9384V18.6269ZM44.3217 45.2397C39.697 46.9619 35.3297 48.5889 28.9289 45.7234C18.7894 41.1855 11.0156 43.7664 8.08594 45.1202V41.7269C9.87609 40.7894 17.7581 37.2948 28.2586 41.995C35.2725 45.1356 40.1648 43.3136 44.8941 41.5506C47.2308 40.6806 49.4517 39.8533 51.9141 39.5983V43.1847C49.1667 43.4439 46.7053 44.3514 44.3217 45.2397Z" fill="white"/>
</svg>
