<svg width="60" height="60" viewBox="0 0 60 60" fill="none" xmlns="http://www.w3.org/2000/svg">
<g clip-path="url(#clip0_487_218)">
<path d="M30 7.5C26.5388 7.5 23.1554 8.52636 20.2775 10.4493C17.3997 12.3722 15.1566 15.1053 13.8321 18.303C12.5076 21.5007 12.161 25.0194 12.8363 28.4141C13.5115 31.8087 15.1782 34.9269 17.6256 37.3744C20.0731 39.8218 23.1913 41.4885 26.5859 42.1637C29.9806 42.839 33.4993 42.4924 36.697 41.1679C39.8947 39.8434 42.6278 37.6003 44.5507 34.7225C46.4737 31.8446 47.5 28.4612 47.5 25C47.5 20.3587 45.6563 15.9075 42.3744 12.6256C39.0925 9.34374 34.6413 7.5 30 7.5ZM30 40C27.0333 40 24.1332 39.1203 21.6665 37.472C19.1997 35.8238 17.2771 33.4811 16.1418 30.7402C15.0065 27.9994 14.7095 24.9834 15.2882 22.0736C15.867 19.1639 17.2956 16.4912 19.3934 14.3934C21.4912 12.2956 24.1639 10.867 27.0737 10.2882C29.9834 9.70944 32.9994 10.0065 35.7403 11.1418C38.4811 12.2771 40.8238 14.1997 42.472 16.6664C44.1203 19.1332 45 22.0333 45 25C45 28.9782 43.4197 32.7936 40.6066 35.6066C37.7936 38.4196 33.9783 40 30 40Z" fill="white"/>
<path d="M53.4622 21.5875C53.1318 21.2888 52.907 20.8911 52.8214 20.454C52.7357 20.0169 52.7939 19.5638 52.9872 19.1625C53.2618 18.5861 53.4121 17.9584 53.4282 17.3201C53.4442 16.6819 53.3258 16.0473 53.0806 15.4579C52.8354 14.8684 52.4688 14.3371 52.0048 13.8985C51.5408 13.46 50.9896 13.1241 50.3872 12.9125C49.9641 12.7701 49.5999 12.492 49.3513 12.1212C49.1026 11.7505 48.9834 11.308 49.0122 10.8625C49.0491 10.2041 48.9436 9.54541 48.703 8.93143C48.4623 8.31746 48.092 7.76259 47.6175 7.30465C47.1429 6.84672 46.5752 6.49648 45.9531 6.2778C45.3309 6.05913 44.6689 5.97717 44.0122 6.0375C43.5877 6.039 43.1735 5.90706 42.8281 5.66032C42.4826 5.41359 42.2235 5.06454 42.0872 4.6625C41.8757 4.0601 41.5397 3.50897 41.1012 3.04493C40.6626 2.5809 40.1314 2.21435 39.5419 1.96913C38.9524 1.7239 38.3179 1.60548 37.6796 1.62156C37.0413 1.63765 36.4136 1.78789 35.8372 2.0625C33.4872 3.1375 33.3997 0 29.9997 0C29.3551 0.00356655 28.7183 0.142234 28.1305 0.407057C27.5427 0.671879 27.017 1.05697 26.5872 1.5375C26.284 1.86122 25.8867 2.0813 25.4514 2.16656C25.0162 2.25181 24.5651 2.19791 24.1622 2.0125C23.5861 1.73586 22.9581 1.58403 22.3193 1.56694C21.6805 1.54986 21.0452 1.66791 20.4552 1.91337C19.8651 2.15882 19.3336 2.52615 18.8954 2.99129C18.4571 3.45643 18.1221 4.00889 17.9122 4.6125C17.7657 5.03542 17.4848 5.39877 17.1123 5.64705C16.7399 5.89533 16.2965 6.0149 15.8497 5.9875C15.1913 5.95059 14.5326 6.05608 13.9187 6.29677C13.3047 6.53746 12.7498 6.9077 12.2919 7.38224C11.8339 7.85679 11.4837 8.42449 11.265 9.04665C11.0464 9.66881 10.9644 10.3308 11.0247 10.9875C11.0262 11.412 10.8943 11.8262 10.6475 12.1717C10.4008 12.5171 10.0518 12.7762 9.64972 12.9125C9.04852 13.1257 8.49871 13.4626 8.03577 13.9014C7.57283 14.3402 7.20705 14.8713 6.96205 15.4602C6.71704 16.0492 6.59826 16.683 6.61336 17.3207C6.62846 17.9584 6.77711 18.5858 7.04972 19.1625C7.26009 19.5736 7.32638 20.0435 7.23799 20.4967C7.1496 20.95 6.91164 21.3605 6.56222 21.6625C6.08192 22.0905 5.69757 22.6153 5.43439 23.2023C5.17121 23.7893 5.03516 24.4254 5.03516 25.0688C5.03516 25.7121 5.17121 26.3482 5.43439 26.9352C5.69757 27.5222 6.08192 28.047 6.56222 28.475C6.89264 28.7737 7.11747 29.1714 7.20309 29.6085C7.28871 30.0456 7.23052 30.4987 7.03722 30.9C6.76058 31.4761 6.60875 32.1041 6.59166 32.7429C6.57458 33.3818 6.69263 34.017 6.93809 34.607C7.18355 35.1971 7.55087 35.7286 8.01601 36.1668C8.48115 36.6051 9.03361 36.9401 9.63722 37.15C10.0601 37.2965 10.4235 37.5775 10.6718 37.9499C10.92 38.3223 11.0396 38.7657 11.0122 39.2125C10.9513 40.2444 11.2455 41.266 11.8459 42.1075C12.4462 42.9489 13.3166 43.5595 14.3122 43.8375C8.42472 54.05 8.41222 53.6 8.98722 54.4625C9.56222 55.325 9.94972 55.0375 15.4497 54.375C17.5997 59.45 17.5622 60 18.5872 60C19.6122 60 19.3997 60 26.2122 48.1625C26.352 48.2527 26.4819 48.3575 26.5997 48.475C27.0277 48.9553 27.5525 49.3397 28.1395 49.6028C28.7266 49.866 29.3626 50.0021 30.006 50.0021C30.6493 50.0021 31.2854 49.866 31.8724 49.6028C32.4595 49.3397 32.9842 48.9553 33.4122 48.475C33.5265 48.3623 33.6522 48.2618 33.7872 48.175C40.7747 60.2875 40.3622 60.0875 41.4122 60.0125C42.4622 59.9375 42.3997 59.475 44.5747 54.3625C50.0372 55.025 50.4747 55.3125 51.0372 54.45C51.5997 53.5875 51.3122 53.5375 45.7122 43.8375C46.7274 43.5465 47.6107 42.9133 48.2122 42.0452C48.8137 41.1772 49.0964 40.1277 49.0122 39.075C49.0107 38.6505 49.1427 38.2363 49.3894 37.8908C49.6361 37.5454 49.9852 37.2863 50.3872 37.15C50.9884 36.9368 51.5382 36.5999 52.0012 36.1611C52.4641 35.7223 52.8299 35.1912 53.0749 34.6023C53.3199 34.0133 53.4387 33.3795 53.4236 32.7418C53.4085 32.1041 53.2598 31.4767 52.9872 30.9C52.7979 30.4979 52.7419 30.0458 52.8274 29.6097C52.9128 29.1735 53.1352 28.776 53.4622 28.475C53.9569 28.0479 54.3537 27.5192 54.6257 26.9249C54.8977 26.3307 55.0385 25.6848 55.0385 25.0312C55.0385 24.3777 54.8977 23.7318 54.6257 23.1376C54.3537 22.5433 53.9569 22.0146 53.4622 21.5875ZM18.8247 55.9625C16.6247 50.825 17.7997 51.55 12.3372 52.2125C17.4122 43.4625 16.8622 44.25 17.0122 44.3375C17.4081 44.5791 17.7083 44.95 17.8622 45.3875C18.2341 46.4567 18.9901 47.3495 19.9835 47.8923C20.9768 48.4352 22.1365 48.5894 23.2372 48.325L18.8247 55.9625ZM41.1747 55.9625L36.7622 48.325C37.8612 48.5889 39.0191 48.4343 40.0104 47.8912C41.0017 47.3482 41.7554 46.4557 42.1247 45.3875C42.3093 44.9177 42.6489 44.5252 43.0872 44.275L47.6622 52.2125C42.1497 51.5375 43.3372 50.8875 41.1747 55.9625ZM51.8122 26.5375C51.0711 27.1989 50.5654 28.0835 50.3714 29.0577C50.1775 30.0319 50.3059 31.0427 50.7372 31.9375C50.8645 32.1975 50.9349 32.4817 50.9437 32.7711C50.9525 33.0604 50.8996 33.3483 50.7884 33.6157C50.6772 33.8829 50.5104 34.1235 50.2989 34.3212C50.0875 34.519 49.8364 34.6694 49.5622 34.7625C48.6094 35.1002 47.7944 35.7422 47.2431 36.5895C46.6918 37.4368 46.4349 38.4421 46.5122 39.45C46.5115 39.7368 46.4514 40.0204 46.3355 40.2828C46.2197 40.5451 46.0508 40.7807 45.8394 40.9745C45.6279 41.1683 45.3786 41.3162 45.1072 41.4088C44.8357 41.5014 44.548 41.5367 44.2622 41.5125C43.2846 41.4729 42.32 41.7477 41.5101 42.2966C40.7002 42.8456 40.0876 43.6397 39.7622 44.5625C39.6658 44.8342 39.5135 45.0827 39.3151 45.2919C39.1168 45.5011 38.8767 45.6664 38.6105 45.7771C38.3444 45.8878 38.0579 45.9415 37.7697 45.9347C37.4815 45.9279 37.1979 45.8607 36.9372 45.7375C36.0439 45.3138 35.0381 45.1884 34.0681 45.3797C33.0981 45.571 32.2153 46.0689 31.5497 46.8C31.3502 47.0083 31.1106 47.1741 30.8452 47.2874C30.5799 47.4007 30.2944 47.4591 30.006 47.4591C29.7175 47.4591 29.432 47.4007 29.1667 47.2874C28.9014 47.1741 28.6618 47.0083 28.4622 46.8C27.8008 46.0589 26.9162 45.5532 25.942 45.3592C24.9678 45.1653 23.957 45.2937 23.0622 45.725C22.801 45.8503 22.5162 45.9192 22.2266 45.9271C21.9369 45.935 21.6489 45.8818 21.3812 45.7709C21.1135 45.6601 20.8721 45.494 20.6729 45.2837C20.4736 45.0733 20.3209 44.8233 20.2247 44.55C19.8931 43.5958 19.2541 42.7786 18.4081 42.2267C17.562 41.6747 16.5567 41.4191 15.5497 41.5C15.2629 41.4993 14.9794 41.4391 14.717 41.3233C14.4546 41.2075 14.219 41.0386 14.0252 40.8271C13.8314 40.6157 13.6836 40.3664 13.591 40.0949C13.4984 39.8235 13.463 39.5358 13.4872 39.25C13.5289 38.272 13.2548 37.3065 12.7056 36.4962C12.1564 35.6858 11.3611 35.0736 10.4372 34.75C10.1618 34.6587 9.90931 34.5092 9.69672 34.3118C9.48413 34.1143 9.31645 33.8735 9.20503 33.6056C9.09361 33.3378 9.04105 33.0491 9.05092 32.7591C9.06079 32.4691 9.13285 32.1847 9.26222 31.925C9.68994 31.0325 9.81758 30.0257 9.62609 29.0547C9.4346 28.0838 8.93425 27.2008 8.19972 26.5375C7.9813 26.344 7.80643 26.1063 7.68666 25.8402C7.5669 25.5741 7.50497 25.2856 7.50497 24.9938C7.50497 24.7019 7.5669 24.4134 7.68666 24.1473C7.80643 23.8812 7.9813 23.6435 8.19972 23.45C8.93737 22.7863 9.44062 21.9018 9.63436 20.9286C9.8281 19.9554 9.70195 18.9456 9.27472 18.05C9.14535 17.7903 9.07329 17.5059 9.06342 17.2159C9.05355 16.9259 9.10611 16.6372 9.21753 16.3694C9.32895 16.1015 9.49663 15.8607 9.70922 15.6632C9.92181 15.4658 10.1743 15.3163 10.4497 15.225C11.4025 14.8873 12.2176 14.2452 12.7689 13.398C13.3202 12.5507 13.577 11.5454 13.4997 10.5375C13.4985 10.2501 13.5574 9.96567 13.6726 9.70238C13.7878 9.43908 13.9567 9.20277 14.1685 9.00858C14.3804 8.81439 14.6305 8.66661 14.9027 8.57473C15.175 8.48284 15.4635 8.44887 15.7497 8.475C16.7278 8.51663 17.6932 8.2426 18.5036 7.69338C19.3139 7.14416 19.9261 6.34887 20.2497 5.425C20.3461 5.1533 20.4984 4.90483 20.6968 4.69562C20.8952 4.48642 21.1352 4.32112 21.4014 4.21041C21.6676 4.09969 21.954 4.04601 22.2423 4.05283C22.5305 4.05965 22.8141 4.12682 23.0747 4.25C23.9672 4.67772 24.974 4.80536 25.945 4.61387C26.916 4.42238 27.799 3.92203 28.4622 3.1875C28.6618 2.97916 28.9014 2.81336 29.1667 2.70009C29.432 2.58682 29.7175 2.52843 30.006 2.52843C30.2944 2.52843 30.5799 2.58682 30.8452 2.70009C31.1106 2.81336 31.3502 2.97916 31.5497 3.1875C32.2134 3.92515 33.0979 4.4284 34.0711 4.62214C35.0443 4.81588 36.0541 4.68973 36.9497 4.2625C37.2101 4.1373 37.4939 4.06854 37.7827 4.06073C38.0715 4.05292 38.3587 4.10623 38.6254 4.21718C38.8922 4.32812 39.1324 4.49419 39.3305 4.70449C39.5286 4.9148 39.68 5.16459 39.7747 5.4375C40.1124 6.39029 40.7545 7.20533 41.6018 7.75663C42.449 8.30793 43.4543 8.56479 44.4622 8.4875C44.749 8.48821 45.0326 8.54836 45.295 8.66418C45.5574 8.77999 45.7929 8.94894 45.9867 9.16037C46.1805 9.37179 46.3284 9.6211 46.421 9.89255C46.5136 10.164 46.5489 10.4517 46.5247 10.7375C46.4831 11.7155 46.7571 12.681 47.3063 13.4913C47.8556 14.3017 48.6509 14.9139 49.5747 15.2375C49.8501 15.3288 50.1026 15.4783 50.3152 15.6757C50.5278 15.8732 50.6955 16.114 50.8069 16.3819C50.9183 16.6497 50.9709 16.9384 50.961 17.2284C50.9512 17.5184 50.8791 17.8028 50.7497 18.0625C50.322 18.955 50.1944 19.9618 50.3858 20.9328C50.5773 21.9037 51.0777 22.7867 51.8122 23.45C52.0306 23.6435 52.2055 23.8812 52.3253 24.1473C52.445 24.4134 52.507 24.7019 52.507 24.9938C52.507 25.2856 52.445 25.5741 52.3253 25.8402C52.2055 26.1063 52.0306 26.344 51.8122 26.5375Z" fill="white"/>
<path d="M33.9246 20.125C30.9496 14.1125 31.0371 13.75 29.9996 13.75C28.9621 13.75 29.0496 14.1 26.0746 20.125C19.4496 21.0875 19.1371 20.8875 18.8121 21.875C18.4871 22.8625 18.8121 22.9 23.6621 27.575C22.5246 34.175 22.2496 34.425 23.0871 35.075C23.9246 35.725 24.0621 35.35 29.9996 32.225C36.0371 35.4 35.7496 35.3125 36.1746 35.3125C36.3582 35.3152 36.5402 35.2773 36.7076 35.2017C36.875 35.126 37.0237 35.0144 37.143 34.8748C37.2624 34.7352 37.3495 34.5709 37.3981 34.3938C37.4468 34.2167 37.4558 34.031 37.4246 33.85L36.3496 27.6L40.8871 23.1875C41.0558 23.0244 41.1753 22.8172 41.2317 22.5894C41.2882 22.3616 41.2794 22.1226 41.2064 21.8996C41.1334 21.6765 40.999 21.4786 40.8188 21.3284C40.6385 21.1781 40.4196 21.0816 40.1871 21.05L33.9246 20.125ZM34.1246 26.25C33.4996 26.8625 33.7371 27.1375 34.5246 31.7375C30.1621 29.45 30.4121 29.525 29.9996 29.525C29.5871 29.525 29.8371 29.45 25.4746 31.7375C26.2746 27.1125 26.4996 26.85 25.8746 26.25L22.6871 23.1375L27.0871 22.5C27.9621 22.375 27.9371 22.0125 29.9996 17.825C32.0871 22.05 32.0496 22.375 32.9121 22.5L37.3121 23.1375L34.1246 26.25Z" fill="white"/>
</g>
<defs>
<clipPath id="clip0_487_218">
<rect width="60" height="60" fill="white"/>
</clipPath>
</defs>
</svg>
