<svg width="60" height="60" viewBox="0 0 60 60" fill="none" xmlns="http://www.w3.org/2000/svg">
<path d="M52.7344 51.3499H51.0938V36.0124H52.7344C52.8806 36.0124 53.0242 35.9733 53.1503 35.8991C53.2763 35.8249 53.3803 35.7184 53.4513 35.5906C53.5224 35.4627 53.5579 35.3182 53.5544 35.172C53.5508 35.0258 53.5082 34.8832 53.4309 34.759L43.9622 19.5443C43.8885 19.4259 43.7859 19.3283 43.664 19.2607C43.5421 19.193 43.405 19.1575 43.2656 19.1576H41.2111V16.0671C42.1975 16.1854 43.1915 15.9196 43.9872 15.3247C44.7829 14.7299 45.3191 13.8516 45.4847 12.8721C46.0014 12.8738 46.5095 12.7389 46.9572 12.4809C47.405 12.2229 47.7765 11.8511 48.0342 11.4031C48.2918 10.9551 48.4264 10.447 48.4243 9.93024C48.4221 9.41348 48.2833 8.90648 48.022 8.46069C47.7606 8.01489 47.386 7.64615 46.9361 7.39189C46.4862 7.13763 45.9771 7.00689 45.4603 7.01293C44.9436 7.01898 44.4377 7.16159 43.9939 7.42631C43.55 7.69102 43.1841 8.06842 42.9333 8.52021C42.2711 8.28781 41.5584 8.23921 40.8708 8.37959C40.2998 7.75428 39.5532 7.31617 38.7288 7.12275C37.9044 6.92933 37.0408 6.98963 36.2513 7.29575C35.4619 7.60186 34.7833 8.13949 34.3048 8.83808C33.8263 9.53668 33.5702 10.3636 33.57 11.2104V11.2291H31.9336C31.716 11.2291 31.5074 11.3155 31.3535 11.4694C31.1997 11.6232 31.1133 11.8319 31.1133 12.0494V14.4391C31.1133 14.6567 31.1997 14.8653 31.3535 15.0192C31.5074 15.173 31.716 15.2594 31.9336 15.2594H32.1877V19.1585H16.7344C16.5949 19.1585 16.4578 19.1941 16.3359 19.2618C16.214 19.3296 16.1114 19.4273 16.0378 19.5457L6.56906 34.7599C6.49208 34.8841 6.44967 35.0266 6.44621 35.1727C6.44275 35.3187 6.47837 35.4631 6.54939 35.5908C6.6204 35.7185 6.72424 35.8249 6.85016 35.899C6.97608 35.9731 7.11951 36.0123 7.26562 36.0124H8.90625V51.3499H7.26562C7.04806 51.3499 6.83941 51.4363 6.68558 51.5902C6.53174 51.744 6.44531 51.9527 6.44531 52.1702C6.44531 52.3878 6.53174 52.5964 6.68558 52.7503C6.83941 52.9041 7.04806 52.9905 7.26562 52.9905H52.7344C52.9519 52.9905 53.1606 52.9041 53.3144 52.7503C53.4683 52.5964 53.5547 52.3878 53.5547 52.1702C53.5547 51.9527 53.4683 51.744 53.3144 51.5902C53.1606 51.4363 52.9519 51.3499 52.7344 51.3499ZM23.9452 47.1063H25.8075V48.7127H23.9452V47.1063ZM23.9452 50.3533H26.6278C26.8454 50.3533 27.054 50.2669 27.2079 50.1131C27.3617 49.9592 27.4481 49.7506 27.4481 49.533V46.286C27.4481 46.0684 27.3617 45.8598 27.2079 45.7059C27.054 45.5521 26.8454 45.4657 26.6278 45.4657H23.9452V36.0124H38.6967V38.4391C38.6967 38.6567 38.7831 38.8653 38.937 39.0192C39.0908 39.173 39.2995 39.2594 39.517 39.2594H42.4467V41.6862C42.4467 41.7012 42.4505 41.7157 42.4514 41.7307C42.3826 41.5985 42.2789 41.4876 42.1515 41.4101C42.0242 41.3326 41.8781 41.2914 41.7291 41.291H31.6697C31.4521 41.291 31.2435 41.3774 31.0896 41.5313C30.9358 41.6851 30.8494 41.8937 30.8494 42.1113V51.3499H23.9452V50.3533ZM49.4531 40.8658H44.0873V39.2594H49.4531V40.8658ZM45.7031 37.6188H40.3373V36.0124H45.7031V37.6188ZM32.49 42.9312H40.9088V51.3494H32.49V42.9312ZM42.5447 42.0663C42.6135 42.1985 42.7172 42.3094 42.8445 42.3869C42.9719 42.4644 43.118 42.5056 43.267 42.506H49.4545V51.3494H42.5489V42.1108C42.5489 42.0954 42.5456 42.0813 42.5447 42.0663ZM49.4531 37.6188H47.3438V36.0124H49.4531V37.6188ZM51.2578 34.3718H26.6559L18.2095 20.7982H42.8114L51.2578 34.3718ZM37.7691 8.65334C38.1875 8.65318 38.5996 8.75566 38.9692 8.95179C39.3389 9.14793 39.6548 9.43174 39.8892 9.77834C39.9925 9.93075 40.144 10.044 40.3193 10.1C40.4947 10.1559 40.6838 10.1513 40.8563 10.0868C41.1973 9.95813 41.5646 9.91451 41.9263 9.95967C42.2881 10.0048 42.6334 10.1374 42.9323 10.346C43.048 10.4266 43.1826 10.476 43.3229 10.4895C43.4633 10.5029 43.6048 10.48 43.7337 10.4228C43.8626 10.3657 43.9746 10.2762 44.0589 10.1632C44.1432 10.0501 44.1969 9.91726 44.2148 9.7774C44.2496 9.51195 44.3664 9.26399 44.549 9.06819C44.7316 8.87239 44.9708 8.73854 45.2332 8.68535C45.4955 8.63216 45.768 8.66228 46.0124 8.77151C46.2568 8.88075 46.461 9.06362 46.5964 9.29458C46.7318 9.52554 46.7916 9.79303 46.7675 10.0597C46.7434 10.3263 46.6366 10.5787 46.4621 10.7817C46.2875 10.9847 46.0538 11.128 45.7938 11.1916C45.5337 11.2553 45.2603 11.2361 45.0117 11.1368C44.8812 11.0849 44.7395 11.0675 44.6003 11.0861C44.4611 11.1047 44.329 11.1588 44.2166 11.2431C44.1043 11.3274 44.0155 11.4391 43.9587 11.5676C43.9019 11.6961 43.8791 11.8369 43.8923 11.9768C43.8994 12.0494 43.9036 12.123 43.9036 12.1976C43.9039 12.6575 43.7636 13.1065 43.5013 13.4844C43.239 13.8622 42.8675 14.1508 42.4364 14.3113C42.0054 14.4718 41.5356 14.4966 41.0901 14.3824C40.6446 14.2682 40.2447 14.0204 39.9441 13.6722C39.8234 13.533 39.6594 13.4384 39.4784 13.4038C39.2974 13.3692 39.1101 13.3965 38.9466 13.4815C38.5838 13.6712 38.1804 13.7701 37.7709 13.7697C37.0923 13.7697 36.4415 13.5002 35.9617 13.0203C35.4818 12.5405 35.2123 11.8897 35.2123 11.2111C35.2123 10.5325 35.4818 9.88166 35.9617 9.40182C36.4415 8.92197 37.0923 8.6524 37.7709 8.6524L37.7691 8.65334ZM32.7534 12.8721H33.9127C34.0274 13.1348 34.1688 13.385 34.3345 13.6188H32.7539L32.7534 12.8721ZM33.8278 15.2594H36.6628C37.4777 15.487 38.3427 15.4597 39.1416 15.1812C39.2772 15.2937 39.4204 15.3969 39.57 15.4901V19.1585H33.8283L33.8278 15.2594ZM16.7344 21.5304L24.7252 34.3741H8.74219L16.7344 21.5304ZM15.9141 36.0147V37.6188H10.5469V36.0124L15.9141 36.0147ZM14.2969 39.2594H19.6627V40.8658H14.2969V39.2594ZM10.5469 39.2594H12.6562V41.6862C12.6563 41.9037 12.7427 42.1124 12.8965 42.2662C13.0504 42.42 13.259 42.5065 13.4766 42.5065H20.4844C20.7019 42.5065 20.9106 42.42 21.0644 42.2662C21.2183 42.1124 21.3047 41.9037 21.3047 41.6862V38.4391C21.3047 38.2216 21.2183 38.0129 21.0644 37.8591C20.9106 37.7052 20.7019 37.6188 20.4844 37.6188H17.5547V36.0124H22.3045V51.3499H10.5469V39.2594Z" fill="white"/>
</svg>
