<svg width="40" height="40" viewBox="0 0 40 40" fill="none" xmlns="http://www.w3.org/2000/svg">
<path d="M25.7945 17.3749L20.2186 14.4208C20.1394 14.3786 20.0511 14.3564 19.9614 14.3564C19.8717 14.3564 19.7833 14.3786 19.7042 14.4208L14.2026 17.3749C14.1369 17.4074 14.0784 17.4527 14.0305 17.5083C13.9826 17.5638 13.9464 17.6284 13.9241 17.6983C13.9017 17.7681 13.8936 17.8417 13.9002 17.9147C13.9068 17.9877 13.9281 18.0587 13.9627 18.1233C13.9973 18.188 14.0446 18.245 14.1016 18.291C14.1587 18.337 14.2245 18.3711 14.295 18.3912C14.3655 18.4113 14.4394 18.417 14.5121 18.4079C14.5849 18.3989 14.6551 18.3753 14.7186 18.3386L15.1148 18.1249V24.0902C15.1148 24.2352 15.1725 24.3743 15.275 24.4769C15.3776 24.5795 15.5167 24.6371 15.6617 24.6371H18.5148C18.5867 24.6372 18.6579 24.6231 18.7243 24.5956C18.7907 24.5682 18.8511 24.5279 18.9019 24.4771C18.9528 24.4263 18.9931 24.366 19.0206 24.2996C19.0482 24.2332 19.0623 24.1621 19.0623 24.0902V21.5589H20.933V24.0902C20.933 24.2352 20.9906 24.3743 21.0931 24.4769C21.1957 24.5795 21.3348 24.6371 21.4798 24.6371H24.333C24.478 24.6371 24.6171 24.5795 24.7197 24.4769C24.8222 24.3743 24.8798 24.2352 24.8798 24.0902V18.1277L25.283 18.3411C25.4106 18.4042 25.5578 18.4149 25.6933 18.3712C25.8287 18.3274 25.9418 18.2325 26.0084 18.1067C26.075 17.9808 26.0899 17.834 26.05 17.6974C26.0101 17.5607 25.9184 17.445 25.7945 17.3749ZM23.7855 23.5433H22.0261V21.0121C22.0261 20.867 21.9685 20.7279 21.8659 20.6254C21.7634 20.5228 21.6243 20.4652 21.4792 20.4652H18.5148C18.3698 20.4652 18.2307 20.5228 18.1281 20.6254C18.0256 20.7279 17.968 20.867 17.968 21.0121V23.5433H16.2086V17.5396L19.9648 15.5239L23.7858 17.5483L23.7855 23.5433Z" fill="#191A1F"/>
<path d="M33.0655 20.0997L32.1043 9.51842C32.0634 9.05148 31.9037 8.60278 31.6403 8.21501C31.377 7.82724 31.0188 7.51331 30.5999 7.30311C30.1807 7.09584 29.7165 6.99654 29.2492 7.01422C28.782 7.0319 28.3265 7.16601 27.9243 7.40436C27.3039 7.77231 26.5949 7.96379 25.8736 7.95811C24.3699 7.95811 23.0355 7.17342 22.5536 6.0053C22.345 5.49968 21.9909 5.06738 21.5363 4.7632C21.0817 4.45901 20.547 4.29663 20 4.29663C19.4531 4.29663 18.9184 4.45901 18.4638 4.7632C18.0092 5.06738 17.6551 5.49968 17.4464 6.0053C16.9649 7.17311 15.6305 7.9578 14.1268 7.9578C13.4056 7.96352 12.6966 7.77203 12.0764 7.40405C11.6741 7.16569 11.2185 7.03159 10.7512 7.01391C10.2838 6.99623 9.81944 7.09553 9.4002 7.3028C8.98132 7.51307 8.62322 7.82702 8.35995 8.21478C8.09669 8.60254 7.93702 9.05121 7.89613 9.51811L6.93426 20.0997C6.71976 22.5118 7.1986 24.9349 8.31444 27.0842C9.43029 29.2334 11.1367 31.0192 13.233 32.2315L18.6211 35.3347C19.0404 35.576 19.5158 35.703 19.9996 35.703C20.4834 35.703 20.9587 35.576 21.378 35.3347L26.7661 32.2315C28.8625 31.0193 30.5691 29.2335 31.6851 27.0843C32.801 24.9351 33.2799 22.5118 33.0655 20.0997ZM26.2218 31.2837L20.8336 34.3869C20.5794 34.53 20.2926 34.6052 20.0008 34.6052C19.7091 34.6052 19.4222 34.53 19.168 34.3869L13.7799 31.2837C11.8644 30.1761 10.305 28.5444 9.28532 26.5807C8.26563 24.6169 7.82801 22.4028 8.02395 20.1987L8.9852 9.61748C9.0108 9.33571 9.10763 9.06506 9.26659 8.831C9.42555 8.59693 9.64141 8.40712 9.89389 8.27941C10.1464 8.15171 10.4272 8.09029 10.7099 8.10094C10.9927 8.11159 11.268 8.19396 11.5102 8.3403C12.3011 8.8117 13.2058 9.05787 14.1264 9.05217C16.0683 9.05217 17.8086 7.99561 18.4571 6.42311C18.5831 6.11771 18.797 5.85661 19.0716 5.67289C19.3462 5.48916 19.6692 5.39109 19.9996 5.39109C20.33 5.39109 20.6529 5.48916 20.9275 5.67289C21.2021 5.85661 21.416 6.11771 21.5421 6.42311C22.1908 7.99592 23.9314 9.05248 25.873 9.05248C26.7937 9.05818 27.6984 8.81201 28.4893 8.34061C28.7323 8.19656 29.0073 8.1154 29.2896 8.10448C29.5719 8.09357 29.8524 8.15325 30.1058 8.27811C30.3588 8.40512 30.5751 8.59475 30.7341 8.82898C30.8932 9.0632 30.9896 9.33421 31.0143 9.61623L31.9755 20.1975C32.1718 22.4016 31.7345 24.6159 30.715 26.5799C29.6955 28.5439 28.1363 30.1758 26.2208 31.2837H26.2218Z" fill="#191A1F"/>
<path d="M29.8978 9.71886C29.8894 9.62652 29.8576 9.53784 29.8055 9.46114C29.7534 9.38445 29.6827 9.32226 29.5999 9.28042C29.5172 9.23858 29.4252 9.21846 29.3325 9.22196C29.2399 9.22546 29.1496 9.25246 29.0703 9.30042C28.1045 9.87809 26.9991 10.1807 25.8737 10.1754C23.4831 10.1754 21.3259 8.84011 20.5059 6.85229C20.4646 6.75223 20.3945 6.66668 20.3045 6.60649C20.2145 6.54629 20.1087 6.51416 20.0004 6.51416C19.8922 6.51416 19.7863 6.54629 19.6964 6.60649C19.6064 6.66668 19.5363 6.75223 19.495 6.85229C18.6746 8.84011 16.5175 10.1757 14.1268 10.1757C13.0015 10.181 11.8961 9.8784 10.9303 9.30073C10.8509 9.25263 10.7606 9.22551 10.6679 9.22192C10.5752 9.21833 10.4831 9.23839 10.4003 9.28021C10.3175 9.32203 10.2466 9.38423 10.1945 9.46097C10.1423 9.53771 10.1105 9.62645 10.1021 9.71886L9.14089 20.3004C8.96379 22.2911 9.35893 24.2909 10.2798 26.0646C11.2007 27.8383 12.609 29.3121 14.339 30.3126L19.7271 33.4154C19.8101 33.4632 19.9042 33.4883 20 33.4883C20.0957 33.4883 20.1898 33.4632 20.2728 33.4154L25.6609 30.3126C27.3909 29.3121 28.7992 27.8383 29.7201 26.0646C30.641 24.2909 31.0361 22.2911 30.859 20.3004L29.8978 9.71886ZM25.1165 29.3642L20 32.3098L14.8846 29.3642C13.3355 28.4683 12.0745 27.1487 11.25 25.5605C10.4255 23.9723 10.0717 22.1816 10.2303 20.3992L11.1175 10.6314C12.0642 11.0537 13.0898 11.2707 14.1265 11.2679C15.2801 11.2833 16.4196 11.0138 17.4442 10.4835C18.4687 9.95306 19.3466 9.17811 20 8.22729C20.6533 9.1781 21.5312 9.95302 22.5557 10.4834C23.5803 11.0137 24.7198 11.2831 25.8734 11.2676C26.9101 11.2704 27.9357 11.0534 28.8825 10.631L29.7696 20.3992C29.9282 22.1816 29.5745 23.9723 28.7499 25.5605C27.9254 27.1487 26.6644 28.4683 25.1153 29.3642H25.1165Z" fill="#191A1F"/>
</svg>
