<svg width="60" height="60" viewBox="0 0 60 60" fill="none" xmlns="http://www.w3.org/2000/svg">
<path d="M50.855 18.8181L44.7749 15.3836V12.4422L45.5572 12.8565C45.7495 12.9584 45.9743 12.9798 46.1823 12.9158C46.3903 12.8519 46.5644 12.708 46.6663 12.5158C46.7682 12.3235 46.7895 12.0986 46.7256 11.8907C46.6617 11.6827 46.5178 11.5086 46.3255 11.4067L37.1408 6.54107C37.0221 6.47788 36.8896 6.44482 36.755 6.44482C36.6205 6.44482 36.488 6.47788 36.3693 6.54107L27.305 11.4067C27.1133 11.5096 26.9704 11.6844 26.9075 11.8927C26.8447 12.101 26.8672 12.3257 26.9701 12.5174C27.073 12.7091 27.2478 12.8521 27.4561 12.9149C27.6644 12.9777 27.8891 12.9552 28.0808 12.8523L28.85 12.4398V15.3887L23.1829 18.5898L9.95145 11.1165C9.82663 11.046 9.6855 11.0094 9.54213 11.0104C9.39876 11.0114 9.25816 11.05 9.13433 11.1222C9.01051 11.1945 8.90779 11.298 8.83642 11.4223C8.76504 11.5467 8.7275 11.6875 8.72754 11.8309V45.033C8.7275 45.1783 8.76606 45.321 8.83928 45.4465C8.9125 45.572 9.01775 45.6758 9.14426 45.7473L22.7811 53.4489C22.9037 53.5185 23.0423 53.5552 23.1833 53.5552C23.3243 53.5552 23.4629 53.5185 23.5855 53.4489H23.5883L36.8174 45.9751L50.0488 53.4489C50.1736 53.5193 50.3147 53.5558 50.458 53.5548C50.6013 53.5537 50.7418 53.5151 50.8656 53.4429C50.9893 53.3706 51.092 53.2672 51.1633 53.1429C51.2347 53.0186 51.2722 52.8778 51.2722 52.7345V19.532C51.2721 19.3867 51.2335 19.2441 51.1602 19.1186C51.0869 18.9932 50.9816 18.8895 50.855 18.8181ZM36.7593 8.19529L43.1343 11.5731V21.5781H40.0743V17.3265C40.0743 17.109 39.9878 16.9003 39.834 16.7465C39.6802 16.5927 39.4715 16.5062 39.2539 16.5062H34.371C34.1534 16.5062 33.9448 16.5927 33.7909 16.7465C33.6371 16.9003 33.5507 17.109 33.5507 17.3265V21.5781H30.4907V15.9325C30.4907 15.9264 30.4907 15.9198 30.4907 15.9137V11.5595L36.7593 8.19529ZM10.3686 13.2362L22.3625 20.0111V51.3283L10.3682 44.5539L10.3686 13.2362ZM24.0032 51.3283V20.0111L28.8505 17.2731V22.3984C28.8505 22.616 28.9369 22.8246 29.0908 22.9785C29.2446 23.1323 29.4533 23.2187 29.6708 23.2187H34.371C34.5885 23.2187 34.7972 23.1323 34.951 22.9785C35.1049 22.8246 35.1913 22.616 35.1913 22.3984V18.1469H35.9971V44.5539L24.0032 51.3283ZM49.6316 51.3283L37.6377 44.5539V18.1464H38.4346V22.398C38.4346 22.6155 38.521 22.8242 38.6748 22.978C38.8287 23.1318 39.0373 23.2183 39.2549 23.2183H43.9546C44.1721 23.2183 44.3808 23.1318 44.5346 22.978C44.6885 22.8242 44.7749 22.6155 44.7749 22.398V17.2675L49.6316 20.0111V51.3283Z" fill="#191A1F"/>
<path d="M20.702 23.2501L12.8364 18.8068C12.6469 18.6998 12.4227 18.6724 12.2131 18.7307C12.0034 18.7889 11.8255 18.9281 11.7184 19.1176C11.6114 19.3071 11.584 19.5313 11.6423 19.7409C11.7006 19.9506 11.8397 20.1285 12.0292 20.2356L19.8948 24.6788C19.9887 24.7318 20.092 24.7658 20.1989 24.7789C20.3059 24.792 20.4144 24.7838 20.5182 24.755C20.622 24.7261 20.7191 24.6771 20.804 24.6107C20.8888 24.5443 20.9598 24.4619 21.0128 24.3681C21.0658 24.2742 21.0998 24.1709 21.1129 24.064C21.1259 23.957 21.1178 23.8485 21.089 23.7447C21.0601 23.6409 21.0111 23.5438 20.9447 23.4589C20.8783 23.3741 20.7958 23.3031 20.702 23.2501Z" fill="#191A1F"/>
<path d="M12.0292 25.5129L15.962 27.7343C16.1515 27.8413 16.3757 27.8687 16.5854 27.8105C16.6892 27.7816 16.7863 27.7326 16.8712 27.6662C16.956 27.5998 17.027 27.5173 17.08 27.4235C17.133 27.3297 17.167 27.2264 17.1801 27.1194C17.1931 27.0125 17.185 26.904 17.1561 26.8002C17.1273 26.6964 17.0783 26.5993 17.0119 26.5144C16.9455 26.4295 16.863 26.3586 16.7692 26.3056L12.8364 24.0842C12.6469 23.9771 12.4227 23.9497 12.2131 24.008C12.0034 24.0663 11.8255 24.2055 11.7184 24.3949C11.6114 24.5844 11.584 24.8086 11.6423 25.0183C11.7006 25.2279 11.8397 25.4059 12.0292 25.5129Z" fill="#191A1F"/>
<path d="M20.702 33.8043L12.8364 29.3615C12.6469 29.2545 12.4227 29.2271 12.2131 29.2853C12.0034 29.3436 11.8255 29.4828 11.7184 29.6723C11.6114 29.8617 11.584 30.086 11.6423 30.2956C11.7006 30.5053 11.8397 30.6832 12.0292 30.7902L19.8948 35.2331C19.9887 35.2861 20.092 35.3201 20.1989 35.3331C20.3059 35.3462 20.4144 35.3381 20.5182 35.3092C20.622 35.2803 20.7191 35.2313 20.804 35.1649C20.8888 35.0985 20.9598 35.0161 21.0128 34.9223C21.0658 34.8285 21.0998 34.7251 21.1129 34.6182C21.1259 34.5112 21.1178 34.4027 21.089 34.2989C21.0601 34.1951 21.0111 34.098 20.9447 34.0131C20.8783 33.9283 20.7958 33.8573 20.702 33.8043Z" fill="#191A1F"/>
<path d="M12.0292 36.0666L15.962 38.288C16.1515 38.3951 16.3757 38.4225 16.5854 38.3642C16.6892 38.3353 16.7863 38.2863 16.8712 38.2199C16.956 38.1535 17.027 38.0711 17.08 37.9772C17.133 37.8834 17.167 37.7801 17.1801 37.6731C17.1931 37.5662 17.185 37.4577 17.1561 37.3539C17.1273 37.2501 17.0783 37.153 17.0119 37.0681C16.9455 36.9832 16.863 36.9123 16.7692 36.8593L12.8364 34.6379C12.6469 34.5308 12.4227 34.5034 12.2131 34.5617C12.0034 34.62 11.8255 34.7592 11.7184 34.9486C11.6114 35.1381 11.584 35.3623 11.6423 35.572C11.7006 35.7817 11.8397 35.9596 12.0292 36.0666Z" fill="#191A1F"/>
<path d="M20.7017 44.358L12.8361 39.9147C12.7423 39.8617 12.6389 39.8277 12.5319 39.8146C12.4249 39.8016 12.3164 39.8097 12.2126 39.8386C12.1088 39.8675 12.0116 39.9165 11.9268 39.983C11.8419 40.0494 11.7709 40.1319 11.7179 40.2257C11.6649 40.3195 11.6309 40.4229 11.6179 40.5299C11.6048 40.6369 11.613 40.7454 11.6418 40.8492C11.6707 40.9531 11.7198 41.0502 11.7862 41.1351C11.8526 41.2199 11.9351 41.2909 12.0289 41.3439L19.8946 45.7872C20.084 45.8942 20.3082 45.9216 20.5179 45.8633C20.7276 45.8051 20.9055 45.6659 21.0125 45.4764C21.1196 45.2869 21.1469 45.0627 21.0887 44.8531C21.0304 44.6434 20.8912 44.465 20.7017 44.358Z" fill="#191A1F"/>
<path d="M39.2984 25.5133L43.2312 27.7347C43.4206 27.8417 43.6448 27.869 43.8545 27.8107C43.9583 27.7818 44.0553 27.7327 44.1402 27.6663C44.225 27.5999 44.296 27.5175 44.3489 27.4237C44.4019 27.3299 44.4359 27.2265 44.4489 27.1196C44.4619 27.0126 44.4538 26.9042 44.4249 26.8004C44.396 26.6966 44.347 26.5995 44.2806 26.5147C44.2142 26.4298 44.1317 26.3589 44.0379 26.3059L40.1051 24.0845C39.9156 23.9775 39.6914 23.9502 39.4818 24.0085C39.2722 24.0669 39.0943 24.2061 38.9874 24.3955C38.8804 24.585 38.853 24.8092 38.9114 25.0188C38.9697 25.2284 39.1089 25.4063 39.2984 25.5133Z" fill="#191A1F"/>
<path d="M40.1051 29.3614C39.9156 29.2544 39.6914 29.2271 39.4818 29.2854C39.2722 29.3437 39.0943 29.4829 38.9874 29.6724C38.8804 29.8619 38.853 30.0861 38.9114 30.2957C38.9697 30.5053 39.1089 30.6832 39.2984 30.7901L47.164 35.2329C47.3535 35.3399 47.5777 35.3673 47.7873 35.3089C47.9969 35.2506 48.1748 35.1114 48.2817 34.9219C48.3887 34.7325 48.416 34.5083 48.3577 34.2986C48.2994 34.089 48.1602 33.9112 47.9707 33.8042L40.1051 29.3614Z" fill="#191A1F"/>
<path d="M39.2984 36.0665L43.2312 38.2879C43.4206 38.3949 43.6448 38.4222 43.8545 38.3639C44.0641 38.3056 44.2419 38.1664 44.3489 37.9769C44.4559 37.7874 44.4832 37.5632 44.4249 37.3536C44.3666 37.144 44.2274 36.9661 44.0379 36.8592L40.1051 34.6377C39.9156 34.5308 39.6914 34.5034 39.4818 34.5618C39.2722 34.6201 39.0943 34.7593 38.9874 34.9488C38.8804 35.1382 38.853 35.3624 38.9114 35.572C38.9697 35.7817 39.1089 35.9595 39.2984 36.0665Z" fill="#191A1F"/>
<path d="M47.9709 44.3579L40.1053 39.9146C39.9158 39.8076 39.6915 39.7803 39.4819 39.8387C39.2722 39.897 39.0943 40.0363 38.9873 40.2258C38.8804 40.4154 38.853 40.6396 38.9114 40.8493C38.9698 41.0589 39.1091 41.2368 39.2986 41.3438L47.1642 45.7871C47.3537 45.8941 47.5779 45.9214 47.7875 45.8631C47.9971 45.8047 48.175 45.6655 48.2819 45.4761C48.3889 45.2866 48.4162 45.0624 48.3579 44.8528C48.2996 44.6432 48.1604 44.4648 47.9709 44.3579Z" fill="#191A1F"/>
<path d="M33.7181 26.1621C33.5968 26.0892 33.4586 26.0489 33.3171 26.0452C33.1755 26.0415 33.0355 26.0745 32.9105 26.1411L26.4019 29.6014C26.2705 29.6717 26.1608 29.7765 26.0844 29.9045C26.0081 30.0325 25.9681 30.1789 25.9688 30.3279V34.5265C25.9691 34.6677 26.0059 34.8064 26.0756 34.9292C26.1453 35.052 26.2455 35.1547 26.3665 35.2274C26.4875 35.3002 26.6252 35.3405 26.7663 35.3444C26.9074 35.3483 27.0472 35.3157 27.172 35.2498L33.6806 31.7895C33.8121 31.7196 33.922 31.6153 33.9987 31.4877C34.0754 31.3602 34.116 31.2141 34.1161 31.0653V26.8653C34.1161 26.7237 34.0794 26.5845 34.0097 26.4613C33.9399 26.3381 33.8395 26.235 33.7181 26.1621ZM32.475 30.5712L27.6094 33.1592V30.8187L32.475 28.2307V30.5712Z" fill="#191A1F"/>
<path d="M33.718 35.6642C33.5967 35.5912 33.4585 35.5509 33.317 35.5472C33.1754 35.5435 33.0353 35.5765 32.9104 35.6431L26.4018 39.1029C26.2703 39.1728 26.1603 39.2771 26.0836 39.4046C26.0069 39.5322 25.9663 39.6783 25.9663 39.8271V44.0257C25.9663 44.1673 26.003 44.3064 26.0727 44.4295C26.1424 44.5527 26.2428 44.6557 26.3641 44.7286C26.4854 44.8015 26.6235 44.8418 26.765 44.8455C26.9064 44.8493 27.0465 44.8163 27.1715 44.7499L33.6801 41.2901C33.8115 41.2202 33.9214 41.1159 33.9982 40.9883C34.0749 40.8608 34.1154 40.7147 34.1155 40.5659V36.3673C34.1156 36.2258 34.079 36.0866 34.0093 35.9634C33.9397 35.8402 33.8393 35.7371 33.718 35.6642ZM32.4749 40.0728L27.6093 42.6607V40.3203L32.4749 37.7342V40.0728Z" fill="#191A1F"/>
</svg>
