<svg width="60" height="60" viewBox="0 0 60 60" fill="none" xmlns="http://www.w3.org/2000/svg">
<path d="M47.4308 9.76896H33.3964C33.3756 8.88245 33.0088 8.03926 32.3744 7.41964C31.7401 6.80001 30.8885 6.45312 30.0017 6.45312C29.115 6.45312 28.2634 6.80001 27.629 7.41964C26.9947 8.03926 26.6279 8.88245 26.607 9.76896H12.5727C11.9877 9.76896 11.4268 10.0013 11.0132 10.4149C10.5995 10.8285 10.3672 11.3895 10.3672 11.9744C10.3672 12.5594 10.5995 13.1203 11.0132 13.5339C11.4268 13.9475 11.9877 14.1799 12.5727 14.1799H14.7673V41.133C14.7673 41.3121 14.8259 41.4864 14.9341 41.6291C15.0424 41.7718 15.1944 41.8751 15.3669 41.9233L26.6033 45.0593V52.7346C26.6033 52.9521 26.6897 53.1608 26.8435 53.3146C26.9974 53.4685 27.206 53.5549 27.4236 53.5549C27.6412 53.5549 27.8498 53.4685 28.0036 53.3146C28.1575 53.1608 28.2439 52.9521 28.2439 52.7346V45.5158L29.7809 45.9447C29.9252 45.985 30.0778 45.985 30.222 45.9447L31.7595 45.5158V52.7346C31.7595 52.9521 31.846 53.1608 31.9998 53.3146C32.1536 53.4685 32.3623 53.5549 32.5798 53.5549C32.7974 53.5549 33.0061 53.4685 33.1599 53.3146C33.3137 53.1608 33.4002 52.9521 33.4002 52.7346V45.0593L44.6366 41.9229C44.809 41.8747 44.9609 41.7714 45.0692 41.6288C45.1774 41.4862 45.236 41.3121 45.2361 41.133V14.1799H47.4308C48.0157 14.1799 48.5767 13.9475 48.9903 13.5339C49.4039 13.1203 49.6362 12.5594 49.6362 11.9744C49.6362 11.3895 49.4039 10.8285 48.9903 10.4149C48.5767 10.0013 48.0157 9.76896 47.4308 9.76896ZM30.0017 8.08615C30.454 8.08732 30.8884 8.26293 31.2145 8.57641C31.5405 8.88989 31.7331 9.31706 31.752 9.76896H28.2514C28.2704 9.31706 28.4629 8.88989 28.789 8.57641C29.115 8.26293 29.5494 8.08732 30.0017 8.08615ZM12.5727 12.5393C12.4229 12.5393 12.2792 12.4798 12.1733 12.3738C12.0673 12.2679 12.0078 12.1242 12.0078 11.9744C12.0078 11.8246 12.0673 11.681 12.1733 11.575C12.2792 11.4691 12.4229 11.4096 12.5727 11.4096H14.7673V12.5393H12.5727ZM43.5955 40.5105L30.0017 44.3046L16.408 40.5105V11.4096H43.5955V40.5105ZM47.4308 12.5393H45.2361V11.4096H47.4308C47.5806 11.4096 47.7243 11.4691 47.8302 11.575C47.9361 11.681 47.9956 11.8246 47.9956 11.9744C47.9956 12.1242 47.9361 12.2679 47.8302 12.3738C47.7243 12.4798 47.5806 12.5393 47.4308 12.5393Z" fill="#191A1F"/>
<path d="M38.6925 22.7972L30.3286 18.3661C30.2099 18.3027 30.0774 18.2695 29.9428 18.2695C29.8083 18.2695 29.6758 18.3027 29.557 18.3661L21.3047 22.7967C21.2061 22.8454 21.1183 22.9135 21.0465 22.9968C20.9747 23.0801 20.9204 23.177 20.8868 23.2818C20.8532 23.3865 20.8411 23.4969 20.851 23.6065C20.861 23.716 20.8929 23.8224 20.9448 23.9194C20.9967 24.0163 21.0676 24.1019 21.1532 24.1709C21.2388 24.2399 21.3375 24.291 21.4432 24.3211C21.549 24.3513 21.6598 24.3598 21.7689 24.3463C21.8781 24.3328 21.9834 24.2974 22.0786 24.2423L22.6716 23.9241V32.8692C22.6716 33.0868 22.758 33.2954 22.9118 33.4493C23.0657 33.6031 23.2743 33.6895 23.4919 33.6895H27.7716C27.8795 33.6898 27.9864 33.6688 28.0862 33.6278C28.186 33.5867 28.2767 33.5263 28.3531 33.4501C28.4296 33.3739 28.4902 33.2834 28.5316 33.1837C28.5729 33.084 28.5942 32.9771 28.5942 32.8692V29.0723H31.4002V32.8692C31.4002 33.0868 31.4866 33.2954 31.6404 33.4493C31.7943 33.6031 32.0029 33.6895 32.2205 33.6895H36.5002C36.7177 33.6895 36.9264 33.6031 37.0802 33.4493C37.2341 33.2954 37.3205 33.0868 37.3205 32.8692V23.9259L37.9252 24.2461C38.117 24.3438 38.3395 24.3622 38.5448 24.2974C38.75 24.2325 38.9215 24.0896 39.0224 23.8994C39.1232 23.7092 39.1452 23.487 39.0837 23.2807C39.0221 23.0744 38.882 22.9006 38.6935 22.7967L38.6925 22.7972ZM35.6789 32.0489H33.0399V28.252C33.0399 28.0345 32.9534 27.8258 32.7996 27.672C32.6458 27.5181 32.4371 27.4317 32.2195 27.4317H27.773C27.5554 27.4317 27.3468 27.5181 27.1929 27.672C27.0391 27.8258 26.9527 28.0345 26.9527 28.252V32.0489H24.3136V23.0437L29.948 20.0203L35.6794 23.0569L35.6789 32.0489Z" fill="#191A1F"/>
</svg>
