<svg width="60" height="60" viewBox="0 0 60 60" fill="none" xmlns="http://www.w3.org/2000/svg">
<path d="M53.5547 12.6956C53.5547 9.24891 51.2677 6.44531 48.457 6.44531H11.543C8.73047 6.44531 6.44531 9.24891 6.44531 12.6956V52.7344C6.44531 52.9519 6.53174 53.1606 6.68558 53.3144C6.83941 53.4683 7.04806 53.5547 7.26562 53.5547H48.457C48.6746 53.5547 48.8832 53.4683 49.0371 53.3144C49.1909 53.1606 49.2773 52.9519 49.2773 52.7344V18.8573C51.6984 18.375 53.5547 15.7969 53.5547 12.6956ZM8.08594 51.9141V12.6956C8.08594 10.1541 9.63703 8.08594 11.543 8.08594C13.4316 8.08594 14.9691 10.117 14.9972 12.6267H10.2741C10.0565 12.6267 9.84785 12.7131 9.69401 12.867C9.54018 13.0208 9.45375 13.2295 9.45375 13.447C9.45375 15.8695 10.703 18.0516 12.562 18.8756H12.5667C12.6121 18.8955 12.6591 18.9112 12.7073 18.9225C12.7144 18.9225 12.7209 18.9277 12.728 18.9291C12.7505 18.9338 12.7748 18.9338 12.7978 18.9361C12.8288 18.9412 12.8602 18.9445 12.8916 18.9459H47.6344V51.9141H8.08594ZM12.6797 17.0428C11.8329 16.3486 11.2871 15.354 11.1562 14.2669H14.7858C14.6506 14.8521 14.393 15.4021 14.0299 15.8806C13.6668 16.359 13.207 16.7551 12.6797 17.0428ZM48.4575 17.3053H14.9887C15.8592 16.2934 16.41 15.0462 16.5717 13.7212C16.621 13.5994 16.6347 13.4661 16.6111 13.3369C16.6289 13.125 16.6411 12.9117 16.6411 12.6956C16.6657 11.0072 16.0728 9.36794 14.9738 8.08594H48.4575C50.3634 8.08594 51.9145 10.1541 51.9145 12.6956C51.9145 15.2372 50.3634 17.3053 48.4575 17.3053Z" fill="#191A1F"/>
<path d="M15.4955 29.4308L16.1897 29.0581V38.5887C16.1897 38.8063 16.2762 39.015 16.43 39.1688C16.5838 39.3226 16.7925 39.4091 17.0101 39.4091H21.5326C21.7501 39.4091 21.9588 39.3226 22.1126 39.1688C22.2664 39.015 22.3529 38.8063 22.3529 38.5887V34.5289H25.411V38.5887C25.411 38.8063 25.4974 39.015 25.6513 39.1688C25.8051 39.3226 26.0137 39.4091 26.2313 39.4091H30.7538C30.9714 39.4091 31.18 39.3226 31.3339 39.1688C31.4877 39.015 31.5741 38.8063 31.5741 38.5887V29.0623L32.2815 29.4373C32.4742 29.5393 32.6995 29.5605 32.9078 29.4963C33.1161 29.4322 33.2905 29.2879 33.3924 29.0952C33.4943 28.9025 33.5156 28.6772 33.4514 28.4688C33.3872 28.2605 33.2429 28.0862 33.0502 27.9842L24.2124 23.3033C24.0936 23.2401 23.9612 23.207 23.8266 23.207C23.6921 23.207 23.5596 23.2401 23.4408 23.3033L14.7188 27.9842C14.6221 28.0341 14.5362 28.1027 14.4663 28.1861C14.3963 28.2695 14.3436 28.366 14.3114 28.4699C14.2791 28.5739 14.2678 28.6832 14.2782 28.7916C14.2885 28.8999 14.3204 29.0051 14.3718 29.101C14.4233 29.197 14.4933 29.2817 14.5778 29.3503C14.6623 29.4189 14.7596 29.4699 14.8641 29.5005C14.9685 29.5311 15.078 29.5407 15.1862 29.5285C15.2944 29.5164 15.399 29.4828 15.4941 29.4298L15.4955 29.4308ZM23.8308 24.958L29.9344 28.1923V37.7684H27.0521V33.7086C27.0521 33.491 26.9657 33.2824 26.8118 33.1285C26.658 32.9747 26.4493 32.8883 26.2318 32.8883H21.533C21.3155 32.8883 21.1068 32.9747 20.953 33.1285C20.7991 33.2824 20.7127 33.491 20.7127 33.7086V37.7684H17.8304V28.1778L23.8308 24.958Z" fill="#191A1F"/>
<path d="M17.4512 42.6147H15.1074C14.8899 42.6147 14.6812 42.7012 14.5274 42.855C14.3735 43.0088 14.2871 43.2175 14.2871 43.4351C14.2871 43.6526 14.3735 43.8613 14.5274 44.0151C14.6812 44.1689 14.8899 44.2554 15.1074 44.2554H17.4512C17.6687 44.2554 17.8774 44.1689 18.0312 44.0151C18.1851 43.8613 18.2715 43.6526 18.2715 43.4351C18.2715 43.2175 18.1851 43.0088 18.0312 42.855C17.8774 42.7012 17.6687 42.6147 17.4512 42.6147Z" fill="#191A1F"/>
<path d="M26.0216 42.6147H21.7363C21.5188 42.6147 21.3101 42.7012 21.1563 42.855C21.0024 43.0088 20.916 43.2175 20.916 43.4351C20.916 43.6526 21.0024 43.8613 21.1563 44.0151C21.3101 44.1689 21.5188 44.2554 21.7363 44.2554H26.0216C26.2392 44.2554 26.4479 44.1689 26.6017 44.0151C26.7555 43.8613 26.842 43.6526 26.842 43.4351C26.842 43.2175 26.7555 43.0088 26.6017 42.855C26.4479 42.7012 26.2392 42.6147 26.0216 42.6147Z" fill="#191A1F"/>
<path d="M34.5938 42.6147H30.3066C30.0891 42.6147 29.8804 42.7012 29.7266 42.855C29.5728 43.0088 29.4863 43.2175 29.4863 43.4351C29.4863 43.6526 29.5728 43.8613 29.7266 44.0151C29.8804 44.1689 30.0891 44.2554 30.3066 44.2554H34.5938C34.8114 44.2554 35.02 44.1689 35.1739 44.0151C35.3277 43.8613 35.4141 43.6526 35.4141 43.4351C35.4141 43.2175 35.3277 43.0088 35.1739 42.855C35.02 42.7012 34.8114 42.6147 34.5938 42.6147Z" fill="#191A1F"/>
<path d="M41.2207 42.6147H38.877C38.6594 42.6147 38.4507 42.7012 38.2969 42.855C38.1431 43.0088 38.0566 43.2175 38.0566 43.4351C38.0566 43.6526 38.1431 43.8613 38.2969 44.0151C38.4507 44.1689 38.6594 44.2554 38.877 44.2554H41.2207C41.4383 44.2554 41.6469 44.1689 41.8008 44.0151C41.9546 43.8613 42.041 43.6526 42.041 43.4351C42.041 43.2175 41.9546 43.0088 41.8008 42.855C41.6469 42.7012 41.4383 42.6147 41.2207 42.6147Z" fill="#191A1F"/>
<path d="M37.3125 27.1929C37.5301 27.1929 37.7387 27.1064 37.8926 26.9526C38.0464 26.7988 38.1328 26.5901 38.1328 26.3726V24.0288C38.1328 23.8112 38.0464 23.6026 37.8926 23.4488C37.7387 23.2949 37.5301 23.2085 37.3125 23.2085C37.0949 23.2085 36.8863 23.2949 36.7325 23.4488C36.5786 23.6026 36.4922 23.8112 36.4922 24.0288V26.3726C36.4922 26.5901 36.5786 26.7988 36.7325 26.9526C36.8863 27.1064 37.0949 27.1929 37.3125 27.1929Z" fill="#191A1F"/>
<path d="M37.3125 34.5178C37.5301 34.5178 37.7387 34.4314 37.8926 34.2775C38.0464 34.1237 38.1328 33.915 38.1328 33.6975V30.0347C38.1328 29.8171 38.0464 29.6085 37.8926 29.4546C37.7387 29.3008 37.5301 29.2144 37.3125 29.2144C37.0949 29.2144 36.8863 29.3008 36.7325 29.4546C36.5786 29.6085 36.4922 29.8171 36.4922 30.0347V33.697C36.4921 33.8048 36.5133 33.9115 36.5545 34.0111C36.5957 34.1107 36.6561 34.2011 36.7323 34.2774C36.8085 34.3536 36.8989 34.4141 36.9985 34.4553C37.098 34.4966 37.2047 34.5178 37.3125 34.5178Z" fill="#191A1F"/>
<path d="M37.3125 41.843C37.5301 41.843 37.7387 41.7565 37.8926 41.6027C38.0464 41.4489 38.1328 41.2402 38.1328 41.0227V37.3594C38.1328 37.1418 38.0464 36.9332 37.8926 36.7793C37.7387 36.6255 37.5301 36.5391 37.3125 36.5391C37.0949 36.5391 36.8863 36.6255 36.7325 36.7793C36.5786 36.9332 36.4922 37.1418 36.4922 37.3594V41.0217C36.4921 41.1295 36.5132 41.2363 36.5544 41.3359C36.5955 41.4356 36.6559 41.5261 36.7321 41.6024C36.8083 41.6786 36.8988 41.7392 36.9984 41.7804C37.0979 41.8217 37.2047 41.843 37.3125 41.843Z" fill="#191A1F"/>
<path d="M37.3125 43.8647C37.0949 43.8647 36.8863 43.9512 36.7325 44.105C36.5786 44.2588 36.4922 44.4675 36.4922 44.6851V47.0288C36.4922 47.2464 36.5786 47.455 36.7325 47.6089C36.8863 47.7627 37.0949 47.8491 37.3125 47.8491C37.5301 47.8491 37.7387 47.7627 37.8926 47.6089C38.0464 47.455 38.1328 47.2464 38.1328 47.0288V44.6851C38.1328 44.4675 38.0464 44.2588 37.8926 44.105C37.7387 43.9512 37.5301 43.8647 37.3125 43.8647Z" fill="#191A1F"/>
</svg>
