<svg width="40" height="40" viewBox="0 0 40 40" fill="none" xmlns="http://www.w3.org/2000/svg">
<path d="M35.1562 10.3804H7.21094C7.0659 10.3804 6.9268 10.438 6.82424 10.5405C6.72168 10.6431 6.66406 10.7822 6.66406 10.9272V12.6026H4.84375C4.69871 12.6026 4.55961 12.6602 4.45705 12.7627C4.35449 12.8653 4.29687 13.0044 4.29688 13.1494V29.0729C4.29688 29.2179 4.35449 29.357 4.45705 29.4596C4.55961 29.5621 4.69871 29.6197 4.84375 29.6197H32.7894C32.9344 29.6197 33.0735 29.5621 33.1761 29.4596C33.2786 29.357 33.3363 29.2179 33.3363 29.0729V27.3976H35.1562C35.3013 27.3976 35.4404 27.3399 35.5429 27.2374C35.6455 27.1348 35.7031 26.9957 35.7031 26.8507V10.9272C35.7031 10.7822 35.6455 10.6431 35.5429 10.5405C35.4404 10.438 35.3013 10.3804 35.1562 10.3804ZM5.39062 28.526V13.6963H32.2425V28.526H5.39062ZM34.6094 26.3038H33.3363V13.1494C33.3363 13.0044 33.2786 12.8653 33.1761 12.7627C33.0735 12.6602 32.9344 12.6026 32.7894 12.6026H7.75813V11.4741H34.6094V26.3038Z" fill="#191A1F"/>
<path d="M30.607 16.6272C30.23 16.6268 29.8686 16.4768 29.602 16.2103C29.3355 15.9437 29.1855 15.5823 29.1851 15.2053C29.1851 15.0603 29.1275 14.9212 29.0249 14.8186C28.9224 14.7161 28.7833 14.6584 28.6382 14.6584H8.99481C8.84977 14.6584 8.71066 14.7161 8.60811 14.8186C8.50555 14.9212 8.44793 15.0603 8.44793 15.2053C8.44752 15.5822 8.29762 15.9436 8.03113 16.2102C7.76463 16.4767 7.40329 16.6267 7.02637 16.6272C6.88133 16.6272 6.74223 16.6848 6.63967 16.7874C6.53711 16.8899 6.47949 17.029 6.47949 17.1741V25.0491C6.47949 25.1941 6.53711 25.3332 6.63967 25.4358C6.74223 25.5383 6.88133 25.5959 7.02637 25.5959C7.40324 25.5964 7.76453 25.7464 8.03102 26.0129C8.2975 26.2793 8.44743 26.6406 8.44793 27.0175C8.44793 27.1625 8.50555 27.3016 8.60811 27.4042C8.71066 27.5068 8.84977 27.5644 8.99481 27.5644H28.6386C28.7836 27.5644 28.9227 27.5068 29.0253 27.4042C29.1278 27.3016 29.1854 27.1625 29.1854 27.0175C29.1859 26.6406 29.3359 26.2792 29.6025 26.0127C29.869 25.7463 30.2304 25.5964 30.6073 25.5959C30.7523 25.5959 30.8914 25.5383 30.994 25.4358C31.0966 25.3332 31.1542 25.1941 31.1542 25.0491V17.1741C31.1542 17.1022 31.14 17.0311 31.1125 16.9647C31.085 16.8983 31.0447 16.838 30.9939 16.7873C30.9431 16.7365 30.8828 16.6962 30.8164 16.6687C30.75 16.6413 30.6788 16.6272 30.607 16.6272ZM22.4951 21.1113C22.4951 24.0659 20.8448 26.4697 18.8164 26.4697C16.7879 26.4697 15.1379 24.0659 15.1379 21.1113C15.1379 18.1566 16.7879 15.7525 18.8164 15.7525C20.8448 15.7525 22.4951 18.1563 22.4951 21.1113ZM9.48168 26.4688C9.37645 26.003 9.14124 25.5766 8.80337 25.2392C8.4655 24.9018 8.03883 24.6671 7.57293 24.5625V17.6613C8.03914 17.5564 8.46601 17.3214 8.8039 16.9835C9.1418 16.6456 9.37683 16.2187 9.48168 15.7525H16.162C14.8861 16.9119 14.0442 18.8809 14.0442 21.1113C14.0442 23.3416 14.8861 25.3103 16.162 26.4688H9.48168ZM30.0601 24.5625C29.5942 24.6672 29.1676 24.9018 28.8297 25.2392C28.4919 25.5767 28.2566 26.003 28.1514 26.4688H21.4714C22.7476 25.3094 23.5892 23.3406 23.5892 21.1103C23.5892 18.88 22.7476 16.9109 21.4714 15.7516H28.1514C28.2562 16.2178 28.4913 16.6446 28.8292 16.9825C29.1671 17.3204 29.5939 17.5554 30.0601 17.6603V24.5625Z" fill="#191A1F"/>
<path d="M16.6763 19.5138C16.6771 19.9858 16.8338 20.4443 17.122 20.818C17.4102 21.1918 17.8138 21.4599 18.27 21.5807V23.5888C18.1177 23.4959 17.9917 23.3655 17.9042 23.21C17.8167 23.0545 17.7705 22.8791 17.77 22.7007C17.77 22.5557 17.7124 22.4166 17.6098 22.314C17.5073 22.2114 17.3682 22.1538 17.2231 22.1538C17.0781 22.1538 16.939 22.2114 16.8364 22.314C16.7339 22.4166 16.6763 22.5557 16.6763 22.7007C16.6771 23.1727 16.8338 23.6311 17.122 24.0049C17.4102 24.3786 17.8138 24.6467 18.27 24.7676V25.1032C18.27 25.2482 18.3276 25.3873 18.4302 25.4899C18.5328 25.5925 18.6719 25.6501 18.8169 25.6501C18.9619 25.6501 19.101 25.5925 19.2036 25.4899C19.3062 25.3873 19.3638 25.2482 19.3638 25.1032V24.7673C19.8202 24.6471 20.2241 24.3791 20.5122 24.0052C20.8004 23.6313 20.9567 23.1726 20.9567 22.7005C20.9567 22.2285 20.8004 21.7698 20.5122 21.3959C20.2241 21.022 19.8202 20.754 19.3638 20.6338V18.6251C19.5161 18.718 19.642 18.8484 19.7295 19.0038C19.817 19.1592 19.8633 19.3345 19.8638 19.5129C19.8638 19.6579 19.9214 19.797 20.0239 19.8996C20.1265 20.0021 20.2656 20.0598 20.4106 20.0598C20.5557 20.0598 20.6948 20.0021 20.7973 19.8996C20.8999 19.797 20.9575 19.6579 20.9575 19.5129C20.9566 19.041 20.7999 18.5826 20.5117 18.2089C20.2235 17.8352 19.82 17.5671 19.3638 17.4463V17.1191C19.3638 16.9741 19.3062 16.835 19.2036 16.7324C19.101 16.6299 18.9619 16.5723 18.8169 16.5723C18.6719 16.5723 18.5328 16.6299 18.4302 16.7324C18.3276 16.835 18.27 16.9741 18.27 17.1191V17.4476C17.8139 17.5683 17.4104 17.8363 17.1222 18.21C16.834 18.5836 16.6772 19.042 16.6763 19.5138ZM19.8638 22.7013C19.8633 22.8798 19.8171 23.0551 19.7296 23.2106C19.642 23.3661 19.5161 23.4965 19.3638 23.5895V21.8126C19.516 21.9056 19.6418 22.0361 19.7292 22.1915C19.8167 22.347 19.8628 22.5223 19.8631 22.7007L19.8638 22.7013ZM18.2697 18.6251V20.401C18.1171 20.3084 17.991 20.1781 17.9035 20.0225C17.8159 19.867 17.77 19.6915 17.77 19.513C17.77 19.3346 17.8159 19.1591 17.9035 19.0036C17.991 18.848 18.1171 18.7177 18.2697 18.6251Z" fill="#191A1F"/>
</svg>
