<svg width="60" height="60" viewBox="0 0 60 60" fill="none" xmlns="http://www.w3.org/2000/svg">
<path d="M52.7344 51.9127H43.7813V33.5442L46.1845 34.8173C46.3768 34.9192 46.6017 34.9406 46.8096 34.8766C47.0176 34.8127 47.1917 34.6688 47.2936 34.4766C47.3955 34.2843 47.4168 34.0594 47.3529 33.8515C47.289 33.6435 47.1451 33.4694 46.9528 33.3675L39.5827 29.4628L51.0361 14.9897C51.1369 14.8622 51.1976 14.7076 51.2105 14.5455C51.2233 14.3834 51.1878 14.2212 51.1083 14.0794L47.0841 6.91125C47.0127 6.78423 46.9089 6.67848 46.7832 6.60483C46.6575 6.53119 46.5144 6.49231 46.3687 6.49219H25.2347C25.089 6.49222 24.9459 6.53105 24.8202 6.60471C24.6945 6.67836 24.5906 6.78417 24.5194 6.91125L20.4956 14.0798C20.416 14.2216 20.3804 14.3839 20.3932 14.546C20.4061 14.7081 20.4669 14.8627 20.5678 14.9902L28.5328 25.0552L13.0458 33.3656C12.8541 33.4685 12.7111 33.6433 12.6483 33.8516C12.5855 34.0599 12.608 34.2846 12.7109 34.4763C12.8137 34.668 12.9885 34.811 13.1968 34.8738C13.4051 34.9366 13.6299 34.9141 13.8216 34.8112L16.2038 33.533V51.9127H7.26562C7.04806 51.9127 6.83941 51.9991 6.68558 52.1529C6.53174 52.3068 6.44531 52.5154 6.44531 52.733C6.44531 52.9505 6.53174 53.1592 6.68558 53.313C6.83941 53.4669 7.04806 53.5533 7.26562 53.5533H52.7344C52.9519 53.5533 53.1606 53.4669 53.3144 53.313C53.4683 53.1592 53.5547 52.9505 53.5547 52.733C53.5547 52.5154 53.4683 52.3068 53.3144 52.1529C53.1606 51.9991 52.9519 51.9127 52.7344 51.9127ZM22.9059 15.3033H30.3056L34.005 29.3283L22.9059 15.3033ZM39.5991 15.3033L35.8022 29.7033L32.0053 15.3033H39.5991ZM32.4844 13.6608L35.7998 8.77406L39.1153 13.6608H32.4844ZM37.3486 8.13328H44.6663L40.7166 13.0978L37.3486 8.13328ZM30.885 13.0978L26.9358 8.13328H34.253L30.885 13.0978ZM41.2964 15.3009H48.6956L37.5966 29.3264L41.2964 15.3009ZM48.9895 13.6603H42.3647L46.2483 8.77828L48.9895 13.6603ZM25.3528 8.77875L29.2364 13.6608H22.612L25.3528 8.77875ZM17.8444 32.6522L29.5669 26.362L35.1562 33.4266C35.1968 33.4772 35.2432 33.5228 35.2945 33.5625C35.3025 33.5686 35.3119 33.5728 35.3198 33.5784C35.3762 33.6189 35.4375 33.652 35.5022 33.6769C35.5219 33.6848 35.5411 33.6914 35.5617 33.698C35.7159 33.7511 35.8834 33.7511 36.0375 33.698C36.0581 33.6919 36.0773 33.6848 36.097 33.6769C36.1618 33.652 36.223 33.6189 36.2794 33.5784C36.2873 33.5723 36.2967 33.5686 36.3047 33.5625C36.356 33.5228 36.4024 33.4772 36.443 33.4266L38.5444 30.7716L42.1406 32.6752V51.9127H35.2448V43.522C35.2448 43.3045 35.1584 43.0958 35.0046 42.942C34.8507 42.7881 34.6421 42.7017 34.4245 42.7017H25.5581C25.3406 42.7017 25.1319 42.7881 24.9781 42.942C24.8242 43.0958 24.7378 43.3045 24.7378 43.522V51.9127H17.8444V32.6522ZM33.6042 51.9127H26.3784V44.3423H33.6042V51.9127Z" fill="white"/>
</svg>
