<svg width="46" height="46" viewBox="0 0 46 46" fill="none" xmlns="http://www.w3.org/2000/svg">
<g clip-path="url(#clip0_251_512)">
<path d="M26.5918 0.36124C26.6588 0.379018 26.7259 0.396795 26.7949 0.415112C29.3438 1.11428 31.4931 2.43512 33.4199 4.22452C33.5066 4.30235 33.5066 4.30235 33.5951 4.38175C36.0096 6.64947 37.6929 10.3239 37.8368 13.6317C37.8709 16.853 37.8709 16.853 37.5527 18.1503C37.526 18.2622 37.526 18.2622 37.4987 18.3764C36.9855 20.4631 36.0391 22.2974 34.8381 24.0663C34.5439 24.5015 34.2628 24.9448 33.9815 25.3883C33.9282 25.4723 33.875 25.5562 33.8201 25.6426C33.7111 25.8146 33.6021 25.9867 33.4931 26.1587C33.2297 26.5743 32.9654 26.9892 32.7012 27.4042C32.598 27.5663 32.4948 27.7285 32.3916 27.8906C31.8659 28.7168 31.3402 29.5429 30.8145 30.3691C30.8904 30.3788 30.9664 30.3885 31.0446 30.3985C31.8252 30.5035 32.5857 30.6484 33.3525 30.8295C33.4101 30.8431 33.4676 30.8566 33.5269 30.8706C36.6026 31.599 40.7883 32.6909 42.584 35.58C43.2138 36.708 43.3757 37.7585 43.1606 39.0348C42.6278 40.8546 41.0063 42.0098 39.4326 42.8976C36.5062 44.4777 33.1417 45.166 29.8767 45.6256C29.8144 45.6346 29.7521 45.6435 29.6879 45.6527C27.5464 45.9549 25.4015 46.036 23.2414 46.0304C23.0455 46.0299 22.8496 46.0297 22.6537 46.0295C20.7203 46.0267 18.8084 45.978 16.8887 45.7323C16.7257 45.7129 16.7257 45.7129 16.5594 45.693C12.767 45.2351 8.3444 44.3946 5.20899 42.0487C5.082 41.9548 5.082 41.9548 4.95245 41.8589C3.91916 41.0565 3.06418 40.0346 2.78321 38.7245C2.64499 37.1442 2.98667 36.0421 4.00172 34.8219C6.65087 31.9424 11.2087 30.989 14.9121 30.3691C15.0011 30.3691 15.09 30.3691 15.1816 30.3691C14.5123 29.3074 13.8405 28.2472 13.1661 27.1887C12.9549 26.8572 12.7441 26.5254 12.5337 26.1934C12.43 26.0299 12.3262 25.8663 12.2224 25.7028C12.171 25.6217 12.1197 25.5406 12.0667 25.4571C11.7955 25.0303 11.5209 24.6063 11.2408 24.1853C8.85675 20.5986 7.49892 16.554 8.32545 12.2094C8.38733 11.9115 8.45751 11.6168 8.53321 11.3222C8.55003 11.254 8.56685 11.1859 8.58419 11.1156C8.82634 10.1529 9.17933 9.25003 9.61134 8.35733C9.63901 8.30012 9.66669 8.24291 9.69521 8.18396C11.4865 4.54194 14.7102 1.93383 18.509 0.613443C18.8045 0.5172 19.1031 0.437417 19.4043 0.36124C19.5041 0.335009 19.5041 0.335009 19.606 0.308247C21.8132 -0.248671 24.3943 -0.223141 26.5918 0.36124ZM20.1231 3.05655C20.0136 3.08698 20.0136 3.08698 19.902 3.11801C16.6428 4.05673 13.9992 6.16179 12.3378 9.1262C11.6829 10.3365 11.3006 11.5913 11.0488 12.9394C11.033 13.023 11.0172 13.1066 11.001 13.1927C10.7889 14.6361 10.8353 16.3856 11.2285 17.7909C11.2582 17.8987 11.2582 17.8987 11.2885 18.0087C11.7426 19.6027 12.4709 21.0079 13.4072 22.3687C13.7027 22.7993 13.9814 23.2402 14.2607 23.6813C14.3141 23.7654 14.3675 23.8496 14.4225 23.9363C14.5317 24.1084 14.6408 24.2806 14.7499 24.4529C15.0094 24.8623 15.2695 25.2714 15.5298 25.6803C15.6069 25.8015 15.6069 25.8015 15.6855 25.9251C16.0855 26.5536 16.4869 27.1812 16.8887 27.8085C17.4978 28.7597 18.1049 29.7122 18.7109 30.6654C18.9719 31.0758 19.233 31.4861 19.4941 31.8964C19.599 32.0611 19.7038 32.2258 19.8086 32.3905C19.8605 32.4721 19.9124 32.5536 19.9658 32.6376C20.1231 32.8847 20.2803 33.1317 20.4375 33.3788C20.4895 33.4605 20.5414 33.5421 20.595 33.6263C20.699 33.7897 20.803 33.9532 20.907 34.1167C21.1812 34.5476 21.4555 34.9784 21.7301 35.4091C21.7872 35.4988 21.8444 35.5885 21.9033 35.6809C22.0127 35.8527 22.1222 36.0244 22.2318 36.1961C22.3058 36.3124 22.3058 36.3124 22.3814 36.431C22.4247 36.4989 22.468 36.5668 22.5126 36.6367C22.6053 36.7846 22.6932 36.9355 22.7783 37.0878C22.8212 37.1536 22.864 37.2193 22.9082 37.287C22.9675 37.287 23.0268 37.287 23.0879 37.287C23.2185 37.1175 23.2185 37.1175 23.3497 36.8943C23.4025 36.8086 23.4553 36.7229 23.5097 36.6346C23.5955 36.4934 23.5955 36.4934 23.6831 36.3493C23.806 36.1499 23.9289 35.9505 24.052 35.7513C24.0995 35.6741 24.0995 35.6741 24.148 35.5954C24.4755 35.0641 24.8114 34.5384 25.1487 34.0133C25.2081 33.9207 25.2675 33.8281 25.3287 33.7327C25.4495 33.5444 25.5703 33.3562 25.6911 33.1681C25.9955 32.6939 26.2993 32.2194 26.603 31.7448C26.6627 31.6516 26.7223 31.5585 26.7837 31.4625C27.3803 30.5301 27.9745 29.5962 28.5684 28.662C29.2861 27.5329 30.0054 26.4047 30.7271 25.278C31.1787 24.5728 31.629 23.8669 32.0769 23.1593C32.311 22.7902 32.5468 22.4228 32.791 22.0603C34.2577 19.8761 35.0744 17.5578 35.0708 14.9103C35.0708 14.8497 35.0707 14.789 35.0707 14.7266C35.059 11.5671 33.7973 8.80823 31.7129 6.47062C31.6276 6.37385 31.6276 6.37385 31.5406 6.27513C29.6633 4.27357 26.7467 2.92537 24.0237 2.76847C23.6891 2.75983 23.3552 2.75742 23.0205 2.75895C22.9615 2.75917 22.9024 2.75939 22.8415 2.75962C21.9071 2.76508 21.0259 2.80503 20.1231 3.05655ZM5.95792 36.8732C5.63205 37.2649 5.49931 37.6426 5.52134 38.1476C5.69993 38.9739 6.44543 39.5348 7.11685 39.9726C10.1306 41.8663 13.824 42.5593 17.3098 42.9696C17.3732 42.9771 17.4366 42.9846 17.5019 42.9923C18.8014 43.1433 20.0963 43.2302 21.4051 43.235C21.5226 43.2356 21.6401 43.2362 21.7611 43.2369C22.1379 43.2386 22.5146 43.2391 22.8914 43.2392C22.9556 43.2392 23.0198 43.2392 23.086 43.2393C25.0455 43.2399 26.9829 43.2117 28.9277 42.9472C29.0495 42.9311 29.1713 42.9151 29.2931 42.899C30.9008 42.6839 32.4822 42.3824 34.0488 41.9589C34.1289 41.9375 34.2089 41.9161 34.2914 41.894C36.2959 41.3498 38.5536 40.5773 39.9785 38.9941C40.0203 38.9482 40.0621 38.9023 40.1052 38.8551C40.3988 38.4985 40.4952 38.2165 40.4646 37.7534C40.3219 36.9912 39.6723 36.4456 39.0769 36.0089C36.5687 34.2959 32.171 32.6439 29.1074 32.9745C28.9266 33.1364 28.9266 33.1364 28.7961 33.3662C28.7169 33.4898 28.7169 33.4898 28.6361 33.6159C28.5841 33.7007 28.5321 33.7856 28.4785 33.873C28.3812 34.0232 28.2837 34.1734 28.1862 34.3236C28.0869 34.4802 27.9878 34.637 27.8889 34.7939C27.7784 34.9684 27.6678 35.1429 27.5573 35.3175C27.5014 35.4058 27.4456 35.4941 27.3881 35.5851C27.1235 36.0032 26.8576 36.4205 26.5918 36.8378C26.2706 37.3422 25.9497 37.8468 25.6295 38.3518C25.3224 38.8361 25.0141 39.3196 24.7051 39.8026C24.6463 39.8949 24.6463 39.8949 24.5863 39.989C24.4881 40.1426 24.3889 40.2955 24.2896 40.4484C24.2128 40.5671 24.2128 40.5671 24.1344 40.6881C23.9095 40.9807 23.7067 41.1237 23.3574 41.2401C22.8385 41.2742 22.5577 41.2437 22.0996 40.9706C21.5634 40.4022 21.1788 39.6634 20.7764 38.9968C20.497 38.5339 20.2105 38.0768 19.9153 37.6239C19.5351 37.0406 19.1596 36.4544 18.7866 35.8664C18.3574 35.1905 17.9254 34.5165 17.4895 33.8449C17.4394 33.7676 17.3894 33.6903 17.3378 33.6107C17.2918 33.5401 17.2459 33.4695 17.1986 33.3967C17.1379 33.3034 17.1379 33.3034 17.076 33.2081C16.9871 33.0673 16.9871 33.0673 16.8887 32.9745C13.4997 32.8291 8.31589 34.36 5.95792 36.8732Z" fill="#191A1F"/>
<path d="M27.0216 9.36845C27.3513 9.63807 27.6478 9.9341 27.9434 10.2403C28.0096 10.3038 28.0759 10.3672 28.1441 10.4326C29.3069 11.6135 29.7692 13.2984 29.7852 14.9122C29.7674 16.7017 29.1992 18.3456 27.9167 19.6191C27.8365 19.6965 27.7564 19.7739 27.6738 19.8536C27.6104 19.9198 27.5469 19.9861 27.4815 20.0543C26.3006 21.2172 24.6157 21.6794 23.002 21.6954C21.2124 21.6777 19.5685 21.1094 18.295 19.8269C18.2176 19.7468 18.1403 19.6666 18.0605 19.584C17.9943 19.5206 17.9281 19.4571 17.8598 19.3917C16.697 18.2109 16.2347 16.5259 16.2188 14.9122C16.2365 13.1226 16.8047 11.4787 18.0872 10.2052C18.1674 10.1278 18.2475 10.0505 18.3301 9.97077C18.3935 9.90452 18.457 9.83828 18.5224 9.77002C20.6962 7.62938 24.6287 7.58704 27.0216 9.36845ZM20.2168 12.0372C20.1596 12.0907 20.1024 12.1442 20.0434 12.1993C19.2809 12.988 19.0186 14.0085 19.0142 15.0752C19.0333 16.1095 19.4231 16.9463 20.127 17.6973C20.2072 17.7831 20.2072 17.7831 20.2891 17.8707C21.0778 18.6332 22.0983 18.8955 23.1649 18.8999C24.1993 18.8809 25.0361 18.4911 25.7871 17.7872C25.8729 17.7069 25.8729 17.7069 25.9605 17.625C26.723 16.8363 26.9853 15.8158 26.9897 14.7492C26.9706 13.7148 26.5808 12.878 25.877 12.127C25.7967 12.0412 25.7967 12.0412 25.7148 11.9536C24.9261 11.1911 23.9056 10.9288 22.839 10.9245C21.8046 10.9435 20.9678 11.3333 20.2168 12.0372Z" fill="#191A1F"/>
</g>
<defs>
<clipPath id="clip0_251_512">
<rect width="46" height="46" fill="white"/>
</clipPath>
</defs>
</svg>
