<svg width="60" height="60" viewBox="0 0 60 60" fill="none" xmlns="http://www.w3.org/2000/svg">
<g clip-path="url(#clip0_228_1746)">
<g clip-path="url(#clip1_228_1746)">
<path d="M22.07 8.70367C22.1428 8.70281 22.2157 8.70195 22.2907 8.70106C24.6316 8.67911 26.7906 8.86076 29.0278 9.60352C29.0914 9.62459 29.155 9.64567 29.2205 9.66738C30.0784 9.95779 30.8848 10.3319 31.6857 10.7531C31.82 10.8234 31.9554 10.8914 32.0909 10.959C33.2266 11.5422 34.2562 12.3318 35.1801 13.207C35.3114 13.323 35.4432 13.4384 35.5757 13.5531C35.7426 13.6978 35.9027 13.8417 36.059 13.9981C36.2314 14.044 36.406 14.0817 36.5812 14.1151C36.688 14.1361 36.7948 14.157 36.9048 14.1786C36.9614 14.1894 37.0179 14.2003 37.0761 14.2114C41.7909 15.1225 45.8877 17.5458 48.607 21.5668C49.5434 22.999 50.2072 24.5648 50.6489 26.2148C50.6676 26.2842 50.6864 26.3536 50.7057 26.4251C51.2285 28.4669 51.2609 31.0221 50.7368 33.0703C50.7099 33.1759 50.7099 33.1759 50.6824 33.2836C50.2822 34.8028 49.6984 36.1965 48.9203 37.5593C48.8863 37.6189 48.8524 37.6785 48.8175 37.74C48.7153 37.9043 48.7153 37.9043 48.5021 38.1587C48.1965 38.7615 48.6181 39.5918 48.8139 40.1981C48.8498 40.3075 48.8857 40.417 48.9227 40.5297C48.9606 40.6466 48.9985 40.7635 49.0364 40.8804C49.1357 41.187 49.2356 41.4933 49.3357 41.7996C49.4357 42.1059 49.5352 42.4124 49.6347 42.7189C49.6541 42.7786 49.6735 42.8384 49.6935 42.8999C49.7896 43.1956 49.8856 43.4912 49.9815 43.7869C49.9999 43.8436 50.0183 43.9003 50.0373 43.9588C50.0909 44.1239 50.1444 44.289 50.198 44.4542C50.288 44.731 50.3786 45.0077 50.4693 45.2843C50.5175 45.4331 50.5657 45.5819 50.6139 45.7307C50.6351 45.7947 50.6563 45.8587 50.6782 45.9246C50.8869 46.5749 50.9735 47.1701 50.6764 47.7975C50.4139 48.0741 50.1806 48.2466 49.8019 48.3208C49.016 48.34 48.4691 48.0846 47.787 47.7151C47.6883 47.6638 47.5897 47.6124 47.4881 47.5596C47.2227 47.421 46.9583 47.2806 46.6944 47.1392C45.5509 46.5277 44.3993 45.9334 43.2394 45.3535C43.0033 45.2354 42.7674 45.1166 42.5315 44.9979C42.3801 44.922 42.2286 44.8462 42.0772 44.7704C41.9724 44.7176 41.9724 44.7176 41.8655 44.6636C41.8005 44.6313 41.7356 44.5989 41.6686 44.5656C41.5837 44.523 41.5837 44.523 41.497 44.4796C41.1069 44.3103 40.9055 44.3216 40.5047 44.4693C40.3626 44.52 40.3626 44.52 40.2177 44.5716C40.0653 44.6267 40.0653 44.6267 39.9098 44.6829C38.2705 45.2536 36.5729 45.6425 34.8313 45.6596C34.7219 45.6609 34.7219 45.6609 34.6104 45.6622C32.9852 45.6775 31.409 45.6645 29.8188 45.2871C29.7283 45.2659 29.6379 45.2447 29.5447 45.2228C26.6718 44.5278 23.9762 43.1983 21.8208 41.1563C21.6895 41.0403 21.5577 40.9249 21.4253 40.8102C21.2583 40.6655 21.0982 40.5216 20.9419 40.3652C20.7685 40.3193 20.5928 40.2816 20.4166 40.2482C20.2556 40.2167 20.2556 40.2167 20.0914 40.1846C20.0347 40.1738 19.978 40.1629 19.9195 40.1517C18.6435 39.9064 17.4293 39.5967 16.2249 39.0998C15.7074 38.9663 15.2673 39.2848 14.828 39.5248C14.6777 39.6054 14.5273 39.6858 14.3768 39.7661C14.2997 39.8074 14.2225 39.8486 14.143 39.8911C13.7772 40.0841 13.4075 40.269 13.0372 40.4531C12.9645 40.4893 12.8918 40.5255 12.817 40.5628C12.5218 40.7096 12.2266 40.856 11.9313 41.0024C11.0457 41.442 10.1643 41.8878 9.29118 42.3517C8.97601 42.5191 8.66042 42.6856 8.34299 42.8487C8.28793 42.8771 8.23287 42.9055 8.17614 42.9348C7.79318 43.1016 7.37178 43.0583 6.96725 43.002C6.56124 42.8096 6.37718 42.6063 6.17624 42.2109C6.0589 41.4603 6.25101 40.7803 6.49141 40.0755C6.5242 39.9752 6.55698 39.8749 6.59076 39.7716C6.66062 39.5586 6.73119 39.3458 6.8024 39.1333C6.91317 38.8027 7.02205 38.4715 7.13044 38.1401C7.27329 37.7037 7.41678 37.2676 7.56099 36.8317C7.79296 36.1301 8.02268 35.4279 8.24609 34.7235C8.30072 34.5523 8.35661 34.3815 8.4126 34.2108C8.46037 34.0604 8.46037 34.0604 8.50912 33.907C8.53633 33.8228 8.56354 33.7386 8.59158 33.6518C8.66587 33.2771 8.5913 33.0516 8.39548 32.7291C8.33022 32.635 8.26496 32.541 8.19772 32.4441C6.86544 30.4455 6.00469 27.9031 5.97951 25.4922C5.97866 25.4241 5.9778 25.356 5.97692 25.2859C5.96214 23.8077 5.96465 22.3795 6.35202 20.9414C6.36894 20.8775 6.38587 20.8136 6.4033 20.7477C7.5479 16.549 10.3631 13.1674 14.1029 10.9988C16.4884 9.64538 19.3117 8.73071 22.07 8.70367ZM12.1455 15.9944C9.67932 18.5333 8.65845 21.7512 8.70069 25.236C8.71677 26.092 8.84205 26.8874 9.07663 27.709C9.09453 27.7747 9.11243 27.8405 9.13087 27.9082C9.5597 29.4505 10.3302 30.7998 11.2605 32.0925C11.5425 32.5019 11.5914 32.8479 11.5376 33.334C11.4435 33.7227 11.3196 34.1003 11.1946 34.48C11.1413 34.6465 11.0879 34.8129 11.0346 34.9794C10.9601 35.2111 10.8847 35.4425 10.8093 35.6739C10.6773 36.0794 10.5466 36.4854 10.4162 36.8914C10.3468 37.1072 10.277 37.3228 10.2067 37.5382C10.175 37.6362 10.1434 37.7342 10.1107 37.8352C10.0689 37.9637 10.0689 37.9637 10.0262 38.0949C9.95307 38.3524 9.90673 38.6064 9.86764 38.8711C10.2165 38.7612 10.5394 38.6339 10.866 38.4698C11.0007 38.4024 11.0007 38.4024 11.138 38.3338C11.2814 38.2614 11.2814 38.2614 11.4277 38.1875C11.5271 38.1377 11.6266 38.0878 11.7291 38.0365C11.9925 37.9043 12.2558 37.7719 12.5191 37.6393C12.786 37.505 13.053 37.371 13.3201 37.2371C13.7116 37.0406 14.103 36.844 14.4943 36.6471C14.5772 36.6055 14.6602 36.5639 14.7456 36.5211C14.9224 36.4318 15.0982 36.3405 15.2735 36.2485C15.6801 36.0593 16.0222 36.0914 16.437 36.2231C16.7053 36.3257 16.9698 36.4347 17.234 36.5475C17.4137 36.6234 17.5937 36.6986 17.774 36.7731C17.8529 36.8067 17.9317 36.8403 18.0129 36.8749C18.2277 36.9623 18.2277 36.9623 18.4809 36.8496C18.4363 36.7601 18.3916 36.6706 18.3457 36.5784C17.461 34.7733 16.8112 32.7937 16.7901 30.7656C16.7888 30.6635 16.7888 30.6635 16.7875 30.5594C16.7726 29.0775 16.7852 27.6581 17.1626 26.2148C17.1865 26.1168 17.1865 26.1168 17.211 26.0168C18.1987 22.0194 21.0027 18.691 24.4597 16.5641C26.6994 15.2221 29.1746 14.4503 31.7524 14.0859C30.1125 12.224 26.5448 11.576 24.1889 11.3912C19.6312 11.1079 15.3529 12.7776 12.1455 15.9944ZM23.0512 21.0842C20.5987 23.5439 19.4191 26.6822 19.4197 30.128C19.4253 31.1127 19.5288 32.0342 19.7993 32.9824C19.8153 33.0406 19.8313 33.0987 19.8477 33.1586C20.687 36.1393 22.7561 38.7717 25.3364 40.4531C25.3935 40.4905 25.4507 40.5278 25.5096 40.5663C29.1148 42.8816 33.4044 43.4559 37.5532 42.5625C38.4695 42.3499 39.3343 42.0266 40.1944 41.6476C40.2638 41.6182 40.3331 41.5887 40.4045 41.5583C40.4952 41.5183 40.4952 41.5183 40.5877 41.4775C41.1759 41.3218 41.6035 41.4166 42.1242 41.7056C42.2475 41.7705 42.3709 41.8354 42.4944 41.9002C42.5612 41.9359 42.6281 41.9716 42.697 42.0083C43.1047 42.2234 43.5178 42.4277 43.9301 42.6339C44.109 42.7237 44.2878 42.8136 44.4667 42.9034C44.5563 42.9484 44.6459 42.9934 44.7383 43.0398C44.9236 43.1329 45.1089 43.2261 45.2941 43.3195C45.5644 43.4557 45.8348 43.5914 46.1054 43.7271C46.1885 43.7691 46.2716 43.8111 46.3572 43.8544C46.4336 43.8926 46.51 43.9308 46.5887 43.9701C46.6559 44.0039 46.7231 44.0377 46.7923 44.0725C46.9543 44.1562 46.9543 44.1562 47.1333 44.1445C47.003 43.502 46.817 42.8887 46.6135 42.2659C46.5459 42.0558 46.4784 41.8457 46.4109 41.6355C46.3051 41.3073 46.199 40.9792 46.0921 40.6514C45.9883 40.3329 45.8861 40.0141 45.784 39.6951C45.7519 39.5978 45.7197 39.5006 45.6866 39.4004C45.494 38.7937 45.3034 38.1841 45.5701 37.5709C45.6201 37.5015 45.67 37.432 45.7215 37.3605C45.7776 37.279 45.8337 37.1976 45.8915 37.1136C45.9532 37.0265 46.015 36.9394 46.0786 36.8496C46.9004 35.6349 47.5285 34.4035 47.9243 32.9824C47.9416 32.9218 47.959 32.8611 47.9769 32.7986C48.5107 30.8539 48.4764 28.5895 47.9243 26.6543C47.9083 26.5962 47.8923 26.538 47.8758 26.4781C47.0341 23.4887 44.9647 20.8794 42.3872 19.1836C42.3093 19.1319 42.3093 19.1319 42.2298 19.0791C40.3858 17.8708 38.3175 17.1492 36.1469 16.8106C36.0484 16.7951 35.9498 16.7797 35.8482 16.7639C31.1143 16.1477 26.4421 17.7624 23.0512 21.0842Z" fill="white"/>
<path d="M24.16 33L26.752 30.272C26.8853 30.128 27 29.9893 27.096 29.856C27.192 29.7227 27.264 29.5893 27.312 29.456C27.36 29.3227 27.384 29.1813 27.384 29.032C27.384 28.9253 27.3627 28.8213 27.32 28.72C27.2827 28.6133 27.2213 28.5173 27.136 28.432C27.056 28.3467 26.9573 28.28 26.84 28.232C26.7227 28.1787 26.5867 28.152 26.432 28.152C26.2187 28.152 26.0347 28.2027 25.88 28.304C25.7253 28.4 25.6053 28.5413 25.52 28.728C25.44 28.9147 25.4 29.1307 25.4 29.376H24.464C24.464 28.976 24.5387 28.6213 24.688 28.312C24.8427 27.9973 25.0667 27.752 25.36 27.576C25.6587 27.3947 26.0213 27.304 26.448 27.304C26.7733 27.304 27.056 27.3573 27.296 27.464C27.536 27.5653 27.7333 27.6987 27.888 27.864C28.048 28.0293 28.1653 28.2107 28.24 28.408C28.32 28.6053 28.36 28.7973 28.36 28.984C28.36 29.2773 28.288 29.56 28.144 29.832C28.0053 30.104 27.8213 30.3467 27.592 30.56L26 32.12H28.432V33H24.16ZM28.9721 31.928L32.1321 27.4H32.7001V33H31.7321V31.592L31.7881 31.504V29.088L30.3561 31.184H32.3001L32.4361 31.112H33.5801V31.928H28.9721ZM37.3074 27.4H38.1554L34.8514 34.2H33.9794L37.3074 27.4ZM38.5134 28.288V27.4H42.6894L40.0014 33H38.9934L41.2894 28.288H38.5134Z" fill="white"/>
</g>
</g>
<defs>
<clipPath id="clip0_228_1746">
<rect width="47" height="45" fill="white" transform="translate(5 7)"/>
</clipPath>
<clipPath id="clip1_228_1746">
<rect width="45" height="45" fill="white" transform="translate(6 6)"/>
</clipPath>
</defs>
</svg>
