<svg width="60" height="60" viewBox="0 0 60 60" fill="none" xmlns="http://www.w3.org/2000/svg">
<path d="M37.0995 25.1453C38.1453 25.1454 39.1676 24.8354 40.0372 24.2544C40.9068 23.6735 41.5846 22.8477 41.9849 21.8816C42.3851 20.9154 42.4899 19.8523 42.286 18.8266C42.082 17.8009 41.5784 16.8587 40.839 16.1192C40.0995 15.3796 39.1574 14.876 38.1317 14.6719C37.106 14.4679 36.0429 14.5726 35.0767 14.9728C34.1105 15.3729 33.2847 16.0507 32.7036 16.9202C32.1226 17.7897 31.8125 18.812 31.8125 19.8578C31.8141 21.2596 32.3716 22.6035 33.3628 23.5947C34.3539 24.5859 35.6978 25.1436 37.0995 25.1453ZM37.0995 16.2114C37.8209 16.2113 38.526 16.4251 39.1258 16.8258C39.7256 17.2265 40.1931 17.7961 40.4692 18.4625C40.7453 19.1289 40.8175 19.8622 40.6768 20.5696C40.5361 21.2771 40.1888 21.927 39.6787 22.437C39.1687 22.9471 38.5188 23.2944 37.8114 23.4351C37.1039 23.5758 36.3706 23.5035 35.7042 23.2275C35.0378 22.9514 34.4682 22.4839 34.0675 21.8841C33.6669 21.2843 33.453 20.5791 33.4531 19.8578C33.4542 18.891 33.8388 17.9641 34.5223 17.2805C35.2059 16.5968 36.1327 16.2126 37.0995 16.2114Z" fill="#191A1F"/>
<path d="M52.7344 51.9141H43.7813V33.5456L46.1845 34.8187C46.3768 34.9206 46.6017 34.942 46.8096 34.8781C47.0176 34.8141 47.1917 34.6702 47.2936 34.478C47.3955 34.2857 47.4168 34.0609 47.3529 33.8529C47.289 33.6449 47.1451 33.4708 46.9528 33.3689L40.507 29.9555V29.82C40.9254 29.6767 41.3344 29.5072 41.7314 29.3123L43.5909 31.1719C43.6671 31.2481 43.7575 31.3086 43.857 31.3499C43.9566 31.3911 44.0633 31.4124 44.171 31.4124C44.2788 31.4124 44.3855 31.3911 44.485 31.3499C44.5845 31.3086 44.675 31.2481 44.7511 31.1719L48.4125 27.5105C48.4887 27.4343 48.5492 27.3439 48.5905 27.2444C48.6317 27.1448 48.653 27.0381 48.653 26.9304C48.653 26.8226 48.6317 26.7159 48.5905 26.6164C48.5492 26.5169 48.4887 26.4265 48.4125 26.3503L46.553 24.4908C46.7479 24.0938 46.9174 23.6848 47.0606 23.2664H49.6875C49.9051 23.2664 50.1137 23.18 50.2675 23.0261C50.4214 22.8723 50.5078 22.6637 50.5078 22.4461V17.2688C50.5078 17.0512 50.4214 16.8425 50.2675 16.6887C50.1137 16.5349 49.9051 16.4484 49.6875 16.4484H47.0625C46.9193 16.03 46.7497 15.6211 46.5548 15.2241L48.4144 13.3645C48.4906 13.2884 48.5511 13.198 48.5924 13.0984C48.6336 12.9989 48.6549 12.8922 48.6549 12.7845C48.6549 12.6767 48.6336 12.57 48.5924 12.4705C48.5511 12.3709 48.4906 12.2805 48.4144 12.2044L44.753 8.54297C44.5963 8.39461 44.3887 8.31194 44.1729 8.31194C43.9571 8.31194 43.7495 8.39461 43.5928 8.54297L41.7333 10.4025C41.3362 10.2078 40.9272 10.0383 40.5089 9.89484V7.26562C40.5089 7.04806 40.4225 6.83941 40.2686 6.68558C40.1148 6.53174 39.9062 6.44531 39.6886 6.44531H34.5089C34.2913 6.44531 34.0827 6.53174 33.9289 6.68558C33.775 6.83941 33.6886 7.04806 33.6886 7.26562V9.89484C33.2702 10.0381 32.8612 10.2076 32.4642 10.4025L30.6047 8.54297C30.5285 8.46673 30.4381 8.40625 30.3386 8.36499C30.239 8.32372 30.1324 8.30248 30.0246 8.30248C29.9169 8.30248 29.8102 8.32372 29.7106 8.36499C29.6111 8.40625 29.5207 8.46673 29.4445 8.54297L25.7812 12.2044C25.7051 12.2805 25.6446 12.371 25.6034 12.4705C25.5622 12.57 25.541 12.6767 25.541 12.7845C25.541 12.8922 25.5622 12.9989 25.6034 13.0984C25.6446 13.1979 25.7051 13.2884 25.7812 13.3645L27.6412 15.2241C27.4463 15.621 27.2768 16.03 27.1336 16.4484H24.5058C24.2882 16.4484 24.0796 16.5349 23.9257 16.6887C23.7719 16.8425 23.6855 17.0512 23.6855 17.2688V22.4466C23.6855 22.6641 23.7719 22.8728 23.9257 23.0266C24.0796 23.1804 24.2882 23.2669 24.5058 23.2669H27.135C27.2782 23.6853 27.4477 24.0943 27.6427 24.4913L25.7812 26.3508C25.7024 26.4303 25.6407 26.525 25.5998 26.6292L13.0458 33.367C12.949 33.4169 12.8632 33.4855 12.7932 33.5689C12.7233 33.6523 12.6706 33.7488 12.6383 33.8528C12.606 33.9567 12.5947 34.066 12.6051 34.1744C12.6155 34.2827 12.6474 34.3879 12.6988 34.4838C12.7502 34.5798 12.8203 34.6645 12.9048 34.7331C12.9893 34.8017 13.0866 34.8528 13.1911 34.8834C13.2955 34.914 13.405 34.9235 13.5132 34.9113C13.6214 34.8992 13.726 34.8656 13.8211 34.8127L16.2038 33.5339V51.9141H7.26562C7.04806 51.9141 6.83941 52.0005 6.68558 52.1543C6.53174 52.3082 6.44531 52.5168 6.44531 52.7344C6.44531 52.9519 6.53174 53.1606 6.68558 53.3144C6.83941 53.4683 7.04806 53.5547 7.26562 53.5547H52.7344C52.9519 53.5547 53.1606 53.4683 53.3144 53.3144C53.4683 53.1606 53.5547 52.9519 53.5547 52.7344C53.5547 52.5168 53.4683 52.3082 53.3144 52.1543C53.1606 52.0005 52.9519 51.9141 52.7344 51.9141ZM29.2308 25.2239C29.3576 25.097 29.4392 24.932 29.4633 24.7542C29.4873 24.5764 29.4524 24.3956 29.3639 24.2395C29.0043 23.6064 28.7244 22.9313 28.5305 22.2295C28.4827 22.0565 28.3795 21.9039 28.2367 21.7951C28.0938 21.6864 27.9192 21.6276 27.7397 21.6277H25.3261V18.0891H27.7397C27.9192 18.0892 28.0938 18.0303 28.2367 17.9216C28.3795 17.8129 28.4827 17.6603 28.5305 17.4872C28.7244 16.7854 29.0043 16.1103 29.3639 15.4772C29.4524 15.3211 29.4873 15.1404 29.4633 14.9626C29.4392 14.7848 29.3576 14.6198 29.2308 14.4928L27.5227 12.7856L30.0244 10.2844L31.7344 11.9906C31.8613 12.1175 32.0262 12.1992 32.204 12.2234C32.3818 12.2475 32.5626 12.2127 32.7188 12.1242C33.3516 11.7645 34.0266 11.4846 34.7283 11.2908C34.9011 11.2428 35.0535 11.1395 35.162 10.9967C35.2706 10.8538 35.3293 10.6794 35.3292 10.5V8.08594H38.8664V10.5C38.8664 10.6796 38.9253 10.8542 39.0342 10.997C39.143 11.1399 39.2956 11.2431 39.4687 11.2908C40.1706 11.4845 40.8457 11.7645 41.4787 12.1242C41.6349 12.2127 41.8157 12.2475 41.9935 12.2234C42.1713 12.1992 42.3362 12.1175 42.4631 11.9906L44.1708 10.283L46.672 12.7842L44.9644 14.4919C44.8377 14.6189 44.756 14.7839 44.732 14.9616C44.708 15.1394 44.7428 15.3202 44.8312 15.4762C45.1909 16.1093 45.4708 16.7845 45.6647 17.4863C45.7124 17.6593 45.8156 17.8119 45.9585 17.9207C46.1013 18.0294 46.2759 18.0882 46.4555 18.0881H48.8691V21.6253H46.4555C46.2759 21.6252 46.1013 21.684 45.9585 21.7928C45.8156 21.9015 45.7124 22.0541 45.6647 22.2272C45.4708 22.929 45.1909 23.6041 44.8312 24.2372C44.7428 24.3933 44.708 24.574 44.732 24.7518C44.756 24.9296 44.8377 25.0946 44.9644 25.2216L46.672 26.9292L44.1708 29.43L42.4631 27.7228C42.3362 27.5961 42.1712 27.5144 41.9934 27.4903C41.8157 27.4662 41.6349 27.5009 41.4787 27.5892C40.8458 27.9495 40.1706 28.23 39.4687 28.4245C39.2957 28.4723 39.1432 28.5756 39.0344 28.7184C38.9257 28.8612 38.8669 29.0358 38.8669 29.2153V31.6294H35.3292V29.2153C35.3292 29.0358 35.2704 28.8612 35.1617 28.7184C35.0529 28.5756 34.9004 28.4723 34.7273 28.4245C34.026 28.2306 33.3514 27.9506 32.7188 27.5911C32.5626 27.5028 32.3818 27.4681 32.2041 27.4922C32.0263 27.5163 31.8613 27.598 31.7344 27.7247L30.0267 29.4323L27.525 26.9311L29.2308 25.2239ZM17.8444 32.6536L26.3578 28.0852L29.4445 31.1719C29.5207 31.2481 29.6111 31.3086 29.7106 31.3499C29.8102 31.3911 29.9169 31.4124 30.0246 31.4124C30.1324 31.4124 30.239 31.3911 30.3386 31.3499C30.4381 31.3086 30.5285 31.2481 30.6047 31.1719L32.4642 29.3123C32.8612 29.5072 33.2702 29.6767 33.6886 29.82V32.4497C33.6886 32.6672 33.775 32.8759 33.9289 33.0297C34.0827 33.1836 34.2913 33.27 34.5089 33.27H39.6867C39.9043 33.27 40.1129 33.1836 40.2668 33.0297C40.4206 32.8759 40.507 32.6672 40.507 32.4497V31.8122L42.1406 32.6766V51.9141H35.2448V43.5234C35.2448 43.3059 35.1584 43.0972 35.0046 42.9434C34.8507 42.7896 34.6421 42.7031 34.4245 42.7031H25.5581C25.3406 42.7031 25.1319 42.7896 24.9781 42.9434C24.8242 43.0972 24.7378 43.3059 24.7378 43.5234V51.9141H17.8444V32.6536ZM33.6042 51.9141H26.3784V44.3437H33.6042V51.9141Z" fill="#191A1F"/>
</svg>
