<svg width="16" height="16" viewBox="0 0 16 16" fill="none" xmlns="http://www.w3.org/2000/svg">
<path d="M2.5228 0.340098L1.13165 1.73125C-0.00707543 2.86998 -0.319996 4.59562 0.346395 6.06168C2.279 10.3134 5.68658 13.721 9.93832 15.6536C11.4044 16.32 13.13 16.0071 14.2688 14.8683L15.6599 13.4772C16.1134 13.0237 16.1134 12.2885 15.6599 11.8351L13.7885 9.96365C13.4351 9.61023 12.8952 9.52262 12.4481 9.74614L11.4096 10.2654C10.5155 10.7125 9.43566 10.5372 8.72884 9.83041L6.16959 7.27117C5.46277 6.56434 5.28754 5.48452 5.73457 4.59045L6.25386 3.55187C6.47738 3.10483 6.38977 2.56492 6.03635 2.21151L4.16494 0.340098C3.71148 -0.113366 2.97627 -0.113366 2.5228 0.340098Z" fill="white"/>
</svg>
