<svg width="60" height="60" viewBox="0 0 60 60" fill="none" xmlns="http://www.w3.org/2000/svg">
<path d="M52.7344 22.3423H49.2811V12.3477C49.2811 12.1301 49.1947 11.9214 49.0408 11.7676C48.887 11.6138 48.6783 11.5273 48.4608 11.5273H15.1327C14.9151 11.5273 14.7064 11.6138 14.5526 11.7676C14.3988 11.9214 14.3123 12.1301 14.3123 12.3477V14.8419H11.5392C11.3217 14.8419 11.113 14.9283 10.9592 15.0821C10.8053 15.236 10.7189 15.4446 10.7189 15.6622V19.0273H7.26562C7.04806 19.0273 6.83941 19.1138 6.68558 19.2676C6.53174 19.4214 6.44531 19.6301 6.44531 19.8477V47.6544C6.44531 47.8719 6.53174 48.0806 6.68558 48.2344C6.83941 48.3883 7.04806 48.4747 7.26562 48.4747H52.7344C52.9519 48.4747 53.1606 48.3883 53.3144 48.2344C53.4683 48.0806 53.5547 47.8719 53.5547 47.6544V23.1627C53.5547 22.9451 53.4683 22.7364 53.3144 22.5826C53.1606 22.4288 52.9519 22.3423 52.7344 22.3423ZM15.9534 13.168H47.6409V22.3423H45.6872V20.3961C45.6871 20.1786 45.6006 19.97 45.4467 19.8162L40.7123 15.0819C40.5586 14.928 40.35 14.8415 40.1325 14.8414H15.9534V13.168ZM40.9533 17.6427L42.8864 19.5758H40.9533V17.6427ZM12.3595 16.4825H39.3127V20.3961C39.3127 20.6137 39.3991 20.8223 39.5529 20.9761C39.7068 21.13 39.9154 21.2164 40.133 21.2164H44.0466V22.3414H31.9917L29.07 19.2805C28.9934 19.2002 28.9013 19.1363 28.7993 19.0926C28.6973 19.0489 28.5875 19.0264 28.4766 19.0264H12.3595V16.4825ZM51.9141 46.8341H8.08594V20.668H28.125L31.0467 23.7289C31.1233 23.8092 31.2154 23.8731 31.3174 23.9168C31.4194 23.9604 31.5292 23.983 31.6402 23.983H51.9136L51.9141 46.8341Z" fill="#191A1F"/>
<path d="M38.918 32.2484L30.3295 27.6978C30.2108 27.6346 30.0783 27.6016 29.9438 27.6016C29.8092 27.6016 29.6768 27.6346 29.558 27.6978L21.0811 32.2484C20.9844 32.2983 20.8985 32.367 20.8286 32.4503C20.7586 32.5337 20.706 32.6302 20.6737 32.7342C20.6414 32.8381 20.6301 32.9474 20.6405 33.0558C20.6508 33.1641 20.6827 33.2693 20.7341 33.3653C20.7856 33.4612 20.8556 33.5459 20.9401 33.6145C21.0246 33.6831 21.1219 33.7342 21.2264 33.7648C21.3308 33.7954 21.4403 33.8049 21.5485 33.7927C21.6567 33.7806 21.7613 33.7471 21.8564 33.6941L22.4977 33.35V42.575C22.4977 42.7926 22.5841 43.0012 22.7379 43.155C22.8918 43.3089 23.1004 43.3953 23.318 43.3953H27.7135C27.931 43.3953 28.1397 43.3089 28.2935 43.155C28.4473 43.0012 28.5338 42.7926 28.5338 42.575V38.6516H31.4602V42.5745C31.4602 42.7921 31.5466 43.0007 31.7004 43.1546C31.8543 43.3084 32.0629 43.3948 32.2805 43.3948H36.676C36.8935 43.3948 37.1022 43.3084 37.256 43.1546C37.4098 43.0007 37.4963 42.7921 37.4963 42.5745V33.3519L38.1502 33.6983C38.3423 33.7988 38.5664 33.8192 38.7735 33.7549C38.9807 33.6906 39.1539 33.547 39.2554 33.3553C39.3569 33.1637 39.3783 32.9397 39.3151 32.7323C39.2519 32.5248 39.1091 32.3509 38.918 32.2484ZM35.8556 41.7542H33.1008V37.8313C33.1008 37.6137 33.0144 37.405 32.8605 37.2512C32.7067 37.0974 32.498 37.0109 32.2805 37.0109H27.7135C27.4959 37.0109 27.2872 37.0974 27.1334 37.2512C26.9796 37.405 26.8931 37.6137 26.8931 37.8313V41.7542H24.1383V32.4692L29.9475 29.352L35.8538 32.4823L35.8556 41.7542Z" fill="#191A1F"/>
</svg>
