<svg width="60" height="60" viewBox="0 0 60 60" fill="none" xmlns="http://www.w3.org/2000/svg">
<path d="M48.6328 6.44531H11.3672C11.1496 6.44531 10.941 6.53174 10.7871 6.68558C10.6333 6.83941 10.5469 7.04806 10.5469 7.26562V52.7344C10.5469 52.9519 10.6333 53.1606 10.7871 53.3144C10.941 53.4683 11.1496 53.5547 11.3672 53.5547H48.6328C48.8504 53.5547 49.059 53.4683 49.2129 53.3144C49.3667 53.1606 49.4531 52.9519 49.4531 52.7344V7.26562C49.4531 7.04806 49.3667 6.83941 49.2129 6.68558C49.059 6.53174 48.8504 6.44531 48.6328 6.44531ZM15.6759 43.2323H16.6941V46.5136H15.6759V43.2323ZM18.3347 10.4709H41.6653V49.5291H18.3347V10.4709ZM16.6941 41.5917H15.6759V18.4083H16.6941V41.5917ZM16.6941 16.7677H15.6759V13.4864H16.6941V16.7677ZM15.6759 48.1542H16.6941V50.3494C16.6941 50.5669 16.7805 50.7756 16.9343 50.9294C17.0882 51.0833 17.2968 51.1697 17.5144 51.1697H42.4856C42.7032 51.1697 42.9118 51.0833 43.0657 50.9294C43.2195 50.7756 43.3059 50.5669 43.3059 50.3494V9.65062C43.3059 9.43306 43.2195 9.22441 43.0657 9.07058C42.9118 8.91674 42.7032 8.83031 42.4856 8.83031H17.5144C17.2968 8.83031 17.0882 8.91674 16.9343 9.07058C16.7805 9.22441 16.6941 9.43306 16.6941 9.65062V11.8458H15.6759V8.08594H44.3245V51.9141H15.6759V48.1542ZM12.1875 8.08594H14.0353V51.9141H12.1875V8.08594ZM47.8125 51.9141H45.9652V8.08594H47.8125V51.9141Z" fill="#191A1F"/>
<path d="M39.3584 28.5547H36.2956C36.0781 28.5547 35.8694 28.6411 35.7156 28.795C35.5617 28.9488 35.4753 29.1574 35.4753 29.375V30.9767H31.5312C31.3137 30.9767 31.105 31.0631 30.9512 31.217C30.7974 31.3708 30.7109 31.5795 30.7109 31.797C30.7109 32.0146 30.7974 32.2232 30.9512 32.3771C31.105 32.5309 31.3137 32.6173 31.5312 32.6173H35.4753V36.6406C35.4753 36.8582 35.5617 37.0668 35.7156 37.2207C35.8694 37.3745 36.0781 37.4609 36.2956 37.4609H39.3584C39.576 37.4609 39.7846 37.3745 39.9385 37.2207C40.0923 37.0668 40.1788 36.8582 40.1788 36.6406V29.375C40.1788 29.1574 40.0923 28.9488 39.9385 28.795C39.7846 28.6411 39.576 28.5547 39.3584 28.5547ZM37.1159 30.1953H38.5381V30.9767H37.1159V30.1953ZM37.1159 35.8203V32.6169H38.5381V35.8198L37.1159 35.8203Z" fill="#191A1F"/>
</svg>
