<svg width="60" height="60" viewBox="0 0 60 60" fill="none" xmlns="http://www.w3.org/2000/svg">
<path d="M52.7344 19.3272H51.4064V18.0011L52.3908 18.4539C52.4887 18.4989 52.5945 18.5241 52.7022 18.5282C52.8098 18.5323 52.9172 18.5151 53.0183 18.4777C53.1193 18.4402 53.2119 18.3833 53.291 18.31C53.37 18.2368 53.4338 18.1487 53.4787 18.0508C53.5237 17.9529 53.549 17.8471 53.553 17.7394C53.5571 17.6317 53.5399 17.5243 53.5025 17.4233C53.4651 17.3223 53.4081 17.2296 53.3349 17.1506C53.2616 17.0716 53.1735 17.0078 53.0756 16.9628L30.3422 6.52141C30.3319 6.51672 30.3206 6.51484 30.3103 6.51063C30.2869 6.50078 30.2634 6.49328 30.2386 6.48625C30.2106 6.47721 30.1821 6.4697 30.1533 6.46375C30.1317 6.45953 30.1097 6.45766 30.0881 6.45531C30.057 6.45147 30.0257 6.44943 29.9944 6.44922C29.9728 6.44922 29.9517 6.45156 29.9302 6.45344C29.8987 6.45568 29.8674 6.45975 29.8364 6.46563C29.8153 6.46984 29.7947 6.47641 29.7736 6.48203C29.7417 6.49059 29.7104 6.50108 29.6798 6.51344C29.6714 6.51672 29.663 6.51813 29.6545 6.52188L6.92344 16.9609C6.82553 17.0059 6.73744 17.0697 6.66419 17.1487C6.59095 17.2277 6.53398 17.3204 6.49655 17.4214C6.42095 17.6255 6.4295 17.8512 6.52031 18.0489C6.61113 18.2466 6.77677 18.4002 6.98081 18.4758C7.18484 18.5514 7.41055 18.5428 7.60828 18.452L8.59266 17.9992V19.3272H7.26562C7.04806 19.3272 6.83941 19.4136 6.68558 19.5675C6.53174 19.7213 6.44531 19.9299 6.44531 20.1475V23.3256C6.44531 23.5432 6.53174 23.7518 6.68558 23.9057C6.83941 24.0595 7.04806 24.1459 7.26562 24.1459H8.59359V46.5798H7.26562C7.04806 46.5798 6.83941 46.6663 6.68558 46.8201C6.53174 46.9739 6.44531 47.1826 6.44531 47.4002V52.7355C6.44531 52.953 6.53174 53.1617 6.68558 53.3155C6.83941 53.4694 7.04806 53.5558 7.26562 53.5558H52.7344C52.9519 53.5558 53.1606 53.4694 53.3144 53.3155C53.4683 53.1617 53.5547 52.953 53.5547 52.7355V47.4002C53.5547 47.1826 53.4683 46.9739 53.3144 46.8201C53.1606 46.6663 52.9519 46.5798 52.7344 46.5798H51.4064V24.1464H52.7344C52.9519 24.1464 53.1606 24.06 53.3144 23.9061C53.4683 23.7523 53.5547 23.5437 53.5547 23.3261V20.148C53.5547 20.0402 53.5336 19.9335 53.4924 19.8339C53.4512 19.7343 53.3908 19.6438 53.3146 19.5676C53.2384 19.4914 53.148 19.4309 53.0484 19.3897C52.9488 19.3484 52.8421 19.3272 52.7344 19.3272ZM10.2342 17.2459L30 8.16953L49.7658 17.2459V19.3272H10.2342V17.2459ZM10.2342 24.1464H15.4688V46.5798H10.2342V24.1464ZM42.8906 24.1464V46.5798H41.5627C41.3451 46.5798 41.1364 46.6663 40.9826 46.8201C40.8288 46.9739 40.7423 47.1826 40.7423 47.4002V51.9152H38.1642V37.1988C38.1642 36.9812 38.0778 36.7725 37.924 36.6187C37.7701 36.4649 37.5615 36.3784 37.3439 36.3784H22.6561C22.4385 36.3784 22.2299 36.4649 22.076 36.6187C21.9222 36.7725 21.8358 36.9812 21.8358 37.1988V51.9152H19.2577V47.4002C19.2577 47.1826 19.1712 46.9739 19.0174 46.8201C18.8636 46.6663 18.6549 46.5798 18.4373 46.5798H17.1094V24.1464H42.8906ZM30.8203 38.0214H36.5236V51.9152H30.8203V38.0214ZM29.1797 51.9175H23.4764V38.0191H29.1797V51.9175ZM8.08594 51.9175V48.2228H17.617V51.9175H8.08594ZM51.9141 51.9175H42.383V48.2228H51.9141V51.9175ZM49.7658 46.5822H44.5312V24.1464H49.7658V46.5822ZM51.9141 22.5058H8.08594V20.9683H51.9141V22.5058Z" fill="white"/>
<path d="M30 11.4453C29.4206 11.4453 28.8541 11.6171 28.3724 11.9391C27.8906 12.261 27.5151 12.7185 27.2933 13.2539C27.0716 13.7892 27.0136 14.3782 27.1266 14.9466C27.2396 15.5149 27.5187 16.0369 27.9284 16.4466C28.3381 16.8563 28.8601 17.1354 29.4284 17.2484C29.9968 17.3614 30.5858 17.3034 31.1211 17.0817C31.6565 16.8599 32.114 16.4844 32.4359 16.0026C32.7579 15.5209 32.9297 14.9544 32.9297 14.375C32.9288 13.5983 32.6199 12.8536 32.0706 12.3044C31.5214 11.7551 30.7767 11.4462 30 11.4453ZM30 15.6641C29.745 15.6641 29.4958 15.5885 29.2838 15.4468C29.0719 15.3052 28.9066 15.1038 28.8091 14.8683C28.7115 14.6328 28.686 14.3736 28.7357 14.1235C28.7854 13.8735 28.9082 13.6438 29.0885 13.4635C29.2688 13.2832 29.4985 13.1604 29.7485 13.1107C29.9986 13.061 30.2578 13.0865 30.4933 13.1841C30.7288 13.2816 30.9302 13.4468 31.0718 13.6588C31.2135 13.8708 31.2891 14.12 31.2891 14.375C31.2887 14.7168 31.1528 15.0444 30.9111 15.2861C30.6694 15.5278 30.3418 15.6637 30 15.6641Z" fill="white"/>
</svg>
