<svg width="60" height="60" viewBox="0 0 60 60" fill="none" xmlns="http://www.w3.org/2000/svg">
<path d="M52.7341 35.3811H41.1311C40.9437 31.3498 39.3517 27.5111 36.6311 24.5304L53.3158 7.84574C53.4696 7.6919 53.5561 7.48324 53.5561 7.26567C53.5561 7.0481 53.4696 6.83944 53.3158 6.68559C53.1619 6.53174 52.9533 6.44531 52.7357 6.44531C52.5181 6.44531 52.3095 6.53174 52.1556 6.68559L35.4695 23.3707C32.5516 20.7192 28.8174 19.1407 24.8822 18.8956C20.9471 18.6504 17.0459 19.7531 13.8213 22.022C10.5968 24.2909 8.24147 27.5906 7.14338 31.3774C6.04528 35.1641 6.26998 39.212 7.78044 42.854C9.2909 46.4959 11.997 49.5147 15.4528 51.4127C18.9086 53.3108 22.908 53.975 26.7918 53.2958C30.6756 52.6166 34.2122 50.6346 36.8187 47.6763C39.4253 44.7181 40.9463 40.9601 41.1311 37.0217H52.7341C52.9516 37.0217 53.1603 36.9353 53.3141 36.7814C53.4679 36.6276 53.5544 36.4189 53.5544 36.2014C53.5544 35.9838 53.4679 35.7752 53.3141 35.6213C53.1603 35.4675 52.9516 35.3811 52.7341 35.3811ZM39.4895 35.3811H37.0675C36.8847 35.3097 36.6817 35.3097 36.4989 35.3811H31.0816C30.9274 34.0102 30.3876 32.7112 29.5248 31.6348L32.9819 28.1778C33.0107 28.2391 33.0471 28.2966 33.0902 28.3489C34.0064 29.4309 34.7262 30.665 35.2169 31.9953C35.2953 32.195 35.4489 32.356 35.6447 32.4438C35.8405 32.5316 36.0629 32.5392 36.2643 32.4649C36.4656 32.3907 36.6298 32.2405 36.7217 32.0466C36.8136 31.8526 36.8258 31.6305 36.7558 31.4276C36.1995 29.9178 35.3827 28.5172 34.3427 27.2895C34.2694 27.203 34.1789 27.1327 34.0769 27.0832L35.4681 25.692C37.8834 28.3629 39.3037 31.7849 39.4895 35.3811ZM23.0402 36.5159C23.1024 36.6657 23.2076 36.7937 23.3425 36.8838C23.4774 36.9739 23.6359 37.0221 23.7981 37.0222H29.4231C29.2454 38.2585 28.6667 39.4023 27.7757 40.2777C26.8847 41.1531 25.731 41.7117 24.4917 41.8676C23.2524 42.0235 21.9962 41.768 20.9162 41.1405C19.8362 40.5131 18.9922 39.5483 18.5138 38.3944C18.0355 37.2406 17.9493 35.9616 18.2686 34.754C18.5879 33.5465 19.2949 32.4772 20.281 31.7105C21.267 30.9438 22.4776 30.5223 23.7266 30.5105C24.9756 30.4988 26.1939 30.8976 27.1942 31.6456L23.2178 35.622C23.1031 35.7367 23.025 35.8829 22.9934 36.042C22.9618 36.2011 22.9781 36.366 23.0402 36.5159ZM25.7809 35.3811L28.3591 32.8029C28.9253 33.5595 29.2929 34.4458 29.4283 35.3811H25.7809ZM23.7986 51.9143C21.2483 51.9165 18.7358 51.2979 16.4781 50.112C14.2203 48.926 12.2852 47.2083 10.8397 45.1072C9.39424 43.0061 8.48193 40.5847 8.18154 38.0522C7.88114 35.5196 8.2017 32.952 9.11552 30.5711C10.0293 28.1902 11.509 26.0674 13.4266 24.3862C15.3443 22.7049 17.6423 21.5157 20.1224 20.9213C22.6024 20.3268 25.1899 20.3449 27.6614 20.974C30.1328 21.6032 32.414 22.8244 34.308 24.5323L28.3647 30.4751C27.0935 29.4634 25.5222 28.9028 23.8977 28.8815C22.2732 28.8603 20.6877 29.3795 19.3905 30.3576C18.0933 31.3357 17.158 32.7173 16.7316 34.2849C16.3052 35.8526 16.4119 37.5175 17.035 39.0179C17.6581 40.5184 18.7621 41.7691 20.1736 42.5736C21.5851 43.3781 23.2239 43.6906 24.8324 43.4621C26.4408 43.2336 27.9278 42.477 29.0593 41.3113C30.1909 40.1455 30.9029 38.6367 31.0834 37.0222H35.9303C35.857 38.162 35.6224 39.2856 35.2337 40.3596C35.1592 40.5641 35.1688 40.7898 35.2607 40.9871C35.3525 41.1844 35.5189 41.3372 35.7234 41.4118C35.9278 41.4864 36.1535 41.4767 36.3508 41.3849C36.5481 41.293 36.7009 41.1266 36.7755 40.9222C37.2277 39.6673 37.4946 38.3531 37.5677 37.0212H39.4895C39.2749 41.0394 37.5288 44.8226 34.6102 47.5928C31.6916 50.363 27.8225 51.9095 23.7986 51.9143Z" fill="#191A1F"/>
<path d="M17.2747 25.7928C17.4194 25.7929 17.5616 25.7546 17.6867 25.6818C18.9115 24.9679 20.2527 24.476 21.6486 24.2286C21.7566 24.2119 21.8601 24.1738 21.9532 24.1165C22.0462 24.0592 22.1269 23.9839 22.1904 23.895C22.254 23.8061 22.2991 23.7054 22.3232 23.5988C22.3473 23.4922 22.3498 23.3818 22.3307 23.2743C22.3116 23.1667 22.2711 23.064 22.2117 22.9723C22.1524 22.8805 22.0752 22.8016 21.9849 22.74C21.8946 22.6785 21.7929 22.6356 21.6858 22.614C21.5787 22.5923 21.4684 22.5922 21.3612 22.6138C19.7757 22.895 18.2523 23.454 16.8612 24.2652C16.7052 24.3559 16.5834 24.4956 16.5147 24.6625C16.4461 24.8295 16.4345 25.0144 16.4816 25.1887C16.5288 25.3629 16.6321 25.5168 16.7755 25.6263C16.919 25.7359 17.0946 25.7951 17.2751 25.7947L17.2747 25.7928Z" fill="#191A1F"/>
<path d="M25.8756 24.211C27.2735 24.4507 28.6182 24.9352 29.8477 25.6421C29.9413 25.6981 30.045 25.7349 30.1529 25.7504C30.2608 25.7658 30.3707 25.7596 30.4762 25.7321C30.5817 25.7046 30.6806 25.6564 30.7672 25.5902C30.8538 25.524 30.9264 25.4412 30.9807 25.3467C31.0349 25.2522 31.0698 25.1478 31.0833 25.0396C31.0967 24.9314 31.0885 24.8216 31.059 24.7167C31.0296 24.6117 30.9795 24.5137 30.9117 24.4283C30.8439 24.343 30.7598 24.2719 30.6643 24.2194C29.2681 23.416 27.7411 22.8652 26.1535 22.5924C25.9403 22.5582 25.7222 22.6094 25.5465 22.7349C25.3708 22.8605 25.2517 23.0503 25.215 23.2631C25.1784 23.4759 25.2271 23.6946 25.3507 23.8717C25.4743 24.0488 25.6627 24.1701 25.8751 24.2091L25.8756 24.211Z" fill="#191A1F"/>
<path d="M11.6348 36.2247C11.6343 36.0074 11.5477 35.7993 11.3939 35.6458C11.2401 35.4924 11.0318 35.4062 10.8145 35.4063C10.7068 35.4065 10.6002 35.428 10.5008 35.4694C10.4013 35.5109 10.311 35.5715 10.235 35.6478C10.159 35.7242 10.0988 35.8148 10.0578 35.9144C10.0168 36.014 9.99585 36.1207 9.9961 36.2284C9.99731 37.838 10.2808 39.4348 10.8338 40.9464C10.869 41.0498 10.9245 41.1451 10.9971 41.2267C11.0696 41.3083 11.1577 41.3746 11.2563 41.4217C11.3548 41.4688 11.4617 41.4958 11.5708 41.501C11.6799 41.5063 11.7889 41.4897 11.8915 41.4522C11.9941 41.4148 12.0881 41.3572 12.1682 41.283C12.2482 41.2087 12.3126 41.1191 12.3576 41.0196C12.4026 40.9201 12.4273 40.8126 12.4302 40.7035C12.4331 40.5943 12.4142 40.4857 12.3745 40.3839C11.8865 39.0515 11.6362 37.6437 11.6348 36.2247Z" fill="#191A1F"/>
<path d="M33.1216 44.0141C32.2097 45.1014 31.1152 46.0215 29.8872 46.7328C29.7912 46.7854 29.7068 46.8566 29.6387 46.9423C29.5707 47.028 29.5205 47.1264 29.4911 47.2318C29.4617 47.3372 29.4537 47.4473 29.4675 47.5559C29.4813 47.6644 29.5167 47.7691 29.5716 47.8637C29.6265 47.9584 29.6997 48.0411 29.787 48.107C29.8744 48.1729 29.974 48.2207 30.08 48.2475C30.1861 48.2744 30.2965 48.2797 30.4046 48.2633C30.5128 48.2468 30.6166 48.2089 30.7098 48.1517C32.1021 47.3454 33.3429 46.3023 34.3764 45.0692C34.511 44.902 34.5748 44.6887 34.554 44.4751C34.5331 44.2614 34.4294 44.0645 34.265 43.9264C34.1006 43.7884 33.8886 43.7203 33.6746 43.7368C33.4605 43.7533 33.2615 43.853 33.1201 44.0145L33.1216 44.0141Z" fill="#191A1F"/>
<path d="M14.3559 27.2494C14.2732 27.1803 14.1778 27.1282 14.075 27.096C13.9722 27.0639 13.864 27.0523 13.7567 27.0619C13.6494 27.0715 13.5451 27.1022 13.4496 27.1521C13.3542 27.202 13.2695 27.2703 13.2004 27.353C12.1662 28.587 11.3571 29.9933 10.8098 31.5075C10.7718 31.6092 10.7543 31.7175 10.7584 31.826C10.7625 31.9345 10.7881 32.0411 10.8338 32.1396C10.8794 32.2382 10.9441 32.3267 11.0242 32.4C11.1043 32.4733 11.1982 32.53 11.3004 32.5668C11.4025 32.6035 11.511 32.6197 11.6195 32.6142C11.7279 32.6087 11.8342 32.5818 11.9322 32.5349C12.0301 32.488 12.1178 32.4222 12.1901 32.3412C12.2624 32.2602 12.3179 32.1656 12.3534 32.063C12.8362 30.7304 13.549 29.4929 14.4595 28.4067C14.5289 28.324 14.5813 28.2284 14.6137 28.1254C14.6461 28.0224 14.6578 27.9141 14.6481 27.8065C14.6385 27.699 14.6077 27.5944 14.5576 27.4988C14.5074 27.4032 14.4389 27.3184 14.3559 27.2494Z" fill="#191A1F"/>
<path d="M25.9206 48.1799C25.2218 48.3027 24.5137 48.3645 23.8042 48.3646H23.7967C23.0928 48.3646 22.3902 48.3043 21.6967 48.1842C21.5893 48.1626 21.4787 48.1627 21.3714 48.1846C21.2641 48.2065 21.1623 48.2496 21.0719 48.3114C20.9815 48.3733 20.9044 48.4526 20.8452 48.5447C20.786 48.6368 20.7458 48.7398 20.727 48.8477C20.7082 48.9556 20.7112 49.0662 20.7359 49.1729C20.7605 49.2796 20.8062 49.3803 20.8704 49.469C20.9346 49.5578 21.0158 49.6328 21.1094 49.6896C21.2031 49.7464 21.3071 49.784 21.4154 49.7999C22.202 49.9365 22.9988 50.0052 23.7971 50.0052H23.8056C24.6103 50.0052 25.4135 49.9352 26.2061 49.7962C26.4203 49.7585 26.6108 49.6372 26.7357 49.459C26.8605 49.2808 26.9094 49.0603 26.8717 48.846C26.8339 48.6318 26.7126 48.4413 26.5345 48.3164C26.3563 48.1916 26.1358 48.1427 25.9215 48.1804L25.9206 48.1799Z" fill="#191A1F"/>
<path d="M17.73 46.7457C16.5007 46.037 15.4046 45.1192 14.4909 44.0335C14.3505 43.8672 14.1498 43.7634 13.9329 43.7451C13.716 43.7268 13.5006 43.7954 13.3343 43.9358C13.168 44.0762 13.0642 44.277 13.0459 44.4939C13.0276 44.7108 13.0961 44.9261 13.2366 45.0924C14.2727 46.3236 15.5157 47.3645 16.9097 48.1684C17.098 48.2754 17.321 48.3037 17.5301 48.2469C17.7391 48.1902 17.9172 48.053 18.0255 47.8654C18.1339 47.6778 18.1636 47.455 18.1082 47.2456C18.0528 47.0362 17.9169 46.8571 17.73 46.7476V46.7457Z" fill="#191A1F"/>
<path d="M45.0427 34.0944V33.4339H45.4861V32.6736H45.0427V30.5H44.1867L42.3984 32.6267V33.4344H44.1867V34.0948L45.0427 34.0944ZM43.2417 32.6736L44.1867 31.5612V32.6736H43.2417Z" fill="#191A1F"/>
<path d="M47.228 33.5558C47.1105 33.5576 46.9971 33.513 46.9125 33.4316C46.8166 33.3334 46.7571 33.2054 46.7438 33.0687L45.75 33.1775C45.7899 33.3237 45.8509 33.4632 45.9309 33.5919C46.0067 33.7067 46.1018 33.8074 46.2122 33.8895C46.3396 33.9824 46.4838 34.0498 46.6369 34.0878C46.8329 34.1352 47.0343 34.1574 47.2359 34.1539C47.5111 34.164 47.7847 34.1069 48.0328 33.9875C48.2386 33.8791 48.4068 33.711 48.5152 33.5052C48.6259 33.3041 48.6844 33.0785 48.6853 32.8489C48.6899 32.6989 48.663 32.5495 48.6065 32.4104C48.55 32.2714 48.4651 32.1456 48.3572 32.0412C48.2423 31.9331 48.1071 31.8491 47.9593 31.794C47.8115 31.739 47.6541 31.714 47.4966 31.7206C47.3896 31.721 47.2831 31.7339 47.1792 31.7591C47.0675 31.7868 46.9588 31.8256 46.8548 31.8748L46.9397 31.3452H48.5184V30.5586H46.1888L45.8775 32.4584L46.7142 32.5794C46.7747 32.5056 46.848 32.4435 46.9308 32.3961C47.0152 32.3504 47.1095 32.3263 47.2055 32.3258C47.2724 32.3228 47.3393 32.3344 47.4013 32.3597C47.4634 32.3851 47.5192 32.4235 47.565 32.4725C47.6658 32.6048 47.7139 32.7699 47.7 32.9356C47.7123 33.1013 47.6649 33.2659 47.5664 33.3997C47.5254 33.4496 47.4737 33.4895 47.4151 33.5166C47.3565 33.5436 47.2925 33.557 47.228 33.5558Z" fill="#191A1F"/>
<path d="M49.1016 29.7984C49.1016 30.0135 49.1653 30.2238 49.2848 30.4026C49.4043 30.5815 49.5742 30.7208 49.7729 30.8032C49.9716 30.8855 50.1903 30.907 50.4012 30.865C50.6122 30.8231 50.806 30.7195 50.958 30.5674C51.1101 30.4153 51.2137 30.2216 51.2557 30.0106C51.2976 29.7996 51.2761 29.581 51.1938 29.3823C51.1115 29.1836 50.9721 29.0137 50.7932 28.8942C50.6144 28.7747 50.4041 28.7109 50.1891 28.7109C49.9008 28.7113 49.6244 28.826 49.4205 29.0299C49.2166 29.2337 49.1019 29.5101 49.1016 29.7984ZM50.7422 29.7984C50.7422 29.9078 50.7097 30.0148 50.649 30.1057C50.5882 30.1967 50.5018 30.2676 50.4007 30.3095C50.2997 30.3513 50.1885 30.3623 50.0812 30.3409C49.9739 30.3196 49.8753 30.2669 49.7979 30.1896C49.7206 30.1122 49.6679 30.0136 49.6466 29.9063C49.6252 29.7991 49.6362 29.6878 49.678 29.5868C49.7199 29.4857 49.7908 29.3993 49.8818 29.3385C49.9727 29.2778 50.0797 29.2453 50.1891 29.2453C50.3357 29.2454 50.4763 29.3038 50.58 29.4075C50.6838 29.5112 50.7421 29.6518 50.7422 29.7984Z" fill="#191A1F"/>
</svg>
