<svg width="60" height="60" viewBox="0 0 60 60" fill="none" xmlns="http://www.w3.org/2000/svg">
<path d="M52.7344 42.2712C52.9519 42.2712 53.1606 42.1848 53.3144 42.031C53.4683 41.8771 53.5547 41.6685 53.5547 41.4509V31.025C53.5537 30.9502 53.5423 30.8759 53.5209 30.8042C53.5163 30.7883 53.512 30.7728 53.5064 30.7573C53.4831 30.6873 53.4505 30.6208 53.4094 30.5595V30.5558L46.1438 20.1303C46.0678 20.0218 45.9668 19.9333 45.8492 19.8723C45.7317 19.8114 45.6012 19.7797 45.4688 19.7802H37.7344V14.6797C37.7344 14.4621 37.6479 14.2535 37.4941 14.0996C37.3403 13.9458 37.1316 13.8594 36.9141 13.8594H7.26562C7.04806 13.8594 6.83941 13.9458 6.68558 14.0996C6.53174 14.2535 6.44531 14.4621 6.44531 14.6797V41.4509C6.44531 41.6685 6.53174 41.8771 6.68558 42.031C6.83941 42.1848 7.04806 42.2712 7.26562 42.2712H14.7656C14.9118 43.0946 15.2766 43.8636 15.8217 44.4978H7.26562C7.04806 44.4978 6.83941 44.5842 6.68558 44.7381C6.53174 44.8919 6.44531 45.1006 6.44531 45.3181C6.44531 45.5357 6.53174 45.7443 6.68558 45.8982C6.83941 46.052 7.04806 46.1384 7.26562 46.1384H52.7344C52.9519 46.1384 53.1606 46.052 53.3144 45.8982C53.4683 45.7443 53.5547 45.5357 53.5547 45.3181C53.5547 45.1006 53.4683 44.8919 53.3144 44.7381C53.1606 44.5842 52.9519 44.4978 52.7344 44.4978H48.3792C48.9244 43.8636 49.2891 43.0946 49.4353 42.2712H52.7344ZM51.1627 30.2052H40.8984V21.4208H45.0408L51.1627 30.2052ZM39.2578 21.4208V31.025C39.2578 31.2426 39.3442 31.4512 39.4981 31.605C39.6519 31.7589 39.8606 31.8453 40.0781 31.8453H51.9141V40.6306H49.4353C49.2437 39.5469 48.6766 38.5654 47.8334 37.8582C46.9903 37.151 45.9249 36.7633 44.8245 36.7633C43.724 36.7633 42.6586 37.151 41.8155 37.8582C40.9723 38.5654 40.4052 39.5469 40.2136 40.6306H37.7344V21.4208H39.2578ZM15.9764 35.6272V15.5H20.0977V35.6272H15.9764ZM24.082 35.6272V15.5H28.2033V35.6272H24.082ZM36.0938 37.2678V40.6306H23.9883C23.8596 39.9141 23.5662 39.2373 23.131 38.6537C22.6958 38.07 22.131 37.5956 21.4809 37.2678H36.0938ZM23.9883 42.2712H40.2131C40.3593 43.0946 40.7241 43.8636 41.2692 44.4978H22.9322C23.4773 43.8636 23.8421 43.0946 23.9883 42.2712ZM36.0938 20.5995V35.6272H32.1877V15.5H36.0938V20.5995ZM30.547 15.5V35.6272H29.8439V15.5H30.547ZM22.4414 15.5V35.6272H21.7383V15.5H22.4414ZM14.3358 15.5V35.6272H13.6327V15.5H14.3358ZM8.08594 15.5H11.992V35.6272H8.08594V15.5ZM8.08594 37.2678H17.2734C16.6233 37.5955 16.0583 38.07 15.6231 38.6536C15.1879 39.2372 14.8943 39.914 14.7656 40.6306H8.08594V37.2678ZM16.3303 41.4509C16.3303 40.8483 16.509 40.2592 16.8438 39.7582C17.1786 39.2571 17.6545 38.8666 18.2112 38.636C18.7679 38.4054 19.3806 38.345 19.9716 38.4626C20.5626 38.5802 21.1055 38.8704 21.5317 39.2965C21.9578 39.7226 22.248 40.2655 22.3655 40.8565C22.4831 41.4476 22.4227 42.0602 22.1921 42.6169C21.9615 43.1737 21.571 43.6495 21.0699 43.9843C20.5689 44.3191 19.9798 44.4978 19.3772 44.4978C18.5694 44.4968 17.795 44.1755 17.2238 43.6043C16.6526 43.0331 16.3313 42.2587 16.3303 41.4509ZM41.7773 41.4509C41.7773 40.8483 41.956 40.2592 42.2908 39.7582C42.6256 39.2571 43.1015 38.8666 43.6582 38.636C44.215 38.4054 44.8276 38.345 45.4186 38.4626C46.0097 38.5802 46.5526 38.8704 46.9787 39.2965C47.4048 39.7226 47.695 40.2655 47.8126 40.8565C47.9301 41.4476 47.8698 42.0602 47.6392 42.6169C47.4086 43.1737 47.018 43.6495 46.517 43.9843C46.0159 44.3191 45.4268 44.4978 44.8242 44.4978C44.0164 44.4968 43.242 44.1755 42.6708 43.6043C42.0997 43.0331 41.7783 42.2587 41.7773 41.4509Z" fill="white"/>
<path d="M19.3778 40.0195C19.0945 40.0195 18.8176 40.1035 18.582 40.2609C18.3464 40.4183 18.1628 40.642 18.0544 40.9037C17.946 41.1655 17.9176 41.4535 17.9728 41.7313C18.028 42.0092 18.1644 42.2644 18.3647 42.4648C18.565 42.6652 18.8202 42.8016 19.0981 42.8569C19.3759 42.9123 19.6639 42.884 19.9257 42.7756C20.1874 42.6673 20.4112 42.4837 20.5687 42.2482C20.7261 42.0127 20.8102 41.7358 20.8103 41.4525C20.8099 41.0726 20.6589 40.7085 20.3904 40.4398C20.1218 40.1712 19.7577 40.02 19.3778 40.0195Z" fill="white"/>
<path d="M44.8231 40.0195C44.5398 40.0195 44.2629 40.1035 44.0273 40.2609C43.7918 40.4183 43.6081 40.642 43.4997 40.9037C43.3913 41.1655 43.3629 41.4535 43.4181 41.7313C43.4734 42.0092 43.6097 42.2644 43.81 42.4648C44.0103 42.6652 44.2655 42.8016 44.5434 42.8569C44.8212 42.9123 45.1092 42.884 45.371 42.7756C45.6328 42.6673 45.8565 42.4837 46.014 42.2482C46.1714 42.0127 46.2555 41.7358 46.2556 41.4525C46.2553 41.0726 46.1042 40.7085 45.8357 40.4398C45.5671 40.1712 45.203 40.02 44.8231 40.0195Z" fill="white"/>
</svg>
