<svg width="60" height="60" viewBox="0 0 60 60" fill="none" xmlns="http://www.w3.org/2000/svg">
<g clip-path="url(#clip0_301_248)">
<path d="M8.96498 36.4139C9.03173 36.4135 9.09848 36.413 9.16725 36.4126C9.39244 36.4114 9.61758 36.4125 9.84277 36.4136C10.0052 36.4132 10.1677 36.4127 10.3302 36.4121C10.7778 36.4108 11.2254 36.4114 11.673 36.4124C12.1553 36.4131 12.6376 36.412 13.1199 36.4112C14.0105 36.4098 14.901 36.41 15.7916 36.4108C16.6143 36.4116 17.437 36.4118 18.2596 36.4114C18.3141 36.4114 18.3687 36.4114 18.4248 36.4114C18.6461 36.4113 18.8674 36.4112 19.0887 36.4111C21.1657 36.4101 23.2427 36.411 25.3197 36.4127C27.1659 36.4141 29.0121 36.414 30.8582 36.4125C32.9314 36.4108 35.0045 36.4102 37.0776 36.4111C37.2985 36.4112 37.5194 36.4113 37.7403 36.4114C37.7947 36.4115 37.8491 36.4115 37.9052 36.4115C38.7274 36.4119 39.5496 36.4115 40.3719 36.4107C41.3066 36.4098 42.2413 36.41 43.176 36.4117C43.6533 36.4125 44.1305 36.4128 44.6078 36.4118C45.0442 36.4109 45.4805 36.4114 45.917 36.413C46.0753 36.4134 46.2337 36.4132 46.392 36.4125C46.6063 36.4115 46.8206 36.4125 47.035 36.4139C47.1283 36.4128 47.1283 36.4128 47.2236 36.4117C47.5026 36.4155 47.6572 36.4301 47.8821 36.602C48.0807 36.8778 48.037 37.0573 48 37.3908C47.8584 37.5997 47.7752 37.6219 47.5312 37.7033C47.3985 37.7148 47.2655 37.7226 47.1324 37.728C47.0556 37.7312 46.9788 37.7345 46.8997 37.7379C46.8196 37.741 46.7396 37.744 46.6572 37.7472C46.5763 37.7506 46.4954 37.7539 46.412 37.7574C46.2122 37.7657 46.0123 37.7737 45.8125 37.7814C45.8398 37.8664 45.8671 37.9514 45.8952 38.0389C46.4897 39.9367 46.4897 39.9367 46.0468 40.8283C45.4505 41.7774 44.3407 42.098 43.3275 42.4242C42.4908 42.687 42.4908 42.687 41.8702 43.2694C41.7175 43.5896 41.6679 43.9214 41.623 44.2706C41.6136 44.3358 41.6042 44.4009 41.5945 44.468C41.5522 44.7629 41.5142 45.0583 41.4774 45.354C41.3621 46.2549 41.2161 47.0871 40.5 47.7033C39.9348 48.0802 39.4443 48.1476 38.7763 48.1232C38.6963 48.1221 38.6163 48.121 38.5339 48.1198C38.1197 48.1119 37.7131 48.0838 37.302 48.0335C37.048 48.0056 36.7954 47.9994 36.54 47.9962C36.443 47.9942 36.346 47.9922 36.2461 47.9901C35.8859 48.0234 35.6324 48.1257 35.3675 48.3746C35.0034 48.8601 34.6833 49.3716 34.3693 49.8904C33.904 50.6474 33.3745 51.3405 32.4821 51.5884C31.3423 51.756 30.3615 51.0745 29.4404 50.4981C29.3953 50.4699 29.3502 50.4418 29.3037 50.4128C29.1795 50.335 29.056 50.256 28.9326 50.177C28.4475 49.9022 28.0662 49.8304 27.5312 49.9689C26.9983 50.1805 26.5229 50.4792 26.0468 50.7941C25.2829 51.2966 24.4602 51.7292 23.5179 51.5802C22.436 51.2802 21.8597 50.2996 21.309 49.3994C21.2578 49.316 21.2578 49.316 21.2057 49.2308C21.1407 49.1237 21.0766 49.0161 21.0136 48.9078C20.7673 48.497 20.5012 48.1724 20.0312 48.0158C19.8458 48.0082 19.6602 48.0056 19.4746 48.006C19.3761 48.0058 19.2776 48.0056 19.1761 48.0054C18.9574 48.0093 18.7447 48.0269 18.5276 48.0536C18.0932 48.1052 17.6607 48.1171 17.2236 48.1232C17.104 48.1276 17.104 48.1276 16.9821 48.132C16.3372 48.1394 15.8433 47.9871 15.3419 47.5726C14.6685 46.8855 14.5848 45.9017 14.4795 44.9884C14.38 43.7945 14.38 43.7945 13.7031 42.8595C13.4773 42.7325 13.4773 42.7325 13.2246 42.6349C13.1783 42.6157 13.132 42.5965 13.0843 42.5768C12.7392 42.4361 12.389 42.3114 12.0378 42.1869C11.1663 41.8762 10.2919 41.5419 9.86978 40.6528C9.5218 39.6775 9.88613 38.7199 10.1875 37.7814C10.1375 37.7802 10.0874 37.7791 10.0359 37.7779C9.80805 37.7721 9.5803 37.7645 9.35251 37.757C9.27381 37.7552 9.1951 37.7534 9.11401 37.7516C8.6693 37.7355 8.33091 37.7217 7.99997 37.3908C7.954 36.8299 7.954 36.8299 8.11752 36.6017C8.38975 36.3944 8.63642 36.4101 8.96498 36.4139ZM11.5937 37.7033C11.0684 38.8891 11.0684 38.8891 11.0371 40.1593C11.5734 40.8061 12.4737 41.0012 13.2382 41.2766C14.0435 41.5699 14.8304 41.8859 15.2598 42.6792C15.6191 43.4514 15.6688 44.3316 15.7635 45.1662C15.8392 45.7723 15.9169 46.2926 16.3398 46.7609C16.8374 46.9959 17.3848 46.9118 17.9121 46.8488C20.4354 46.5843 20.4354 46.5843 21.3642 47.298C21.8127 47.7253 22.1234 48.2775 22.4531 48.797C22.5645 48.9702 22.677 49.1424 22.79 49.3146C22.8364 49.3865 22.8829 49.4584 22.9307 49.5325C23.1764 49.8692 23.4654 50.2073 23.8593 50.3595C24.4219 50.3198 24.8553 50.0564 25.3193 49.7589C27.4781 48.4189 27.4781 48.4189 28.6826 48.6887C29.4013 48.9303 30.0585 49.342 30.6925 49.7522C31.3623 50.2129 31.3623 50.2129 32.1406 50.3595C32.8422 50.0093 33.2268 49.3251 33.625 48.6798C34.1689 47.8025 34.6281 47.1402 35.641 46.796C35.9025 46.7499 36.163 46.7509 36.4277 46.7511C36.4884 46.7509 36.5491 46.7508 36.6117 46.7506C37.1902 46.7548 37.7619 46.809 38.3358 46.8801C38.7933 46.931 39.2029 46.9241 39.6406 46.7658C40.3107 46.2014 40.2814 44.9624 40.3729 44.1641C40.4768 43.3337 40.6399 42.5802 41.2812 42.0001C41.7824 41.6138 42.3649 41.4255 42.956 41.2189C44.0901 40.876 44.0901 40.876 44.9531 40.1251C45.0749 39.7766 44.9919 39.4794 44.8994 39.1339C44.8867 39.0826 44.8741 39.0313 44.8611 38.9784C44.7453 38.5295 44.5819 38.1425 44.4062 37.7033C43.2203 37.7033 42.0343 37.7033 40.8125 37.7033C40.6046 38.0948 40.6046 38.0948 40.3925 38.4943C40.0059 39.2098 39.5923 39.874 39.0937 40.5158C39.0141 40.6213 39.0141 40.6213 38.9329 40.7291C37.0438 43.1467 37.0438 43.1467 36.0175 43.3478C35.7343 43.3283 35.7343 43.3283 35.539 43.2111C35.365 42.921 35.345 42.8035 35.4218 42.4689C35.6573 42.2039 35.9271 41.9872 36.2031 41.7658C37.457 40.708 38.8734 39.3019 39.4062 37.7033C31.8781 37.7033 24.35 37.7033 16.5937 37.7033C18.1347 40.7852 20.7746 43.0638 24.0395 44.1706C24.444 44.2994 24.8523 44.4039 25.2656 44.5001C25.3168 44.5129 25.3681 44.5257 25.4209 44.5389C27.0568 44.9363 29.1054 44.9198 30.7343 44.5001C30.8338 44.475 30.8338 44.475 30.9352 44.4493C31.6913 44.2541 32.4122 44.0286 33.126 43.7119C33.393 43.61 33.5775 43.5988 33.8593 43.6408C34.0937 43.797 34.0937 43.797 34.1718 44.0558C34.1718 44.3439 34.1718 44.3439 34.0083 44.5429C32.1934 46.0748 28.8266 46.0319 26.5937 45.9064C24.9627 45.7683 23.374 45.2951 21.9062 44.5783C21.8518 44.5518 21.7973 44.5253 21.7412 44.498C20.9332 44.1 20.1979 43.6426 19.4843 43.0939C19.4134 43.0405 19.3425 42.9871 19.2695 42.9321C17.4414 41.5012 16.2761 39.725 15.1875 37.7033C14.0015 37.7033 12.8156 37.7033 11.5937 37.7033Z" fill="black"/>
<path d="M26.6848 13.5809C27.1796 13.8891 27.6324 14.1505 28.2339 14.1092C28.8688 13.9337 29.452 13.5047 30.0106 13.1677C31.5554 12.2384 31.5554 12.2384 32.4615 12.4243C33.5609 12.73 34.129 13.6827 34.6905 14.6005C34.7246 14.6562 34.7587 14.7118 34.7938 14.7691C34.8588 14.8762 34.9229 14.9839 34.9859 15.0921C35.2245 15.49 35.4801 15.8056 35.9252 15.9817C35.983 15.9954 36.0407 16.0091 36.1001 16.0232C36.3452 16.0972 36.4245 16.1268 36.603 16.3211C36.6906 16.5901 36.6845 16.7317 36.5933 16.9998C36.4284 17.2007 36.3119 17.3015 36.0479 17.3276C35.3958 17.2883 34.8392 16.999 34.3862 16.5359C33.9668 16.0428 33.6346 15.4856 33.2952 14.9358C33.2502 14.8629 33.2052 14.79 33.1588 14.715C33.1187 14.6491 33.0786 14.5833 33.0373 14.5155C32.9287 14.3422 32.9287 14.3422 32.7894 14.2129C32.687 14.1092 32.687 14.1092 32.687 13.9529C32.4255 13.8021 32.2088 13.7298 31.9058 13.7186C31.3463 13.886 30.8696 14.1737 30.3872 14.4949C29.4535 15.101 28.6674 15.5328 27.5308 15.4373C26.7251 15.2569 25.9937 14.7702 25.307 14.3259C24.6362 13.8733 24.6362 13.8733 23.8589 13.7186C23.6316 13.8143 23.6316 13.8143 23.4683 13.9529C23.4167 13.9529 23.3651 13.9529 23.312 13.9529C23.2936 13.9933 23.2752 14.0337 23.2562 14.0753C23.1212 14.331 22.9607 14.568 22.7993 14.8074C22.7647 14.8588 22.7301 14.9102 22.6944 14.9632C22.6228 15.0694 22.551 15.1755 22.4792 15.2816C22.3812 15.4273 22.2848 15.5739 22.1887 15.7208C21.7216 16.4277 21.2736 16.9959 20.4431 17.2613C19.5378 17.4415 18.5706 17.3101 17.6636 17.198C17.2136 17.1478 16.7813 17.1237 16.3589 17.3123C16.0727 17.624 15.9931 17.9214 15.9243 18.3328C15.9105 18.4122 15.9105 18.4122 15.8964 18.4932C15.8425 18.8113 15.7982 19.1302 15.7565 19.4501C15.5019 21.3976 15.5019 21.3976 14.7183 22.0779C14.1782 22.461 13.5569 22.6642 12.9386 22.8837C11.9597 23.2195 11.9597 23.2195 11.1245 23.7967C11.0171 24.1831 11.0782 24.4935 11.1831 24.8709C11.1964 24.9219 11.2097 24.9728 11.2234 25.0253C11.3364 25.4524 11.4663 25.8733 11.5933 26.2967C13.3722 26.258 13.3722 26.258 15.187 26.2186C15.3127 25.9704 15.4384 25.7223 15.5679 25.4666C15.9348 24.7576 16.337 24.1127 16.8276 23.4842C16.8844 23.4101 16.9412 23.3359 16.9998 23.2596C17.1713 23.0424 17.3482 22.8327 17.5308 22.6248C17.5677 22.5826 17.6046 22.5404 17.6426 22.4969C17.7611 22.3633 17.8822 22.2326 18.0044 22.1023C18.0412 22.0609 18.0779 22.0195 18.1158 21.9769C18.3331 21.7525 18.4911 21.6606 18.7976 21.6537C19.0933 21.6873 19.0933 21.6873 19.2886 21.8094C19.459 22.0862 19.4646 22.2257 19.4058 22.5467C19.2516 22.7815 19.0562 22.9727 18.8589 23.1717C17.9601 24.0888 17.2945 25.097 16.6714 26.2186C24.148 26.2186 31.6245 26.2186 39.3276 26.2186C38.6848 25.0758 38.0303 24.1128 37.1401 23.1717C37.0771 23.1036 37.0141 23.0355 36.9491 22.9654C35.4096 21.357 33.3882 20.2968 31.2564 19.7049C31.1893 19.6862 31.1223 19.6676 31.0532 19.6483C30.0478 19.3849 29.0526 19.3138 28.0191 19.3191C27.9314 19.3194 27.9314 19.3194 27.842 19.3197C26.9636 19.3237 26.1193 19.3604 25.2651 19.5779C25.2014 19.5935 25.1376 19.609 25.0719 19.625C23.7733 19.9467 22.5763 20.4327 21.4288 21.1209C21.1539 21.2396 20.9524 21.2443 20.6558 21.2186C20.4653 21.0965 20.4653 21.0965 20.3433 20.9061C20.2993 20.6375 20.2993 20.6375 20.3433 20.3592C21.5934 18.7991 24.5454 18.2626 26.4282 18.0321C29.0583 17.7659 31.7166 18.1857 34.0933 19.3436C34.1465 19.3692 34.1997 19.3949 34.2546 19.4213C35.518 20.0378 36.6426 20.8198 37.6459 21.8048C37.7657 21.9222 37.8871 22.0378 38.0087 22.1533C39.2316 23.3279 40.0571 24.7087 40.812 26.2186C42.5909 26.2572 42.5909 26.2572 44.4058 26.2967C44.62 25.5881 44.62 25.5881 44.8208 24.8758C44.836 24.8243 44.8511 24.7728 44.8667 24.7197C44.9677 24.3386 44.9456 24.0823 44.7964 23.7186C44.3447 23.2069 43.3919 23.0287 42.7613 22.8015C41.8169 22.4574 41.0556 22.0693 40.5776 21.1404C40.3113 20.3981 40.2462 19.6123 40.1579 18.8338C40.0899 18.2892 40.0153 17.8565 39.7183 17.3904C39.3812 17.1657 39.0419 17.1761 38.6441 17.1371C38.3901 17.0779 38.3901 17.0779 38.2409 16.9333C38.1132 16.6816 38.1211 16.496 38.1558 16.2186C38.2794 16.0477 38.2794 16.0477 38.4683 15.9061C39.1373 15.799 39.8367 15.8603 40.4214 16.2186C41.0999 16.7123 41.2914 17.46 41.437 18.2498C41.4914 18.6448 41.5335 19.0412 41.5751 19.4377C41.6528 20.1149 41.7367 20.6878 42.2964 21.1404C42.5222 21.2674 42.5222 21.2674 42.7749 21.365C42.8212 21.3842 42.8675 21.4034 42.9152 21.4232C43.2603 21.5639 43.6105 21.6886 43.9616 21.8131C44.8332 22.1237 45.7076 22.4581 46.1297 23.3472C46.4777 24.3224 46.1134 25.2801 45.812 26.2186C45.862 26.2197 45.9121 26.2208 45.9636 26.222C46.1914 26.2278 46.4192 26.2354 46.647 26.243C46.765 26.2456 46.765 26.2456 46.8855 26.2483C47.3302 26.2645 47.6686 26.2782 47.9995 26.6092C48.0455 27.17 48.0455 27.17 47.882 27.3983C47.6097 27.6055 47.3631 27.5899 47.0345 27.586C46.9678 27.5865 46.901 27.5869 46.8322 27.5874C46.607 27.5885 46.3819 27.5874 46.1567 27.5864C45.9943 27.5867 45.8318 27.5872 45.6693 27.5878C45.2217 27.5891 44.7741 27.5885 44.3265 27.5875C43.8442 27.5868 43.3619 27.5879 42.8796 27.5888C41.989 27.5901 41.0984 27.59 40.2079 27.5891C39.3852 27.5883 38.5625 27.5881 37.7399 27.5885C37.6854 27.5885 37.6308 27.5885 37.5747 27.5886C37.3534 27.5887 37.1321 27.5888 36.9107 27.5889C34.8338 27.5898 32.7568 27.589 30.6798 27.5873C28.8336 27.5858 26.9874 27.5859 25.1412 27.5874C23.0681 27.5891 20.995 27.5898 18.9219 27.5888C18.701 27.5887 18.4801 27.5886 18.2592 27.5885C18.2048 27.5885 18.1504 27.5884 18.0943 27.5884C17.2721 27.5881 16.4498 27.5885 15.6276 27.5893C14.6929 27.5902 13.7582 27.5899 12.8235 27.5882C12.3462 27.5874 11.869 27.5871 11.3917 27.5881C10.9553 27.5891 10.5189 27.5886 10.0825 27.5869C9.92419 27.5865 9.76584 27.5867 9.6075 27.5875C9.39314 27.5884 9.17888 27.5875 8.96454 27.586C8.87115 27.5871 8.87115 27.5871 8.77587 27.5882C8.49685 27.5844 8.34229 27.5698 8.11741 27.3979C7.91884 27.1221 7.96247 26.9427 7.99952 26.6092C8.14106 26.4002 8.22434 26.378 8.46827 26.2967C8.60098 26.2851 8.73404 26.2773 8.86714 26.272C8.98232 26.267 8.98232 26.267 9.09983 26.262C9.17985 26.259 9.25986 26.2559 9.3423 26.2527C9.42322 26.2494 9.50413 26.246 9.58751 26.2425C9.78733 26.2342 9.98717 26.2262 10.187 26.2186C10.1597 26.1336 10.1324 26.0486 10.1043 25.961C9.5098 24.0632 9.5098 24.0632 9.95265 23.1717C10.549 22.2226 11.6588 21.9019 12.672 21.5757C13.5087 21.3129 13.5087 21.3129 14.1293 20.7306C14.282 20.4103 14.3316 20.0786 14.3765 19.7293C14.3859 19.6642 14.3953 19.5991 14.405 19.532C14.4473 19.237 14.4853 18.9416 14.522 18.6459C14.6374 17.745 14.7834 16.9129 15.4995 16.2967C16.0647 15.9197 16.5552 15.8523 17.2232 15.8768C17.3032 15.8779 17.3832 15.879 17.4656 15.8801C17.8798 15.8881 18.2864 15.9162 18.6975 15.9664C18.9515 15.9944 19.2041 16.0005 19.4595 16.0037C19.5565 16.0057 19.6534 16.0077 19.7534 16.0098C20.1136 15.9765 20.3671 15.8743 20.632 15.6253C20.9961 15.1398 21.3161 14.6284 21.6302 14.1095C21.9752 13.5481 22.3469 13.0003 22.9312 12.6687C23.0257 12.6133 23.0257 12.6133 23.1222 12.5567C24.3775 11.9735 25.6594 12.9381 26.6848 13.5809Z" fill="black"/>
<path d="M26.1246 29.2166C26.1745 29.2156 26.2245 29.2146 26.2759 29.2136C26.5308 29.2956 26.6531 29.4565 26.8277 29.6561C26.9366 29.9084 26.9366 29.9084 27.0197 30.1898C27.0347 30.2396 27.0498 30.2893 27.0653 30.3405C27.1126 30.4978 27.1582 30.6555 27.2037 30.8133C27.2357 30.9207 27.2678 31.0281 27.3 31.1354C27.3782 31.3971 27.4549 31.6593 27.5308 31.9217C27.5477 31.8579 27.5646 31.7941 27.582 31.7283C27.6458 31.4896 27.7107 31.2511 27.7764 31.0128C27.8045 30.9101 27.8321 30.8072 27.8593 30.7042C28.1493 29.6082 28.1493 29.6082 28.5465 29.2654C28.7076 29.2087 28.7076 29.2087 28.859 29.2166C28.9339 29.2175 28.9339 29.2175 29.0103 29.2185C29.2648 29.2927 29.3803 29.3811 29.5621 29.5779C29.6593 29.8385 29.7046 30.1054 29.7525 30.3787C29.7678 30.4593 29.7831 30.5398 29.7989 30.6228C29.8326 30.801 29.8657 30.9792 29.8981 31.1576C29.9468 31.421 29.9979 31.6838 30.0503 31.9464C30.0954 32.1721 30.1396 32.398 30.1837 32.6239C30.2054 32.7346 30.2273 32.8453 30.2494 32.956C30.2805 33.1126 30.3105 33.2694 30.3403 33.4262C30.3578 33.5166 30.3754 33.6069 30.3935 33.7C30.4279 34.0117 30.424 34.2917 30.2554 34.5633C30.0229 34.7106 29.8353 34.7295 29.5621 34.7342C29.3317 34.6115 29.2017 34.5048 29.111 34.2557C29.0625 34.053 29.0249 33.8509 28.9908 33.6453C28.9776 33.5755 28.9645 33.5057 28.951 33.4337C28.8915 33.1068 28.8524 32.8016 28.859 32.4686C28.8074 32.4686 28.7558 32.4686 28.7027 32.4686C28.696 32.5105 28.6892 32.5524 28.6823 32.5955C28.6023 33.0415 28.4899 33.475 28.3609 33.909C28.3378 33.9908 28.3378 33.9908 28.3143 34.0743C28.2428 34.3078 28.1791 34.4763 28.006 34.6515C27.7525 34.7804 27.4895 34.8109 27.2183 34.7342C26.761 34.4083 26.6743 33.9427 26.5299 33.4207C26.5055 33.3368 26.4812 33.2528 26.4562 33.1664C26.3966 32.9601 26.3382 32.7536 26.2808 32.5467C26.271 32.5991 26.2613 32.6515 26.2512 32.7054C26.2056 32.9442 26.1578 33.1824 26.1099 33.4207C26.0946 33.5032 26.0792 33.5856 26.0634 33.6705C25.9023 34.456 25.9023 34.456 25.4996 34.7342C25.2245 34.7342 25.0431 34.7103 24.8062 34.5682C24.5047 34.0657 24.6907 33.4498 24.7897 32.9123C24.8063 32.8204 24.8228 32.7284 24.8398 32.6337C24.875 32.4399 24.9106 32.2462 24.9466 32.0526C25.0014 31.7565 25.0536 31.4599 25.1056 31.1633C25.1401 30.9748 25.1748 30.7863 25.2097 30.5978C25.225 30.5093 25.2403 30.4208 25.2561 30.3295C25.3528 29.8253 25.4835 29.2037 26.1246 29.2166Z" fill="black"/>
<path d="M40.7395 29.209C40.8144 29.2129 40.8144 29.2129 40.8909 29.2169C40.9658 29.2178 40.9658 29.2178 41.0423 29.2188C41.2823 29.2888 41.4128 29.4062 41.594 29.5782C41.7029 29.8289 41.7029 29.8289 41.786 30.1215C41.801 30.173 41.8161 30.2246 41.8316 30.2778C41.879 30.4414 41.9245 30.6055 41.97 30.7697C42.002 30.8812 42.034 30.9927 42.0663 31.1041C42.1447 31.3764 42.2214 31.649 42.2971 31.922C42.3125 31.8708 42.3278 31.8197 42.3436 31.767C42.4142 31.5321 42.485 31.2974 42.5559 31.0626C42.58 30.9822 42.6042 30.9017 42.629 30.8188C42.9998 29.5933 42.9998 29.5933 43.2102 29.3439C43.4761 29.2289 43.7401 29.1748 44.0159 29.2657C44.4443 29.6676 44.515 30.0845 44.6156 30.6497C44.6323 30.7379 44.6491 30.8261 44.6664 30.917C44.7016 31.1031 44.736 31.2892 44.7698 31.4755C44.8214 31.7599 44.8751 32.0438 44.9291 32.3277C44.9631 32.5089 44.9969 32.6902 45.0306 32.8714C45.0465 32.956 45.0623 33.0405 45.0787 33.1277C45.2744 34.2138 45.2744 34.2138 45.0315 34.5782C44.7545 34.7629 44.6358 34.7616 44.318 34.7177C44.1181 34.6337 44.0546 34.5252 43.9378 34.3439C43.8837 34.1603 43.8837 34.1603 43.8493 33.96C43.8363 33.8877 43.8233 33.8153 43.8099 33.7408C43.7973 33.6659 43.7847 33.591 43.7717 33.5138C43.7457 33.3646 43.7195 33.2155 43.693 33.0664C43.6818 33.0005 43.6706 32.9346 43.6591 32.8666C43.6318 32.6996 43.6318 32.6996 43.5471 32.547C43.5326 32.6022 43.5181 32.6573 43.5031 32.7142C43.4363 32.9648 43.3672 33.2149 43.2981 33.465C43.2753 33.5518 43.2525 33.6386 43.229 33.728C43.1939 33.8534 43.1939 33.8534 43.158 33.9813C43.1372 34.0582 43.1163 34.1352 43.0948 34.2144C42.9783 34.4703 42.8408 34.5789 42.6096 34.7345C42.4485 34.7815 42.4485 34.7815 42.2971 34.7833C42.2472 34.7859 42.1972 34.7886 42.1458 34.7913C41.874 34.6955 41.7353 34.5055 41.594 34.2657C41.4733 33.9622 41.3839 33.6525 41.2962 33.338C41.2718 33.2544 41.2475 33.1708 41.2225 33.0847C41.163 32.8797 41.1046 32.6745 41.0471 32.4689C41.0373 32.5264 41.0276 32.5839 41.0175 32.6432C40.9721 32.9044 40.9242 33.1651 40.8762 33.4259C40.8609 33.5164 40.8455 33.607 40.8297 33.7003C40.8133 33.7874 40.797 33.8745 40.7801 33.9642C40.7658 34.0444 40.7515 34.1246 40.7367 34.2072C40.6344 34.4812 40.5123 34.5817 40.2659 34.7345C39.9954 34.7298 39.8063 34.7224 39.5868 34.5564C39.3551 34.2516 39.4679 33.7831 39.5102 33.4234C39.5445 33.1903 39.5836 32.9585 39.6247 32.7264C39.6394 32.642 39.6541 32.5575 39.6692 32.4704C39.7003 32.2931 39.7318 32.1158 39.7636 31.9386C39.8118 31.668 39.8577 31.3971 39.9035 31.1261C39.9341 30.9531 39.9649 30.7802 39.9958 30.6073C40.0092 30.5267 40.0225 30.4462 40.0363 30.3631C40.1238 29.8921 40.2328 29.3875 40.7395 29.209Z" fill="black"/>
<path d="M16.1741 29.2161C16.2503 29.2162 16.3265 29.2162 16.405 29.2163C16.4893 29.2161 16.5736 29.216 16.6604 29.2158C16.7481 29.2177 16.8359 29.2195 16.9262 29.2215C17.0127 29.2206 17.0992 29.2198 17.1884 29.2189C17.8119 29.2244 18.2406 29.3235 18.7225 29.7232C19.1232 30.1872 19.2782 30.5649 19.2456 31.1795C19.1619 31.7322 18.8837 32.0971 18.4448 32.4295C18.3495 32.4957 18.2537 32.5612 18.1567 32.6248C18.216 32.687 18.2753 32.7493 18.3365 32.8134C18.4149 32.897 18.4933 32.9806 18.5717 33.0642C18.6108 33.105 18.6498 33.1458 18.69 33.1878C18.9911 33.5109 19.2546 33.8179 19.2456 34.2801C19.1723 34.4998 19.1723 34.4998 19.0454 34.6463C18.78 34.772 18.6032 34.7749 18.313 34.7342C18.1311 34.5697 18.1311 34.5697 17.9223 34.3435C17.883 34.3015 17.8438 34.2595 17.8033 34.2162C17.6779 34.0819 17.5534 33.9467 17.4292 33.8113C17.3862 33.7646 17.3433 33.718 17.299 33.6699C17.1942 33.5559 17.0895 33.4419 16.9848 33.3279C16.9828 33.4032 16.9808 33.4786 16.9787 33.5562C16.9743 33.6549 16.9699 33.7536 16.9653 33.8553C16.9599 34.0021 16.9599 34.0021 16.9543 34.1519C16.9004 34.4575 16.8437 34.555 16.5942 34.7342C16.438 34.7784 16.438 34.7784 16.2817 34.7781C16.2044 34.7807 16.2044 34.7807 16.1255 34.7833C15.8807 34.7063 15.7974 34.5528 15.6567 34.3435C15.617 34.1212 15.617 34.1212 15.6163 33.8751C15.6153 33.7825 15.6143 33.69 15.6133 33.5946C15.6139 33.4953 15.6145 33.396 15.6152 33.2937C15.6149 33.1912 15.6146 33.0886 15.6143 32.9829C15.6138 32.7662 15.6145 32.5495 15.616 32.3328C15.6177 32.0556 15.6167 31.7786 15.6148 31.5014C15.6134 31.2362 15.6144 30.971 15.6152 30.7058C15.6146 30.6065 15.6139 30.5073 15.6133 30.405C15.6143 30.3124 15.6153 30.2198 15.6163 30.1245C15.6165 30.0433 15.6168 29.962 15.617 29.8783C15.6779 29.5374 15.8295 29.299 16.1741 29.2161ZM16.9067 30.5154C16.9067 30.8248 16.9067 31.1342 16.9067 31.4529C17.4217 31.507 17.4217 31.507 17.8491 31.2576C17.899 31.1931 17.949 31.1287 18.0005 31.0623C17.9165 30.8345 17.8615 30.689 17.688 30.5154C17.4973 30.4964 17.4973 30.4964 17.2876 30.5056C17.1619 30.5089 17.0362 30.5121 16.9067 30.5154Z" fill="black"/>
<path d="M34.9535 29.2658C35.125 29.3776 35.125 29.3776 35.266 29.5783C35.3113 29.823 35.3076 30.0645 35.3053 30.3128C35.3061 30.3843 35.3068 30.4557 35.3076 30.5294C35.3098 30.7576 35.31 30.9858 35.3099 31.214C35.3102 31.442 35.3109 31.6699 35.3131 31.8978C35.3144 32.0395 35.3146 32.1813 35.3136 32.323C35.3167 32.6954 35.3324 32.9502 35.5785 33.2501C35.8678 33.443 36.1023 33.4502 36.4378 33.4064C36.7305 33.2713 36.7305 33.2713 36.9066 33.0158C36.9146 32.9117 36.918 32.8073 36.9189 32.703C36.9201 32.6064 36.9201 32.6064 36.9213 32.5078C36.9219 32.4381 36.9225 32.3683 36.9231 32.2965C36.9253 32.1492 36.9275 32.002 36.9298 31.8547C36.933 31.6222 36.9359 31.3898 36.9379 31.1573C36.9401 30.9331 36.9437 30.7091 36.9475 30.4849C36.9477 30.4157 36.948 30.3464 36.9483 30.275C36.9556 29.9027 36.9745 29.6448 37.2191 29.3439C37.4606 29.2231 37.6561 29.2428 37.9222 29.2658C38.0936 29.3717 38.0936 29.3717 38.2347 29.5783C38.282 29.8543 38.2785 30.1276 38.2762 30.4071C38.2765 30.4884 38.2768 30.5697 38.2771 30.6535C38.2773 30.8256 38.2768 30.9976 38.2755 31.1697C38.2738 31.4317 38.2754 31.6936 38.2774 31.9556C38.2772 32.123 38.2768 32.2905 38.2762 32.4579C38.2769 32.5357 38.2775 32.6135 38.2781 32.6937C38.2707 33.2539 38.1557 33.6693 37.7968 34.1058C37.1841 34.6081 36.6481 34.7958 35.847 34.769C35.2113 34.6874 34.7828 34.3823 34.3654 33.9105C34.0491 33.3836 33.9806 32.8473 33.9848 32.2431C33.9846 32.1721 33.9844 32.1012 33.9842 32.0282C33.984 31.8795 33.9844 31.7309 33.9854 31.5823C33.9867 31.3551 33.9854 31.1281 33.9839 30.9009C33.9841 30.7558 33.9844 30.6108 33.9848 30.4657C33.9844 30.3982 33.9839 30.3306 33.9834 30.261C33.9877 29.8923 34.0089 29.6423 34.2503 29.3439C34.4919 29.2231 34.6874 29.2428 34.9535 29.2658Z" fill="black"/>
<path d="M11.5585 29.2239C11.6424 29.2235 11.7264 29.2231 11.8129 29.2227C11.9002 29.2239 11.9876 29.2251 12.0776 29.2263C12.1635 29.2251 12.2493 29.2239 12.3378 29.2227C12.9355 29.2255 13.466 29.296 13.9258 29.7065C14.2993 30.0978 14.459 30.5214 14.519 31.0525C14.4914 31.6147 14.2806 32.0903 13.8647 32.4685C13.4622 32.8014 13.1027 32.879 12.5854 32.908C12.4874 32.9138 12.3894 32.9196 12.2885 32.9257C12.2141 32.9295 12.1396 32.9333 12.063 32.9373C12.0666 33.0342 12.0702 33.1312 12.0739 33.2311C12.0769 33.3594 12.0797 33.4877 12.0825 33.616C12.0864 33.7117 12.0864 33.7117 12.0904 33.8093C12.0956 34.1269 12.0875 34.3012 11.925 34.5815C11.7416 34.7419 11.6768 34.786 11.438 34.7781C11.3864 34.7782 11.3348 34.7783 11.2817 34.7784C11.0537 34.7138 10.9617 34.6044 10.813 34.4216C10.7733 34.2023 10.7733 34.2023 10.7725 33.9465C10.771 33.8026 10.771 33.8026 10.7695 33.6557C10.7701 33.5513 10.7707 33.4469 10.7714 33.3425C10.7712 33.2351 10.7709 33.1277 10.7705 33.0203C10.7701 32.7954 10.7707 32.5706 10.7722 32.3457C10.774 32.0578 10.773 31.7699 10.7711 31.482C10.77 31.2603 10.7703 31.0386 10.7711 30.8169C10.7713 30.7107 10.7711 30.6046 10.7704 30.4984C10.7696 30.35 10.771 30.2015 10.7725 30.053C10.7728 29.9686 10.773 29.8842 10.7733 29.7972C10.8551 29.3452 11.1306 29.2259 11.5585 29.2239ZM12.063 30.5154C12.063 30.9021 12.063 31.2888 12.063 31.6873C12.6733 31.7026 12.6733 31.7026 13.1469 31.3943C13.2708 31.1466 13.2398 31.0103 13.1567 30.7498C12.9838 30.5827 12.8835 30.5198 12.6428 30.4925C12.5395 30.4966 12.5395 30.4966 12.434 30.5007C12.2504 30.508 12.2504 30.508 12.063 30.5154Z" fill="black"/>
<path d="M21.2841 29.2212C21.3367 29.2207 21.3893 29.2202 21.4435 29.2197C21.5543 29.2192 21.6651 29.2194 21.776 29.2204C21.9453 29.2215 22.1143 29.2188 22.2836 29.2158C22.3915 29.2158 22.4995 29.2159 22.6074 29.2163C22.7541 29.2162 22.7541 29.2162 22.9039 29.2161C23.1567 29.2654 23.1567 29.2654 23.3476 29.4461C23.4692 29.6561 23.4692 29.6561 23.4643 29.9393C23.3944 30.1911 23.3636 30.2883 23.1567 30.4373C22.8981 30.5666 22.6105 30.5233 22.3266 30.5203C22.264 30.52 22.2013 30.5196 22.1368 30.5192C21.982 30.5183 21.8272 30.5169 21.6723 30.5154C21.6723 30.799 21.6723 31.0826 21.6723 31.3748C21.758 31.3712 21.8437 31.3676 21.932 31.3638C22.0457 31.3609 22.1593 31.358 22.2729 31.3553C22.3293 31.3527 22.3856 31.35 22.4437 31.3473C22.7428 31.3419 22.8913 31.3564 23.1552 31.5127C23.32 31.6951 23.3665 31.7589 23.3618 31.9998C23.3628 32.0514 23.3638 32.1029 23.3648 32.1561C23.2806 32.4099 23.1498 32.4901 22.9223 32.6248C22.704 32.6608 22.4934 32.6546 22.2729 32.6443C22.2151 32.6429 22.1572 32.6415 22.0976 32.6401C21.9558 32.6364 21.814 32.6308 21.6723 32.6248C21.6723 32.9084 21.6723 33.192 21.6723 33.4842C21.8093 33.4801 21.8093 33.4801 21.9491 33.4759C22.0701 33.4737 22.191 33.4716 22.312 33.4695C22.4021 33.4666 22.4021 33.4666 22.494 33.4636C22.8548 33.4589 23.1047 33.4727 23.3911 33.7186C23.4573 33.8644 23.4573 33.8644 23.4741 34.0213C23.4814 34.0727 23.4888 34.124 23.4964 34.1769C23.4544 34.4345 23.3401 34.5517 23.1567 34.7342C22.9039 34.7835 22.9039 34.7835 22.6074 34.7833C22.5548 34.7835 22.5022 34.7837 22.4481 34.7839C22.3372 34.7838 22.2264 34.7828 22.1156 34.7808C21.9462 34.7781 21.7773 34.7792 21.6079 34.7807C21.5 34.7802 21.3921 34.7794 21.2841 34.7784C21.1863 34.7776 21.0885 34.7767 20.9877 34.7759C20.6834 34.7257 20.6096 34.6618 20.4223 34.4217C20.3826 34.2023 20.3826 34.2023 20.3819 33.9465C20.3804 33.8026 20.3804 33.8026 20.3789 33.6558C20.3795 33.5514 20.3801 33.447 20.3808 33.3426C20.3806 33.2352 20.3803 33.1278 20.3799 33.0204C20.3795 32.7955 20.3801 32.5707 20.3816 32.3458C20.3834 32.0578 20.3823 31.77 20.3805 31.482C20.3793 31.2603 20.3797 31.0386 20.3805 30.8169C20.3807 30.7108 20.3805 30.6046 20.3797 30.4985C20.3789 30.35 20.3804 30.2015 20.3819 30.0531C20.3821 29.9687 20.3824 29.8843 20.3826 29.7973C20.4761 29.2809 20.8146 29.2253 21.2841 29.2212Z" fill="black"/>
<path d="M32.063 29.2139C32.1403 29.2154 32.1403 29.2154 32.2192 29.2169C32.2708 29.2159 32.3223 29.2149 32.3755 29.2139C32.6187 29.2946 32.7033 29.4471 32.8442 29.6564C32.8839 29.8787 32.8839 29.8787 32.8846 30.1248C32.8856 30.2174 32.8866 30.3099 32.8876 30.4053C32.887 30.5046 32.8864 30.6039 32.8857 30.7062C32.886 30.8087 32.8863 30.9113 32.8866 31.017C32.8871 31.2337 32.8864 31.4504 32.8849 31.6671C32.8832 31.9443 32.8842 32.2213 32.8861 32.4985C32.8875 32.7637 32.8865 33.0289 32.8857 33.2941C32.8863 33.3934 32.887 33.4927 32.8876 33.595C32.8866 33.6875 32.8857 33.7801 32.8846 33.8754C32.8843 33.9973 32.8843 33.9973 32.8839 34.1216C32.8341 34.4004 32.7266 34.5327 32.5317 34.7345C32.3755 34.7864 32.3755 34.7864 32.2192 34.7833C32.1676 34.7843 32.1161 34.7853 32.063 34.7864C31.8197 34.7056 31.7351 34.5531 31.5942 34.3439C31.5545 34.1216 31.5545 34.1216 31.5538 33.8754C31.5528 33.7829 31.5518 33.6903 31.5508 33.595C31.5514 33.4957 31.552 33.3964 31.5527 33.2941C31.5524 33.1915 31.5521 33.0889 31.5518 32.9833C31.5513 32.7665 31.552 32.5499 31.5535 32.3331C31.5552 32.056 31.5542 31.7789 31.5523 31.5017C31.5509 31.2365 31.5519 30.9714 31.5527 30.7062C31.5521 30.6069 31.5514 30.5076 31.5508 30.4053C31.5518 30.3127 31.5528 30.2202 31.5538 30.1248C31.554 30.0436 31.5543 29.9624 31.5545 29.8787C31.6096 29.57 31.7542 29.3164 32.063 29.2139Z" fill="black"/>
</g>
<defs>
<clipPath id="clip0_301_248">
<rect width="40" height="40" fill="white" transform="translate(8 12)"/>
</clipPath>
</defs>
</svg>
