<svg width="60" height="60" viewBox="0 0 60 60" fill="none" xmlns="http://www.w3.org/2000/svg">
<path d="M52.7344 48.4261H50.2148V45.7575C50.2148 45.5399 50.1284 45.3313 49.9746 45.1775C49.8207 45.0236 49.6121 44.9372 49.3945 44.9372H47.8125V22.5C47.8126 22.3429 47.7675 22.1891 47.6826 22.0569C47.5978 21.9247 47.4767 21.8196 47.3339 21.7542L33.6647 15.4955V7.26563C33.6647 7.04807 33.5783 6.83942 33.4244 6.68558C33.2706 6.53174 33.0619 6.44531 32.8444 6.44531H13.0097C12.9018 6.44507 12.7949 6.4661 12.6952 6.50722C12.5955 6.54833 12.5048 6.60872 12.4284 6.68491C12.3521 6.76111 12.2915 6.85163 12.2501 6.95127C12.2088 7.05092 12.1875 7.15774 12.1875 7.26563V44.9372H10.6055C10.3879 44.9372 10.1793 45.0236 10.0254 45.1775C9.87158 45.3313 9.78516 45.5399 9.78516 45.7575V48.4256H7.26562C7.04806 48.4256 6.83941 48.5121 6.68558 48.6659C6.53174 48.8197 6.44531 49.0284 6.44531 49.2459V52.7344C6.44531 52.9519 6.53174 53.1606 6.68558 53.3144C6.83941 53.4683 7.04806 53.5547 7.26562 53.5547H52.7344C52.9519 53.5547 53.1606 53.4683 53.3144 53.3144C53.4683 53.1606 53.5547 52.9519 53.5547 52.7344V49.2464C53.5547 49.0288 53.4683 48.8202 53.3144 48.6664C53.1606 48.5125 52.9519 48.4261 52.7344 48.4261ZM46.1719 36.7542H38.8767V34.8047H46.1719V36.7542ZM46.1719 29.2542H38.8767V27.3047H46.1719V29.2542ZM46.1719 23.0264V25.6641H38.0564C37.8388 25.6641 37.6302 25.7505 37.4764 25.9043C37.3225 26.0582 37.2361 26.2668 37.2361 26.4844V30.0745C37.2361 30.2921 37.3225 30.5007 37.4764 30.6546C37.6302 30.8084 37.8388 30.8948 38.0564 30.8948H46.1719V33.1641H38.0564C37.8388 33.1641 37.6302 33.2505 37.4764 33.4043C37.3225 33.5582 37.2361 33.7668 37.2361 33.9844V37.5745C37.2361 37.7921 37.3225 38.0007 37.4764 38.1546C37.6302 38.3084 37.8388 38.3948 38.0564 38.3948H46.1719V44.9372H33.6647V17.2997L46.1719 23.0264ZM13.8281 8.08594H32.0241V44.9372H13.8281V8.08594ZM11.4258 46.5778H48.5742V48.4256H11.4258V46.5778ZM51.9141 51.9141H8.08594V50.0667H51.9141V51.9141Z" fill="white"/>
<path d="M28.9842 10.6641H16.9922C16.7746 10.6641 16.566 10.7505 16.4121 10.9043C16.2583 11.0582 16.1719 11.2668 16.1719 11.4844V15.0745C16.1719 15.2921 16.2583 15.5007 16.4121 15.6546C16.566 15.8084 16.7746 15.8948 16.9922 15.8948H28.9842C29.2018 15.8948 29.4104 15.8084 29.5643 15.6546C29.7181 15.5007 29.8045 15.2921 29.8045 15.0745V11.4844C29.8045 11.2668 29.7181 11.0582 29.5643 10.9043C29.4104 10.7505 29.2018 10.6641 28.9842 10.6641ZM28.1639 14.2542H17.8125V12.3047H28.1639V14.2542Z" fill="white"/>
<path d="M16.9922 23.3948H20.5823C20.7999 23.3948 21.0086 23.3084 21.1624 23.1546C21.3162 23.0007 21.4027 22.7921 21.4027 22.5745V18.9844C21.4027 18.7668 21.3162 18.5582 21.1624 18.4043C21.0086 18.2505 20.7999 18.1641 20.5823 18.1641H16.9922C16.7746 18.1641 16.566 18.2505 16.4121 18.4043C16.2583 18.5582 16.1719 18.7668 16.1719 18.9844V22.5745C16.1719 22.7921 16.2583 23.0007 16.4121 23.1546C16.566 23.3084 16.7746 23.3948 16.9922 23.3948ZM17.8125 19.8047H19.762V21.7542H17.8125V19.8047Z" fill="white"/>
<path d="M28.9847 18.1641H25.3945C25.177 18.1641 24.9683 18.2505 24.8145 18.4043C24.6606 18.5582 24.5742 18.7668 24.5742 18.9844V22.5745C24.5742 22.7921 24.6606 23.0007 24.8145 23.1546C24.9683 23.3084 25.177 23.3948 25.3945 23.3948H28.9847C29.2022 23.3948 29.4109 23.3084 29.5647 23.1546C29.7186 23.0007 29.805 22.7921 29.805 22.5745V18.9844C29.805 18.7668 29.7186 18.5582 29.5647 18.4043C29.4109 18.2505 29.2022 18.1641 28.9847 18.1641ZM28.1644 21.7542H26.2148V19.8047H28.1644V21.7542Z" fill="white"/>
<path d="M28.9842 25.6641H16.9922C16.7746 25.6641 16.566 25.7505 16.4121 25.9043C16.2583 26.0582 16.1719 26.2668 16.1719 26.4844V30.0745C16.1719 30.2921 16.2583 30.5007 16.4121 30.6546C16.566 30.8084 16.7746 30.8948 16.9922 30.8948H28.9842C29.2018 30.8948 29.4104 30.8084 29.5643 30.6546C29.7181 30.5007 29.8045 30.2921 29.8045 30.0745V26.4844C29.8045 26.2668 29.7181 26.0582 29.5643 25.9043C29.4104 25.7505 29.2018 25.6641 28.9842 25.6641ZM28.1639 29.2542H17.8125V27.3047H28.1639V29.2542Z" fill="white"/>
<path d="M20.5823 33.1641H16.9922C16.7746 33.1641 16.566 33.2505 16.4121 33.4043C16.2583 33.5582 16.1719 33.7668 16.1719 33.9844V37.5745C16.1719 37.7921 16.2583 38.0007 16.4121 38.1546C16.566 38.3084 16.7746 38.3948 16.9922 38.3948H20.5823C20.7999 38.3948 21.0086 38.3084 21.1624 38.1546C21.3162 38.0007 21.4027 37.7921 21.4027 37.5745V33.9844C21.4027 33.7668 21.3162 33.5582 21.1624 33.4043C21.0086 33.2505 20.7999 33.1641 20.5823 33.1641ZM19.762 36.7542H17.8125V34.8047H19.762V36.7542Z" fill="white"/>
<path d="M28.9847 33.1641H25.3945C25.177 33.1641 24.9683 33.2505 24.8145 33.4043C24.6606 33.5582 24.5742 33.7668 24.5742 33.9844V37.5745C24.5742 37.7921 24.6606 38.0007 24.8145 38.1546C24.9683 38.3084 25.177 38.3948 25.3945 38.3948H28.9847C29.2022 38.3948 29.4109 38.3084 29.5647 38.1546C29.7186 38.0007 29.805 37.7921 29.805 37.5745V33.9844C29.805 33.7668 29.7186 33.5582 29.5647 33.4043C29.4109 33.2505 29.2022 33.1641 28.9847 33.1641ZM28.1644 36.7542H26.2148V34.8047H28.1644V36.7542Z" fill="white"/>
</svg>
