<svg width="60" height="60" viewBox="0 0 60 60" fill="none" xmlns="http://www.w3.org/2000/svg">
<path d="M52.7344 51.9141H42.5977V34.4827H44.5898C44.8074 34.4827 45.0161 34.3962 45.1699 34.2424C45.3237 34.0886 45.4102 33.8799 45.4102 33.6623V28.3889C45.4099 28.2168 45.3551 28.0493 45.2536 27.9103C45.2536 27.9075 45.2536 27.9042 45.2498 27.9014L42.4373 24.0928C42.361 23.9896 42.2616 23.9057 42.1469 23.8479C42.0323 23.7901 41.9057 23.76 41.7773 23.76H39.6562V14.9006H40.9458C41.1633 14.9006 41.372 14.8142 41.5258 14.6604C41.6797 14.5065 41.7661 14.2979 41.7661 14.0803V10.125C41.7658 9.95213 41.7105 9.78384 41.6081 9.64453C41.6081 9.64219 41.6081 9.63984 41.6058 9.6375L39.4964 6.77813C39.4201 6.6749 39.3206 6.59102 39.206 6.53322C39.0914 6.47542 38.9648 6.44531 38.8364 6.44531H21.1645C21.0362 6.44531 20.9096 6.47542 20.7949 6.53322C20.6803 6.59102 20.5809 6.6749 20.5045 6.77813L18.3952 9.6375V9.64313C18.2915 9.78248 18.2352 9.95133 18.2344 10.125V14.0817C18.2344 14.2993 18.3208 14.5079 18.4746 14.6618C18.6285 14.8156 18.8371 14.902 19.0547 14.902H20.3438V23.7614H18.2227C18.0943 23.7614 17.9677 23.7915 17.8531 23.8493C17.7384 23.9071 17.639 23.991 17.5627 24.0942L14.7502 27.9028V27.9084C14.647 28.048 14.5912 28.2168 14.5908 28.3903V33.6638C14.5908 33.7715 14.612 33.8781 14.6532 33.9777C14.6944 34.0772 14.7549 34.1676 14.831 34.2438C14.9072 34.32 14.9976 34.3804 15.0972 34.4216C15.1967 34.4628 15.3034 34.4841 15.4111 34.4841H17.4033V51.9141H7.26562C7.04806 51.9141 6.83941 52.0005 6.68558 52.1543C6.53174 52.3082 6.44531 52.5168 6.44531 52.7344C6.44531 52.9519 6.53174 53.1606 6.68558 53.3144C6.83941 53.4683 7.04806 53.5547 7.26562 53.5547H52.7344C52.9519 53.5547 53.1606 53.4683 53.3144 53.3144C53.4683 53.1606 53.5547 52.9519 53.5547 52.7344C53.5547 52.5168 53.4683 52.3082 53.3144 52.1543C53.1606 52.0005 52.9519 51.9141 52.7344 51.9141ZM43.7695 32.842H33.457V29.2092H43.7695V32.842ZM31.8164 32.842H28.1836V29.2092H31.8164V32.842ZM28.1836 34.4827H31.8164V37.2014L30.5208 36.1364C30.374 36.0156 30.1898 35.9496 29.9998 35.9496C29.8097 35.9496 29.6255 36.0156 29.4788 36.1364L28.1831 37.2014L28.1836 34.4827ZM41.3634 25.4006L42.9647 27.5686H39.6562V25.4006H41.3634ZM40.125 13.2595H32.7984V10.9434H40.125V13.2595ZM31.1569 13.2595H28.8422V10.9434H31.1578L31.1569 13.2595ZM28.8412 14.9002H31.1569V16.2998L30.5198 15.7762C30.3731 15.6555 30.1889 15.5894 29.9988 15.5894C29.8087 15.5894 29.6246 15.6555 29.4778 15.7762L28.8422 16.2998L28.8412 14.9002ZM39.3211 9.30281H32.55L32.1009 8.08406H38.4225L39.3211 9.30281ZM30.3516 8.08594L30.8006 9.30469H29.1994L29.6484 8.08594H30.3516ZM21.5775 8.08594H27.8995L27.4505 9.30469H20.6789L21.5775 8.08594ZM19.8736 10.9453H27.2016V13.2614H19.875L19.8736 10.9453ZM27.2016 14.9002V18.0361C27.2016 18.1915 27.2457 18.3437 27.3289 18.475C27.4121 18.6063 27.5309 18.7113 27.6714 18.7777C27.8119 18.8441 27.9684 18.8692 28.1227 18.8501C28.2769 18.831 28.4226 18.7685 28.5427 18.6698L30 17.4717L31.4573 18.6698C31.5774 18.7685 31.7231 18.831 31.8773 18.8501C32.0316 18.8692 32.1881 18.8441 32.3286 18.7777C32.4691 18.7113 32.5879 18.6063 32.6711 18.475C32.7543 18.3437 32.7984 18.1915 32.7984 18.0361V14.9002H38.0156V27.5686H21.9844V14.9002H27.2016ZM18.637 25.4002H20.3438V27.5681H17.0358L18.637 25.4002ZM16.2309 29.2088H26.5434V32.8416H16.2309V29.2088ZM19.0434 34.4822H26.5434V38.9353C26.5434 39.0907 26.5876 39.243 26.6708 39.3743C26.754 39.5056 26.8727 39.6105 27.0133 39.6769C27.1538 39.7433 27.3103 39.7685 27.4645 39.7494C27.6188 39.7303 27.7644 39.6677 27.8845 39.5691L30 37.8281L32.1159 39.5677C32.236 39.6663 32.3817 39.7289 32.5359 39.748C32.6902 39.7671 32.8467 39.7419 32.9872 39.6755C33.1277 39.6091 33.2465 39.5042 33.3297 39.3729C33.4129 39.2416 33.457 39.0893 33.457 38.9339V34.4808H40.957V51.9141H19.043L19.0434 34.4822Z" fill="#191A1F"/>
</svg>
