<svg width="40" height="40" viewBox="0 0 40 40" fill="none" xmlns="http://www.w3.org/2000/svg">
<path d="M9.03332 11.1466L9.41863 10.9397V16.8491C9.41863 16.9941 9.47625 17.1332 9.57881 17.2358C9.68137 17.3383 9.82047 17.3959 9.96551 17.3959H12.7961C12.9412 17.3959 13.0803 17.3383 13.1828 17.2358C13.2854 17.1332 13.343 16.9941 13.343 16.8491V14.3416H15.1902V16.8491C15.1902 16.9941 15.2478 17.1332 15.3504 17.2358C15.4529 17.3383 15.592 17.3959 15.7371 17.3959H18.5677C18.7127 17.3959 18.8518 17.3383 18.9544 17.2358C19.057 17.1332 19.1146 16.9941 19.1146 16.8491V10.9409L19.5083 11.1494C19.5718 11.183 19.6413 11.2038 19.7128 11.2106C19.7843 11.2174 19.8564 11.21 19.9251 11.1889C19.9937 11.1678 20.0576 11.1334 20.1129 11.0876C20.1683 11.0419 20.2141 10.9857 20.2477 10.9222C20.2813 10.8587 20.3021 10.7893 20.3089 10.7178C20.3157 10.6463 20.3083 10.5741 20.2872 10.5055C20.2661 10.4368 20.2317 10.373 20.186 10.3176C20.1402 10.2623 20.084 10.2165 20.0205 10.1828L14.4893 7.2522C14.41 7.21004 14.3217 7.18799 14.2319 7.18799C14.1422 7.18799 14.0538 7.21004 13.9746 7.2522L8.51582 10.1828C8.45254 10.2168 8.39657 10.2629 8.3511 10.3185C8.30563 10.3741 8.27156 10.4381 8.25083 10.5068C8.23009 10.5756 8.2231 10.6477 8.23026 10.7192C8.23742 10.7907 8.25858 10.86 8.29254 10.9233C8.36112 11.0511 8.47767 11.1464 8.61653 11.1883C8.68529 11.209 8.75746 11.216 8.82892 11.2089C8.90038 11.2017 8.97004 11.1805 9.03332 11.1466ZM14.2349 8.35532L18.0208 10.3613V16.3019H16.2839V13.7947C16.2839 13.6497 16.2263 13.5106 16.1238 13.408C16.0212 13.3054 15.8821 13.2478 15.7371 13.2478H12.7961C12.6511 13.2478 12.512 13.3054 12.4094 13.408C12.3069 13.5106 12.2493 13.6497 12.2493 13.7947V16.3022H10.5124V10.3531L14.2349 8.35532Z" fill="#191A1F"/>
<path d="M8.73145 20.2624H20.4977C20.6427 20.2624 20.7818 20.2048 20.8844 20.1023C20.987 19.9997 21.0446 19.8606 21.0446 19.7156C21.0446 19.5705 20.987 19.4314 20.8844 19.3289C20.7818 19.2263 20.6427 19.1687 20.4977 19.1687H8.73145C8.58641 19.1687 8.44731 19.2263 8.34475 19.3289C8.24219 19.4314 8.18457 19.5705 8.18457 19.7156C8.18457 19.8606 8.24219 19.9997 8.34475 20.1023C8.44731 20.2048 8.58641 20.2624 8.73145 20.2624Z" fill="#191A1F"/>
<path d="M8.73145 22.8384H14.3302C14.4752 22.8384 14.6143 22.7808 14.7169 22.6782C14.8195 22.5756 14.8771 22.4365 14.8771 22.2915C14.8771 22.1465 14.8195 22.0074 14.7169 21.9048C14.6143 21.8022 14.4752 21.7446 14.3302 21.7446H8.73145C8.58641 21.7446 8.44731 21.8022 8.34475 21.9048C8.24219 22.0074 8.18457 22.1465 8.18457 22.2915C8.18457 22.4365 8.24219 22.5756 8.34475 22.6782C8.44731 22.7808 8.58641 22.8384 8.73145 22.8384Z" fill="#191A1F"/>
<path d="M18.5674 24.321H8.73145C8.58641 24.321 8.44731 24.3787 8.34475 24.4812C8.24219 24.5838 8.18457 24.7229 8.18457 24.8679C8.18457 25.013 8.24219 25.1521 8.34475 25.2546C8.44731 25.3572 8.58641 25.4148 8.73145 25.4148H18.5674C18.7124 25.4148 18.8515 25.3572 18.9541 25.2546C19.0566 25.1521 19.1143 25.013 19.1143 24.8679C19.1143 24.7229 19.0566 24.5838 18.9541 24.4812C18.8515 24.3787 18.7124 24.321 18.5674 24.321Z" fill="#191A1F"/>
<path d="M8.73145 27.9907H14.3302C14.4752 27.9907 14.6143 27.9331 14.7169 27.8305C14.8195 27.728 14.8771 27.5889 14.8771 27.4438C14.8771 27.2988 14.8195 27.1597 14.7169 27.0571C14.6143 26.9546 14.4752 26.897 14.3302 26.897H8.73145C8.58641 26.897 8.44731 26.9546 8.34475 27.0571C8.24219 27.1597 8.18457 27.2988 8.18457 27.4438C8.18457 27.5889 8.24219 27.728 8.34475 27.8305C8.44731 27.9331 8.58641 27.9907 8.73145 27.9907Z" fill="#191A1F"/>
<path d="M18.5674 29.4731H8.73145C8.58641 29.4731 8.44731 29.5308 8.34475 29.6333C8.24219 29.7359 8.18457 29.875 8.18457 30.02C8.18457 30.1651 8.24219 30.3042 8.34475 30.4067C8.44731 30.5093 8.58641 30.5669 8.73145 30.5669H18.5674C18.7124 30.5669 18.8515 30.5093 18.9541 30.4067C19.0566 30.3042 19.1143 30.1651 19.1143 30.02C19.1143 29.875 19.0566 29.7359 18.9541 29.6333C18.8515 29.5308 18.7124 29.4731 18.5674 29.4731Z" fill="#191A1F"/>
<path d="M14.3304 32.0491H8.77441C8.62937 32.0491 8.49027 32.1067 8.38772 32.2092C8.28516 32.3118 8.22754 32.4509 8.22754 32.5959C8.22754 32.741 8.28516 32.8801 8.38772 32.9826C8.49027 33.0852 8.62937 33.1428 8.77441 33.1428H14.3304C14.4754 33.1428 14.6145 33.0852 14.7171 32.9826C14.8196 32.8801 14.8772 32.741 14.8772 32.5959C14.8772 32.4509 14.8196 32.3118 14.7171 32.2092C14.6145 32.1067 14.4754 32.0491 14.3304 32.0491Z" fill="#191A1F"/>
<path d="M34.4523 28.6056L32.9373 21.0141C32.92 20.9273 32.8819 20.846 32.8262 20.7772C32.7706 20.7084 32.6991 20.6541 32.6179 20.6191C32.5367 20.584 32.4482 20.5691 32.3599 20.5757C32.2717 20.5824 32.1864 20.6103 32.1113 20.6572C31.7564 20.8796 31.3547 21.0167 30.9378 21.0576C30.521 21.0985 30.1003 21.042 29.7089 20.8928C29.3175 20.7435 28.9661 20.5055 28.6824 20.1974C28.3986 19.8892 28.1902 19.5195 28.0735 19.1172C28.0586 19.0711 28.0376 19.0273 28.011 18.9869V9.375C28.011 9.22999 27.9533 9.09094 27.8507 8.98844L23.3195 4.45719C23.217 4.35461 23.0779 4.29695 22.9329 4.29688H6.00635C5.86131 4.29687 5.72221 4.35449 5.61965 4.45705C5.51709 4.55961 5.45947 4.69871 5.45947 4.84375V35.1562C5.45947 35.3013 5.51709 35.4404 5.61965 35.5429C5.72221 35.6455 5.86131 35.7031 6.00635 35.7031H27.4638C27.5017 35.7031 27.5394 35.6991 27.5763 35.6912C27.5817 35.6912 27.5867 35.6878 27.592 35.6862C27.6231 35.6791 27.6535 35.6691 27.6829 35.6566H27.6873L31.4498 33.9753C33.652 32.99 34.8867 30.7812 34.4523 28.6056ZM23.4798 6.16406L26.1435 8.82781H23.4798V6.16406ZM6.55322 5.39062H22.386V9.375C22.386 9.52004 22.4437 9.65914 22.5462 9.7617C22.6488 9.86426 22.7879 9.92188 22.9329 9.92188H26.917V18.9869C26.8904 19.0273 26.8694 19.0711 26.8545 19.1172C26.7377 19.5194 26.5292 19.8891 26.2454 20.1971C25.9616 20.5051 25.6102 20.743 25.2188 20.8922C24.8274 21.0413 24.4068 21.0977 23.99 21.0567C23.5732 21.0158 23.1715 20.8787 22.8167 20.6562C22.7416 20.6094 22.6563 20.5814 22.5681 20.5748C22.4799 20.5682 22.3913 20.583 22.3101 20.6181C22.2289 20.6532 22.1574 20.7075 22.1018 20.7763C22.0461 20.8451 22.008 20.9264 21.9907 21.0131L20.4754 28.6056C20.041 30.7825 21.2757 32.99 23.4782 33.9744L24.8998 34.6097H6.55322V5.39062ZM31.0032 32.9756L27.4638 34.5572L23.9245 32.9756C22.1642 32.1888 21.2092 30.5187 21.5495 28.8194L22.9245 21.9237C23.3488 22.0827 23.7982 22.1642 24.2513 22.1644C24.8922 22.1616 25.5222 21.998 26.0834 21.6886C26.6447 21.3792 27.1193 20.9339 27.4638 20.3934C27.8083 20.9338 28.2829 21.3792 28.8441 21.6886C29.4053 21.998 30.0352 22.1616 30.676 22.1644C31.1293 22.1642 31.5788 22.0827 32.0032 21.9237L33.3782 28.8194C33.7185 30.5187 32.7638 32.1875 31.0032 32.9756Z" fill="#191A1F"/>
<path d="M29.8811 25.5851L26.6649 29.4717L24.8274 27.7089C24.7227 27.6084 24.5824 27.5537 24.4374 27.5568C24.2924 27.5598 24.1545 27.6203 24.0541 27.7249C23.9537 27.8296 23.899 27.9699 23.902 28.1149C23.905 28.2599 23.9655 28.3978 24.0702 28.4982L26.3324 30.6679C26.4342 30.7656 26.5697 30.8201 26.7108 30.8201H26.742C26.8171 30.8158 26.8905 30.7961 26.9576 30.7622C27.0247 30.7282 27.0841 30.6808 27.132 30.6229L30.7236 26.2814C30.8161 26.1695 30.8603 26.0254 30.8465 25.8809C30.8328 25.7365 30.7622 25.6033 30.6503 25.5109C30.5384 25.4184 30.3944 25.3742 30.2499 25.388C30.1054 25.4017 29.9723 25.4723 29.8799 25.5842L29.8811 25.5851Z" fill="#191A1F"/>
</svg>
