<svg width="60" height="60" viewBox="0 0 60 60" fill="none" xmlns="http://www.w3.org/2000/svg">
<g clip-path="url(#clip0_228_1711)">
<path d="M27.9624 6.95329C28.0858 6.95305 28.2092 6.95271 28.3327 6.95227C28.5903 6.95175 28.848 6.9525 29.1056 6.95415C29.4343 6.95615 29.7628 6.955 30.0914 6.95289C30.346 6.95162 30.6005 6.95203 30.8551 6.95294C30.9762 6.95317 31.0973 6.95289 31.2184 6.95207C31.9935 6.94794 32.603 6.96479 33.1939 7.51806C33.2331 7.57368 33.2723 7.62931 33.3127 7.68663C33.3533 7.74158 33.3938 7.79652 33.4356 7.85314C33.7132 8.3721 33.7448 8.87552 33.7463 9.45131C33.7486 9.60031 33.7508 9.74931 33.753 9.89831C33.7556 10.1311 33.7577 10.3639 33.7593 10.5967C33.7612 10.8229 33.7647 11.0489 33.7683 11.275C33.7683 11.3797 33.7683 11.3797 33.7683 11.4864C33.7721 11.8511 33.7721 11.8511 33.9154 12.1784C34.1025 12.2928 34.2763 12.3567 34.4869 12.419C34.6129 12.4579 34.6129 12.4579 34.7415 12.4976C34.832 12.5251 34.9224 12.5527 35.0156 12.581C36.173 12.9481 37.3355 13.4134 38.3751 14.0495C38.6269 14.1479 38.7388 14.1261 38.9927 14.0312C39.1811 13.8696 39.3473 13.7114 39.5169 13.532C39.5902 13.4571 39.5902 13.4571 39.6649 13.3806C39.8207 13.2211 39.9753 13.0605 40.1297 12.8996C40.2839 12.7395 40.4383 12.5796 40.5936 12.4206C40.6901 12.3217 40.7859 12.2223 40.8809 12.1221C41.3463 11.6446 41.8192 11.4231 42.4808 11.367C43.3664 11.3865 43.9369 11.9668 44.5263 12.5632C44.6065 12.643 44.6867 12.7227 44.7693 12.8049C44.938 12.9729 45.1059 13.1417 45.2732 13.3111C45.4865 13.527 45.7018 13.7408 45.9177 13.954C46.1252 14.1595 46.3309 14.3667 46.5368 14.5737C46.6137 14.6497 46.6906 14.7257 46.7699 14.804C47.2777 15.3218 47.5911 15.7482 47.6389 16.4922C47.5772 17.7555 46.4158 18.5697 45.5718 19.3787C45.4955 19.4534 45.4193 19.5281 45.3407 19.6051C45.2714 19.6719 45.2022 19.7388 45.1308 19.8077C44.9504 20.031 44.899 20.1625 44.8813 20.4472C44.9729 20.6689 45.068 20.865 45.1835 21.0735C45.782 22.2131 46.2695 23.3893 46.6478 24.6201C46.6989 24.7834 46.7564 24.9447 46.8149 25.1054C47.0959 25.246 47.4018 25.209 47.7107 25.2119C47.8587 25.2143 48.0067 25.2169 48.1547 25.2194C48.3877 25.223 48.6206 25.2263 48.8536 25.2286C49.0787 25.2311 49.3038 25.2351 49.5289 25.2393C49.5973 25.2396 49.6657 25.2399 49.7362 25.2402C50.3573 25.2539 50.8918 25.3932 51.4127 25.7372C51.8661 26.2116 52.0437 26.6752 52.0442 27.33C52.0425 27.4026 52.0407 27.4751 52.0389 27.5499C52.0395 27.6242 52.0402 27.6984 52.0408 27.775C52.0352 28.3141 52.0352 28.3141 51.8781 28.5099C51.6921 28.6562 51.5758 28.6564 51.3413 28.654C51.2733 28.6547 51.2053 28.6554 51.1353 28.6561C50.9458 28.6211 50.9458 28.6211 50.7954 28.5287C50.6245 28.2702 50.6123 27.994 50.5832 27.6927C50.5508 27.265 50.5508 27.265 50.4184 26.8633C50.0737 26.7484 49.744 26.7617 49.3847 26.7599C49.2285 26.7579 49.0724 26.7558 48.9162 26.7536C48.6707 26.7505 48.4253 26.7479 48.1797 26.7467C47.9423 26.7454 47.705 26.7418 47.4676 26.7379C47.3951 26.7381 47.3227 26.7383 47.2481 26.7385C46.6221 26.7254 46.1646 26.5432 45.6998 26.1217C45.3095 25.5986 45.1422 24.9203 44.9369 24.3089C44.656 23.4788 44.3203 22.7063 43.9128 21.9305C43.8185 21.75 43.7257 21.5689 43.6337 21.3873C43.6049 21.3305 43.5761 21.2738 43.5464 21.2153C43.3101 20.7092 43.3215 20.145 43.4922 19.6205C43.7769 18.93 44.3645 18.4607 44.8978 17.9588C45.0582 17.8069 45.2181 17.6546 45.377 17.5011C45.4753 17.4063 45.5745 17.3123 45.6746 17.2194C45.9475 16.957 46.0878 16.7851 46.1118 16.4043C46.0122 16.2223 46.0122 16.2223 45.8497 16.0666C45.7639 15.9759 45.7639 15.9759 45.6763 15.8833C45.617 15.8232 45.5577 15.7631 45.4966 15.7012C45.4444 15.6463 45.3922 15.5914 45.3385 15.5349C45.1793 15.3681 45.018 15.2036 44.8559 15.0396C44.7974 14.9803 44.7388 14.921 44.6785 14.86C44.5558 14.7361 44.4331 14.6124 44.3102 14.4889C44.1849 14.3625 44.0599 14.2358 43.9354 14.1086C43.7542 13.9237 43.5719 13.7399 43.3892 13.5564C43.3338 13.4995 43.2785 13.4425 43.2214 13.3839C42.9983 13.1619 42.8281 12.9992 42.534 12.8808C42.2725 12.891 42.1937 12.9575 42.006 13.1376C41.9456 13.1946 41.8853 13.2517 41.8231 13.3105C41.7591 13.3743 41.6952 13.4381 41.6294 13.5039C41.5624 13.5705 41.4954 13.6372 41.4264 13.7059C41.1397 13.9949 40.8555 14.2863 40.5728 14.5793C40.0149 15.1471 39.5287 15.5712 38.7125 15.6352C38.0557 15.5922 37.5472 15.3351 36.9767 15.02C35.9255 14.4408 34.797 14.0505 33.6519 13.7006C33.2163 13.5338 32.8554 13.3191 32.5931 12.9271C32.5581 12.8762 32.5231 12.8254 32.487 12.773C32.2666 12.3945 32.295 11.9996 32.2882 11.5758C32.2866 11.4988 32.285 11.4217 32.2833 11.3423C32.2764 11.0126 32.2705 10.6829 32.2644 10.3531C32.2599 10.1125 32.2549 9.87185 32.2498 9.63121C32.248 9.51914 32.248 9.51914 32.2462 9.40481C32.24 9.11031 32.2309 8.8632 32.1372 8.58201C31.8378 8.4258 31.5862 8.3841 31.2514 8.38349C31.1649 8.38293 31.0784 8.38238 30.9892 8.38181C30.8505 8.38234 30.8505 8.38234 30.709 8.38289C30.6131 8.38272 30.5172 8.38255 30.4184 8.38238C30.216 8.38226 30.0136 8.38258 29.8112 8.38331C29.5016 8.38426 29.1921 8.38332 28.8825 8.3822C28.6856 8.38231 28.4888 8.38254 28.292 8.38289C28.1995 8.38253 28.107 8.38217 28.0117 8.38181C27.8819 8.38264 27.8819 8.38264 27.7495 8.38349C27.6359 8.3837 27.6359 8.3837 27.5199 8.38391C27.2705 8.4096 27.086 8.46605 26.8638 8.58201C26.7489 8.9267 26.7622 9.25641 26.7604 9.61576C26.7584 9.77191 26.7563 9.92807 26.7541 10.0842C26.751 10.3297 26.7484 10.5752 26.7472 10.8207C26.7458 11.0581 26.7423 11.2955 26.7384 11.5329C26.7386 11.6053 26.7388 11.6778 26.7389 11.7524C26.7257 12.3852 26.5444 12.8465 26.1057 13.3061C25.5854 13.6934 24.9352 13.8539 24.3259 14.0477C23.7679 14.2275 23.2344 14.45 22.6999 14.6904C22.6279 14.7227 22.5558 14.755 22.4816 14.7883C22.0568 14.9827 21.6505 15.1952 21.2492 15.4346C20.7353 15.6852 20.1582 15.6831 19.621 15.5082C18.9305 15.2235 18.4612 14.6359 17.9593 14.1026C17.8074 13.9423 17.6551 13.7824 17.5016 13.6234C17.4068 13.5251 17.3128 13.426 17.2199 13.3259C16.9575 13.0529 16.7856 12.9126 16.4048 12.8887C16.2228 12.9882 16.2228 12.9882 16.0671 13.1507C16.0066 13.208 15.9461 13.2652 15.8838 13.3241C15.8237 13.3835 15.7636 13.4428 15.7016 13.5039C15.6468 13.5561 15.5919 13.6082 15.5353 13.662C15.3686 13.8212 15.2041 13.9824 15.0401 14.1445C14.9808 14.2031 14.9215 14.2617 14.8604 14.322C14.7366 14.4446 14.6129 14.5674 14.4893 14.6902C14.363 14.8156 14.2362 14.9405 14.1091 15.0651C13.9242 15.2463 13.7404 15.4286 13.5569 15.6112C13.5 15.6666 13.443 15.722 13.3844 15.7791C13.1623 16.0022 12.9996 16.1722 12.8815 16.4665C12.8914 16.7271 12.9562 16.8054 13.1353 16.9927C13.1924 17.0531 13.2494 17.1136 13.3082 17.1758C13.7449 17.6105 14.1872 18.0395 14.6365 18.4611C15.2061 19.0149 15.5541 19.5221 15.6522 20.3209C15.5617 21.0322 15.2505 21.6231 14.9275 22.2551C14.4234 23.25 14.0245 24.2788 13.7011 25.3454C13.5354 25.783 13.3208 26.1443 12.9276 26.4073C12.8767 26.4423 12.8259 26.4773 12.7734 26.5134C12.395 26.7338 12.0001 26.7054 11.5763 26.7122C11.4992 26.7138 11.4222 26.7154 11.3428 26.7171C11.0131 26.724 10.6834 26.73 10.3536 26.736C10.113 26.7406 9.87233 26.7456 9.6317 26.7507C9.55698 26.7518 9.48227 26.753 9.4053 26.7543C9.1108 26.7605 8.86369 26.7695 8.5825 26.8633C8.42629 27.1627 8.38459 27.4143 8.38397 27.749C8.38342 27.8356 8.38287 27.9221 8.3823 28.0112C8.38265 28.1037 8.38301 28.1962 8.38337 28.2915C8.38312 28.4353 8.38312 28.4353 8.38286 28.582C8.38274 28.7844 8.38307 28.9869 8.3838 29.1893C8.38474 29.4988 8.38381 29.8084 8.38269 30.118C8.3828 30.3148 8.38303 30.5116 8.38337 30.7085C8.38302 30.801 8.38266 30.8934 8.3823 30.9887C8.38285 31.0752 8.3834 31.1618 8.38397 31.2509C8.38411 31.3267 8.38425 31.4025 8.3844 31.4805C8.41008 31.7299 8.46654 31.9144 8.5825 32.1367C8.92719 32.2516 9.2569 32.2382 9.61625 32.24C9.7724 32.2421 9.92856 32.2442 10.0847 32.2464C10.3302 32.2495 10.5757 32.252 10.8212 32.2532C11.0586 32.2546 11.296 32.2581 11.5334 32.262C11.6058 32.2618 11.6782 32.2617 11.7529 32.2615C12.3788 32.2746 12.8364 32.4567 13.3011 32.8783C13.6915 33.4014 13.8588 34.0796 14.064 34.691C14.345 35.5211 14.6807 36.2936 15.0881 37.0695C15.1824 37.2499 15.2753 37.431 15.3672 37.6127C15.396 37.6694 15.4248 37.7262 15.4545 37.7847C15.6908 38.2908 15.6794 38.855 15.5087 39.3794C15.224 40.07 14.6364 40.5392 14.1031 41.0411C13.9428 41.1931 13.7828 41.3454 13.6239 41.4988C13.5256 41.5937 13.4265 41.6876 13.3264 41.7806C13.0534 42.0429 12.9131 42.2149 12.8891 42.5957C12.9887 42.7776 12.9887 42.7776 13.1512 42.9334C13.2084 42.9938 13.2657 43.0543 13.3246 43.1167C13.3839 43.1768 13.4433 43.2369 13.5044 43.2988C13.5565 43.3537 13.6087 43.4086 13.6625 43.4651C13.8217 43.6319 13.9829 43.7964 14.145 43.9604C14.2329 44.0493 14.2329 44.0493 14.3225 44.14C14.4451 44.2638 14.5679 44.3875 14.6907 44.5111C14.8161 44.6375 14.941 44.7642 15.0656 44.8913C15.2467 45.0763 15.4291 45.26 15.6117 45.4435C15.6671 45.5005 15.7225 45.5574 15.7796 45.6161C16.0027 45.8381 16.1727 46.0008 16.467 46.119C16.7276 46.1091 16.8059 46.0443 16.9932 45.8651C17.0536 45.8081 17.1141 45.751 17.1763 45.6922C17.611 45.2555 18.04 44.8133 18.4616 44.364C19.0154 43.7943 19.5226 43.4463 20.3214 43.3482C21.0327 43.4388 21.6236 43.7499 22.2556 44.0729C23.2505 44.577 24.2793 44.976 25.3459 45.2993C25.7835 45.4651 26.1448 45.6797 26.4078 46.0729C26.4428 46.1237 26.4778 46.1746 26.5139 46.227C26.7343 46.6055 26.7059 47.0003 26.7127 47.4242C26.7151 47.5397 26.7151 47.5397 26.7176 47.6576C26.7245 47.9873 26.7305 48.3171 26.7365 48.6468C26.7411 48.8875 26.7461 49.1281 26.7511 49.3688C26.7523 49.4435 26.7535 49.5182 26.7548 49.5951C26.761 49.8896 26.77 50.1368 26.8638 50.4179C27.1632 50.5742 27.4148 50.6159 27.7495 50.6165C27.8361 50.617 27.9226 50.6176 28.0117 50.6181C28.1042 50.6178 28.1967 50.6174 28.292 50.6171C28.3879 50.6172 28.4837 50.6174 28.5825 50.6176C28.7849 50.6177 28.9873 50.6174 29.1898 50.6166C29.4993 50.6157 29.8089 50.6166 30.1185 50.6178C30.3153 50.6176 30.5121 50.6174 30.709 50.6171C30.8014 50.6174 30.8939 50.6178 30.9892 50.6181C31.119 50.6173 31.119 50.6173 31.2514 50.6165C31.3651 50.6163 31.3651 50.6163 31.481 50.616C31.7304 50.5904 31.9149 50.5339 32.1372 50.4179C32.2521 50.0733 32.2387 49.7435 32.2405 49.3842C32.2426 49.228 32.2447 49.0719 32.2469 48.9157C32.25 48.6702 32.2525 48.4248 32.2537 48.1792C32.2551 47.9418 32.2586 47.7045 32.2625 47.4671C32.2623 47.3946 32.2622 47.3222 32.262 47.2476C32.275 46.6217 32.4572 46.1641 32.8788 45.6993C33.4018 45.309 34.0801 45.1417 34.6915 44.9365C35.5216 44.6555 36.2941 44.3198 37.0699 43.9123C37.2504 43.818 37.4315 43.7252 37.6132 43.6332C37.6699 43.6044 37.7267 43.5756 37.7851 43.546C38.2912 43.3096 38.8555 43.321 39.3799 43.4918C40.0705 43.7764 40.5397 44.364 41.0416 44.8973C41.1935 45.0577 41.3459 45.2176 41.4993 45.3765C41.5942 45.4748 41.6881 45.574 41.7811 45.6741C42.0434 45.947 42.2154 46.0874 42.5962 46.1113C42.7781 46.0117 42.7781 46.0117 42.9338 45.8492C42.9943 45.792 43.0548 45.7348 43.1171 45.6758C43.1773 45.6165 43.2374 45.5572 43.2993 45.4961C43.3542 45.4439 43.409 45.3917 43.4656 45.338C43.6324 45.1788 43.7969 45.0175 43.9609 44.8554C44.0202 44.7969 44.0794 44.7383 44.1405 44.678C44.2643 44.5553 44.388 44.4326 44.5116 44.3097C44.6379 44.1844 44.7647 44.0594 44.8918 43.9349C45.0768 43.7537 45.2605 43.5714 45.444 43.3888C45.501 43.3334 45.5579 43.278 45.6166 43.2209C45.8386 42.9978 46.0013 42.8277 46.1195 42.5335C46.1095 42.2729 46.0448 42.1946 45.8656 42.0072C45.8086 41.9468 45.7515 41.8864 45.6927 41.8242C45.256 41.3895 44.8138 40.9605 44.3645 40.5388C43.7948 39.9851 43.4468 39.4779 43.3487 38.6791C43.4393 37.9678 43.7504 37.3769 44.0734 36.7448C44.5775 35.75 44.9764 34.7211 45.2998 33.6545C45.4655 33.217 45.6802 32.8556 46.0733 32.5926C46.1242 32.5576 46.1751 32.5226 46.2275 32.4865C46.606 32.2661 47.0008 32.2945 47.4247 32.2878C47.5402 32.2853 47.5402 32.2853 47.6581 32.2829C47.9878 32.2759 48.3176 32.27 48.6473 32.2639C48.888 32.2594 49.1286 32.2544 49.3692 32.2493C49.444 32.2481 49.5187 32.2469 49.5956 32.2457C49.8901 32.2395 50.1372 32.2304 50.4184 32.1367C50.6333 31.733 50.626 31.3313 50.6433 30.8836C50.6821 30.6426 50.6821 30.6426 50.7923 30.4805C50.9869 30.3517 51.1091 30.3436 51.3413 30.3459C51.4093 30.3452 51.4772 30.3446 51.5473 30.3439C51.7849 30.3878 51.8506 30.4558 52.0005 30.6426C52.0554 30.9089 52.0412 31.1786 52.0389 31.4501C52.0407 31.5226 52.0424 31.5952 52.0442 31.6699C52.0438 32.2752 51.9012 32.7461 51.4824 33.1934C51.4268 33.2326 51.3711 33.2718 51.3138 33.3122C51.2314 33.3731 51.2314 33.3731 51.1473 33.4351C50.6283 33.7127 50.1249 33.7443 49.5491 33.7458C49.4001 33.7481 49.2511 33.7503 49.1021 33.7525C48.8693 33.7551 48.6365 33.7572 48.4037 33.7588C48.1776 33.7607 47.9515 33.7642 47.7254 33.7678C47.6557 33.7678 47.5859 33.7678 47.514 33.7679C47.1493 33.7716 47.1493 33.7716 46.822 33.9149C46.7076 34.102 46.6437 34.2758 46.5815 34.4864C46.5555 34.5704 46.5296 34.6545 46.5029 34.7411C46.4753 34.8315 46.4478 34.9219 46.4194 35.0151C46.0524 36.1725 45.587 37.335 44.951 38.3746C44.8525 38.6264 44.8744 38.7383 44.9692 38.9922C45.1309 39.1806 45.289 39.3468 45.4684 39.5164C45.5184 39.5653 45.5684 39.6141 45.6198 39.6644C45.7793 39.8202 45.94 39.9748 46.1008 40.1292C46.261 40.2834 46.4208 40.4378 46.5799 40.5931C46.6787 40.6896 46.7782 40.7854 46.8783 40.8804C47.3567 41.3467 47.5836 41.8207 47.6279 42.4858C47.6064 43.3767 47.118 43.8519 46.5145 44.4486C46.4318 44.5316 46.3491 44.6147 46.2665 44.6979C46.0938 44.8712 45.9204 45.0437 45.7463 45.2157C45.5244 45.4351 45.3046 45.6564 45.0853 45.8783C44.9152 46.05 44.744 46.2207 44.5725 46.3911C44.4518 46.5114 44.3319 46.6325 44.2121 46.7537C43.6876 47.2685 43.2621 47.5896 42.5083 47.6384C41.245 47.5767 40.4307 46.4153 39.6218 45.5713C39.5471 45.495 39.4724 45.4188 39.3954 45.3402C39.2951 45.2363 39.2951 45.2363 39.1927 45.1303C38.9694 44.95 38.838 44.8985 38.5532 44.8808C38.3315 44.9724 38.1354 45.0675 37.927 45.183C36.7873 45.7815 35.6111 46.269 34.3803 46.6473C34.2171 46.6984 34.0558 46.7559 33.895 46.8144C33.7545 47.0954 33.7914 47.4013 33.7886 47.7102C33.7861 47.8582 33.7836 48.0062 33.781 48.1542C33.7774 48.3872 33.7742 48.6201 33.7718 48.8531C33.7694 49.0782 33.7654 49.3033 33.7611 49.5284C33.7608 49.5968 33.7605 49.6652 33.7602 49.7357C33.7466 50.3568 33.6073 50.8913 33.2633 51.4122C32.5887 52.0568 31.9293 52.0527 31.0386 52.0467C30.9151 52.0469 30.7917 52.0472 30.6683 52.0477C30.4106 52.0482 30.153 52.0475 29.8953 52.0458C29.5667 52.0438 29.2381 52.045 28.9095 52.0471C28.6549 52.0483 28.4004 52.0479 28.1458 52.047C28.0247 52.0468 27.9036 52.0471 27.7825 52.0479C27.0074 52.052 26.3979 52.0352 25.807 51.4819C25.7678 51.4263 25.7286 51.3706 25.6882 51.3133C25.6274 51.2309 25.6274 51.2309 25.5653 51.1468C25.2877 50.6279 25.2562 50.1244 25.2546 49.5487C25.2524 49.3997 25.2502 49.2506 25.2479 49.1016C25.2454 48.8688 25.2433 48.6361 25.2416 48.4032C25.2397 48.1771 25.2363 47.951 25.2326 47.7249C25.2326 47.6203 25.2326 47.6203 25.2326 47.5135C25.2288 47.1488 25.2288 47.1488 25.0856 46.8216C24.8985 46.7072 24.7246 46.6433 24.514 46.581C24.388 46.5421 24.388 46.5421 24.2594 46.5024C24.169 46.4748 24.0785 46.4473 23.9853 46.4189C22.828 46.0519 21.6654 45.5865 20.6258 44.9505C20.3741 44.852 20.2621 44.8739 20.0083 44.9687C19.8198 45.1304 19.6537 45.2885 19.484 45.4679C19.4352 45.5179 19.3863 45.5679 19.336 45.6193C19.1802 45.7789 19.0256 45.9395 18.8712 46.1003C18.717 46.2605 18.5626 46.4203 18.4073 46.5794C18.3109 46.6782 18.2151 46.7777 18.12 46.8779C17.6538 47.3563 17.1798 47.5831 16.5146 47.6274C15.6238 47.6059 15.1486 47.1175 14.5519 46.514C14.4688 46.4313 14.3857 46.3486 14.3026 46.266C14.1292 46.0933 13.9567 45.9199 13.7847 45.7458C13.5654 45.524 13.3441 45.3041 13.1222 45.0848C12.9504 44.9147 12.7798 44.7435 12.6094 44.572C12.4891 44.4513 12.3679 44.3314 12.2467 44.2116C11.732 43.6871 11.4109 43.2616 11.362 42.5078C11.4237 41.2445 12.5851 40.4302 13.4292 39.6213C13.5054 39.5466 13.5817 39.4719 13.6602 39.3949C13.7641 39.2946 13.7641 39.2946 13.8701 39.1923C14.0505 38.9689 14.102 38.8375 14.1196 38.5527C14.0281 38.3311 13.9329 38.1349 13.8175 37.9265C13.2189 36.7868 12.7314 35.6106 12.3532 34.3798C12.302 34.2166 12.2446 34.0553 12.186 33.8945C11.905 33.754 11.5991 33.7909 11.2903 33.7881C11.1423 33.7856 10.9942 33.7831 10.8462 33.7805C10.6132 33.7769 10.3803 33.7737 10.1473 33.7713C9.92221 33.7689 9.69715 33.7649 9.47205 33.7606C9.36942 33.7602 9.36942 33.7602 9.26471 33.7597C8.6436 33.7461 8.10913 33.6068 7.58824 33.2628C6.94368 32.5883 6.94771 31.9288 6.95378 31.0381C6.95354 30.9146 6.9532 30.7912 6.95276 30.6678C6.95224 30.4101 6.95299 30.1525 6.95464 29.8948C6.95664 29.5662 6.95549 29.2376 6.95338 28.909C6.9521 28.6545 6.95252 28.3999 6.95343 28.1453C6.95366 28.0242 6.95338 27.9031 6.95255 27.7821C6.94843 27.007 6.96527 26.3974 7.51854 25.8065C7.57417 25.7673 7.6298 25.7281 7.68712 25.6877C7.74206 25.6472 7.79701 25.6066 7.85363 25.5648C8.37259 25.2872 8.87601 25.2557 9.45179 25.2541C9.6008 25.2519 9.7498 25.2497 9.8988 25.2474C10.1316 25.2449 10.3644 25.2428 10.5972 25.2411C10.8233 25.2392 11.0494 25.2358 11.2755 25.2321C11.3802 25.2321 11.3802 25.2321 11.4869 25.2321C11.8516 25.2283 11.8516 25.2283 12.1789 25.0851C12.2933 24.898 12.3572 24.7241 12.4195 24.5136C12.4454 24.4295 12.4713 24.3455 12.4981 24.2589C12.5256 24.1685 12.5531 24.078 12.5815 23.9848C12.9486 22.8275 13.4139 21.6649 14.05 20.6253C14.1484 20.3736 14.1266 20.2616 14.0317 20.0078C13.8701 19.8193 13.7119 19.6532 13.5325 19.4835C13.4576 19.4103 13.4576 19.4103 13.3811 19.3355C13.2216 19.1797 13.061 19.0251 12.9001 18.8707C12.74 18.7165 12.5801 18.5621 12.421 18.4068C12.3222 18.3104 12.2228 18.2146 12.1226 18.1195C11.6442 17.6533 11.4174 17.1793 11.373 16.5141C11.3945 15.6233 11.8829 15.1481 12.4864 14.5514C12.5692 14.4683 12.6518 14.3852 12.7344 14.3021C12.9071 14.1287 13.0806 13.9562 13.2546 13.7842C13.4765 13.5649 13.6963 13.3436 13.9156 13.1217C14.0858 12.9499 14.2569 12.7793 14.4285 12.6089C14.5492 12.4886 14.669 12.3674 14.7889 12.2462C15.3133 11.7315 15.7389 11.4104 16.4927 11.3616C17.756 11.4232 18.5702 12.5847 19.3791 13.4287C19.4539 13.5049 19.5286 13.5812 19.6056 13.6598C19.6724 13.729 19.7393 13.7983 19.8082 13.8697C20.0315 14.05 20.163 14.1015 20.4477 14.1191C20.6694 14.0276 20.8655 13.9324 21.074 13.817C22.2136 13.2184 23.3898 12.7309 24.6206 12.3527C24.7839 12.3015 24.9452 12.2441 25.1059 12.1855C25.2464 11.9045 25.2095 11.5986 25.2124 11.2898C25.2148 11.1418 25.2174 10.9937 25.2199 10.8457C25.2235 10.6128 25.2268 10.3798 25.2291 10.1469C25.2316 9.92173 25.2356 9.69666 25.2398 9.47156C25.2401 9.40314 25.2404 9.33472 25.2407 9.26423C25.2544 8.64311 25.3937 8.10864 25.7377 7.58775C26.4122 6.94319 27.0717 6.94722 27.9624 6.95329Z" fill="white"/>
<path d="M28.4945 17.3271C28.6454 17.5896 28.6662 17.7762 28.6761 18.0742C28.5847 18.3649 28.4412 18.4446 28.1814 18.6015C27.8743 18.6905 27.5622 18.7434 27.2476 18.7993C25.3548 19.1756 23.637 20.0266 22.2049 21.3262C22.1598 21.3669 22.1147 21.4076 22.0683 21.4496C20.1166 23.2378 18.7402 25.8764 18.5855 28.5424C18.4616 31.6515 19.2703 34.5207 21.3771 36.8616C22.9139 38.524 24.696 39.5164 26.8631 40.1348C26.9225 40.1519 26.9818 40.169 27.043 40.1867C29.6611 40.9032 32.6697 40.3223 34.9988 38.998C35.7911 38.53 36.479 37.9526 37.1463 37.3223C37.2122 37.262 37.2781 37.2017 37.3461 37.1396C38.7859 35.7755 39.5981 34.017 40.1345 32.1367C40.1517 32.0773 40.1688 32.0179 40.1865 31.9567C40.8933 29.3741 40.3325 26.4163 39.0524 24.1057C37.6057 21.6096 35.2833 19.7194 32.4881 18.9531C32.1189 18.8687 31.748 18.7934 31.3746 18.7306C30.9589 18.6554 30.6778 18.5709 30.3787 18.25C30.3025 18.0078 30.3261 17.7937 30.3787 17.5469C30.505 17.3271 30.505 17.3271 30.7302 17.1953C31.3054 17.127 31.8555 17.244 32.4112 17.3821C32.492 17.4019 32.5728 17.4218 32.656 17.4422C34.7594 17.9785 36.5429 19.0513 38.1131 20.5351C38.1898 20.6052 38.2665 20.6752 38.3455 20.7473C40.3831 22.6771 41.7921 25.6385 41.9033 28.4586C41.9836 32.0842 41.0985 35.3282 38.5759 38.0298C36.3886 40.313 33.4321 41.8411 30.2283 41.9104C26.6125 41.9474 23.4376 40.94 20.7882 38.4019C18.4892 36.1409 17.1191 33.1398 17.086 29.8993C17.0782 26.3104 18.2397 23.1861 20.7766 20.6066C22.1628 19.2367 26.4037 16.1032 28.4945 17.3271Z" fill="white"/>
<path d="M35.8207 24.881C36.3304 25.2609 36.6736 25.7516 36.8555 26.3635C36.9386 27.0787 36.9387 27.7737 36.4755 28.3652C35.8313 29.0681 35.1624 29.7458 34.4907 30.4222C34.4274 30.4859 34.3642 30.5497 34.299 30.6153C33.965 30.9517 33.6307 31.2877 33.2961 31.6235C33.0207 31.9001 32.7459 32.1773 32.4717 32.4551C32.1384 32.7928 31.804 33.1293 31.4688 33.4651C31.342 33.5925 31.2156 33.7203 31.0896 33.8484C30.9132 34.0276 30.7355 34.2053 30.5574 34.3827C30.5064 34.4352 30.4554 34.4876 30.4029 34.5416C29.9523 34.9855 29.4594 35.2553 28.83 35.3475C27.2331 35.3327 26.4702 34.3926 25.3895 33.3175C25.3118 33.2403 25.2341 33.1631 25.1541 33.0835C24.9914 32.9217 24.8288 32.7597 24.6664 32.5976C24.4187 32.3507 24.17 32.1048 23.9213 31.8589C23.7625 31.7006 23.6037 31.5423 23.4449 31.3839C23.3711 31.3112 23.2973 31.2384 23.2213 31.1635C22.5247 30.4643 22.1108 29.9158 22.0898 28.9123C22.0952 28.1696 22.2869 27.5727 22.8204 27.0391C23.5141 26.508 24.1424 26.3952 24.9981 26.4435C25.9898 26.6827 26.6233 27.461 27.3083 28.1652C27.419 28.2776 27.5297 28.3899 27.6405 28.5022C27.9098 28.7753 28.1779 29.0495 28.4454 29.3243C28.9546 28.9025 29.418 28.447 29.8812 27.9757C30.0398 27.8156 30.1984 27.6555 30.3571 27.4954C30.6046 27.2452 30.8519 26.9948 31.0987 26.7438C31.3386 26.5002 31.5794 26.2573 31.8203 26.0146C31.8931 25.9402 31.9659 25.8658 32.0409 25.789C33.0788 24.7466 34.3937 24.0419 35.8207 24.881ZM33.7541 26.2325C33.6935 26.2887 33.6328 26.3449 33.5703 26.4027C33.2119 26.7505 32.8573 27.1018 32.5061 27.4569C32.3659 27.5987 32.2254 27.7401 32.0848 27.8814C31.6856 28.2828 31.2869 28.6846 30.8886 29.0868C30.6436 29.3341 30.3983 29.5809 30.1527 29.8275C30.0596 29.9212 29.9667 30.015 29.8739 30.109C29.7446 30.24 29.6147 30.3704 29.4848 30.5008C29.4112 30.575 29.3375 30.6493 29.2617 30.7258C28.9758 30.9825 28.8086 31.0793 28.4232 31.0901C27.9576 30.9545 27.7231 30.6848 27.3956 30.3381C27.3311 30.2723 27.2667 30.2065 27.2004 30.1388C26.9952 29.9289 26.7919 29.7174 26.5887 29.5055C26.3848 29.2943 26.1804 29.0834 25.9753 28.8733C25.8478 28.7426 25.7211 28.6113 25.5952 28.4792C25.5085 28.3899 25.5085 28.3899 25.42 28.2988C25.3698 28.2464 25.3195 28.1939 25.2677 28.1399C24.9973 27.9164 24.7575 27.8282 24.408 27.8356C24.0525 27.9444 23.8801 28.1013 23.6115 28.3575C23.4672 28.6459 23.4671 28.9257 23.5236 29.2364C23.8586 29.839 24.4109 30.3251 24.8944 30.8064C24.9746 30.8867 25.0547 30.967 25.1373 31.0498C25.3058 31.2185 25.4746 31.387 25.6437 31.5552C25.8596 31.7701 26.0747 31.9858 26.2896 32.2018C26.4961 32.4091 26.7033 32.6157 26.9104 32.8224C26.9873 32.8996 27.0641 32.9767 27.1432 33.0563C27.2154 33.1279 27.2876 33.1995 27.3619 33.2733C27.4249 33.3362 27.488 33.399 27.5529 33.4638C27.9074 33.7766 28.2151 33.9651 28.7035 33.9399C29.4965 33.7419 30.3317 32.5502 30.9002 31.9819C31.0268 31.8556 31.1535 31.7292 31.2802 31.6028C31.5443 31.3392 31.8083 31.0754 32.0722 30.8114C32.4104 30.4732 32.7493 30.1356 33.0883 29.7981C33.3495 29.5379 33.6102 29.2773 33.8709 29.0165C33.9957 28.8918 34.1207 28.7673 34.2458 28.6428C34.4202 28.4693 34.594 28.2952 34.7677 28.121C34.8452 28.0443 34.8452 28.0443 34.9243 27.9659C35.2631 27.6316 35.2631 27.6316 35.4767 27.2149C35.4696 26.7683 35.4612 26.5969 35.1691 26.2536C35.0966 26.1938 35.024 26.134 34.9493 26.0723C34.9203 26.0433 34.8913 26.0143 34.8615 25.9844C34.4214 25.8997 34.0884 25.9218 33.7541 26.2325Z" fill="white"/>
</g>
<defs>
<clipPath id="clip0_228_1711">
<rect width="45" height="45" fill="white" transform="translate(7 7)"/>
</clipPath>
</defs>
</svg>
