<svg width="60" height="60" viewBox="0 0 60 60" fill="none" xmlns="http://www.w3.org/2000/svg">
<path d="M41.582 35.5125C41.5552 35.4973 41.5275 35.4837 41.4991 35.4717C40.5776 35.0268 39.6213 34.6579 38.6397 34.3687C38.97 33.9115 39.2636 33.4287 39.5177 32.925L40.9427 32.7881C41.1457 32.7687 41.3343 32.6742 41.4715 32.5232C41.6087 32.3723 41.6847 32.1756 41.6847 31.9716V30.6094C41.7608 30.7018 41.8564 30.7764 41.9647 30.8276C42.0729 30.8789 42.1912 30.9057 42.3109 30.9061C43.6885 30.907 45.0154 30.3873 46.0259 29.451C47.0363 28.5146 47.6554 27.231 47.7592 25.8574C47.8629 24.4838 47.4437 23.1217 46.5854 22.0442C45.7271 20.9668 44.4933 20.2535 43.1312 20.0475V17.543C43.1322 11.4239 37.2409 6.44531 30.0002 6.44531C22.7594 6.44531 16.8681 11.4239 16.8681 17.543V20.047C15.5061 20.253 14.2723 20.9663 13.414 22.0438C12.5557 23.1212 12.1364 24.4833 12.2402 25.8569C12.344 27.2305 12.9631 28.5142 13.9735 29.4505C14.9839 30.3868 16.3109 30.9066 17.6884 30.9056C17.906 30.9056 18.1146 30.8192 18.2685 30.6654C18.4223 30.5115 18.5087 30.3029 18.5087 30.0853V29.9531H19.5002C19.7747 31.5472 20.4105 33.0574 21.3587 34.3678C20.3802 34.6562 19.4267 35.0238 18.5078 35.467C18.4756 35.4806 18.4443 35.4963 18.4141 35.5139C15.1919 37.096 12.4754 39.5463 10.5706 42.5888C8.66584 45.6313 7.64837 49.1453 7.63281 52.7348C7.63305 52.842 7.65451 52.9481 7.69595 53.0469C7.73739 53.1458 7.79798 53.2354 7.87425 53.3107C7.95051 53.386 8.04092 53.4455 8.14028 53.4857C8.23963 53.5258 8.34596 53.546 8.45312 53.5448C8.67174 53.5425 8.88059 53.4539 9.03422 53.2983C9.18784 53.1428 9.27382 52.9329 9.27344 52.7142C9.28877 49.5084 10.1787 46.3675 11.8472 43.6301C13.5158 40.8927 15.8997 38.6625 18.7422 37.1798L24.9086 41.91C25.0525 42.0205 25.229 42.0801 25.4104 42.0796C25.5918 42.0791 25.768 42.0185 25.9112 41.9072L26.6683 41.3194L29.0678 43.7906L26.2581 52.4827C26.223 52.5857 26.2086 52.6947 26.216 52.8033C26.2234 52.9119 26.2523 53.018 26.3011 53.1153C26.3499 53.2126 26.4175 53.2992 26.5001 53.3701C26.5827 53.441 26.6786 53.4948 26.7822 53.5283C26.8858 53.5617 26.995 53.5743 27.1035 53.5651C27.212 53.5559 27.3175 53.5253 27.414 53.4749C27.5105 53.4245 27.5961 53.3554 27.6656 53.2717C27.7351 53.1879 27.7873 53.0912 27.8191 52.987L30.0002 46.2398L32.1808 52.9866C32.2125 53.0907 32.2647 53.1875 32.3342 53.2712C32.4038 53.355 32.4893 53.4241 32.5858 53.4744C32.6823 53.5248 32.7879 53.5555 32.8963 53.5646C33.0048 53.5738 33.114 53.5613 33.2176 53.5278C33.3212 53.4943 33.4171 53.4406 33.4997 53.3697C33.5823 53.2988 33.65 53.2121 33.6988 53.1148C33.7475 53.0175 33.7765 52.9114 33.7838 52.8028C33.7912 52.6942 33.7769 52.5852 33.7417 52.4822L30.9325 43.7902L33.332 41.3189L34.0891 41.9063C34.2324 42.0175 34.4085 42.0782 34.5899 42.0787C34.7713 42.0792 34.9478 42.0195 35.0917 41.9091L41.2544 37.1794C44.0968 38.662 46.4808 40.8922 48.1493 43.6296C49.8179 46.367 50.7078 49.5079 50.7231 52.7138V52.7344C50.7234 52.8415 50.7448 52.9476 50.7863 53.0465C50.8277 53.1453 50.8883 53.2349 50.9646 53.3102C51.0408 53.3855 51.1312 53.445 51.2306 53.4852C51.3299 53.5254 51.4363 53.5455 51.5434 53.5444C51.7621 53.542 51.9709 53.4534 52.1245 53.2979C52.2782 53.1423 52.3641 52.9324 52.3637 52.7138C52.3459 49.1272 51.3272 45.6168 49.4224 42.5778C47.5175 39.5388 44.8022 37.0919 41.582 35.5125ZM20.6641 21.6605C20.3908 19.4245 20.3177 15.4687 22.6202 12.8747C24.1745 11.1244 26.6045 10.2441 29.8581 10.2441C30.8595 10.249 31.8594 10.3212 32.8511 10.4602C32.8698 10.4602 32.8881 10.4644 32.9064 10.4658C34.5908 10.6897 36.1282 11.5423 37.21 12.8527C38.7409 14.6981 39.3827 17.3995 39.1216 20.8908C37.1105 20.0691 35.4425 18.5818 34.3966 16.6777C34.2125 16.3137 34.053 15.9378 33.9189 15.5527C33.8651 15.3998 33.7672 15.2663 33.6376 15.169C33.5079 15.0717 33.3524 15.015 33.1906 15.006C33.0287 14.997 32.8679 15.0362 32.7283 15.1185C32.5887 15.2009 32.4766 15.3228 32.4063 15.4688C31.9592 16.3628 31.233 17.0868 30.3377 17.5313C28.728 18.377 27.0154 19.0104 25.2428 19.4156C23.5258 19.8595 22.0928 20.2303 20.6641 21.6605ZM41.4916 28.3125H40.6516C40.6516 28.2558 40.6558 28.1995 40.6558 28.1428V22.5703H41.4916V28.3125ZM46.135 25.4409C46.1338 26.3121 45.8356 27.1568 45.2897 27.8356C44.7438 28.5145 43.9828 28.9869 43.1322 29.175V21.7078C43.9826 21.8961 44.7435 22.3686 45.2893 23.0474C45.8351 23.7262 46.1333 24.5708 46.1345 25.4419L46.135 25.4409ZM18.5087 17.543C18.5087 12.3281 23.665 8.08594 30.0002 8.08594C36.3353 8.08594 41.4916 12.3281 41.4916 17.543V20.9297H40.7603C41.0355 17.0391 40.2705 13.9716 38.4728 11.805C37.1092 10.1586 35.1685 9.09478 33.047 8.83078C27.6948 8.11125 23.7723 9.10453 21.3916 11.7839C18.9644 14.5167 18.7375 18.3398 18.9353 20.9283H18.5069V17.543H18.5087ZM13.8658 25.4419C13.867 24.5707 14.1651 23.7259 14.711 23.047C15.2569 22.3681 16.018 21.8955 16.8686 21.7073V29.1764C16.0179 28.9883 15.2568 28.5158 14.7109 27.8368C14.165 27.1579 13.8669 26.3131 13.8658 25.4419ZM18.5087 28.3125V22.5703H19.1322C19.218 23.0995 19.3023 23.4792 19.3445 23.6569V28.1438C19.3445 28.2009 19.3478 28.2567 19.3487 28.3134L18.5087 28.3125ZM20.9852 23.8219C22.4158 21.8452 23.6514 21.5208 25.6534 21.0033C27.5503 20.5643 29.3829 19.8836 31.1064 18.9778C31.8157 18.61 32.4531 18.1178 32.9884 17.5247C34.6689 20.7244 37.7186 22.1367 39.0152 22.6134V28.1447C39.0135 29.2534 38.8059 30.3522 38.403 31.3852L32.2 31.9786C31.9562 31.4586 31.5366 31.0415 31.0152 30.8007C30.4938 30.5599 29.9042 30.5109 29.3502 30.6624C28.7963 30.8138 28.3136 31.156 27.9873 31.6286C27.661 32.1012 27.512 32.6738 27.5667 33.2455C27.6213 33.8171 27.8761 34.3512 28.286 34.7534C28.6959 35.1556 29.2347 35.4002 29.8073 35.444C30.3799 35.4877 30.9496 35.3279 31.4159 34.9927C31.8822 34.6575 32.2152 34.1684 32.3561 33.6117L37.5123 33.1172C36.4441 34.7334 34.8834 35.9623 33.0617 36.6216C31.2399 37.2809 29.2542 37.3354 27.3991 36.7772C25.5439 36.2189 23.918 35.0776 22.7627 33.5224C21.6073 31.9672 20.984 30.0811 20.9852 28.1438V23.8219ZM25.4064 40.223L20.4428 36.4139C21.1282 36.1467 21.8302 35.9239 22.5442 35.7469C23.9405 37.1187 25.688 38.0791 27.5945 38.5223L25.4064 40.223ZM30.0002 42.3952L27.9723 40.3069L29.9162 38.7975H30.0006C30.0006 38.7975 30.0564 38.7975 30.085 38.7975L32.0289 40.3069L30.0002 42.3952ZM34.5939 40.223L32.4039 38.5223C34.311 38.0793 36.059 37.1189 37.4556 35.7469C38.1697 35.9239 38.8716 36.1467 39.557 36.4139L34.5939 40.223Z" fill="#191A1F"/>
<path d="M42.8828 45.1406C42.6653 45.1406 42.4566 45.227 42.3028 45.3809C42.1489 45.5347 42.0625 45.7434 42.0625 45.9609V52.7344C42.0625 52.9519 42.1489 53.1606 42.3028 53.3144C42.4566 53.4683 42.6653 53.5547 42.8828 53.5547C43.1004 53.5547 43.309 53.4683 43.4629 53.3144C43.6167 53.1606 43.7031 52.9519 43.7031 52.7344V45.9605C43.703 45.743 43.6165 45.5345 43.4627 45.3807C43.3089 45.227 43.1003 45.1406 42.8828 45.1406Z" fill="#191A1F"/>
<path d="M17.1172 45.1406C16.8996 45.1406 16.691 45.227 16.5371 45.3809C16.3833 45.5347 16.2969 45.7434 16.2969 45.9609V52.7344C16.2969 52.9519 16.3833 53.1606 16.5371 53.3144C16.691 53.4683 16.8996 53.5547 17.1172 53.5547C17.3347 53.5547 17.5434 53.4683 17.6972 53.3144C17.8511 53.1606 17.9375 52.9519 17.9375 52.7344V45.9605C17.9374 45.743 17.8509 45.5345 17.6971 45.3807C17.5432 45.227 17.3347 45.1406 17.1172 45.1406Z" fill="#191A1F"/>
<path d="M32.5745 24.1543C32.5935 24.4727 32.7265 24.7737 32.9491 25.0021C33.1718 25.2306 33.4693 25.3712 33.7872 25.3982C34.1051 25.4252 34.422 25.3369 34.6801 25.1494C34.9381 24.9618 35.1201 24.6876 35.1925 24.377H36.6606C36.8782 24.377 37.0868 24.2905 37.2407 24.1367C37.3945 23.9829 37.4809 23.7742 37.4809 23.5566C37.4809 23.3391 37.3945 23.1304 37.2407 22.9766C37.0868 22.8228 36.8782 22.7363 36.6606 22.7363H33.1338C32.969 22.7357 32.808 22.7848 32.6716 22.8772C32.5353 22.9696 32.43 23.101 32.3695 23.2542C32.3091 23.4074 32.2963 23.5753 32.3329 23.7359C32.3695 23.8965 32.4537 24.0424 32.5745 24.1543Z" fill="#191A1F"/>
<path d="M26.0973 25.4026C26.4355 25.4018 26.7606 25.2723 27.0068 25.0405C27.2529 24.8086 27.4015 24.4918 27.4225 24.1543C27.5433 24.0424 27.6275 23.8966 27.6641 23.736C27.7007 23.5755 27.6879 23.4076 27.6276 23.2544C27.5672 23.1012 27.462 22.9698 27.3257 22.8774C27.1894 22.7849 27.0284 22.7358 26.8637 22.7363H23.3359C23.1184 22.7363 22.9097 22.8228 22.7559 22.9766C22.602 23.1304 22.5156 23.3391 22.5156 23.5566C22.5156 23.7742 22.602 23.9829 22.7559 24.1367C22.9097 24.2905 23.1184 24.377 23.3359 24.377H24.8041C24.8731 24.6683 25.0383 24.9279 25.2729 25.114C25.5075 25.3001 25.7979 25.4017 26.0973 25.4026Z" fill="#191A1F"/>
</svg>
