<svg width="60" height="60" viewBox="0 0 60 60" fill="none" xmlns="http://www.w3.org/2000/svg">
<path d="M53.2969 20.9953L43.0641 11.3081C42.912 11.1643 42.7108 11.0839 42.5016 11.0835H15.9764V10.0373C15.9818 9.56191 15.8929 9.09018 15.7147 8.64941C15.5366 8.20865 15.2727 7.80761 14.9385 7.46953C14.6042 7.13145 14.2062 6.86304 13.7675 6.67985C13.3288 6.49667 12.8581 6.40234 12.3827 6.40234C11.9073 6.40234 11.4366 6.49667 10.9979 6.67985C10.5592 6.86304 10.1612 7.13145 9.82699 7.46953C9.49275 7.80761 9.2289 8.20865 9.05074 8.64941C8.87258 9.09018 8.78363 9.56191 8.78906 10.0373V11.0835H7.26562C7.04806 11.0835 6.83941 11.17 6.68558 11.3238C6.53174 11.4776 6.44531 11.6863 6.44531 11.9039V31.2787C6.44531 31.4963 6.53174 31.7049 6.68558 31.8587C6.83941 32.0126 7.04806 32.099 7.26562 32.099H8.78906V52.7325C8.78906 52.95 8.87549 53.1587 9.02933 53.3125C9.18317 53.4663 9.39181 53.5528 9.60938 53.5528H15.1561C15.3737 53.5528 15.5823 53.4663 15.7361 53.3125C15.89 53.1587 15.9764 52.95 15.9764 52.7325V32.099H42.5002C42.7101 32.0986 42.9119 32.0177 43.0641 31.8731L53.2969 22.1868C53.3779 22.1102 53.4424 22.0178 53.4865 21.9154C53.5306 21.8129 53.5533 21.7026 53.5533 21.591C53.5533 21.4795 53.5306 21.3692 53.4865 21.2667C53.4424 21.1643 53.3779 21.0719 53.2969 20.9953ZM10.4297 10.0373C10.4257 9.77827 10.4732 9.52103 10.5696 9.28056C10.6659 9.04009 10.8091 8.82119 10.9909 8.6366C11.1727 8.452 11.3893 8.30541 11.6283 8.20535C11.8672 8.10529 12.1237 8.05375 12.3827 8.05375C12.6418 8.05375 12.8983 8.10529 13.1372 8.20535C13.3762 8.30541 13.5928 8.452 13.7746 8.6366C13.9563 8.82119 14.0995 9.04009 14.1959 9.28056C14.2922 9.52103 14.3398 9.77827 14.3358 10.0373V11.0835H10.4297V10.0373ZM14.3358 51.9121H10.4297V32.099H14.3358V51.9121ZM42.1734 30.4584H8.08594V12.7242H42.1734L51.5409 21.5915L42.1734 30.4584Z" fill="#191A1F"/>
<path d="M37.3006 18.7998L30.2666 15.0728C30.1478 15.0096 30.0153 14.9766 29.8808 14.9766C29.7463 14.9766 29.6138 15.0096 29.495 15.0728L22.5538 18.7998C22.457 18.8497 22.3712 18.9184 22.3012 19.0017C22.2313 19.0851 22.1786 19.1816 22.1463 19.2856C22.114 19.3895 22.1027 19.4988 22.1131 19.6072C22.1235 19.7155 22.1553 19.8207 22.2068 19.9167C22.2582 20.0126 22.3282 20.0973 22.4128 20.1659C22.4973 20.2345 22.5946 20.2856 22.699 20.3162C22.8035 20.3468 22.913 20.3563 23.0212 20.3441C23.1293 20.332 23.234 20.2985 23.3291 20.2455L23.6352 20.0809V27.3869C23.6352 27.6044 23.7216 27.8131 23.8754 27.9669C24.0293 28.1208 24.2379 28.2072 24.4555 28.2072H28.0555C28.273 28.2072 28.4817 28.1208 28.6355 27.9669C28.7894 27.8131 28.8758 27.6044 28.8758 27.3869V24.3231H30.9753V27.3873C30.9753 27.6049 31.0618 27.8136 31.2156 27.9674C31.3694 28.1212 31.5781 28.2077 31.7956 28.2077H35.3952C35.6127 28.2077 35.8214 28.1212 35.9752 27.9674C36.1291 27.8136 36.2155 27.6049 36.2155 27.3873V20.0814L36.5328 20.2497C36.628 20.3001 36.7322 20.3313 36.8395 20.3415C36.9467 20.3517 37.055 20.3406 37.1579 20.309C37.2609 20.2773 37.3567 20.2257 37.4397 20.1571C37.5227 20.0884 37.5914 20.0041 37.6419 19.9089C37.6923 19.8137 37.7235 19.7095 37.7337 19.6022C37.7439 19.495 37.7328 19.3868 37.7012 19.2838C37.6695 19.1808 37.6179 19.0851 37.5493 19.002C37.4806 18.919 37.3958 18.8503 37.3006 18.7998ZM34.5749 26.5666H32.616V23.5028C32.616 23.2853 32.5295 23.0766 32.3757 22.9228C32.2219 22.7689 32.0132 22.6825 31.7956 22.6825H28.0555C27.8379 22.6825 27.6293 22.7689 27.4754 22.9228C27.3216 23.0766 27.2352 23.2853 27.2352 23.5028V26.567H25.2758V19.2006L29.8845 16.7275L34.572 19.2119L34.5749 26.5666Z" fill="#191A1F"/>
<path d="M12.3827 14.9883C12.1316 14.9883 11.8862 15.0627 11.6774 15.2022C11.4687 15.3417 11.306 15.5399 11.2099 15.7719C11.1138 16.0038 11.0887 16.2591 11.1377 16.5053C11.1867 16.7515 11.3075 16.9777 11.4851 17.1552C11.6626 17.3328 11.8888 17.4537 12.135 17.5026C12.3812 17.5516 12.6365 17.5265 12.8684 17.4304C13.1004 17.3343 13.2986 17.1716 13.4381 16.9629C13.5776 16.7541 13.652 16.5087 13.652 16.2577C13.6517 15.9211 13.5178 15.5985 13.2798 15.3605C13.0419 15.1225 12.7192 14.9887 12.3827 14.9883Z" fill="#191A1F"/>
<path d="M12.3827 25.668C12.1316 25.668 11.8862 25.7424 11.6774 25.8819C11.4687 26.0214 11.306 26.2196 11.2099 26.4516C11.1138 26.6835 11.0887 26.9388 11.1377 27.185C11.1867 27.4312 11.3075 27.6574 11.4851 27.8349C11.6626 28.0125 11.8888 28.1333 12.135 28.1823C12.3812 28.2313 12.6365 28.2062 12.8684 28.1101C13.1004 28.014 13.2986 27.8513 13.4381 27.6426C13.5776 27.4338 13.652 27.1884 13.652 26.9373C13.6517 26.6008 13.5178 26.2781 13.2798 26.0402C13.0419 25.8022 12.7192 25.6683 12.3827 25.668Z" fill="#191A1F"/>
</svg>
