<svg width="60" height="60" viewBox="0 0 60 60" fill="none" xmlns="http://www.w3.org/2000/svg">
<path d="M51.603 32.7764H51.3578V24.1083V15.7031C51.3578 15.4856 51.2714 15.2769 51.1176 15.1231C50.9637 14.9692 50.7551 14.8828 50.5375 14.8828H39.8828V7.26562C39.8828 7.04806 39.7964 6.83941 39.6426 6.68558C39.4887 6.53174 39.2801 6.44531 39.0625 6.44531H19.8691C19.6515 6.44531 19.4429 6.53174 19.289 6.68558C19.1352 6.83941 19.0488 7.04806 19.0488 7.26562V14.8852H12.5959C11.2646 14.8866 9.98812 15.4162 9.04669 16.3576C8.10526 17.2991 7.57571 18.5755 7.57422 19.9069C7.57422 19.95 7.57984 19.9922 7.58078 20.0348C7.58078 20.0564 7.57422 20.0775 7.57422 20.0995V52.7344C7.57422 52.9519 7.66064 53.1606 7.81448 53.3144C7.96832 53.4683 8.17697 53.5547 8.39453 53.5547H50.5352C50.7527 53.5547 50.9614 53.4683 51.1152 53.3144C51.269 53.1606 51.3555 52.9519 51.3555 52.7344V43.9688H51.6006C51.8182 43.9688 52.0268 43.8823 52.1807 43.7285C52.3345 43.5746 52.4209 43.366 52.4209 43.1484V33.5967C52.4209 33.3796 52.3348 33.1713 52.1815 33.0175C52.0282 32.8637 51.8201 32.777 51.603 32.7764ZM43.8377 42.3281C42.7888 42.3281 41.7828 41.9115 41.0412 41.1698C40.2995 40.4281 39.8828 39.4222 39.8828 38.3733C39.8828 37.3244 40.2995 36.3185 41.0412 35.5768C41.7828 34.8351 42.7888 34.4184 43.8377 34.4184H50.7822V42.3281H43.8377ZM49.7167 16.5272V23.288H39.8828V16.5258L49.7167 16.5272ZM20.6889 8.08969H38.2422V23.288H36.2163V14.2458C36.2163 14.0282 36.1298 13.8196 35.976 13.6657C35.8221 13.5119 35.6135 13.4255 35.3959 13.4255C35.0893 13.4252 34.7953 13.3033 34.5785 13.0865C34.3617 12.8697 34.2398 12.5757 34.2395 12.2691C34.2395 12.0515 34.1531 11.8429 33.9993 11.689C33.8454 11.5352 33.6368 11.4487 33.4192 11.4487H25.5128C25.2953 11.4487 25.0866 11.5352 24.9328 11.689C24.7789 11.8429 24.6925 12.0515 24.6925 12.2691C24.6923 12.5757 24.5703 12.8697 24.3535 13.0865C24.1367 13.3033 23.8427 13.4252 23.5361 13.4255C23.3185 13.4255 23.1099 13.5119 22.956 13.6657C22.8022 13.8196 22.7158 14.0282 22.7158 14.2458V23.288H20.6894L20.6889 8.08969ZM34.5756 20.8087C33.1363 19.632 31.3249 19.0065 29.4662 19.0444C27.6076 19.0065 25.7962 19.632 24.3569 20.8087V14.9433C24.7934 14.8084 25.1904 14.5691 25.5135 14.246C25.8366 13.9229 26.0759 13.5259 26.2108 13.0894H32.7217C32.8566 13.5259 33.0959 13.9229 33.419 14.246C33.7421 14.5691 34.1391 14.8084 34.5756 14.9433V20.8087ZM29.4662 20.685C31.8147 20.685 33.8486 21.8133 34.4144 23.2875H24.5177C25.0834 21.8138 27.1173 20.6855 29.4658 20.6855L29.4662 20.685ZM12.5959 16.5258H19.0488V23.288H12.5959C11.6992 23.288 10.8392 22.9317 10.2051 22.2977C9.57107 21.6636 9.21484 20.8036 9.21484 19.9069C9.21484 19.0102 9.57107 18.1502 10.2051 17.5161C10.8392 16.882 11.6992 16.5258 12.5959 16.5258ZM49.7167 51.9164H9.21672V23.6086C10.1385 24.4567 11.3452 24.9277 12.5978 24.9281H49.7186V32.7764H43.8377C42.3536 32.7764 40.9304 33.3659 39.8811 34.4153C38.8317 35.4646 38.2422 36.8879 38.2422 38.3719C38.2422 39.8559 38.8317 41.2791 39.8811 42.3285C40.9304 43.3778 42.3536 43.9673 43.8377 43.9673H49.7167V51.9164Z" fill="#191A1F"/>
<path d="M43.9314 36.4336C43.5479 36.4336 43.173 36.5473 42.8541 36.7604C42.5352 36.9734 42.2866 37.2763 42.1398 37.6306C41.9931 37.9849 41.9546 38.3748 42.0294 38.751C42.1042 39.1271 42.2889 39.4727 42.56 39.7439C42.8312 40.0151 43.1767 40.1998 43.5528 40.2747C43.9289 40.3496 44.3188 40.3113 44.6732 40.1646C45.0275 40.0178 45.3304 39.7694 45.5436 39.4505C45.7567 39.1317 45.8705 38.7568 45.8706 38.3733C45.87 37.8591 45.6655 37.3662 45.302 37.0026C44.9385 36.639 44.4456 36.4343 43.9314 36.4336Z" fill="#191A1F"/>
</svg>
