<svg width="60" height="60" viewBox="0 0 60 60" fill="none" xmlns="http://www.w3.org/2000/svg">
<path d="M25.7227 15H34.2773C34.4949 15 34.7036 14.9136 34.8574 14.7597C35.0112 14.6059 35.0977 14.3972 35.0977 14.1797V10.4297C35.0977 10.2121 35.0112 10.0035 34.8574 9.84964C34.7036 9.6958 34.4949 9.60938 34.2773 9.60938H25.7227C25.5051 9.60938 25.2964 9.6958 25.1426 9.84964C24.9888 10.0035 24.9023 10.2121 24.9023 10.4297V14.1797C24.9023 14.3972 24.9888 14.6059 25.1426 14.7597C25.2964 14.9136 25.5051 15 25.7227 15ZM26.543 11.25H33.457V13.3594H26.543V11.25Z" fill="#191A1F"/>
<path d="M25.7227 40.8633H34.2773C34.4949 40.8633 34.7036 40.7769 34.8574 40.623C35.0112 40.4692 35.0977 40.2605 35.0977 40.043V36.293C35.0977 36.0754 35.0112 35.8668 34.8574 35.7129C34.7036 35.5591 34.4949 35.4727 34.2773 35.4727H25.7227C25.5051 35.4727 25.2964 35.5591 25.1426 35.7129C24.9888 35.8668 24.9023 36.0754 24.9023 36.293V40.043C24.9023 40.2605 24.9888 40.4692 25.1426 40.623C25.2964 40.7769 25.5051 40.8633 25.7227 40.8633ZM26.543 37.1133H33.457V39.2227H26.543V37.1133Z" fill="#191A1F"/>
<path d="M25.7227 27.9336H34.2773C34.4949 27.9336 34.7036 27.8472 34.8574 27.6933C35.0112 27.5395 35.0977 27.3308 35.0977 27.1133V23.3633C35.0977 23.1457 35.0112 22.9371 34.8574 22.7832C34.7036 22.6294 34.4949 22.543 34.2773 22.543H25.7227C25.5051 22.543 25.2964 22.6294 25.1426 22.7832C24.9888 22.9371 24.9023 23.1457 24.9023 23.3633V27.1133C24.9023 27.3308 24.9888 27.5395 25.1426 27.6933C25.2964 27.8472 25.5051 27.9336 25.7227 27.9336ZM26.543 24.1836H33.457V26.293H26.543V24.1836Z" fill="#191A1F"/>
<path d="M25.7227 18.2812H34.2773C34.4949 18.2812 34.7036 18.1948 34.8574 18.041C35.0112 17.8871 35.0977 17.6785 35.0977 17.4609C35.0977 17.2434 35.0112 17.0347 34.8574 16.8809C34.7036 16.727 34.4949 16.6406 34.2773 16.6406H25.7227C25.5051 16.6406 25.2964 16.727 25.1426 16.8809C24.9888 17.0347 24.9023 17.2434 24.9023 17.4609C24.9023 17.6785 24.9888 17.8871 25.1426 18.041C25.2964 18.1948 25.5051 18.2812 25.7227 18.2812Z" fill="#191A1F"/>
<path d="M25.7227 30.8203H34.2773C34.4949 30.8203 34.7036 30.7339 34.8574 30.58C35.0112 30.4262 35.0977 30.2176 35.0977 30C35.0977 29.7824 35.0112 29.5738 34.8574 29.42C34.7036 29.2661 34.4949 29.1797 34.2773 29.1797H25.7227C25.5051 29.1797 25.2964 29.2661 25.1426 29.42C24.9888 29.5738 24.9023 29.7824 24.9023 30C24.9023 30.2176 24.9888 30.4262 25.1426 30.58C25.2964 30.7339 25.5051 30.8203 25.7227 30.8203Z" fill="#191A1F"/>
<path d="M25.7227 43.3594H34.2773C34.4949 43.3594 34.7036 43.2729 34.8574 43.1191C35.0112 42.9653 35.0977 42.7566 35.0977 42.5391C35.0977 42.3215 35.0112 42.1129 34.8574 41.959C34.7036 41.8052 34.4949 41.7188 34.2773 41.7188H25.7227C25.5051 41.7188 25.2964 41.8052 25.1426 41.959C24.9888 42.1129 24.9023 42.3215 24.9023 42.5391C24.9023 42.7566 24.9888 42.9653 25.1426 43.1191C25.2964 43.2729 25.5051 43.3594 25.7227 43.3594Z" fill="#191A1F"/>
<path d="M52.7344 51.9141H48.9258V44.1455H52.7344C52.8804 44.1455 53.0238 44.1066 53.1497 44.0327C53.2756 43.9588 53.3795 43.8527 53.4507 43.7252C53.5219 43.5977 53.5577 43.4535 53.5544 43.3075C53.5512 43.1615 53.5091 43.0191 53.4323 42.8948L49.0964 35.8636C49.0501 35.791 48.9925 35.7263 48.9258 35.6719V31.2131H52.7344C52.8804 31.2132 53.0238 31.1743 53.1497 31.1004C53.2756 31.0265 53.3795 30.9203 53.4507 30.7928C53.5219 30.6653 53.5577 30.5211 53.5544 30.3752C53.5512 30.2292 53.5091 30.0867 53.4323 29.9625L49.0964 22.9312C49.0501 22.8587 48.9925 22.794 48.9258 22.7395V18.2812H52.7344C52.8804 18.2813 53.0238 18.2424 53.1497 18.1685C53.2756 18.0946 53.3795 17.9884 53.4507 17.8609C53.5219 17.7334 53.5577 17.5893 53.5544 17.4433C53.5512 17.2973 53.5091 17.1549 53.4323 17.0306L49.0964 9.99938C49.0231 9.88017 48.9204 9.78174 48.7982 9.71346C48.676 9.64519 48.5384 9.60936 48.3984 9.60938H39.1017V7.26562C39.1017 7.04806 39.0153 6.83941 38.8615 6.68558C38.7076 6.53174 38.499 6.44531 38.2814 6.44531H21.7186C21.501 6.44531 21.2924 6.53174 21.1385 6.68558C20.9847 6.83941 20.8983 7.04806 20.8983 7.26562V9.60938H11.6016C11.4616 9.60936 11.324 9.64519 11.2018 9.71346C11.0796 9.78174 10.9769 9.88017 10.9036 9.99938L6.56766 17.0306C6.49094 17.1549 6.44879 17.2973 6.44556 17.4433C6.44233 17.5893 6.47815 17.7334 6.5493 17.8609C6.62046 17.9884 6.72437 18.0946 6.8503 18.1685C6.97624 18.2424 7.11962 18.2813 7.26562 18.2812H11.0742V22.7395C11.0075 22.794 10.9499 22.8587 10.9036 22.9312L6.56766 29.9625C6.49094 30.0867 6.44879 30.2292 6.44556 30.3752C6.44233 30.5211 6.47815 30.6653 6.5493 30.7928C6.62046 30.9203 6.72437 31.0265 6.8503 31.1004C6.97624 31.1743 7.11962 31.2132 7.26562 31.2131H11.0742V35.6719C11.0075 35.7263 10.9499 35.791 10.9036 35.8636L6.56766 42.8948C6.49094 43.0191 6.44879 43.1615 6.44556 43.3075C6.44233 43.4535 6.47815 43.5977 6.5493 43.7252C6.62046 43.8527 6.72437 43.9588 6.8503 44.0327C6.97624 44.1066 7.11962 44.1455 7.26562 44.1455H11.0742V51.9141H7.26562C7.04806 51.9141 6.83941 52.0005 6.68558 52.1543C6.53174 52.3082 6.44531 52.5168 6.44531 52.7344C6.44531 52.9519 6.53174 53.1606 6.68558 53.3144C6.83941 53.4683 7.04806 53.5547 7.26562 53.5547H52.7344C52.9519 53.5547 53.1606 53.4683 53.3144 53.3144C53.4683 53.1606 53.5547 52.9519 53.5547 52.7344C53.5547 52.5168 53.4683 52.3082 53.3144 52.1543C53.1606 52.0005 52.9519 51.9141 52.7344 51.9141ZM47.2852 51.9141H42.8517V49.6116C42.8517 49.394 42.7653 49.1854 42.6115 49.0315C42.4576 48.8777 42.249 48.7912 42.0314 48.7912H40.6186V46.4892C40.6186 46.2717 40.5322 46.063 40.3783 45.9092C40.2245 45.7553 40.0158 45.6689 39.7983 45.6689H39.1017V44.1455H47.2852V51.9141ZM21.022 47.3095H38.978V48.7917H21.022V47.3095ZM41.2111 50.4323V51.9145H18.7889V50.4323H41.2111ZM51.2648 42.5048H39.1017V37.1142H47.9405L51.2648 42.5048ZM47.2852 35.4736H39.1017V31.2131H47.2852V35.4736ZM51.2648 29.573H39.1017V24.1823H47.9405L51.2648 29.573ZM47.2852 22.5417H39.1017V18.2812H47.2852V22.5417ZM47.9405 11.25L51.2648 16.6406H39.1017V11.25H47.9405ZM22.5389 8.08594H37.4611V45.6689H22.5389V8.08594ZM12.0595 11.25H20.8983V16.6406H8.73516L12.0595 11.25ZM20.8983 18.2812V22.5413H12.7148V18.2812H20.8983ZM12.0595 24.1819H20.8983V29.5725H8.73516L12.0595 24.1819ZM20.8983 31.2131V35.4731H12.7148V31.2131H20.8983ZM12.0595 37.1142H20.8983V42.5048H8.73516L12.0595 37.1142ZM12.7158 44.1455H20.8983V45.6689H20.2031C19.9856 45.6689 19.7769 45.7553 19.6231 45.9092C19.4692 46.063 19.3828 46.2717 19.3828 46.4892V48.7917H17.9686C17.751 48.7917 17.5424 48.8781 17.3885 49.032C17.2347 49.1858 17.1483 49.3945 17.1483 49.612V51.9145H12.7148L12.7158 44.1455Z" fill="#191A1F"/>
</svg>
