<svg width="24" height="24" viewBox="0 0 24 24" fill="none" xmlns="http://www.w3.org/2000/svg">
<path d="M3.7842 0.510147L1.69748 2.59687C-0.0106131 4.30496 -0.479994 6.89344 0.519593 9.09252C3.4185 15.4701 8.52987 20.5815 14.9075 23.4804C17.1066 24.48 19.695 24.0106 21.4031 22.3025L23.4899 20.2158C24.1701 19.5356 24.1701 18.4328 23.4899 17.7526L20.6827 14.9455C20.1526 14.4154 19.3428 14.2839 18.6722 14.6192L17.1143 15.3981C15.7732 16.0687 14.1535 15.8058 13.0933 14.7456L9.25439 10.9067C8.19415 9.84651 7.93131 8.22678 8.60186 6.88567L9.3808 5.3278C9.71607 4.65725 9.58465 3.84739 9.05453 3.31727L6.24741 0.510147C5.56721 -0.170049 4.4644 -0.170049 3.7842 0.510147Z" fill="#ED6325"/>
</svg>
