<svg width="46" height="46" viewBox="0 0 46 46" fill="none" xmlns="http://www.w3.org/2000/svg">
<g clip-path="url(#clip0_251_523)">
<path d="M11.7069 0.61928C12.0888 0.882579 12.4334 1.17311 12.7707 1.49034C12.8553 1.56971 12.8553 1.56971 12.9417 1.65068C13.8733 2.53165 14.7785 3.44042 15.6858 4.3463C15.9593 4.6193 16.2336 4.89146 16.5081 5.16343C16.7233 5.37696 16.9379 5.59111 17.1524 5.80542C17.2531 5.90592 17.3541 6.0062 17.4554 6.10623C17.9901 6.63507 18.4961 7.17511 18.9635 7.76502C19.004 7.81599 19.0446 7.86697 19.0864 7.91949C19.8258 8.87598 20.1103 9.99352 19.9838 11.1871C19.8096 12.2599 19.4061 13.0333 18.6867 13.8375C18.6208 13.9132 18.5549 13.9888 18.487 14.0667C17.9262 14.695 17.3325 15.2907 16.7382 15.8871C16.6581 15.9676 16.5781 16.048 16.4956 16.1309C16.0427 16.5828 15.5815 17.0182 15.0929 17.4313C15.8717 19.207 16.8997 20.7993 18.1476 22.2829C18.1865 22.3292 18.2253 22.3756 18.2654 22.4233C19.2152 23.5536 20.2134 24.626 21.2528 25.6745C21.3303 25.7531 21.4078 25.8317 21.4876 25.9128C22.0232 26.4491 22.5872 26.9309 23.1789 27.4039C23.291 27.4981 23.4027 27.5927 23.514 27.6879C24.7878 28.7641 26.1819 29.7149 27.6486 30.5092C27.7101 30.543 27.7716 30.5767 27.8349 30.6116C28.1399 30.7751 28.1399 30.7751 28.4768 30.7999C28.7058 30.7099 28.826 30.592 28.9978 30.416C29.063 30.3499 29.1281 30.2839 29.1952 30.2159C29.2998 30.108 29.2998 30.108 29.4065 29.9978C29.4794 29.9239 29.5524 29.8499 29.6275 29.7737C29.9393 29.4575 30.2496 29.1397 30.5599 28.822C30.7869 28.5901 31.0148 28.359 31.2427 28.128C31.3111 28.0573 31.3796 27.9866 31.4501 27.9138C32.0818 27.2737 32.7857 26.6581 33.6344 26.3314C33.7204 26.2973 33.8063 26.2631 33.8948 26.2279C34.973 25.868 36.162 25.9748 37.1945 26.4157C38.2119 26.9622 38.9849 27.7942 39.7905 28.6046C39.9344 28.7483 40.0784 28.8919 40.2225 29.0355C40.5227 29.3353 40.8224 29.6356 41.1215 29.9365C41.5031 30.3201 41.8863 30.7021 42.27 31.0837C42.5672 31.3795 42.8635 31.6763 43.1596 31.9733C43.3004 32.1144 43.4416 32.2553 43.583 32.3959C44.9893 33.7955 44.9893 33.7955 45.4601 34.6813C45.4976 34.749 45.5351 34.8167 45.5737 34.8864C46.1306 35.9313 46.0673 37.1761 45.7384 38.2768C45.2164 39.6941 44.0257 40.731 42.9726 41.7621C42.7734 41.9581 42.5744 42.1543 42.3756 42.3508C42.2531 42.4718 42.1304 42.5926 42.0072 42.7129C41.6594 43.0554 41.3316 43.4088 41.0146 43.7801C39.9172 45.0267 38.2073 45.8358 36.5656 46.0016C34.2202 46.1147 32.0634 45.7922 29.8273 45.1032C29.7552 45.0811 29.6831 45.059 29.6088 45.0363C25.9932 43.9064 22.4969 41.9611 19.4054 39.8024C19.3545 39.7669 19.3036 39.7315 19.2512 39.6949C18.8802 39.4355 18.513 39.1711 18.1476 38.9039C18.0896 38.8615 18.0315 38.8191 17.9717 38.7755C17.2267 38.2292 16.5049 37.6651 15.8054 37.0618C15.5797 36.8695 15.3503 36.6869 15.1154 36.5062C14.244 35.8172 13.4512 35.0176 12.6671 34.2321C12.518 34.0848 12.3687 33.9377 12.2193 33.7906C12.0906 33.6631 11.9619 33.5356 11.8332 33.408C11.7461 33.3218 11.6588 33.2357 11.5714 33.1499C11.0313 32.6191 10.5268 32.0732 10.0538 31.481C9.85983 31.2396 9.65655 31.015 9.444 30.7899C8.97854 30.2823 8.55331 29.751 8.1353 29.2043C8.03828 29.0774 7.94092 28.9507 7.84331 28.8243C6.90714 27.6101 6.04355 26.3547 5.21012 25.068C5.17253 25.0101 5.13495 24.9521 5.09623 24.8924C4.88634 24.5664 4.68675 24.2349 4.49137 23.9C4.45012 23.8299 4.40888 23.7598 4.36638 23.6876C1.85965 19.4076 -1.04397 13.4672 0.288188 8.35424C0.667147 7.00116 1.32709 5.97746 2.27265 4.95599C2.34165 4.88142 2.34165 4.88142 2.41204 4.80534C2.97065 4.20559 3.54594 3.6224 4.12462 3.04208C4.3121 2.85372 4.49859 2.66443 4.68509 2.47511C6.35873 0.787973 6.35873 0.787973 7.45621 0.316057C7.55071 0.274364 7.64522 0.232671 7.74259 0.189714C9.02415 -0.308673 10.5484 -0.0497799 11.7069 0.61928ZM5.64334 5.02726C5.41809 5.25164 5.1919 5.47503 4.96568 5.69843C4.82027 5.84326 4.67491 5.98814 4.52962 6.13309C4.46297 6.19863 4.39632 6.26417 4.32765 6.33169C3.10474 7.55979 2.44701 8.93239 2.42329 10.6825C2.4487 13.5811 3.48588 16.3508 4.67105 18.9586C4.70992 19.045 4.74879 19.1313 4.78884 19.2203C5.70492 21.2406 6.81247 23.1607 8.08511 24.9782C8.12044 25.0288 8.15576 25.0794 8.19216 25.1316C9.03874 26.3423 9.92005 27.5303 10.8703 28.6618C10.9086 28.7077 10.9469 28.7536 10.9863 28.801C11.4892 29.404 12.0014 29.9954 12.5338 30.5727C12.7068 30.7628 12.8749 30.9551 13.0423 31.15C13.4348 31.5998 13.8558 32.0198 14.2787 32.4408C14.3556 32.518 14.4324 32.5952 14.5116 32.6747C14.9106 33.0732 15.3153 33.4588 15.7432 33.8262C15.9617 34.0144 16.1727 34.2104 16.3844 34.4061C16.8377 34.8186 17.3049 35.2033 17.7882 35.5797C17.909 35.6751 18.0297 35.7706 18.1504 35.8661C19.0569 36.5805 19.9784 37.2666 20.9328 37.9157C20.9913 37.9555 21.0499 37.9954 21.1103 38.0365C25.1447 40.7604 31.1476 44.3744 36.2592 43.6179C37.309 43.4082 38.0849 43.1015 38.9015 42.4078C39.0405 42.2994 39.0405 42.2994 39.1823 42.1889C39.3754 42.0168 39.5238 41.8646 39.6866 41.6687C40.0082 41.2976 40.3521 40.9531 40.7016 40.6085C40.7595 40.5513 40.8175 40.494 40.8772 40.435C41.1201 40.1954 41.3632 39.9561 41.6071 39.7176C42.9583 38.487 42.9583 38.487 43.5229 36.8207C43.5264 36.7434 43.53 36.6662 43.5337 36.5866C43.4002 35.8201 42.9415 35.2408 42.3995 34.7099C42.3063 34.616 42.3063 34.616 42.2112 34.5201C42.0077 34.3156 41.8027 34.1127 41.5975 33.9099C41.4546 33.7671 41.3117 33.6242 41.1689 33.4812C40.8704 33.1829 40.5711 32.8853 40.2712 32.5883C39.8877 32.2082 39.5057 31.8267 39.1242 31.4445C38.8297 31.1497 38.5345 30.8556 38.2391 30.5617C38.098 30.4212 37.9571 30.2806 37.8163 30.1398C37.6194 29.9431 37.4217 29.7472 37.2237 29.5516C37.1661 29.4939 37.1086 29.4361 37.0494 29.3765C36.5188 28.8559 36.0206 28.5213 35.2618 28.4729C34.2528 28.5141 33.5627 29.306 32.9048 29.9785C32.8205 30.0638 32.7362 30.1491 32.6518 30.2343C32.2955 30.5941 31.9404 30.9551 31.5855 31.3163C31.3676 31.5381 31.149 31.7592 30.9301 31.9799C30.8074 32.104 30.6855 32.2289 30.5636 32.3537C30.162 32.7585 29.8024 33.0842 29.2882 33.3336C29.2289 33.3633 29.1696 33.3929 29.1086 33.4235C28.1883 33.5779 27.5572 33.2427 26.7823 32.8088C26.5953 32.7061 26.4063 32.6097 26.2153 32.5149C25.257 32.0348 24.3981 31.4555 23.5382 30.818C23.438 30.7446 23.3377 30.6713 23.2375 30.598C22.633 30.151 22.0478 29.6838 21.4718 29.2008C21.4262 29.1635 21.3807 29.1261 21.3337 29.0876C20.4947 28.3993 19.7228 27.6484 18.9562 26.8817C18.9075 26.8331 18.8587 26.7844 18.8085 26.7343C18.2693 26.195 17.7433 25.6495 17.2492 25.068C17.1661 24.9738 17.0828 24.8797 16.9993 24.7858C15.4639 23.0389 14.0988 21.1422 13.1058 19.034C12.9902 18.7931 12.8669 18.5562 12.7435 18.3193C12.5001 17.7797 12.4596 17.13 12.6598 16.5729C12.9017 16.1288 13.2104 15.8037 13.587 15.4698C14.2244 14.8963 14.834 14.296 15.4411 13.6906C15.6277 13.5049 15.8152 13.3202 16.0028 13.1355C16.1234 13.0154 16.2439 12.8954 16.3644 12.7752C16.4196 12.7211 16.4749 12.667 16.5318 12.6112C17.0826 12.0576 17.5226 11.4855 17.5524 10.6818C17.5373 9.85786 17.1309 9.39415 16.5856 8.80993C16.5383 8.75904 16.491 8.70814 16.4423 8.65571C15.9118 8.08763 15.3657 7.53531 14.8171 6.98485C14.7637 6.9312 14.7103 6.87755 14.6553 6.82227C14.3737 6.53935 14.0919 6.25669 13.8098 5.97424C13.5213 5.68519 13.2335 5.39532 12.946 5.10525C12.7219 4.87941 12.4971 4.65418 12.2722 4.42912C12.1659 4.32254 12.0598 4.21574 11.9539 4.1087C10.8104 2.88569 10.8104 2.88569 9.28116 2.39931C7.76478 2.42115 6.63929 4.03366 5.64334 5.02726Z" fill="#191A1F"/>
</g>
<defs>
<clipPath id="clip0_251_523">
<rect width="46" height="46" fill="white"/>
</clipPath>
</defs>
</svg>
