<svg width="46" height="46" viewBox="0 0 46 46" fill="none" xmlns="http://www.w3.org/2000/svg">
<g clip-path="url(#clip0_251_540)">
<path d="M3.80548 6.81415C3.87259 6.81391 3.9397 6.81367 4.00885 6.81343C4.23499 6.81274 4.46113 6.81269 4.68728 6.81263C4.85056 6.81227 5.01383 6.81187 5.17711 6.81144C5.62681 6.81036 6.07651 6.80986 6.52621 6.80945C7.01085 6.80891 7.49549 6.80787 7.98013 6.8069C9.15113 6.8047 10.3221 6.80339 11.4931 6.80223C11.8239 6.80189 12.1546 6.80154 12.4853 6.80117C14.539 6.7989 16.5927 6.79692 18.6463 6.7958C19.1221 6.79554 19.5979 6.79528 20.0736 6.795C20.1919 6.79494 20.3101 6.79487 20.432 6.7948C22.3472 6.79366 24.2625 6.79068 26.1777 6.78694C28.144 6.78312 30.1102 6.78101 32.0764 6.78054C33.1805 6.78023 34.2845 6.77918 35.3885 6.77622C36.3288 6.7737 37.2691 6.77271 38.2094 6.77372C38.689 6.77418 39.1686 6.77393 39.6482 6.7717C40.0878 6.76968 40.5273 6.76975 40.9669 6.77145C41.1254 6.7717 41.284 6.7712 41.4425 6.76985C42.8601 6.75851 43.927 7.04841 44.982 8.04672C45.579 8.67905 46.0098 9.54467 46.0121 10.4189C46.0126 10.5096 46.013 10.6004 46.0135 10.6939C46.0136 10.8432 46.0136 10.8432 46.0136 10.9955C46.014 11.1014 46.0144 11.2072 46.0148 11.3163C46.0158 11.6103 46.0164 11.9043 46.0168 12.1983C46.0174 12.5154 46.0184 12.8325 46.0194 13.1495C46.0216 13.9155 46.0229 14.6814 46.024 15.4473C46.0244 15.6637 46.0247 15.8802 46.0251 16.0966C46.0274 17.4415 46.0293 18.7864 46.0305 20.1313C46.0307 20.4428 46.031 20.7542 46.0313 21.0657C46.0313 21.1431 46.0314 21.2205 46.0315 21.3003C46.0326 22.5532 46.0356 23.8062 46.0393 25.0591C46.0431 26.3463 46.0453 27.6336 46.0457 28.9208C46.046 29.6432 46.0471 30.3656 46.05 31.088C46.0526 31.7034 46.0536 32.3188 46.0526 32.9343C46.0521 33.248 46.0523 33.5616 46.0546 33.8753C46.0566 34.2164 46.0559 34.5574 46.0544 34.8985C46.0557 34.9962 46.0569 35.094 46.0582 35.1947C46.0461 36.3772 45.5799 37.3066 44.7795 38.1524C44.0606 38.8312 43.1686 39.1842 42.1941 39.1825C42.127 39.1828 42.0599 39.183 41.9908 39.1832C41.7646 39.1839 41.5385 39.184 41.3123 39.184C41.1491 39.1844 40.9858 39.1848 40.8225 39.1852C40.3728 39.1863 39.9231 39.1868 39.4734 39.1872C38.9888 39.1878 38.5041 39.1888 38.0195 39.1898C36.8485 39.192 35.6775 39.1933 34.5065 39.1944C34.1758 39.1948 33.845 39.1951 33.5143 39.1955C31.4606 39.1978 29.407 39.1997 27.3533 39.2009C26.8775 39.2011 26.4018 39.2014 25.926 39.2017C25.7486 39.2018 25.7486 39.2018 25.5676 39.2019C23.6524 39.203 21.7371 39.206 19.8219 39.2097C17.8557 39.2135 15.8894 39.2157 13.9232 39.2161C12.8192 39.2164 11.7152 39.2175 10.6111 39.2205C9.67083 39.223 8.73052 39.224 7.7902 39.2229C7.31058 39.2225 6.831 39.2227 6.35138 39.225C5.91181 39.227 5.47229 39.2269 5.03272 39.2252C4.87419 39.225 4.71565 39.2255 4.55712 39.2268C3.13952 39.2382 2.07257 38.9483 1.01757 37.9499C0.420623 37.3176 -0.0101636 36.452 -0.0124991 35.5778C-0.012955 35.4871 -0.0134109 35.3963 -0.0138806 35.3028C-0.0139253 35.2033 -0.0139702 35.1037 -0.0140163 35.0012C-0.01441 34.8953 -0.0148037 34.7894 -0.0152094 34.6803C-0.0162028 34.3863 -0.0167916 34.0923 -0.0172023 33.7983C-0.017738 33.4813 -0.0187809 33.1642 -0.019744 32.8471C-0.0219462 32.0812 -0.0232613 31.3153 -0.0244212 30.5494C-0.0247548 30.3329 -0.0251118 30.1165 -0.0254771 29.9C-0.0277449 28.5551 -0.0297255 27.2102 -0.0308432 25.8653C-0.0311064 25.5539 -0.0313726 25.2424 -0.0316434 24.931C-0.0317105 24.8536 -0.0317773 24.7761 -0.0318463 24.6964C-0.0329823 23.4434 -0.0359662 22.1905 -0.0397116 20.9376C-0.0435279 19.6503 -0.0456407 18.3631 -0.0461096 17.0758C-0.0464158 16.3535 -0.0474653 15.6311 -0.0504314 14.9087C-0.0529543 14.2933 -0.0539322 13.6778 -0.0529295 13.0624C-0.0524653 12.7487 -0.0527108 12.435 -0.0549478 12.1214C-0.0569924 11.7803 -0.0562383 11.4393 -0.0548145 11.0982C-0.0560617 11.0004 -0.0573087 10.9027 -0.0585938 10.802C-0.0464985 9.61947 0.419678 8.69007 1.22007 7.84422C1.93905 7.16547 2.83099 6.81247 3.80548 6.81415ZM4.76153 9.52177C5.1849 10.0197 5.1849 10.0197 5.62945 10.4913C5.68909 10.5513 5.74872 10.6113 5.81016 10.6731C5.90593 10.7687 5.90593 10.7687 6.00363 10.8663C6.07274 10.9357 6.14186 11.0051 6.21307 11.0766C6.44356 11.3078 6.67436 11.5388 6.90517 11.7697C7.07094 11.9359 7.2367 12.1021 7.40244 12.2684C7.85177 12.7189 8.30143 13.1691 8.75116 13.6192C9.03208 13.9004 9.31292 14.1816 9.59376 14.4629C10.3718 15.242 11.1499 16.0211 11.9284 16.7998C11.9781 16.8496 12.0278 16.8993 12.0791 16.9505C12.1289 17.0004 12.1787 17.0503 12.2301 17.1016C12.3311 17.2027 12.4321 17.3037 12.533 17.4047C12.5831 17.4548 12.6332 17.5049 12.6848 17.5566C13.4978 18.3699 14.3101 19.1838 15.1222 19.9979C15.9565 20.8344 16.7914 21.6704 17.6267 22.5058C18.0955 22.9747 18.5641 23.4438 19.0321 23.9135C19.4718 24.3547 19.9122 24.7952 20.3531 25.2353C20.515 25.3971 20.6766 25.5591 20.838 25.7214C21.0579 25.9425 21.2786 26.1627 21.4996 26.3827C21.5636 26.4475 21.6277 26.5122 21.6937 26.579C22.1655 27.0461 22.4831 27.2354 23.1651 27.2536C23.7959 27.1475 24.1925 26.6949 24.6214 26.2614C24.6926 26.1904 24.7639 26.1194 24.8373 26.0463C25.0759 25.8083 25.3135 25.5694 25.5512 25.3305C25.722 25.1598 25.893 24.989 26.0639 24.8184C26.4799 24.4029 26.8951 23.9868 27.3101 23.5704C27.7931 23.0858 28.2769 22.6019 28.7606 22.1181C29.6234 21.2551 30.4855 20.3916 31.3473 19.5277C32.1842 18.6887 33.0215 17.8501 33.8593 17.012C33.911 16.9603 33.9626 16.9086 34.0158 16.8554C34.1199 16.7513 34.2239 16.6472 34.328 16.5431C34.3793 16.4918 34.4306 16.4404 34.4835 16.3875C34.5347 16.3363 34.5859 16.2851 34.6386 16.2324C35.4363 15.4343 36.2337 14.6359 37.031 13.8375C37.3204 13.5477 37.6098 13.258 37.8992 12.9684C38.3579 12.5092 38.8165 12.0499 39.2748 11.5904C39.4843 11.3802 39.6939 11.1702 39.9037 10.9604C40.1305 10.7334 40.357 10.5062 40.5834 10.2789C40.6505 10.2119 40.7176 10.1448 40.7868 10.0758C40.8769 9.98517 40.8769 9.98517 40.9688 9.89272C41.0212 9.84023 41.0736 9.78773 41.1275 9.73365C41.2481 9.62796 41.2481 9.62796 41.2381 9.52177C29.2008 9.52177 17.1636 9.52177 4.76153 9.52177ZM2.69512 11.4983C2.69512 19.0883 2.69512 26.6783 2.69512 34.4983C3.08579 34.1635 3.45151 33.843 3.81237 33.4817C3.8573 33.4369 3.90223 33.392 3.94852 33.3458C4.09701 33.1975 4.24518 33.0488 4.39336 32.9001C4.50053 32.7929 4.60773 32.6858 4.71495 32.5786C5.00449 32.2891 5.29377 31.9993 5.58299 31.7094C5.88583 31.406 6.18893 31.1029 6.492 30.7997C7.06522 30.2262 7.63821 29.6525 8.21112 29.0787C8.86364 28.4251 9.51642 27.7719 10.1692 27.1186C11.5115 25.7754 12.8534 24.4319 14.1951 23.0882C14.0525 22.7416 13.8314 22.5224 13.5681 22.2592C13.4992 22.19 13.4992 22.19 13.4288 22.1193C13.2748 21.9648 13.1202 21.811 12.9655 21.6571C12.855 21.5464 12.7445 21.4357 12.634 21.325C12.3339 21.0245 12.0332 20.7245 11.7324 20.4246C11.4181 20.1111 11.1043 19.7971 10.7904 19.4832C10.2635 18.9563 9.73617 18.4298 9.20864 17.9035C8.59786 17.2942 7.98755 16.6843 7.37751 16.0742C6.79143 15.4881 6.2051 14.9022 5.61862 14.3165C5.36861 14.0668 5.11868 13.817 4.86881 13.5672C4.57501 13.2735 4.28099 12.98 3.98678 12.6867C3.87851 12.5787 3.77033 12.4706 3.66222 12.3625C3.51532 12.2155 3.36816 12.0689 3.22091 11.9223C3.13841 11.8399 3.05591 11.7576 2.97091 11.6727C2.81653 11.4881 2.81653 11.4881 2.69512 11.4983ZM42.9044 11.797C42.8382 11.8636 42.8382 11.8636 42.7707 11.9315C42.724 11.9781 42.6773 12.0247 42.6292 12.0727C42.4716 12.2302 42.3143 12.388 42.157 12.5458C42.0446 12.6582 41.9322 12.7706 41.8198 12.883C41.5135 13.1893 41.2075 13.4958 40.9015 13.8024C40.5821 14.1223 40.2625 14.442 39.9428 14.7618C39.3371 15.3677 38.7317 15.9739 38.1263 16.5802C37.4373 17.2702 36.748 17.96 36.0587 18.6497C34.6404 20.069 33.2223 21.4887 31.8045 22.9085C31.9472 23.2551 32.1682 23.4743 32.4315 23.7374C32.5005 23.8067 32.5005 23.8067 32.5708 23.8773C32.7248 24.0318 32.8794 24.1857 33.0341 24.3396C33.1446 24.4502 33.2552 24.5609 33.3657 24.6717C33.6658 24.9722 33.9664 25.2722 34.2672 25.5721C34.5815 25.8856 34.8953 26.1995 35.2092 26.5135C35.7361 27.0403 36.2634 27.5668 36.791 28.0931C37.4018 28.7025 38.0121 29.3124 38.6221 29.9225C39.2082 30.5086 39.7945 31.0945 40.381 31.6802C40.631 31.9299 40.8809 32.1797 41.1308 32.4295C41.4246 32.7232 41.7186 33.0167 42.0128 33.31C42.1211 33.418 42.2293 33.526 42.3374 33.6342C42.4843 33.7811 42.6315 33.9278 42.7787 34.0744C42.8612 34.1568 42.9437 34.2391 43.0287 34.3239C43.1831 34.5086 43.1831 34.5086 43.3045 34.4983C43.3045 26.9083 43.3045 19.3183 43.3045 11.4983C43.1254 11.4983 43.0239 11.678 42.9044 11.797ZM15.8614 25.2731C15.7952 25.3396 15.7952 25.3396 15.7277 25.4075C15.681 25.454 15.6344 25.5005 15.5863 25.5485C15.4287 25.7057 15.2714 25.8633 15.1141 26.0209C15.0017 26.1332 14.8892 26.2454 14.7768 26.3577C14.4705 26.6636 14.1645 26.9697 13.8585 27.276C13.5391 27.5956 13.2195 27.9151 12.8999 28.2345C12.3631 28.7712 11.8265 29.308 11.29 29.8449C10.6687 30.4667 10.0471 31.0881 9.42531 31.7094C8.89257 32.2417 8.36 32.7742 7.82758 33.3069C7.50911 33.6255 7.19058 33.944 6.8719 34.2624C6.57238 34.5617 6.27307 34.8612 5.97394 35.1608C5.86377 35.2711 5.75352 35.3813 5.64319 35.4915C5.49328 35.6411 5.34365 35.7911 5.1941 35.9411C5.14976 35.9852 5.10543 36.0293 5.05975 36.0748C4.85121 36.2451 4.85121 36.2451 4.76153 36.4749C16.7988 36.4749 28.8361 36.4749 41.2381 36.4749C40.9032 36.0842 40.5827 35.7185 40.2215 35.3577C40.1542 35.2903 40.1542 35.2903 40.0856 35.2215C39.9372 35.073 39.7886 34.9248 39.6399 34.7767C39.5327 34.6695 39.4255 34.5623 39.3183 34.4551C39.0288 34.1655 38.739 33.8763 38.4492 33.587C38.1458 33.2842 37.8426 32.9811 37.5394 32.678C36.9659 32.1048 36.3922 31.5318 35.8184 30.9589C35.1649 30.3064 34.5116 29.6536 33.8584 29.0008C32.5152 27.6585 31.1717 26.3166 29.8279 24.9749C29.7284 25.0596 29.6289 25.1444 29.5294 25.2292C29.474 25.2764 29.4186 25.3236 29.3615 25.3723C29.1332 25.5714 28.9188 25.7824 28.7049 25.9969C28.6261 26.0754 28.5474 26.1539 28.4662 26.2348C28.2737 26.4322 28.092 26.6369 27.9117 26.8455C26.7407 28.1942 25.4731 29.6191 23.6287 29.9163C22.8372 29.9671 22.1286 29.922 21.3826 29.6468C21.3122 29.6224 21.2418 29.5981 21.1692 29.5731C20.3541 29.2325 19.7542 28.5503 19.1365 27.9397C19.0286 27.8342 18.9206 27.7287 18.8126 27.6232C18.3599 27.1778 17.9212 26.7278 17.5099 26.2436C17.2712 25.9764 17.0198 25.7228 16.7669 25.469C16.7187 25.4204 16.6704 25.3717 16.6207 25.3216C16.2424 24.9204 16.2424 24.9204 15.8614 25.2731Z" fill="#191A1F"/>
</g>
<defs>
<clipPath id="clip0_251_540">
<rect width="46" height="46" fill="white"/>
</clipPath>
</defs>
</svg>
