<svg width="40" height="40" viewBox="0 0 40 40" fill="none" xmlns="http://www.w3.org/2000/svg">
<path d="M34.4514 23.0312L29.2189 18.6509V12.13C29.2161 10.0877 28.4159 8.12719 26.9886 6.66638C25.5614 5.20557 23.62 4.35995 21.5783 4.30974C19.5367 4.25954 17.5561 5.00871 16.0588 6.39761C14.5614 7.7865 13.6658 9.70526 13.5626 11.745L5.64326 15.995C5.51546 16.0635 5.42014 16.1801 5.37827 16.319C5.33639 16.4578 5.3514 16.6076 5.41998 16.7354C5.48857 16.8632 5.60511 16.9586 5.74397 17.0004C5.88284 17.0423 6.03265 17.0273 6.16045 16.9587L7.13076 16.4375V25.7078C7.13076 25.8528 7.18838 25.9919 7.29094 26.0945C7.3935 26.197 7.5326 26.2547 7.67764 26.2547H11.903C12.048 26.2547 12.1871 26.197 12.2896 26.0945C12.3922 25.9919 12.4498 25.8528 12.4498 25.7078V21.6953H15.7458V25.7078C15.7458 25.8528 15.8034 25.9919 15.9059 26.0945C16.0085 26.197 16.1476 26.2547 16.2926 26.2547H20.518C20.663 26.2547 20.8021 26.197 20.9047 26.0945C21.0072 25.9919 21.0648 25.8528 21.0648 25.7078V16.4412L22.048 16.9621C22.1761 17.0301 22.326 17.0443 22.4647 17.0017C22.6034 16.9591 22.7194 16.8631 22.7873 16.735C22.8552 16.6068 22.8695 16.4569 22.8269 16.3182C22.7843 16.1796 22.6883 16.0635 22.5601 15.9956L14.6611 11.8106C14.7345 10.0467 15.4975 8.38219 16.7859 7.17528C18.0743 5.96838 19.7851 5.3156 21.55 5.35747C23.3149 5.39933 24.9928 6.13249 26.2225 7.39913C27.4522 8.66576 28.1355 10.3646 28.1251 12.13V18.6509L22.8901 23.0312C22.8288 23.0825 22.7794 23.1467 22.7456 23.2191C22.7117 23.2916 22.6942 23.3706 22.6942 23.4506V35.1562C22.6942 35.3013 22.7518 35.4404 22.8544 35.5429C22.9569 35.6455 23.096 35.7031 23.2411 35.7031H34.1005C34.2455 35.7031 34.3846 35.6455 34.4872 35.5429C34.5897 35.4404 34.6473 35.3013 34.6473 35.1562V23.4506C34.6473 23.3706 34.6298 23.2916 34.5959 23.2191C34.5621 23.1467 34.5127 23.0825 34.4514 23.0312ZM13.6301 15.2115C13.6784 15.2936 13.7474 15.3614 13.8303 15.4084C13.9131 15.4553 14.0068 15.4796 14.102 15.4788C14.1972 15.4781 14.2905 15.4523 14.3726 15.404C14.4546 15.3558 14.5225 15.2868 14.5695 15.204C14.6245 15.2909 14.6538 15.3915 14.6542 15.4943C14.6542 15.6408 14.596 15.7812 14.4925 15.8848C14.3889 15.9883 14.2485 16.0465 14.102 16.0465C13.9556 16.0465 13.8151 15.9883 13.7116 15.8848C13.608 15.7812 13.5498 15.6408 13.5498 15.4943C13.5502 15.3945 13.578 15.2967 13.6301 15.2115ZM19.9711 25.1609H16.8395V21.1484C16.8395 21.0034 16.7819 20.8643 16.6793 20.7617C16.5768 20.6591 16.4377 20.6015 16.2926 20.6015H11.903C11.7579 20.6015 11.6188 20.6591 11.5163 20.7617C11.4137 20.8643 11.3561 21.0034 11.3561 21.1484V25.1609H8.22451V15.85L13.5511 12.9918V13.9503C13.1848 14.0802 12.8763 14.3354 12.6802 14.6709C12.484 15.0063 12.4128 15.4003 12.4791 15.7832C12.5455 16.1661 12.7451 16.5132 13.0427 16.7631C13.3403 17.013 13.7167 17.1496 14.1053 17.1487C14.4939 17.1478 14.8696 17.0095 15.1661 16.7582C15.4625 16.507 15.6606 16.159 15.7252 15.7758C15.7898 15.3926 15.7167 14.9989 15.519 14.6644C15.3213 14.3298 15.0117 14.076 14.6448 13.9478V13.04L19.9711 15.8618V25.1609ZM28.2264 22.4003C28.2767 22.4713 28.3432 22.5292 28.4205 22.5692C28.4977 22.6091 28.5835 22.63 28.6705 22.63C28.7574 22.63 28.8432 22.6091 28.9204 22.5692C28.9977 22.5292 29.0643 22.4713 29.1145 22.4003C29.1753 22.4825 29.212 22.5799 29.2207 22.6818C29.2293 22.7836 29.2095 22.8859 29.1635 22.9772C29.1174 23.0684 29.047 23.1451 28.9599 23.1987C28.8729 23.2523 28.7727 23.2807 28.6705 23.2807C28.5682 23.2807 28.468 23.2523 28.381 23.1987C28.2939 23.1451 28.2235 23.0684 28.1774 22.9772C28.1314 22.8859 28.1116 22.7836 28.1202 22.6818C28.1289 22.5799 28.1656 22.4825 28.2264 22.4003ZM33.5533 34.6093H23.788V23.7059L28.1251 20.0771V21.1803C27.7588 21.3093 27.4499 21.5638 27.253 21.8987C27.0562 22.2335 26.9842 22.6272 27.0496 23.0101C27.1151 23.393 27.3139 23.7404 27.6108 23.9908C27.9077 24.2413 28.2836 24.3786 28.672 24.3786C29.0604 24.3786 29.4364 24.2413 29.7333 23.9908C30.0302 23.7404 30.2289 23.393 30.2944 23.0101C30.3599 22.6272 30.2878 22.2335 30.091 21.8987C29.8942 21.5638 29.5853 21.3093 29.2189 21.1803V20.0771L33.5548 23.7059L33.5533 34.6093Z" fill="#191A1F"/>
<path d="M26.6235 28.7908C26.8951 28.7905 27.1605 28.7097 27.3862 28.5586C27.6118 28.4075 27.7876 28.1929 27.8913 27.9419C27.995 27.6909 28.022 27.4148 27.9688 27.1485C27.9157 26.8822 27.7847 26.6376 27.5926 26.4457C27.4004 26.2537 27.1557 26.1231 26.8893 26.0702C26.623 26.0174 26.3469 26.0446 26.096 26.1486C25.8451 26.2526 25.6307 26.4287 25.4799 26.6545C25.329 26.8803 25.2485 27.1458 25.2485 27.4174C25.2489 27.7818 25.394 28.1311 25.6518 28.3886C25.9096 28.6462 26.2591 28.7908 26.6235 28.7908ZM26.6235 27.1377C26.6787 27.138 26.7326 27.1546 26.7783 27.1855C26.8241 27.2163 26.8597 27.26 26.8807 27.3111C26.9016 27.3621 26.907 27.4182 26.8962 27.4723C26.8854 27.5264 26.8588 27.5761 26.8197 27.6151C26.7807 27.6542 26.731 27.6808 26.6769 27.6916C26.6228 27.7025 26.5667 27.697 26.5157 27.6761C26.4646 27.6551 26.4209 27.6195 26.3901 27.5737C26.3592 27.528 26.3426 27.4741 26.3423 27.4189C26.3423 27.382 26.3496 27.3454 26.3637 27.3113C26.3778 27.2772 26.3985 27.2462 26.4247 27.2201C26.4508 27.194 26.4818 27.1732 26.5159 27.1591C26.55 27.145 26.5866 27.1377 26.6235 27.1377Z" fill="#191A1F"/>
<path d="M30.7187 30.5356C30.447 30.5356 30.1815 30.6162 29.9556 30.7671C29.7298 30.918 29.5537 31.1325 29.4498 31.3835C29.3458 31.6345 29.3186 31.9106 29.3716 32.177C29.4246 32.4434 29.5554 32.6882 29.7475 32.8803C29.9396 33.0723 30.1843 33.2031 30.4507 33.2561C30.7171 33.3091 30.9933 33.2819 31.2442 33.178C31.4952 33.074 31.7097 32.898 31.8606 32.6721C32.0115 32.4463 32.0921 32.1807 32.0921 31.9091C32.0917 31.545 31.9468 31.1959 31.6894 30.9384C31.4319 30.6809 31.0828 30.5361 30.7187 30.5356ZM30.7187 32.1885C30.6633 32.1885 30.6093 32.1721 30.5633 32.1413C30.5173 32.1106 30.4814 32.0669 30.4603 32.0158C30.4391 31.9647 30.4335 31.9085 30.4443 31.8542C30.4551 31.8 30.4818 31.7501 30.5209 31.711C30.56 31.6719 30.6098 31.6452 30.6641 31.6345C30.7183 31.6237 30.7746 31.6292 30.8257 31.6504C30.8768 31.6715 30.9205 31.7074 30.9512 31.7534C30.9819 31.7994 30.9983 31.8535 30.9983 31.9088C30.9977 31.9827 30.968 32.0533 30.9156 32.1055C30.8633 32.1576 30.7925 32.1871 30.7187 32.1875V32.1885Z" fill="#191A1F"/>
<path d="M25.1139 32.9063C25.2116 33.0135 25.3478 33.0775 25.4927 33.0843C25.6376 33.091 25.7792 33.0399 25.8864 32.9423L32.1911 27.1938C32.2452 27.1457 32.2893 27.0874 32.3207 27.0222C32.3521 26.9569 32.3702 26.8861 32.3741 26.8138C32.3779 26.7415 32.3673 26.6692 32.343 26.601C32.3186 26.5328 32.281 26.4701 32.2322 26.4166C32.1834 26.3631 32.1245 26.3198 32.0589 26.2892C31.9933 26.2586 31.9222 26.2414 31.8499 26.2385C31.7775 26.2356 31.7053 26.2471 31.6375 26.2723C31.5696 26.2975 31.5074 26.3359 31.4545 26.3854L25.1495 32.1329C25.0963 32.1813 25.0532 32.2397 25.0226 32.3048C24.992 32.3699 24.9746 32.4404 24.9713 32.5122C24.968 32.5841 24.9789 32.6558 25.0033 32.7235C25.0278 32.7911 25.0654 32.8532 25.1139 32.9063Z" fill="#191A1F"/>
</svg>
