<svg width="42" height="50" viewBox="0 0 42 50" fill="none" xmlns="http://www.w3.org/2000/svg">
<g clip-path="url(#clip0_66_187)">
<path d="M21 0L0 22.094V50H9.36437V40.5541L13.054 36.6722V50H15.892V36.6674L19.5816 40.5493V49.9952H22.4184V32.4493L26.108 28.5687V50H28.946V28.565L32.6356 32.4457V50H42V22.094L21 0ZM19.5816 36.3312L15.892 32.4505V19.3126L19.5816 15.432V36.3312ZM26.108 24.3458L22.4184 28.2276V15.432L26.108 19.3126V24.3458ZM35.4736 47.0142V31.2134L28.946 24.3458V18.0755L21 9.71557L13.054 18.0755V32.4505L6.52758 39.317V47.0142H2.83908V23.3312L21 4.2241L39.1609 23.3312V47.0142H35.4736Z" fill="#ED6325"/>
</g>
<defs>
<clipPath id="clip0_66_187">
<rect width="42" height="50" fill="white"/>
</clipPath>
</defs>
</svg>
